<svg xmlns="http://www.w3.org/2000/svg" enable-background="new 0 0 36 36" viewBox="0 0 36 36" id="ball">
  <g>
    <circle cx="18" cy="18" r="16" fill="#f45170"></circle>
    <path fill="#e93565" d="M4.8,27.1c0,0.1,0.1,0.2,0.2,0.3c0.4,0.5,0.8,1.1,1.3,1.5c0.6,0.7,1.3,1.3,2,1.8c0.5,0.4,1,0.7,1.5,1
				c0.2,0.1,0.4,0.3,0.7,0.4c2.3,1.2,4.8,1.9,7.6,1.9c8.8,0,16-7.2,16-16c0-2.7-0.7-5.3-1.9-7.6c-0.1-0.2-0.2-0.4-0.4-0.7
				c-0.3-0.5-0.6-1-1-1.5c-1.1-1.4-2.2-2.4-3.3-3.3c-0.1-0.1-0.2-0.1-0.3-0.2C28.7,7,30,10.4,30,14c0,8.8-7.2,16-16,16
				c-2.7,0-5.3-0.7-7.6-1.9c-0.2-0.1-0.5-0.3-0.7-0.4C5.4,27.5,5.1,27.3,4.8,27.1z"></path>
    <path fill="#df3260" d="M5.7,28.3C8.4,31.6,12.9,34,18,34c8.8,0,16-7.2,16-16c0-5-2.3-9.5-5.7-12.3c2.2,2.5,3.8,6.3,3.8,10.3
				c0,8.8-7.2,16-16,16C12.4,32.1,8.7,30.8,5.7,28.3z"></path>
    <path fill="#fff" d="M14.7 33.4c-.1-.1-.3-.3-.7-.8-.1-.1-.1-.2 0-.3.1-.1.2-.1.3 0 .4.4.6.6.7.7.1.1.1.2 0 .3C14.9 33.4 14.8 33.4 14.7 33.4zM12.9 31.1c-.2-.3-.4-.6-.5-.9-.1-.1 0-.2.1-.3.1-.1.2 0 .3.1.2.3.3.6.5.9.1.1 0 .2-.1.3C13.1 31.3 13 31.2 12.9 31.1zM11.6 28.6c-.1-.3-.2-.6-.3-1 0-.1 0-.2.1-.2s.2 0 .2.1c.1.3.2.6.3 1 0 .1 0 .2-.1.3C11.8 28.7 11.7 28.7 11.6 28.6zM10.9 25.8c0-.3-.1-.7-.1-1 0-.1.1-.2.2-.2.1 0 .2.1.2.2 0 .3 0 .7.1 1C11.4 26 11 26 10.9 25.8zM10.9 22.9c0-.3.1-.7.1-1 0-.1.1-.2.2-.2.1 0 .2.1.2.2-.1.3-.1.7-.1 1C11.2 23.2 10.8 23.1 10.9 22.9zM11.5 20.3c-.1 0-.2-.1-.1-.3.1-.3.2-.7.3-1 0-.1.2-.2.3-.1.1 0 .2.2.1.3-.1.3-.2.6-.3.9C11.8 20.3 11.7 20.3 11.5 20.3zM12.6 17.7c-.1-.1-.1-.2-.1-.3.2-.3.4-.6.5-.9.1-.1.2-.1.3-.1.1.1.1.2.1.3-.2.3-.4.6-.5.8C12.9 17.7 12.7 17.7 12.6 17.7zM14.3 15.4c-.1-.1-.1-.2 0-.3.3-.3.5-.5.7-.7.1-.1.2-.1.3 0 .1.1.1.2 0 .3-.2.2-.5.4-.7.7C14.5 15.4 14.4 15.4 14.3 15.4zM33 15c-.2-.2-.5-.5-.7-.7-.1-.1-.1-.2 0-.3.1-.1.2-.1.3 0 .3.2.5.5.8.7.1.1.1.2 0 .3C33.2 15 33.1 15 33 15zM16.4 13.5c-.1-.1 0-.2 0-.3.3-.2.6-.4.9-.6.1-.1.2 0 .3.1.1.1 0 .2-.1.3-.3.2-.6.3-.8.5C16.6 13.6 16.5 13.6 16.4 13.5zM30.8 13.2c-.3-.2-.6-.3-.9-.5-.1-.1-.1-.2-.1-.3.1-.1.2-.1.3-.1.3.2.6.3.9.5.1.1.1.2.1.3C31.1 13.2 30.9 13.3 30.8 13.2zM18.9 12.1c0-.1 0-.2.1-.3.3-.1.6-.2 1-.4.1 0 .2 0 .3.1 0 .1 0 .2-.1.3-.3.1-.6.2-.9.3C19 12.2 18.9 12.2 18.9 12.1zM28.3 12c-.3-.1-.6-.2-1-.3-.1 0-.2-.1-.1-.2 0-.1.1-.2.2-.1.3.1.7.2 1 .3.1 0 .2.2.1.3C28.5 12 28.4 12 28.3 12zM21.6 11.2c0-.1.1-.2.2-.2.3-.1.7-.1 1-.1.1 0 .2.1.2.2 0 .1-.1.2-.2.2-.3 0-.7.1-1 .1C21.7 11.4 21.6 11.4 21.6 11.2zM24.6 11.2c-.1 0-.2-.1-.2-.2 0-.1.1-.2.2-.2.1 0 .6 0 1 .1.1 0 .2.1.2.2 0 .1-.1.2-.2.2C25.4 11.3 25.1 11.3 24.6 11.2zM3 16c-.1 0-.2-.2-.1-.3.1-.3.3-.6.4-.9 0-.1.2-.1.3-.1.1 0 .1.2.1.3-.1.3-.3.6-.4.9C3.2 15.9 3.1 16 3 16zM4.1 13.4C4 13.4 4 13.2 4.1 13.1c.2-.3.3-.6.5-.9.1-.1.2-.1.3-.1.1.1.1.2.1.3-.2.3-.3.6-.5.9C4.4 13.4 4.2 13.5 4.1 13.4zM5.6 11c-.1-.1-.1-.2 0-.3.2-.3.4-.5.6-.8.1-.1.2-.1.3 0 .1.1.1.2 0 .3-.2.3-.4.5-.6.8C5.8 11.1 5.7 11.1 5.6 11zM7.4 8.9c-.1-.1-.1-.2 0-.3.2-.2.4-.4.6-.6l.1-.1c.1-.1.2-.1.3 0s.1.2 0 .3L8.2 8.2C8 8.4 7.8 8.6 7.6 8.8 7.6 8.9 7.4 8.9 7.4 8.9zM9.4 6.9c-.1-.1-.1-.2 0-.3C9.6 6.4 9.9 6.2 10.2 6c.1-.1.2-.1.3 0s.1.2 0 .3c-.3.2-.5.4-.8.6C9.6 7 9.4 7 9.4 6.9zM11.6 5.2c-.1-.1 0-.2.1-.3.3-.2.6-.4.9-.5.1-.1.2 0 .3.1.1.1 0 .2-.1.3-.3.2-.6.3-.8.5C11.8 5.3 11.7 5.3 11.6 5.2zM14 3.8c0-.1 0-.2.1-.3.3-.1.6-.3.9-.4.1 0 .2 0 .3.1 0 .1 0 .2-.1.3-.3.1-.6.3-.9.4C14.2 4 14.1 3.9 14 3.8zM16.6 2.7c0-.1 0-.2.1-.3.3-.1.6-.2 1-.3.1 0 .2 0 .2.1 0 .1 0 .2-.1.2-.3.1-.6.2-.9.3C16.7 2.9 16.6 2.8 16.6 2.7zM2 18.4v.2c.1.2.3.2.4 0 .1-.3.2-.6.3-.9 0-.1 0-.2-.1-.3-.1 0-.2 0-.3.1C2.2 17.7 2.1 18 2 18.4zM12.2 32.4c-.2-.3-.4-.6-.6-.8-.1-.1 0-.2.1-.3.1-.1.2 0 .3.1.2.3.4.6.5.8.1.1 0 .2 0 .3C12.4 32.5 12.2 32.5 12.2 32.4zM10.8 29.9c-.1-.3-.3-.6-.4-.9 0-.1 0-.2.1-.3.1 0 .2 0 .3.1.1.3.2.6.4.9 0 .1 0 .2-.1.3C10.9 30 10.8 30 10.8 29.9zM9.9 27.2c-.1-.3-.1-.7-.2-1 0-.1.1-.2.2-.2.1 0 .2.1.2.2 0 .3.1.6.2 1 0 .1 0 .2-.2.2C10 27.4 9.9 27.3 9.9 27.2zM9.5 24.4c0-.3 0-.7 0-1 0-.1.1-.2.2-.2.1 0 .2.1.2.2 0 .3 0 .7 0 1 0 .1-.1.2-.2.2 0 0 0 0 0 0C9.6 24.6 9.5 24.5 9.5 24.4zM9.9 21.8c-.1 0-.2-.1-.2-.2.1-.3.1-.7.2-1 0-.1.1-.2.2-.1.1 0 .2.1.1.2-.1.3-.1.6-.2 1C10.1 21.7 10 21.8 9.9 21.8zM10.6 19.1c-.1 0-.2-.2-.1-.3.1-.3.3-.6.4-.9 0-.1.2-.1.3-.1s.1.2.1.3c-.1.3-.3.6-.4.9C10.8 19.1 10.7 19.1 10.6 19.1zM11.8 16.6c-.1-.1-.1-.2-.1-.3.2-.3.4-.6.6-.8.1-.1.2-.1.3 0 .1.1.1.2 0 .3-.2.3-.4.5-.6.8C12 16.6 11.9 16.6 11.8 16.6zM13.5 14.3c-.1-.1-.1-.2 0-.3.2-.2.5-.5.7-.7.1-.1.2-.1.3 0 .1.1.1.2 0 .3-.3.2-.5.5-.7.7C13.7 14.4 13.6 14.4 13.5 14.3zM32.3 12.6c-.3-.2-.5-.4-.8-.6-.1-.1-.1-.2-.1-.3.1-.1.2-.1.3-.1.3.2.6.4.8.6.1.1.1.2 0 .3C32.5 12.7 32.4 12.7 32.3 12.6zM15.6 12.5c-.1-.1 0-.2 0-.3.3-.2.6-.4.8-.6.1-.1.2 0 .3.1.1.1 0 .2-.1.3-.3.2-.6.4-.8.5C15.8 12.6 15.6 12.5 15.6 12.5zM29.9 11.2c-.3-.1-.6-.3-.9-.4-.1 0-.2-.2-.1-.3 0-.1.2-.2.3-.1.3.1.6.3.9.4.1 0 .1.2.1.3C30.1 11.2 30 11.3 29.9 11.2zM18 11c0-.1 0-.2.1-.3.3-.1.6-.3.9-.4.1 0 .2 0 .3.1 0 .1 0 .2-.1.3-.3.1-.6.2-.9.4C18.1 11.2 18 11.1 18 11zM27.3 10.3c-.3-.1-.6-.1-1-.2-.1 0-.2-.1-.2-.2s.1-.2.2-.2c.3.1.7.1 1 .2.1 0 .2.1.1.2C27.5 10.3 27.4 10.3 27.3 10.3zM20.6 10.1c0-.1 0-.2.2-.2.3-.1.7-.1 1-.2.1 0 .2.1.2.2 0 .1-.1.2-.2.2-.3.1-.7.1-1 .2C20.7 10.3 20.6 10.2 20.6 10.1zM24.6 9.9c-.5 0-1.1 0-1 0-.1 0-.2-.1-.2-.2 0-.1.1-.2.2-.2.3 0 .7 0 1 0 .1 0 .2.1.2.2C24.8 9.9 24.7 9.9 24.6 9.9 24.6 9.9 24.6 9.9 24.6 9.9zM3 21c-.1 0-.2-.1-.2-.2 0-.3.1-.7.2-1 0-.1.1-.2.2-.2.1 0 .2.1.2.2-.1.3-.1.6-.2 1C3.2 20.9 3.1 21 3 21zM3.6 18.3c-.1 0-.2-.1-.1-.2.1-.3.2-.6.3-1 0-.1.1-.2.3-.1.1 0 .2.1.1.3-.1.3-.2.6-.3.9C3.8 18.2 3.7 18.3 3.6 18.3zM4.5 15.7c-.1 0-.1-.2-.1-.3.1-.3.3-.6.4-.9 0-.1.2-.1.3-.1.1 0 .1.2.1.3C5 15 4.9 15.3 4.8 15.6 4.7 15.7 4.6 15.7 4.5 15.7zM5.8 13.2c-.1-.1-.1-.2-.1-.3.2-.3.4-.6.5-.8C6.3 12 6.4 12 6.5 12c.1.1.1.2.1.3-.2.3-.4.5-.5.8C6 13.2 5.8 13.3 5.8 13.2zM7.3 10.9c-.1-.1-.1-.2 0-.3.2-.3.4-.5.6-.8.1-.1.2-.1.3 0 .1.1.1.2 0 .3-.2.2-.4.5-.6.7C7.5 11 7.4 11 7.3 10.9zM9.2 8.9c-.1-.1-.1-.2 0-.3.2-.2.5-.5.7-.7.1-.1.2-.1.3 0s.1.2 0 .3C9.9 8.4 9.7 8.6 9.4 8.9 9.4 8.9 9.2 8.9 9.2 8.9zM11.3 7.1c-.1-.1 0-.2 0-.3.3-.2.5-.4.8-.6.1-.1.2 0 .3.1.1.1 0 .2-.1.3-.3.2-.5.4-.8.6C11.5 7.2 11.3 7.1 11.3 7.1zM13.6 5.5c-.1-.1 0-.2.1-.3.3-.2.6-.3.9-.5.1 0 .2 0 .3.1 0 .1 0 .2-.1.3-.3.1-.6.3-.9.5C13.8 5.7 13.6 5.6 13.6 5.5zM16.1 4.3c0-.1 0-.2.1-.3.3-.1.6-.2.9-.3.1 0 .2 0 .3.1 0 .1 0 .2-.1.3-.3.1-.6.2-.9.3C16.2 4.5 16.1 4.4 16.1 4.3zM18.7 3.5c0-.1 0-.2.1-.2.3-.1.6-.2 1-.2.1 0 .2 0 .2.2 0 .1 0 .2-.2.2-.9.2-.9.2-1 .2C18.8 3.6 18.7 3.6 18.7 3.5zM21.4 3c0-.1.1-.2.2-.2.3 0 .7-.1 1-.1.1 0 .2.1.2.2 0 .1-.1.2-.2.2-.5 0-.7.1-1 .1C21.5 3.1 21.4 3.1 21.4 3zM2.6 22.5c.1.4.2.7.3 1.1 0 0 0 0 0-.1 0-.3 0-.7 0-1 0-.1-.1-.2-.2-.2C2.8 22.3 2.7 22.4 2.6 22.5z"></path>
    <g>
      <path fill="#cc104a" d="M4.3,24c0,0.9,0.1,1.8,0.2,2.6c0.2,0.3,0.3,0.5,0.5,0.8c-0.2-1.1-0.3-2.2-0.3-3.4c0-5.2,2-10,5.6-13.6
					C14,6.7,18.8,4.7,24,4.7c1.2,0,2.3,0.1,3.4,0.3c-0.3-0.2-0.5-0.4-0.8-0.5c-0.9-0.1-1.8-0.2-2.6-0.2c-5.3,0-10.2,2-13.9,5.7
					C6.4,13.8,4.3,18.7,4.3,24z M9.8,31.7c0.2,0.1,0.4,0.3,0.7,0.4C6.8,26,7.6,18,12.8,12.8c5.2-5.2,13.2-6,19.3-2.4
					c-0.1-0.2-0.2-0.4-0.4-0.7c-6.1-3.4-14-2.4-19.2,2.8C7.3,17.7,6.4,25.6,9.8,31.7z"></path>
    </g>
    <g>
      <path fill="#fff" d="M6.3,28.9c0.6,0.7,1.3,1.3,2,1.8C5.6,24.5,6.8,17,11.9,11.9C17,6.8,24.5,5.6,30.7,8.3
					c-0.6-0.7-1.2-1.4-1.8-2C22.7,4.6,15.8,6.2,11,11C6.1,15.8,4.6,22.7,6.3,28.9z"></path>
    </g>
    <g opacity=".2">
      <path fill="#cc104a" d="M4.8,27.1c0,0.1,0.1,0.2,0.2,0.3c2.8,3.9,7.6,6.6,13,6.6c8.8,0,16-7.2,16-16c0-5.4-2.7-10.1-6.6-13
				c-0.1-0.1-0.2-0.1-0.3-0.2C28.7,7,30,10.4,30,14c0,8.8-7.2,16-16,16C10.8,30,7.5,29,4.8,27.1z"></path>
    </g>
    <path fill="#fff" d="M7.5,16L7.5,16c1.2,1.1,2.9,1.5,4.7,1.2l0,0c2.2-0.4,3.6-1.7,3.7-1.7c2.8-2.3,3.7-6.2,1.7-8.7
		c-1.2-1.5-3.2-2-5.1-1.7c0,0,0,0,0,0C11.1,5.5,9.9,6.1,8.8,7C7.5,8,6.7,9.3,6.3,10.7c0,0,0,0,0,0C5.7,12.7,6.1,14.7,7.5,16z" opacity=".3"></path>
    <path fill="#fff" d="M27,18.5c-0.2,0-0.3,0.1-0.2,0.3c0.3,0.8,0.6,1.4,0.6,1.5c0,0-0.4-0.6-0.8-1.3c-0.1-0.1-0.3-0.1-0.4,0
		c-0.6,1.6-1.2,3-1.3,3c-0.1,0,0.3-1.5,0.8-3.2c0-0.2-0.1-0.3-0.3-0.2c-0.8,0.3-1.4,0.6-1.5,0.6c0,0,0.6-0.4,1.3-0.8
		c0.1-0.1,0.1-0.3,0-0.4c-1.6-0.6-3-1.2-3-1.3c0-0.1,1.5,0.3,3.2,0.8c0.2,0,0.3-0.1,0.2-0.3c-0.3-0.8-0.6-1.4-0.6-1.5
		c0.1,0,0.4,0.6,0.8,1.3c0.1,0.1,0.3,0.1,0.4,0c0.6-1.6,1.2-3,1.3-3c0.1,0-0.3,1.5-0.8,3.2c0,0.2,0.1,0.3,0.3,0.2
		c0.8-0.3,1.4-0.6,1.5-0.6c0,0.1-0.6,0.4-1.3,0.8c-0.1,0.1-0.1,0.3,0,0.4c1.6,0.6,3,1.2,3,1.3C30.1,19.5,28.6,19,27,18.5z"></path>
  </g>
</svg>
