<svg xmlns="http://www.w3.org/2000/svg" viewBox="0 0 512 512" id="bamboo">
  <path fill="#9abd2e" d="m437.87 199.967 6.717 7.408-83.12 75.364-6.717-7.408z"></path>
  <path fill="#b2d34b" d="M376 247V106c8.6-3.9 8.6-16.1 0-20V5h-80v81c-8.6 3.9-8.6 16.1 0 20v141c-8.6 3.9-8.6 16.1 0 20v140c-8.6 3.9-8.6 16.1 0 20v80h80v-80c8.6-3.9 8.6-16.1 0-20V267c8.6-3.9 8.6-16.1 0-20zm-160-81V25c8.6-3.9 8.6-16.1 0-20h-80c-8.6 3.9-8.6 16.1 0 20v141c-8.6 3.9-8.6 16.1 0 20v140c-8.6 3.9-8.6 16.1 0 20v141c-8.6 3.9-8.6 16.1 0 20h80c8.6-3.9 8.6-16.1 0-20V346c8.6-3.9 8.6-16.1 0-20V186c8.6-3.9 8.6-16.1 0-20z"></path>
  <path fill="#9abd2e" d="M136 25h80v20h-80z"></path>
  <path fill="#9abd2e" d="M182.4 25H216v141h-33.6zM342.4 106H376v141h-33.6zM342.4 267H376v140h-33.6zM342.4 427H376v80h-33.6zM342.4 5H376v81h-33.6zM182.4 186H216v141h-33.6zM182.4 346H216v141h-33.6z"></path>
  <path fill="#9abd2e" d="M296 106h80v20h-80zM296 267h80v20h-80zM296 427h80v20h-80zM136 186h80v20h-80zM136 346h80v20h-80z"></path>
  <path fill="#9abd2e" d="m97.197 143.356 46.852 37.481-6.247 7.81-46.852-37.482z"></path>
  <path fill="#399349" d="m5 121.4 5.8-2.5c36.3-15.6 78.3 1 94.2 37.1l-12.5-.4c-32.2-1-63.1-13.1-87.5-34.2zM29.7 247c6.4-33.4 26.9-62.4 56.1-79.7L105 156l-9.1 23.7c-11.4 29.6-34.2 53.4-63.4 66.1l-2.8 1.2zM507 290.3l-.6-1.3c-15.5-35.6-49.2-59.8-87.9-63.2l-1.5-.1 11.9 17.7c15.8 23.6 40.5 39.9 68.5 45.1l9.6 1.8zm-90-64.6c1-38.7 26.9-72.4 64.1-83.2l4.9-1.4-1.1 10.1c-4.1 36.8-31.5 66.9-67.9 74.5z"></path>
  <path fill="#c3dd74" d="M176 5h-40c-8.6 3.9-8.6 16.1 0 20h40c8.6-3.9 8.6-16.1 0-20zm0 161h-40c-8.6 3.9-8.6 16.1 0 20h40c8.6-3.9 8.6-16.1 0-20zm0 160h-40c-8.6 3.9-8.6 16.1 0 20h40c8.6-3.9 8.6-16.1 0-20zM336 86h-40c-8.6 3.9-8.6 16.1 0 20h40c8.6-3.9 8.6-16.1 0-20zm0 161h-40c-8.6 3.9-8.6 16.1 0 20h40c8.6-3.9 8.6-16.1 0-20zm0 160h-40c-8.6 3.9-8.6 16.1 0 20h40c8.6-3.9 8.6-16.1 0-20zm-160 80h-40c-8.6 3.9-8.6 16.1 0 20h40c8.6-3.9 8.6-16.1 0-20z"></path>
  <g fill="#272525">
    <path d="M376 512h-80c-2.8 0-5-2.2-5-5v-77.2c-4-3-6.4-7.6-6.4-12.8s2.4-9.9 6.4-12.8V269.8c-4-3-6.4-7.6-6.4-12.8s2.4-9.9 6.4-12.8V108.8c-4-3-6.4-7.6-6.4-12.8s2.4-9.9 6.4-12.8V5c0-2.8 2.2-5 5-5h80c2.8 0 5 2.2 5 5v78.2c4 3 6.4 7.6 6.4 12.8s-2.4 9.9-6.4 12.8v135.3c4 3 6.4 7.6 6.4 12.8s-2.4 9.9-6.4 12.8V404c4 3 6.4 7.6 6.4 12.8s-2.4 9.9-6.4 12.8V507c0 2.8-2.2 5-5 5zm-75-10h70v-75c0-2 1.1-3.7 2.9-4.6 2.2-1 3.5-3 3.5-5.4s-1.3-4.4-3.5-5.4c-1.8-.8-2.9-2.6-2.9-4.6V267c0-2 1.1-3.7 2.9-4.6 2.2-1 3.5-3 3.5-5.4s-1.3-4.4-3.5-5.4c-1.8-.8-2.9-2.6-2.9-4.6V106c0-2 1.1-3.7 2.9-4.6 2.2-1 3.5-3 3.5-5.4s-1.3-4.4-3.5-5.4c-1.8-.8-2.9-2.6-2.9-4.6V10h-70v76c0 2-1.1 3.7-2.9 4.6-2.2 1-3.5 3-3.5 5.4s1.3 4.4 3.5 5.4c1.8.8 2.9 2.6 2.9 4.6v141c0 2-1.1 3.7-2.9 4.6-2.2 1-3.5 3-3.5 5.4s1.3 4.4 3.5 5.4c1.8.8 2.9 2.6 2.9 4.6v140c0 2-1.1 3.7-2.9 4.6-2.2 1-3.5 3-3.5 5.4s1.3 4.4 3.5 5.4c1.8.8 2.9 2.6 2.9 4.6v75zM136 20h36v10h-36zM164 161h52v10h-52z"></path>
    <path d="M216 512h-80c-.7 0-1.4-.2-2.1-.4-5.8-2.6-9.4-8.2-9.4-14.6 0-5.2 2.4-9.9 6.4-12.8V348.8c-4-3-6.4-7.6-6.4-12.8s2.4-9.9 6.4-12.8V206h10v120c0 2-1.1 3.7-2.9 4.6-2.2 1-3.5 3-3.5 5.4s1.3 4.4 3.5 5.4c1.8.8 2.9 2.6 2.9 4.6v141c0 2-1.1 3.7-2.9 4.6-2.2 1-3.5 3-3.5 5.4 0 2.1 1 3.9 2.7 5h77.5c1.7-1.1 2.7-2.9 2.7-5 0-2.4-1.3-4.4-3.5-5.4-1.8-.8-2.9-2.6-2.9-4.6V346c0-2 1.1-3.7 2.9-4.6 2.2-1 3.5-3 3.5-5.4s-1.3-4.4-3.5-5.4c-1.8-.8-2.9-2.6-2.9-4.6V186c0-2 1.1-3.7 2.9-4.6 2.2-1 3.5-3 3.5-5.4s-1.3-4.4-3.5-5.4c-1.8-.8-2.9-2.6-2.9-4.6V25c0-2 1.1-3.7 2.9-4.6 2.2-1 3.5-3 3.5-5.4 0-2.1-1-3.9-2.7-5h-77.5c-1.7 1.1-2.7 2.9-2.7 5 0 2.4 1.3 4.4 3.5 5.4 1.8.8 2.9 2.6 2.9 4.6v141c0 2-1.1 3.7-2.9 4.6-2.2 1-3.5 3-3.5 5.4 0 2.1 1 3.9 2.7 5H183v10h-47c-.7 0-1.4-.2-2.1-.4-5.8-2.6-9.4-8.2-9.4-14.6 0-5.2 2.4-9.9 6.4-12.8V27.8c-4-3-6.4-7.6-6.4-12.8 0-6.3 3.6-11.9 9.4-14.6.6-.3 1.4-.4 2.1-.4h80c.7 0 1.4.2 2.1.4 5.8 2.6 9.4 8.2 9.4 14.6 0 5.2-2.4 9.9-6.4 12.8v135.3c4 3 6.4 7.6 6.4 12.8s-2.4 9.9-6.4 12.8V323c4 3 6.4 7.6 6.4 12.8s-2.4 9.9-6.4 12.8v135.3c4 3 6.4 7.6 6.4 12.8 0 6.3-3.6 11.9-9.4 14.6-.7.5-1.4.7-2.1.7z"></path>
    <path d="M136 321h28v10h-28zM136 341h54v10h-54zM164 482h52v10h-52zM108.129 152.102l24.988 19.99-6.247 7.809-24.988-19.99z"></path>
    <path d="M29.7 252c-1.1 0-2.2-.4-3.1-1.1-1.4-1.2-2.1-3-1.8-4.8 6.7-34.8 28-65 58.5-83.1l19.1-11.3c1.8-1.1 4.2-.9 5.8.5 1.6 1.4 2.2 3.6 1.4 5.6l-9.1 23.7c-11.8 30.7-35.9 55.8-66 68.9l-2.8 1.2c-.6.3-1.3.4-2 .4zm65.5-84.4-6.7 4C63.3 186.4 45 210.3 37 238.1c24.7-12.7 44.2-34.3 54.2-60.2l4-10.3zM327 81h49v10h-49zM296 101h55v10h-55zM336 242h40v10h-40zM323 262h53v10h-53zM296 402h36v10h-36zM296 422h80v10h-80zM413.645 221.931l6.717 7.409-34.522 31.3-6.717-7.408z"></path>
    <path d="M507 295.3c-.3 0-.6 0-.9-.1l-9.6-1.8c-29.1-5.4-55.2-22.7-71.7-47.2l-11.9-17.7c-1.1-1.6-1.1-3.7-.2-5.3 1-1.7 2.8-2.6 4.7-2.4l1.5.1c40.5 3.5 75.8 28.9 92 66.2l.6 1.3c.7 1.7.5 3.7-.7 5.1-.8 1.1-2.3 1.8-3.8 1.8zM427.3 232l5.8 8.6c15 22.3 38.8 38 65.2 43-14.6-27.2-40.8-46.1-71-51.6zM105 161h-.2l-12.5-.4c-33.3-1.1-65.4-13.7-90.6-35.4-1.3-1.1-1.9-2.8-1.7-4.5.3-1.7 1.4-3.1 3-3.8l5.8-2.5c38.6-16.6 83.8 1.2 100.8 39.7.7 1.6.5 3.4-.4 4.8-1 1.3-2.5 2.1-4.2 2.1zm-90.4-38.3c22.4 17.1 49.8 27 78.1 27.9l4.1.1c-16.7-27.8-51.6-40.1-82.2-28z"></path>
    <path d="M417 230.7c-1.2 0-2.3-.4-3.2-1.2-1.2-1-1.8-2.4-1.8-4 1.1-41.1 28.3-76.4 67.7-87.9l4.9-1.4c1.6-.5 3.3-.1 4.6 1 1.3 1.1 1.9 2.7 1.8 4.4l-1.1 10.1c-4.4 39.2-33.2 70.9-71.8 78.9-.4 0-.8.1-1.1.1zm63.2-82.8c-31.9 10.3-54.3 38.2-57.8 71.2 31.1-9.1 53.9-36 57.5-68.6l.3-2.6z"></path>
  </g>
</svg>
