<svg xmlns="http://www.w3.org/2000/svg" xml:space="preserve" id="bat" x="0" y="0" version="1.1" viewBox="0 0 24 24">
  <path id="XMLID_1340_" fill="#303C42" d="M20.82 14.45a.503.503 0 0 0-.242-.132c-.189-.042-.377.01-.687.097-.938.267-3.128.89-5.681-1.256l1.419-1.418a.501.501 0 0 0-.354-.853H14.12a1.007 1.007 0 0 1-1.006-1.006V8.726a.5.5 0 0 0-.854-.353l-1.417 1.42C8.697 7.239 9.315 5.062 9.585 4.11c.087-.309.14-.496.096-.688a.492.492 0 0 0-.133-.241C7.405 1.02 4.09.397 1.301 1.63a.503.503 0 0 0-.287.353c-.033.156.011.32.117.439a8.246 8.246 0 0 1 1.835 7.697c-.05.186.011.385.159.51.127.109.254.218.373.337a6.39 6.39 0 0 1 1.86 4.834c-.056 1.143-.516 2.317-1.332 3.396l-.242.32a.499.499 0 0 0 .7.701l.32-.242c1.078-.817 2.253-1.277 3.396-1.332a6.392 6.392 0 0 1 4.835 1.86c.119.12.227.246.335.372a.5.5 0 0 0 .511.16 8.245 8.245 0 0 1 7.698 1.833.497.497 0 0 0 .79-.17c1.234-2.789.611-6.103-1.549-8.247z"></path>
  <path id="XMLID_1341_" fill="#67686B" d="M21.695 21.665a9.227 9.227 0 0 0-7.769-1.674 4.99 4.99 0 0 0-.184-.195 7.386 7.386 0 0 0-5.589-2.152 6.551 6.551 0 0 0-2.396.599 6.551 6.551 0 0 0 .596-3.16 7.395 7.395 0 0 0-2.15-4.826 6.463 6.463 0 0 0-.195-.183 9.233 9.233 0 0 0-1.672-7.769 6.442 6.442 0 0 1 6.323 1.406l-.036.126c-.3 1.055-1.095 3.86 1.779 6.968.089.096.316.158.447.164a.483.483 0 0 0 .378-.147l.887-.888a2.008 2.008 0 0 0 1.954 1.953l-.922.922a.497.497 0 0 0-.014.693s.237.255.375.373c2.983 2.544 5.65 1.788 6.658 1.502.047-.014.09-.026.123-.038a6.445 6.445 0 0 1 1.407 6.326z"></path>
  <path d="M13.333 19.424c.14.12.278.241.409.372.063.064.125.129.184.195a9.227 9.227 0 0 1 7.768 1.673 6.448 6.448 0 0 0-.048-4.033 12.117 12.117 0 0 1-.988 1.956c-1.692-1.408-4.425-1.368-7.325-.163z" opacity=".1"></path>
  <path fill="#FFF" d="M2.336 2.305a9.233 9.233 0 0 1 1.672 7.769c.067.06.131.12.196.183.13.132.253.27.373.41 1.204-2.9 1.244-5.632-.164-7.324a12.11 12.11 0 0 1 1.956-.989 6.435 6.435 0 0 0-4.033-.049z" opacity=".2"></path>
  <linearGradient id="XMLID_23_" x1="-1.608" x2="23.88" y1="7.576" y2="19.461" gradientUnits="userSpaceOnUse">
    <stop offset="0" stop-color="#FFF" stop-opacity=".2"></stop>
    <stop offset="1" stop-color="#FFF" stop-opacity="0"></stop>
  </linearGradient>
  <path id="XMLID_39_" fill="url(#XMLID_23_)" d="M20.82 14.45a.503.503 0 0 0-.242-.132c-.189-.042-.377.01-.687.097-.938.267-3.128.89-5.681-1.256l1.419-1.418a.501.501 0 0 0-.354-.853H14.12a1.007 1.007 0 0 1-1.006-1.006V8.726a.5.5 0 0 0-.854-.353l-1.417 1.42C8.697 7.239 9.315 5.062 9.585 4.11c.087-.309.14-.496.096-.688a.492.492 0 0 0-.133-.241C7.405 1.02 4.09.397 1.301 1.63a.503.503 0 0 0-.287.353c-.033.156.011.32.117.439a8.246 8.246 0 0 1 1.835 7.697c-.05.186.011.385.159.51.127.109.254.218.373.337a6.39 6.39 0 0 1 1.86 4.834c-.056 1.143-.516 2.317-1.332 3.396l-.242.32a.499.499 0 0 0 .7.701l.32-.242c1.078-.817 2.253-1.277 3.396-1.332a6.392 6.392 0 0 1 4.835 1.86c.119.12.227.246.335.372a.5.5 0 0 0 .511.16 8.245 8.245 0 0 1 7.698 1.833.497.497 0 0 0 .79-.17c1.234-2.789.611-6.103-1.549-8.247z"></path>
</svg>
