<svg xmlns="http://www.w3.org/2000/svg" xml:space="preserve" viewBox="0 0 128 128" id="bear">
  <path fill="#99633A" d="M49.6 72.2c-2.1 3.1-4.7 19-2.5 27.9 2.1 8.5-4.4 8.4-4.4 8.4-12.2 3.9-12.5-.6-12.5-.6-4 1-3.3-1.6-3.3-1.6s-1.4.7-2.4-.4c-3.5-3.8 5-6.3 5.7-7.4.7-1.1-.4-6.8-.4-6.8l-3.4-32.4 23.2 12.9zM97.2 82.7c-2 2.9-1.7 10.2.4 18.6 2 8-4.2 7.9-4.2 7.9-11.6 3.7-11.9-.5-11.9-.5-3.8.9-3.1-1.5-3.1-1.5s-1.4.7-2.3-.3c-3.3-3.6 4.7-6 5.4-7.1.7-1.1-.4-6.4-.4-6.4l-5.3-18.3 21.4 7.6z"></path>
  <path fill="#A87347" d="M126.5 40.2c-2.9-13.8-26-22.1-45.9-20.1-19.9 1.9-31.3-1.2-31.3-1.2L16.4 50.5C13.8 57.7 27.5 67 27.5 67l2-2.8c-1.4 4 3.4 7.4 3.4 7.4-.5-1.3.3-3.8.3-3.8 1.3 6.6 8 10.8 11.7 12.7l4.6 15.9s1.4 7.4.5 8.9c-.9 1.5-12 4.7-7.4 9.7 1.3 1.4 3.2.5 3.2.5s-.9 3.3 4.3 2.1c0 0 .4 5.8 16.3.7 0 0 8.6.1 5.8-10.9-1.9-7.6-2.7-14.6-2.3-19.6 9.6 2.7 19.8 1.8 25.2.9l3.2 11s1.4 7.4.5 8.9c-.9 1.5-12 4.7-7.4 9.7 1.3 1.4 3.2.5 3.2.5s-.9 3.3 4.3 2.1c0 0 .4 5.8 16.3.7 0 0 8.6.1 5.8-10.9-2.6-10.2-.7-24.5 1.5-31.7l.8-2.3c0-.1.1-.1.1-.2 5.8-10 1.9-30 1.9-30s4.1 7.6 1.2-6.3z"></path>
  <path fill="#99633A" d="M95 88.6s-2.9-11.3-9.9-17.4L95 88.6zM69.8 87.7s.9-9.8 4-13.7l-4 13.7z"></path>
  <path fill="#935D35" d="M63.9 36.1c.6 10.7-4.8 14.4-6.9 16.4-3 2.7-7.1 3.9-11 4.9-2.7.7-5.4 1.4-8.1 1.9-5.2 1-10.5 1.1-15.7.5-.7-.1-2.2-.2-2.8-.6-.6-.4-1.1-1.3-1.5-1.9-2.4-3.6-3-7.9-1.1-11.8.9-1.7 2.3-3.1 3.8-4.4 3-2.6 6.2-5.1 9.2-7.9 2.1-1.9 4-3.9 6.2-5.6 5.6-4.5 12.7-7.1 19.9-7.5 1.4-.1 1.8 1.5 2.7 2.4 1.1 1.2 2.1 2.5 2.9 3.9 1.3 3.2 2.2 6.4 2.4 9.7z"></path>
  <ellipse cx="13.2" cy="14.4" fill="#A87347" rx="9.6" ry="10.3"></ellipse>
  <ellipse cx="50.6" cy="14.3" fill="#A87347" rx="9.5" ry="10.2"></ellipse>
  <ellipse cx="13.2" cy="14.4" fill="#8D461C" rx="5.3" ry="5.6"></ellipse>
  <ellipse cx="50.6" cy="14.3" fill="#8D461C" rx="5.2" ry="5.6"></ellipse>
  <path fill="#B07C4D" d="M63.4 37.6C63.4 52 49.3 57.8 32 57.8 14.6 57.8.5 52 .5 37.6s14.1-31 31.5-31c17.3.1 31.4 16.7 31.4 31z"></path>
  <ellipse cx="32" cy="45.5" fill="#F0CFAE" rx="15" ry="12.3"></ellipse>
  <circle cx="19.3" cy="31" r="4.1" fill="#FFF"></circle>
  <circle cx="19.3" cy="31" r="2.7" fill="#545352"></circle>
  <circle cx="19.3" cy="31" r="1.4"></circle>
  <circle cx="18.3" cy="30.1" r=".5" fill="#FFF"></circle>
  <circle cx="44.6" cy="31" r="4.1" fill="#FFF"></circle>
  <circle cx="44.6" cy="31" r="2.7" fill="#545352"></circle>
  <circle cx="44.6" cy="31" r="1.4"></circle>
  <circle cx="43.6" cy="30.1" r=".5" fill="#FFF"></circle>
  <path fill="#040507" d="M36.8 39c0 1.7-2.2 3.9-4.9 3.9S27 40.6 27 39s2.2-3.1 4.9-3.1 4.9 1.4 4.9 3.1z"></path>
  <path fill="#890014" d="M26.7 48.4c.5 3 2.6 5.3 5.1 5.3 2.5 0 4.6-2.2 5.1-5.2-1.5.6-3.2 1-4.9 1-1.9 0-3.7-.3-5.3-1.1z"></path>
  <path fill="#4B4F50" d="M40.4 43.4c-.2 0-.4.1-.5.4 0 .2.1.4.4.5.6.1.9.3 1.2.6-2.6 2.7-6 4.2-9.5 4.2-3.7 0-7.2-1.6-9.9-4.6.2-.2.5-.3.8-.3.2 0 .4-.2.4-.5 0-.2-.2-.4-.5-.4-1.8.2-2.4 1.9-2.4 2.8 0 .2.2.4.4.5.2 0 .4-.2.4-.4 0 0 0-.5.3-1 1.4 1.5 3 2.7 4.8 3.5.6 3.2 2.9 5.4 5.5 5.4s4.8-2.2 5.5-5.3c1.7-.7 3.2-1.8 4.6-3.2.1.4.1.6.1.6 0 .2.2.4.4.4s.4-.2.4-.5c0-.8-.6-2.5-2.4-2.7zm-8.6 9.9c-2.1 0-3.9-1.7-4.5-4.2 1.5.6 3.1.8 4.7.8 1.5 0 2.9-.2 4.3-.7-.7 2.4-2.5 4.1-4.5 4.1z"></path>
  <path fill="#935D35" d="M120.9 110.5c0-.2-.1-.4-.1-.5.1.7.1 1.5.2 2.2.1 1.2.2 2.5-.2 3.6-.6 1.5-2.1 2.5-3.6 3.3-4.4 2.3-9.3 3.4-14.2 3.3-1 0-2.2-.2-2.9-.9-.9-1.1-.5-2.8.3-4 .8-1.4 2-2.6 3.6-3.1-2.5-.3-5.1 1.4-5.9 3.9-.3.8-.5 1.9-1.3 2.1-.6.2-1.3-.3-1.6-.8-.7-1.1-.6-2.5-.1-3.6s1.4-2.1 2.3-2.9c-1.4.4-2.7 1.5-3.1 3-.2.5-.3 1.1-.6 1.7-.3.5-.8 1-1.4.9-.5-.1-.8-.4-1-.8-.6-1.1-.4-2.4.1-3.4.6-1.1 1.5-1.9 2.4-2.6h-.2c-2.7 1.7-4.9 3.9-2.4 6.6 1.3 1.4 3.2.5 3.2.5s-.9 3.3 4.3 2.1c0 0 .4 5.8 16.3.7.1-.3 8.7-.2 5.9-11.3z"></path>
  <path fill="#824B26" d="M97.7 101.3c0-.1-.1-.3-.1-.4 0 .5.1 1.1.1 1.6.1.9.1 1.8-.2 2.6-.4 1.1-1.5 1.8-2.6 2.4-3.2 1.6-6.7 2.5-10.3 2.4-.8 0-1.6-.1-2.1-.7-.7-.8-.3-2 .2-2.9.6-1 1.5-1.9 2.6-2.2-1.8-.2-3.7 1-4.3 2.8-.2.6-.3 1.3-.9 1.5-.5.1-.9-.2-1.2-.6-.5-.8-.4-1.8 0-2.6s1-1.5 1.7-2.1c-1 .3-1.9 1.1-2.3 2.1-.1.4-.2.8-.4 1.2-.2.4-.6.7-1 .6-.3 0-.6-.3-.7-.6-.4-.8-.3-1.7.1-2.5s1.1-1.4 1.8-1.9H78c-1.9 1.2-3.5 2.8-1.7 4.8.9 1 2.3.3 2.3.3s-.7 2.4 3.1 1.5c0 0 .3 4.2 11.9.5-.1.2 6.1.3 4.1-7.8zM47.1 100c0-.1-.1-.3-.1-.4 0 .6.1 1.1.1 1.7.1.9.2 1.9-.2 2.7-.5 1.2-1.6 1.9-2.7 2.5-3.3 1.7-7.1 2.6-10.9 2.5-.8 0-1.7-.1-2.2-.7-.7-.8-.4-2.1.2-3.1.6-1.1 1.6-2 2.7-2.4-1.9-.2-3.9 1.1-4.5 3-.2.6-.4 1.4-1 1.6-.5.1-1-.2-1.2-.6-.5-.8-.4-1.9 0-2.8.4-.9 1.1-1.6 1.8-2.2-1.1.3-2 1.2-2.4 2.3-.1.4-.2.9-.4 1.3s-.6.7-1.1.7c-.4-.1-.6-.3-.8-.7-.4-.8-.3-1.8.1-2.6s1.1-1.4 1.9-2h-.2c-2 1.3-3.7 3-1.8 5.1 1 1.1 2.4.4 2.4.4s-.7 2.6 3.3 1.6c0 0 .3 4.4 12.5.6 0-.1 6.6 0 4.5-8.5z"></path>
  <path fill="#935D35" d="M72.3 112.4c-.6 1.5-2.1 2.5-3.6 3.3-4.4 2.3-9.3 3.4-14.2 3.3-1 0-2.2-.2-2.9-.9-.9-1.1-.5-2.8.3-4 .8-1.4 2-2.6 3.6-3.1-2.5-.3-5.1 1.4-5.9 3.9-.3.8-.5 1.9-1.3 2.1-.6.2-1.3-.3-1.6-.8-.7-1.1-.6-2.5-.1-3.6s1.4-2.1 2.3-2.9c-1.4.4-2.7 1.5-3.1 3-.2.5-.3 1.1-.6 1.7-.3.5-.8 1-1.4.9-.5-.1-.8-.4-1-.8-.6-1.1-.4-2.4.1-3.4.6-1.1 1.5-1.9 2.4-2.6h-.5c-2.7 1.7-5 3.9-2.4 6.7 1.3 1.4 3.2.5 3.2.5s-.9 3.3 4.3 2.1c0 0 .4 5.8 16.3.7 0 0 7.2.1 6.3-8.4.2.6.1 1.5-.2 2.3z"></path>
  <path fill="#C6C5C4" d="M32.7 106.3s1.9-.5 1.8.6c-.1 1.1-2.9 1-3.1 3 .1 0-.6-2.1 1.3-3.6z"></path>
  <path fill="#4B4F50" d="m31.5 110.5-.2-.6s-.6-2.2 1.2-3.7c.1 0 1.2-.3 1.7.1.2.1.2.3.2.6 0 .5-.6.8-1.2 1.1-.8.4-1.7.8-1.8 1.9l.1.6zm1.2-4.1c-1.2 1-1.3 2.2-1.2 2.9.3-.8 1.1-1.2 1.8-1.5.6-.3 1.1-.5 1.1-.9 0-.2 0-.3-.2-.4-.3-.3-1.1-.2-1.5-.1z"></path>
  <path fill="#C6C5C4" d="M28.3 105.4s1.7-.4 1.6.5c-.1.9-2.5.9-2.6 2.6-.1 0-.6-1.8 1-3.1z"></path>
  <path fill="#4B4F50" d="m27.3 109.1-.2-.6s-.6-1.9 1.1-3.2c0 0 1.1-.3 1.5.1.2.1.2.3.2.5 0 .5-.5.7-1.1 1-.7.3-1.5.7-1.6 1.6l.1.6zm1-3.6c-1 .8-1.1 1.8-1.1 2.4.3-.6 1-1 1.5-1.2.5-.2.9-.4 1-.8 0-.2 0-.3-.1-.4-.2-.2-1-.1-1.3 0z"></path>
  <path fill="#C6C5C4" d="M25.2 104.2s1.2-.4 1.2.5c0 .8-1.9.7-2 2.2 0-.1-.4-1.6.8-2.7z"></path>
  <path fill="#4B4F50" d="m24.5 107.5-.2-.7s-.4-1.6.8-2.8c0 0 .8-.2 1.1.1.1.1.2.3.2.5 0 .4-.4.6-.8.8-.5.3-1.1.6-1.2 1.4l.1.7zm.7-3.2c-.7.6-.8 1.4-.8 2 .2-.5.7-.7 1.1-1 .4-.2.7-.4.7-.7 0-.1 0-.2-.1-.3-.2-.2-.7-.1-.9 0z"></path>
  <path fill="#C6C5C4" d="M53.3 115.4s2.5-.6 2.4.8c-.1 1.4-3.8 1.3-4 3.9.1-.1-.8-2.8 1.6-4.7z"></path>
  <path fill="#4B4F50" d="m51.8 120.6-.2-.6s-.8-2.8 1.6-4.8c.1 0 1.6-.4 2.3.2.2.2.3.4.3.8 0 .7-.8 1-1.6 1.4-1.1.5-2.3 1.1-2.4 2.5v.5zm1.6-5.1c-1.7 1.3-1.7 3.1-1.6 4 .4-1.1 1.5-1.6 2.4-2.1.8-.4 1.4-.7 1.5-1.2 0-.3-.1-.4-.2-.6-.6-.5-1.9-.2-2.1-.1z"></path>
  <path fill="#C6C5C4" d="M47.6 114.2s2.2-.5 2.1.7c-.1 1.2-3.3 1.1-3.4 3.3-.1 0-.8-2.4 1.3-4z"></path>
  <path fill="#4B4F50" d="m46.3 118.8-.2-.6s-.7-2.5 1.4-4.2c.1 0 1.4-.3 2 .1.2.2.3.4.3.7 0 .6-.7.9-1.4 1.2-.9.4-2 .9-2 2.1l-.1.7zm1.4-4.5c-1.4 1.1-1.5 2.6-1.4 3.4.3-.9 1.3-1.4 2.1-1.7.7-.3 1.2-.6 1.3-1 0-.2 0-.4-.2-.5-.5-.5-1.7-.3-1.8-.2z"></path>
  <path fill="#C6C5C4" d="M43.6 112.6s1.6-.5 1.6.6c-.1 1.1-2.5 1-2.6 2.9-.1 0-.6-2.1 1-3.5z"></path>
  <path fill="#4B4F50" d="m42.6 116.7-.2-.7s-.5-2.1 1.1-3.6c0 0 1-.3 1.5.1.2.1.3.3.2.6 0 .5-.5.8-1.1 1.1-.7.4-1.5.8-1.5 1.8v.7zm1-4c-1 .9-1.1 2.1-1.1 2.7.3-.7.9-1.1 1.5-1.4.5-.3.9-.5.9-.9 0-.2 0-.3-.2-.4-.1-.2-.8-.1-1.1 0z"></path>
  <path fill="#C6C5C4" d="M84 107.2s1.8-.4 1.7.6c-.1 1-2.8.9-2.9 2.8.1 0-.5-2 1.2-3.4z"></path>
  <path fill="#4B4F50" d="m82.9 111.2-.2-.6s-.6-2.1 1.2-3.5c0 0 1.2-.3 1.7.1.2.1.2.3.2.6 0 .5-.6.8-1.2 1-.8.4-1.6.8-1.7 1.8v.6zm1.1-3.9c-1.1.9-1.2 2.1-1.2 2.7.3-.7 1.1-1.1 1.7-1.4.6-.3 1-.5 1.1-.9 0-.2 0-.3-.1-.4-.3-.2-1.1-.1-1.5 0z"></path>
  <path fill="#C6C5C4" d="M79.8 106.3s1.6-.4 1.5.5c-.1.9-2.4.8-2.5 2.4.1.1-.5-1.7 1-2.9z"></path>
  <path fill="#4B4F50" d="m78.9 109.9-.2-.6s-.5-1.8 1-3c0 0 1-.2 1.4.1.1.1.2.3.2.5 0 .4-.5.7-1 .9-.7.3-1.4.7-1.5 1.5l.1.6zm1-3.5c-.9.8-1.1 1.7-1 2.3.3-.6.9-.9 1.5-1.2.5-.2.9-.4.9-.7 0-.1 0-.3-.1-.3-.4-.2-1-.1-1.3-.1z"></path>
  <path fill="#C6C5C4" d="M76.9 105.2s1.2-.3 1.1.4c0 .8-1.8.7-1.9 2.1.1 0-.3-1.5.8-2.5z"></path>
  <path fill="#4B4F50" d="m76.2 108.4-.2-.7c0-.1-.4-1.6.8-2.6 0 0 .7-.2 1.1.1.1.1.2.3.2.5 0 .4-.4.6-.8.8-.5.3-1.1.6-1.1 1.3v.6zm.8-3.1c-.6.6-.8 1.3-.8 1.8.2-.4.7-.7 1.1-.9.4-.2.7-.3.7-.6 0-.1 0-.2-.1-.3-.3-.1-.8-.1-.9 0z"></path>
  <path fill="#C6C5C4" d="M102.1 118.7s2.5-.6 2.4.8c-.1 1.4-3.8 1.3-4 3.9 0-.1-.8-2.8 1.6-4.7z"></path>
  <path fill="#4B4F50" d="m100.6 123.9-.2-.6s-.8-2.8 1.6-4.8c.1 0 1.6-.4 2.3.2.2.2.3.4.3.8 0 .7-.8 1-1.6 1.4-1.1.5-2.3 1.1-2.4 2.5v.5zm1.5-5.1c-1.7 1.3-1.7 3.1-1.6 4 .4-1.1 1.5-1.6 2.4-2.1.8-.4 1.4-.7 1.5-1.2 0-.3-.1-.4-.2-.6-.5-.5-1.9-.2-2.1-.1z"></path>
  <path fill="#C6C5C4" d="M96.4 117.5s2.2-.5 2.1.7c-.1 1.2-3.3 1.1-3.4 3.3-.1 0-.8-2.4 1.3-4z"></path>
  <path fill="#4B4F50" d="m95.1 122.1-.2-.6s-.7-2.5 1.4-4.2c.1 0 1.4-.3 2 .1.2.2.3.4.3.7 0 .6-.7.9-1.4 1.2-.9.4-2 .9-2 2.1l-.1.7zm1.3-4.5c-1.4 1.1-1.5 2.6-1.4 3.4.3-.9 1.3-1.4 2.1-1.7.7-.3 1.2-.6 1.3-1 0-.2 0-.4-.2-.5-.5-.5-1.6-.3-1.8-.2z"></path>
  <path fill="#C6C5C4" d="M92.3 115.9s1.6-.5 1.6.6c-.1 1.1-2.5 1-2.6 2.9 0 0-.5-2.1 1-3.5z"></path>
  <path fill="#4B4F50" d="m91.4 120-.2-.7s-.5-2.1 1.1-3.6c0 0 1-.3 1.5.1.2.1.3.3.2.6 0 .5-.5.8-1.1 1.1-.7.4-1.5.8-1.5 1.8v.7zm1-4c-1 .9-1.1 2.1-1.1 2.7.3-.7.9-1.1 1.5-1.4.5-.3.9-.5.9-.9 0-.2 0-.3-.2-.4-.2-.2-.9-.1-1.1 0z"></path>
</svg>
