<svg xmlns="http://www.w3.org/2000/svg" id="car" enable-background="new 0 0 64 64" viewBox="0 0 64 64">
  <path fill="#2b2f64" d="M49.07 38.32c-2.35 0-4.26 1.91-4.26 4.26 0 2.35 1.91 4.26 4.26 4.26 2.35 0 4.26-1.91 4.26-4.26C53.32 40.23 51.41 38.32 49.07 38.32zM49.07 44.9c-1.28 0-2.32-1.04-2.32-2.32 0-1.28 1.04-2.32 2.32-2.32 1.28 0 2.32 1.04 2.32 2.32C51.38 43.86 50.35 44.9 49.07 44.9zM13.66 38.32c-2.35 0-4.26 1.91-4.26 4.26 0 2.35 1.91 4.26 4.26 4.26 2.35 0 4.26-1.91 4.26-4.26C17.92 40.23 16.01 38.32 13.66 38.32zM13.66 44.9c-1.28 0-2.32-1.04-2.32-2.32 0-1.28 1.04-2.32 2.32-2.32 1.28 0 2.32 1.04 2.32 2.32C15.98 43.86 14.94 44.9 13.66 44.9z"></path>
  <path fill="#2b2f64" d="M63.82,32.1c-0.17-2.33-1.72-4.31-3.94-5.03l-9.65-3.21c-1.41-0.47-2.66-1.22-3.7-2.25l-4.96-4.76
		c-2.19-2.12-5.09-3.29-8.14-3.29H15.69c-2.85,0-5.59,1.21-7.5,3.31L3.78,21.7c-2.04,2.23-3.25,5.11-3.43,8.15l-0.27,8.32
		c0,0,0,0,0,0.01c0,0,0,0,0,0.01L0,40.42c-0.03,0.82,0.27,1.61,0.85,2.21c0.57,0.59,1.35,0.92,2.18,0.92h2.82
		c0.48,3.88,3.79,6.89,7.81,6.89c4,0,7.32-3.02,7.8-6.89h19.81c0.48,3.88,3.79,6.89,7.8,6.89c4.01,0,7.32-3.02,7.81-6.89h4.09
		c0.82,0,1.59-0.32,2.17-0.91c0.57-0.58,0.88-1.37,0.86-2.18L63.82,32.1z M61.89,32.19l0.07,3.12H60.6c-0.73,0-1.35-0.4-1.56-0.99
		c-0.49-1.44,0.86-2.76,2.34-3.74C61.66,31.07,61.85,31.61,61.89,32.19z M2.21,32.43h1.37c0.13,0,0.2,0.07,0.24,0.1
		c0.04,0.05,0.09,0.13,0.08,0.24l-0.32,4.16c0,0.16-0.15,0.28-0.31,0.28H2.05L2.21,32.43z M13.66,48.5c-3.27,0-5.93-2.66-5.93-5.92
		c0-3.27,2.67-5.93,5.93-5.93c3.27,0,5.92,2.67,5.92,5.93C19.59,45.85,16.93,48.5,13.66,48.5z M55,42.6
		c-0.02,3.26-2.67,5.91-5.93,5.91c-3.27,0-5.92-2.66-5.92-5.92c0-3.27,2.66-5.93,5.92-5.93c3.27,0,5.92,2.66,5.93,5.91
		c0,0.01-0.01,0.01-0.01,0.02C54.99,42.59,55,42.59,55,42.6z M61.75,41.28c-0.21,0.21-0.48,0.33-0.79,0.33h-4.09
		c-0.48-3.88-3.79-6.9-7.81-6.9c-4,0-7.32,3.03-7.81,6.9h-19.8c-0.48-3.88-3.79-6.9-7.8-6.9c-4.01,0-7.33,3.03-7.81,6.9H3.04
		c-0.3,0-0.58-0.12-0.79-0.33c-0.21-0.21-0.32-0.5-0.31-0.8l0.04-1.34h1.29c1.19,0,2.18-0.92,2.25-2.08l0.31-4.14
		c0.05-0.63-0.16-1.25-0.58-1.71c-0.43-0.47-1.04-0.73-1.67-0.73H2.27l0.02-0.55c0.16-2.57,1.19-5.02,2.93-6.92l4.41-4.84
		c1.55-1.7,3.75-2.68,6.06-2.68h17.75c2.54,0,4.95,0.97,6.79,2.74L45.19,23c1.26,1.22,2.75,2.13,4.44,2.7l9.65,3.2
		c0.24,0.09,0.47,0.19,0.68,0.31c-3.1,2.19-3.25,4.31-2.75,5.76c0.48,1.37,1.85,2.29,3.39,2.29h1.4l0.07,3.24
		C62.06,40.79,61.95,41.07,61.75,41.28z"></path>
  <path fill="#f26e62" d="M3.9,32.77l-0.32,4.16c0,0.16-0.15,0.28-0.31,0.28H2.05l0.16-4.78h1.37c0.13,0,0.2,0.07,0.24,0.1
		C3.86,32.57,3.91,32.65,3.9,32.77z"></path>
  <path fill="#ffdc7d" d="M13.66,36.64c-3.27,0-5.93,2.67-5.93,5.93c0,3.27,2.67,5.92,5.93,5.92c3.27,0,5.92-2.66,5.92-5.92
		C19.59,39.31,16.93,36.64,13.66,36.64z M13.66,46.84c-2.35,0-4.26-1.91-4.26-4.26c0-2.35,1.91-4.26,4.26-4.26
		c2.35,0,4.26,1.91,4.26,4.26C17.92,44.93,16.01,46.84,13.66,46.84z"></path>
  <path fill="#ededee" d="M15.98,42.58c0,1.28-1.04,2.32-2.32,2.32c-1.28,0-2.32-1.04-2.32-2.32c0-1.28,1.04-2.32,2.32-2.32
		C14.94,40.26,15.98,41.3,15.98,42.58z"></path>
  <path fill="#ffdc7d" d="M55,42.56c-0.01-3.26-2.67-5.91-5.93-5.91c-3.27,0-5.92,2.67-5.92,5.93c0,3.27,2.66,5.92,5.92,5.92
		c3.27,0,5.91-2.65,5.93-5.91c0-0.01-0.01-0.01-0.01-0.02C54.99,42.57,55,42.57,55,42.56z M49.07,46.84c-2.35,0-4.26-1.91-4.26-4.26
		c0-2.35,1.91-4.26,4.26-4.26c2.35,0,4.26,1.91,4.26,4.26C53.32,44.93,51.41,46.84,49.07,46.84z"></path>
  <path fill="#ededee" d="M51.38,42.58c0,1.28-1.04,2.32-2.32,2.32c-1.28,0-2.32-1.04-2.32-2.32c0-1.28,1.04-2.32,2.32-2.32
		C50.35,40.26,51.38,41.3,51.38,42.58z"></path>
  <path fill="#ffdc7d" d="M61.95,35.32H60.6c-0.73,0-1.35-0.4-1.56-0.99c-0.49-1.44,0.86-2.76,2.34-3.74c0.29,0.48,0.48,1.03,0.51,1.61
		L61.95,35.32z"></path>
  <path fill="#4fbee6" d="M61.99,37.26h-1.4c-1.54,0-2.91-0.92-3.39-2.29c-0.49-1.45-0.35-3.57,2.75-5.76
		c-0.21-0.12-0.44-0.22-0.68-0.31l-9.65-3.2c-1.69-0.56-3.18-1.47-4.44-2.7l-4.95-4.76c-1.83-1.77-4.25-2.74-6.79-2.74H15.69
		c-2.31,0-4.51,0.98-6.06,2.68l-4.41,4.84c-1.74,1.9-2.77,4.35-2.93,6.92l-0.02,0.55h1.31c0.63,0,1.24,0.26,1.67,0.73
		c0.42,0.46,0.63,1.08,0.58,1.71l-0.31,4.14c-0.07,1.16-1.06,2.08-2.25,2.08H1.98l-0.04,1.34c-0.01,0.29,0.1,0.58,0.31,0.8
		c0.2,0.21,0.48,0.33,0.79,0.33h2.82c0.48-3.88,3.79-6.9,7.81-6.9c4,0,7.32,3.03,7.8,6.9h19.8c0.48-3.88,3.8-6.9,7.81-6.9
		c4.01,0,7.33,3.03,7.81,6.9h4.09c0.3,0,0.57-0.12,0.79-0.33c0.2-0.21,0.31-0.48,0.31-0.79L61.99,37.26z M9.74,30.2H7.8
		c-0.54,0-0.97-0.44-0.97-0.97c0-0.53,0.43-0.97,0.97-0.97h1.94c0.53,0,0.97,0.44,0.97,0.97C10.71,29.76,10.27,30.2,9.74,30.2z
		 M26.85,30.2h-1.94c-0.53,0-0.97-0.44-0.97-0.97c0-0.53,0.44-0.97,0.97-0.97h1.94c0.54,0,0.97,0.44,0.97,0.97
		C27.82,29.76,27.39,30.2,26.85,30.2z M45.93,26.72c-0.13,0.4-0.5,0.68-0.93,0.68H6.76c-0.34,0-0.66-0.18-0.83-0.48
		c-0.17-0.29-0.17-0.66-0.01-0.96c0.16-0.29,3.95-7.13,8.62-8.58c0.1-0.03,0.19-0.05,0.29-0.05h19.3c2,0,3.86,0.9,5.12,2.48
		c1.27,1.59,3.6,3.96,6.31,5.81C45.91,25.86,46.06,26.31,45.93,26.72z"></path>
  <path fill="#38a9da" d="M41.55 40.26c-.14.43-.23.88-.29 1.35h-19.8c-.06-.47-.16-.92-.28-1.35H41.55zM6.15 40.26c-.14.43-.23.88-.29 1.35H3.04c-.3 0-.58-.12-.79-.33-.21-.21-.32-.5-.31-.8l.04-1.34h1.34v.12c-.01.26.1.51.3.71.19.18.47.29.75.29H6.15zM59.96 29.21c-.38.27-.72.53-1.01.8-.25-.21-.86-.41-1.05-.47l-9.17-2.77c-1.61-.49-3.03-1.67-4.24-2.74l-4.72-4.22c-1.76-1.57-3.97-2.68-6.39-2.68H16.44c-2.2 0-4.3.87-5.78 2.38l-4.21 4.28c-1.66 1.69-2.65 3.86-2.79 6.14l-.03.56H2.27l.02-.55c.16-2.57 1.19-5.02 2.93-6.92l4.41-4.84c1.55-1.7 3.75-2.68 6.06-2.68h17.75c2.54 0 4.95.97 6.79 2.74L45.19 23c1.26 1.22 2.75 2.13 4.44 2.7l9.65 3.2C59.52 28.98 59.74 29.09 59.96 29.21zM62.06 40.49c0 .3-.11.57-.31.79-.21.21-.48.33-.79.33h-4.09c-.06-.47-.16-.92-.28-1.35h3.04c.28 0 .54-.11.75-.29.19-.19.3-.43.3-.7l-.05-2.02h1.36L62.06 40.49z"></path>
  <path fill="#2b2f64" d="M45.56,25.62c-2.72-1.85-5.04-4.22-6.31-5.81c-1.26-1.58-3.12-2.48-5.12-2.48h-19.3
		c-0.1,0-0.19,0.02-0.29,0.05c-4.67,1.45-8.47,8.29-8.62,8.58c-0.16,0.3-0.16,0.67,0.01,0.96c0.17,0.29,0.49,0.48,0.83,0.48H45
		c0.43,0,0.8-0.28,0.93-0.68C46.06,26.31,45.91,25.86,45.56,25.62z M22.54,25.45H8.5c1.28-1.94,3.78-5.27,6.49-6.19h8.52
		C22.79,20.71,22,23,22.54,25.45z M24.53,25.45c-0.79-2.61,0.59-5.23,1.19-6.19h8.4c1.41,0,2.72,0.64,3.61,1.75
		c0.97,1.22,2.53,2.87,4.4,4.43H24.53z"></path>
  <path fill="#ededee" d="M22.54 25.45H8.5c1.28-1.94 3.78-5.27 6.49-6.19h8.52C22.79 20.71 22 23 22.54 25.45zM42.13 25.45h-17.6c-.79-2.61.59-5.23 1.19-6.19h8.4c1.41 0 2.72.64 3.61 1.75C38.7 22.25 40.26 23.89 42.13 25.45z"></path>
  <path fill="#d7d6d6" d="M23.51,19.27c-0.16,0.31-0.31,0.66-0.45,1.04h-6.89c-2.4,0.77-4.63,3.54-5.76,5.15H8.5
		c1.28-1.94,3.78-5.27,6.49-6.19H23.51z"></path>
  <path fill="#ededee" d="M22.54,25.45H10.41c1.13-1.61,3.35-4.38,5.76-5.15h6.89C22.52,21.7,22.12,23.53,22.54,25.45z"></path>
  <path fill="#d7d6d6" d="M42.13,25.45h-1.86c-1.66-1.3-3.04-2.67-3.91-3.68c-0.8-0.93-1.96-1.46-3.2-1.46h-8
		c0.2-0.44,0.41-0.8,0.56-1.04h8.4c1.41,0,2.72,0.64,3.61,1.75C38.7,22.25,40.26,23.89,42.13,25.45z"></path>
  <path fill="#2b2f64" d="M10.71 29.23c0 .53-.44.97-.97.97H7.8c-.54 0-.97-.44-.97-.97 0-.53.43-.97.97-.97h1.94C10.27 28.26 10.71 28.69 10.71 29.23zM27.82 29.23c0 .53-.43.97-.97.97h-1.94c-.53 0-.97-.44-.97-.97 0-.53.44-.97.97-.97h1.94C27.39 28.26 27.82 28.69 27.82 29.23z"></path>
</svg>
