<svg xmlns="http://www.w3.org/2000/svg" viewBox="0 0 64 64" id="cat">
  <g>
    <path fill="#b27a49" d="M16.67 61H11a7 7 0 0 1-7-7V31a2.006 2.006 0 0 1 2-2 2.015 2.015 0 0 1 2 2v22a4 4 0 0 0 4 4h1l.19-.09A10.646 10.646 0 0 0 16.67 61Z"></path>
    <path fill="#ffb3c0" d="M42 2.17 44 9h-3.06a.991.991 0 0 1-.86-1.39C41.03 5.27 41 1 41 1a1.089 1.089 0 0 1 1 1.17zM23.92 7.61A.991.991 0 0 1 23.06 9H20l2-6.83A1.089 1.089 0 0 1 23 1s-.03 4.27.92 6.61z"></path>
    <path fill="#e3a76f" d="M46 14.38c.49 1.8 3 7.39 3 7.39a10.667 10.667 0 0 1-.23 2.23 9.385 9.385 0 0 1-1.86 3.96A7.758 7.758 0 0 1 41 31l9.1 14.65a11.817 11.817 0 0 1 1.88 6.94 10.984 10.984 0 0 1-7.2 9.73A10.782 10.782 0 0 1 41 63h-7.04A1.963 1.963 0 0 1 32 61.04 1.963 1.963 0 0 1 30.04 63H23a10.782 10.782 0 0 1-3.78-.68A10.269 10.269 0 0 1 16.67 61a10.646 10.646 0 0 1-3.48-4.09 11.292 11.292 0 0 1-1.17-4.32 11.817 11.817 0 0 1 1.88-6.94L23 31a7.607 7.607 0 0 1-5.45-2.51c-.16-.17-.31-.34-.46-.53A9.385 9.385 0 0 1 15.23 24a10.667 10.667 0 0 1-.23-2.23s2.51-5.59 3-7.39A22.179 22.179 0 0 1 20 9h3.06a.991.991 0 0 0 .86-1.39C22.97 5.27 23 1 23 1a.92.92 0 0 1 .6.24l4.81 5.13a2 2 0 0 0 1.45.63h4.28a2 2 0 0 0 1.45-.63l4.81-5.13A.92.92 0 0 1 41 1s.03 4.27-.92 6.61A.991.991 0 0 0 40.94 9H44a22.179 22.179 0 0 1 2 5.38Z"></path>
    <path fill="#e3a76f" d="M44 51v-7.528a4 4 0 1 0-8 0V51a10.127 10.127 0 0 1-3.19 7.52 2 2 0 0 0-.81 1.59v.93A1.963 1.963 0 0 0 33.96 63H38c2.76 0 6-4.81 6-12zm-12.81 7.52A10.127 10.127 0 0 1 28 51v-7.528a4 4 0 1 0-8 0V51c0 7.19 3.24 12 6 12h4.04A1.963 1.963 0 0 0 32 61.04v-.93a2 2 0 0 0-.81-1.59z"></path>
    <path fill="#ff8fa3" d="M41.08 7.61a18.891 18.891 0 0 0 .9-5.563A1.062 1.062 0 0 0 41 1s.03 4.27-.92 6.61A.991.991 0 0 0 40.94 9h1a.991.991 0 0 1-.86-1.39Z"></path>
    <path fill="#f5b57b" d="M28.41 8.37a2 2 0 0 0 1.45.63h4.28a2 2 0 0 0 1.45-.63l4.81-5.13a.932.932 0 0 1 .527-.226C41.005 1.859 41 1 41 1a.92.92 0 0 0-.6.24l-4.81 5.13a2 2 0 0 1-1.45.63h-4.28a2 2 0 0 1-1.45-.63L23.6 1.24A.92.92 0 0 0 23 1s0 .859.073 2.014a.932.932 0 0 1 .527.226zm13.379 31.524a4 4 0 0 0-5.083 1.315 4.189 4.189 0 0 1 3.083.191A3.721 3.721 0 0 1 42 44.744v7.038C42 58.5 38.76 63 36 63h2c2.76 0 6-4.81 6-12v-7.528a4 4 0 0 0-2.211-3.578z"></path>
    <path fill="#c48958" d="M33 45.472V53a10.6 10.6 0 0 1-1 4.479A10.6 10.6 0 0 1 31 53v-7.528a4 4 0 0 0-3.514-3.967A3.965 3.965 0 0 1 28 43.472V51a10.127 10.127 0 0 0 3.19 7.52 2.1 2.1 0 0 1 .168.159A1.976 1.976 0 0 1 32 60.11a1.976 1.976 0 0 1 .642-1.431 2.1 2.1 0 0 1 .168-.159A10.127 10.127 0 0 0 36 51v-7.528a3.965 3.965 0 0 1 .514-1.967A4 4 0 0 0 33 45.472zM32 34c4.457 0 8.942-.719 9.83-1.663L41 31H23l-.83 1.337C23.058 33.281 27.543 34 32 34z"></path>
    <path fill="#ff8fa3" d="M22.9 7.61a18.927 18.927 0 0 1-.9-5.563A1.064 1.064 0 0 1 22.98 1s-.03 4.27.92 6.61A.991.991 0 0 1 23.04 9h-1a.991.991 0 0 0 .86-1.39Z"></path>
    <path fill="#c48958" d="M6 33v21a5 5 0 0 0 5 5h.673a6.814 6.814 0 0 1-.614-2.123A3.992 3.992 0 0 1 8 53V31a2.015 2.015 0 0 0-2-2 2.006 2.006 0 0 0-2 2 2 2 0 0 1 2 2Z"></path>
    <path fill="#b27a49" d="M14.535 59a10.839 10.839 0 0 1-1.345-2.09L13 57h-1a4 4 0 0 1-.941-.123A6.814 6.814 0 0 0 11.673 59a5.73 5.73 0 0 0 1.563 2h3.434a10.414 10.414 0 0 1-2.135-2Z"></path>
    <path fill="#f5b57b" d="M22.211 39.894a4 4 0 0 1 5.083 1.315 4.189 4.189 0 0 0-3.083.191A3.721 3.721 0 0 0 22 44.744v7.038C22 58.5 25.24 63 28 63h-2c-2.76 0-6-4.81-6-12v-7.528a4 4 0 0 1 2.211-3.578Z"></path>
    <path fill="#f5b57b" d="M19.737 61a10.384 10.384 0 0 1-2.784-4.09 13.551 13.551 0 0 1-.936-4.32 14.117 14.117 0 0 1 1.5-6.94L24.8 31a5.65 5.65 0 0 1-4.359-2.51 7.721 7.721 0 0 1-.368-.53A10.551 10.551 0 0 1 18.585 24a13.244 13.244 0 0 1-.184-2.23s2.008-5.59 2.4-7.39A25.886 25.886 0 0 1 22.4 9H20a22.179 22.179 0 0 0-2 5.38c-.49 1.8-3 7.39-3 7.39a10.667 10.667 0 0 0 .23 2.23 9.385 9.385 0 0 0 1.86 3.96c.15.19.3.36.46.53A7.607 7.607 0 0 0 23 31l-9.1 14.65a11.817 11.817 0 0 0-1.88 6.94 11.292 11.292 0 0 0 1.17 4.32A10.646 10.646 0 0 0 16.67 61a10.269 10.269 0 0 0 2.55 1.32A10.782 10.782 0 0 0 23 63h1.8a7.113 7.113 0 0 1-3.023-.68 7.788 7.788 0 0 1-2.04-1.32zM50.1 45.65 41 31a7.758 7.758 0 0 0 5.91-3.04A9.385 9.385 0 0 0 48.77 24a10.667 10.667 0 0 0 .23-2.23s-2.51-5.59-3-7.39A22.179 22.179 0 0 0 44 9h-2.4a25.886 25.886 0 0 1 1.6 5.38c.392 1.8 2.4 7.39 2.4 7.39a13.244 13.244 0 0 1-.185 2.23 10.551 10.551 0 0 1-1.488 3.96A5.909 5.909 0 0 1 39.2 31l7.279 14.65a14.117 14.117 0 0 1 1.5 6.94c-.232 4.27-2.344 8.23-5.76 9.73A7.113 7.113 0 0 1 39.2 63H41a10.782 10.782 0 0 0 3.78-.68 10.984 10.984 0 0 0 7.2-9.73 11.817 11.817 0 0 0-1.88-6.94z"></path>
    <ellipse cx="40.258" cy="43.814" fill="#f6fafd" rx=".825" ry="1.148" transform="rotate(-45.02 40.258 43.814)"></ellipse>
    <ellipse cx="39.258" cy="10.814" fill="#f6fafd" rx=".825" ry="1.148" transform="rotate(-45.02 39.258 10.814)"></ellipse>
    <ellipse cx="40.004" cy="46.314" fill="#f6fafd" rx=".413" ry=".574" transform="rotate(-45.02 40.003 46.314)"></ellipse>
    <ellipse cx="41.004" cy="12.314" fill="#f6fafd" rx=".413" ry=".574" transform="rotate(-45.02 41.004 12.315)"></ellipse>
    <path fill="#ffb3c0" d="M33 21a1 1 0 0 1 .8 1.6l-1 1.33a.993.993 0 0 1-1.6 0l-1-1.33A1 1 0 0 1 31 21Z"></path>
    <path fill="none" stroke="#000" stroke-linejoin="round" stroke-width="2" d="M31 21h2a1 1 0 0 1 .8 1.6l-1 1.33a.993.993 0 0 1-1.6 0l-1-1.33A1 1 0 0 1 31 21ZM29 27l3-2 3 2"></path>
    <ellipse cx="40" cy="19" fill="none" stroke="#000" stroke-linejoin="round" stroke-width="2" rx="1.259" ry=".636" transform="rotate(-45 40 19)"></ellipse>
    <ellipse cx="24" cy="19" fill="none" stroke="#000" stroke-linejoin="round" stroke-width="2" rx=".636" ry="1.259" transform="rotate(-45 24 19)"></ellipse>
    <path fill="none" stroke="#000" stroke-linejoin="round" stroke-width="2" d="M23 1s-.03 4.27.92 6.61A.991.991 0 0 1 23.06 9H20m21-8s.03 4.27-.92 6.61A.991.991 0 0 0 40.94 9H44M22 22l-6-2M22 26l-4.91 1.96L17 28M22 24h-7M42 22l6-2M42 26l4.91 1.96.09.04M42 24h7M34.96 63h-3.92"></path>
    <path fill="none" stroke="#000" stroke-linejoin="round" stroke-width="2" d="M27 63h-4a10.782 10.782 0 0 1-3.78-.68A10.269 10.269 0 0 1 16.67 61a10.646 10.646 0 0 1-3.48-4.09 11.292 11.292 0 0 1-1.17-4.32 11.817 11.817 0 0 1 1.88-6.94L23 31a7.607 7.607 0 0 1-5.45-2.51c-.16-.17-.31-.34-.46-.53A9.385 9.385 0 0 1 15.23 24a10.667 10.667 0 0 1-.23-2.23s2.51-5.59 3-7.39A22.179 22.179 0 0 1 20 9l2-6.83A1.089 1.089 0 0 1 23 1a.92.92 0 0 1 .6.24l4.81 5.13a2 2 0 0 0 1.45.63h4.28a2 2 0 0 0 1.45-.63l4.81-5.13A.92.92 0 0 1 41 1a1.089 1.089 0 0 1 1 1.17L44 9a22.179 22.179 0 0 1 2 5.38c.49 1.8 3 7.39 3 7.39a10.667 10.667 0 0 1-.23 2.23 9.385 9.385 0 0 1-1.86 3.96A7.758 7.758 0 0 1 41 31l9.1 14.65a11.817 11.817 0 0 1 1.88 6.94 10.984 10.984 0 0 1-7.2 9.73A10.782 10.782 0 0 1 41 63h-2M23 31h3M38 31h3"></path>
    <path fill="none" stroke="#000" stroke-linejoin="round" stroke-width="2" d="M36 51a10.127 10.127 0 0 1-3.19 7.52 2 2 0 0 0-.81 1.59m0 .93A1.963 1.963 0 0 0 33.96 63H38c2.76 0 6-4.81 6-12m-16 0a10.127 10.127 0 0 0 3.19 7.52 2 2 0 0 1 .81 1.59v.93A1.963 1.963 0 0 1 30.04 63H26c-2.76 0-6-4.81-6-12m-3 10h-6a7 7 0 0 1-7-7V31a2.006 2.006 0 0 1 2-2 2.015 2.015 0 0 1 2 2v22a4 4 0 0 0 4 4h1"></path>
  </g>
</svg>
