<svg xmlns="http://www.w3.org/2000/svg" width="200" height="200" id="diamond">
  <path fill="#191818" d="M156.811 54.528H43.159L0 97.64l96.874 96.875 3.119 3.117 3.117-3.117L200 97.64l-43.189-43.112zM99.992 187.565l-8.136-8.134L10.082 97.64l36.02-35.99h107.763l36.056 35.99-81.793 81.792-8.136 8.133z"></path>
  <path fill="#191818" d="m63.434 94.079 28.423 85.353 5.017 15.083 3.119 3.117 3.117-3.117 5.018-15.083 28.409-85.353H63.434zm36.558 87.252-26.684-80.13h53.351l-26.667 80.13z"></path>
  <path fill="#191818" d="M74.664 101.198H5.041v-7.122h57.042L41.576 59.925l6.108-3.666z"></path>
  <path fill="#191818" d="m67.956 103.86-26.38-43.935 6.108-3.666 21.107 35.154L97.21 55.868l5.561 4.448z"></path>
  <path fill="#191818" d="M132.02 103.86 97.21 60.316l5.561-4.448 28.414 35.545 21.103-35.154 6.108 3.666z"></path>
  <path fill="#191818" d="M194.96 101.198h-69.648l26.976-44.939 6.108 3.666-20.503 34.151h57.067z"></path>
  <g fill="#191818">
    <path d="M96.439 2.368h7.123v23.74h-7.123zM125.598 6.757l6.582 2.727-9.09 21.934-6.58-2.728zM150.872 21.956l5.035 5.035-16.788 16.788-5.036-5.035zM74.399 6.752l9.086 21.935-6.582 2.726-9.086-21.935zM49.133 21.961l16.784 16.79-5.036 5.034-16.784-16.79z"></path>
  </g>
</svg>
