<svg xmlns="http://www.w3.org/2000/svg" enable-background="new 0 0 48 48" viewBox="0 0 48 48" id="ears">
  <g id="Line">
    <path fill="#ffd889" d="M28.29,2C21.1,1.96,14.73,7.06,13,14c0,0,0,25,0,25c0.33,9.26,13.67,9.27,14,0c-0.09-1.5,0.38-2.99,1.46-4.05
		c0,0,2.26-2.26,2.26-2.26C36.06,27.35,39,20.26,39,12.71C39,6.8,34.2,2,28.29,2z"></path>
    <path d="M20,46c4.06,0.02,7.25-3.48,7-7.51c0-1.34,0.52-2.59,1.46-3.54C34.93,29.19,39.09,21.49,39,12.71C39,6.8,34.2,2,28.29,2
		c-6.58,0-12.5,4.15-14.75,10.33l-0.48,1.33C13.02,13.77,13,13.88,13,14v25C13,42.86,16.14,46,20,46z M15,14.18
		C16.7,8.26,22.08,3.96,28.29,4C33.09,4,37,7.91,37,12.71c0.07,8.31-3.85,15.39-9.95,20.83C25.59,34.97,24.9,36.96,25,39
		c0,2.76-2.24,5-5,5s-5-2.24-5-5V14.18z"></path>
    <path d="M20,36c2.58,0.3,5.01-1.48,5-4.17c0-2.63,1.4-5.1,3.65-6.45C32.57,23.03,35,18.73,35,14.16C35,10.21,31.79,7,27.83,7
		c-6.61,0.09-9.8,8.77-9.84,14.38c0,0,0,4.62,0,4.62c0,0.55,0.45,1,1,1s1-0.45,1-1v-1c0-4.41,3.59-8,8-8c1.31-0.02,1.32-1.98,0-2
		c-3.14,0-5.94,1.45-7.77,3.72c0.48-2.91,1.75-5.65,3.69-7.92c3.03-3.62,9.14-1.37,9.08,3.36c0,3.87-2.06,7.51-5.38,9.49
		C24.77,25.37,23,28.5,23,31.83c0,1.2-0.98,2.17-2.17,2.17H20c-0.55,0-1-0.45-1-1c0-0.55-0.45-1-1-1s-1,0.45-1,1
		C17,34.65,18.35,36,20,36z"></path>
  </g>
</svg>
