<svg xmlns="http://www.w3.org/2000/svg" xml:space="preserve" width="512" height="512" id="eiffel">
  <path fill="#FF9B29" d="M286.863 115.799h-61.786c3.707 227-99.107 346-99.107 346h69.45c13.883-52 60.55-56 60.55-56s46.667 4 60.55 56h69.45s-102.814-119-99.107-346zm-53.113 234 10-95h24.5l10 95h-44.5z"></path>
  <path fill="#FFB561" d="M255.97 75.333a2.515 2.515 0 0 1-2.515-2.515v-50.97a2.515 2.515 0 1 1 5.03 0v50.97a2.515 2.515 0 0 1-2.515 2.515z"></path>
  <path fill="#FF9B29" d="M268.25 263.799h-24.5l-10 68h44.5l-10-68zm-20.182 5h15.863l8.529 58h-32.922l8.53-58z"></path>
  <path fill="#FFD161" d="M286.863 98.333h-61.786c3.707 227.372-99.107 346-99.107 346h69.45c13.883-52 60.55-56 60.55-56s46.667 4 60.55 56h69.45s-102.814-119-99.107-346zm-53.113 234 10-68.5h24.5l10 68.5h-44.5z"></path>
  <path fill="#FF9B29" d="M219.47 470.333h-93.5l11.5-26h72.5zM251 108.799h-15.829c.015 6-.062 12-.196 18H251v-18zM276.965 126.799c-.134-6-.211-12-.197-18H261v18h15.965zM251 133.799h-16.218c-.125 3-.281 8-.466 12H251v-12zM251 152.799h-17.053c-.227 3-.489 7-.775 11H251v-11zM334.118 434.799h31.912c-5.065-8-11.354-17-18.242-29h-26.971l13.301 29zM251 373.799h-31.5l-11.263 25h3.796c15.324-14 31.967-18.64 38.967-19.918v-5.082zM317.661 398.799h26.284c-3.978-8-8.109-17-12.282-25h-25.048l11.046 25zM261 254.799h15.896l3.964 27h17.666c-7.231-28-13.442-58-17.355-92H261v65zM292.441 373.799H261v5.082c7 1.278 23.584 5.918 38.907 19.918h3.796l-11.262-25zM289.816 342.799h2.821l10.821 24h24.999c-.867-2-1.735-3.894-2.603-5.892-8.468-19.5-17.469-44.108-25.42-72.108h-18.546l7.928 54zM261 182.799h19.424c-.391-4-.761-9-1.094-12H261v12zM251 170.799h-18.381c-.332 3-.701 8-1.091 12H251v-12zM261 163.799h17.776c-.287-4-.549-8-.777-11H261v11zM261 145.799h16.628c-.185-4-.342-9-.468-12H261v12zM251 342.799h-17.25l-11.033 24H251zM219.304 342.799h2.881l7.928-54h-18.558c-7.964 28-16.984 52.726-25.469 72.25-.847 1.95-1.695 3.75-2.542 5.75h24.939l10.821-24zM205.326 373.799h-24.988c-4.174 8-8.307 17-12.288 25h26.229l11.047-25zM164.204 405.799c-6.895 12-13.193 21-18.266 29h31.885l13.301-29h-26.92zM289.223 366.799l-11.033-24H261v24zM235.104 254.799H251v-65h-20.217c-3.904 34-10.104 64-17.324 92h17.681l3.964-27z"></path>
  <path fill="#FF9B29" d="M295.764 221.799h-79.565c-.806 5-1.659 10-2.551 15h84.673c-.893-5-1.749-10-2.557-15zM329.548 343.799c-2.809-7-5.588-15-8.3-22h-44.605l1.606 11h-44.5l1.606-11h-44.607c-.011 0-.023-.17-.034-.139-2.699 7.656-5.466 15.064-8.261 22.015l-.003.123h147.098z"></path>
  <path fill="#FFD161" d="M164.484 315.333h183v22h-183z"></path>
  <path fill="#FF9B29" d="M347.484 337.333h-183l15.532 12h151.982z"></path>
  <circle cx="255.97" cy="76.333" r="24.667" fill="#FFD161"></circle>
  <path fill="#FFD161" d="M224.637 75.333h62.667v36h-62.667z"></path>
  <path fill="#FF9B29" d="M224.637 83h62.667v20.667h-62.667z"></path>
  <path fill="#FFD161" d="M219.304 91.834h73.333v14.833h-73.333z"></path>
  <path fill="#FF9B29" d="M286.793 116.333H225.13l-5.826-9.666h73.333z"></path>
  <path fill="#FFD161" d="M203.97 226.833h104v18h-104z"></path>
  <path fill="#FF9B29" d="M307.97 244.833h-104l5.857 9.603h92.323z"></path>
  <path fill="#FFD161" d="M218.895 200.333h73.741v7h-73.741z"></path>
  <path fill="#FFB561" d="M202.47 470.333h-93.5l11.5-26h74.95z"></path>
  <path fill="#FF9B29" d="M292.234 470.333h93.5l-11.5-26h-72.5z"></path>
  <path fill="#FFB561" d="M309.234 470.333h93.5l-11.5-26h-74.95z"></path>
  <circle cx="246.86" cy="64.944" r="5.611" fill="#FFF"></circle>
  <path fill="#ADADAD" d="M93.333 470.334h325.333v22.333H93.333z"></path>
</svg>
