<svg xmlns="http://www.w3.org/2000/svg" viewBox="0 0 256 256" id="fjord">
  <path fill="#70D6F9" d="M158.793 250.243a16.096 16.096 0 0 1 15.322-7.38c3.146.341 6.148-.808 8.341-2.957v-33.893a246.34 246.34 0 0 1 6.283-55.266c-2.235.732-4.93 1.252-8.751 1.252-13 0-13-6-26-6s-13 6-26.001 6c-13 0-13-6-26-6-12.999 0-12.999 6-25.997 6-3.807 0-6.496-.517-8.726-1.245a246.326 246.326 0 0 1 6.281 55.258v33.893c2.194 2.149 5.195 3.297 8.341 2.957a16.096 16.096 0 0 1 15.322 7.38 11.54 11.54 0 0 0 3.097 3.257h55.392a11.519 11.519 0 0 0 3.096-3.256z"></path>
  <path fill="#87D147" d="M153.987 146c13 0 13 6 26 6 3.822 0 6.516-.52 8.751-1.252v.002a245.436 245.436 0 0 1 3.076-11.988l8.872-31.262h-2.088a18.007 18.007 0 0 0-14.495 7.324l-3.206 4.352a18.007 18.007 0 0 1-14.495 7.324h-7.712a18.004 18.004 0 0 0-16.717 11.318l-5.162 12.906c5.32-1.762 8.039-4.724 17.176-4.724zm-89.801-7.238a245.676 245.676 0 0 1 3.077 11.994c2.23.728 4.919 1.245 8.726 1.245 12.999 0 12.999-6 25.997-6 9.155 0 11.867 2.974 17.207 4.734l-5.166-12.916a18.004 18.004 0 0 0-16.717-11.318h-7.712a18.007 18.007 0 0 1-14.495-7.324l-3.206-4.352a18.007 18.007 0 0 0-14.495-7.324h-2.088l8.872 31.261z"></path>
  <circle cx="128" cy="35.137" r="16.032" fill="#F5C84C"></circle>
  <path fill="#C18E6B" d="m248.214 51.5-6.365-.123a8.325 8.325 0 0 0-8.342 6.787l-4.563 24.308c-1.927 5.542-7.176 9.019-13.028 9.15-6.314.141-11.891 4.111-13.615 10.187l-10.487 36.954a246.325 246.325 0 0 0-9.358 67.252v33.893a11.2 11.2 0 0 0 1.674-2.079 16.095 16.095 0 0 1 15.309-7.518c4.066.416 7.944-1.545 10.103-5.016a16.097 16.097 0 0 1 15.512-7.507c3.984.457 7.755-1.527 9.85-4.947 2.488-4.06 6.74-6.985 11.851-7.59a15.506 15.506 0 0 1 6.745.701V56.888a5.389 5.389 0 0 0-5.286-5.388zM9.245 205.249c5.11.604 9.363 3.53 11.851 7.59 2.096 3.419 5.866 5.404 9.85 4.947a16.097 16.097 0 0 1 15.512 7.507c2.159 3.471 6.037 5.431 10.103 5.016a16.097 16.097 0 0 1 15.309 7.518c.48.77 1.045 1.464 1.674 2.079v-33.893c0-22.742-3.149-45.374-9.358-67.252L53.702 101.82c-1.731-6.101-7.34-10.113-13.681-10.197a14.025 14.025 0 0 1-13.058-9.416l-4.478-24.032a8.325 8.325 0 0 0-8.344-6.798l-6.355.123A5.389 5.389 0 0 0 2.5 56.888V205.95a15.521 15.521 0 0 1 6.745-.701z"></path>
  <path fill="#87D147" d="M247.398 253.5a6.102 6.102 0 0 0 6.102-6.102V205.95a15.506 15.506 0 0 0-6.745-.701c-5.11.604-9.363 3.53-11.851 7.59-2.096 3.419-5.866 5.404-9.85 4.947a16.097 16.097 0 0 0-15.512 7.507c-2.159 3.471-6.037 5.431-10.103 5.016a16.097 16.097 0 0 0-15.309 7.518c-2.153 3.456-5.968 5.474-10.016 5.036a16.096 16.096 0 0 0-15.322 7.38 11.54 11.54 0 0 1-3.097 3.257h91.703zm-238.796 0a6.102 6.102 0 0 1-6.102-6.102V205.95a15.506 15.506 0 0 1 6.745-.701c5.11.604 9.363 3.53 11.851 7.59 2.096 3.419 5.866 5.404 9.85 4.947a16.097 16.097 0 0 1 15.512 7.507c2.159 3.471 6.037 5.431 10.103 5.016a16.097 16.097 0 0 1 15.309 7.518c2.153 3.456 5.968 5.474 10.016 5.036a16.096 16.096 0 0 1 15.322 7.38 11.54 11.54 0 0 0 3.097 3.257H8.602z"></path>
  <path fill="#B2E26D" d="m248.214 51.5-6.365-.123a8.325 8.325 0 0 0-8.342 6.787l-4.563 24.308c-1.927 5.542-7.176 9.019-13.028 9.15-6.314.141-11.891 4.111-13.615 10.187l-6.27 22.095c8.193-.321 18.545 2.181 24.868 14.597 8.143 15.992 20.918 19.402 32.601 11.936V56.888a5.389 5.389 0 0 0-5.286-5.388zm-240.428 0 6.365-.123a8.325 8.325 0 0 1 8.342 6.787l4.563 24.308c1.927 5.542 7.176 9.019 13.028 9.15 6.314.141 11.891 4.111 13.615 10.187l6.27 22.095c-8.193-.321-18.545 2.181-24.868 14.597-8.143 15.992-20.918 19.402-32.601 11.936V56.888A5.389 5.389 0 0 1 7.786 51.5z"></path>
  <path fill="#70D6F9" d="M134.35 105.2c-3.1-.6-5.6-3-6.2-6.1 0-.1-.3-.1-.3 0-.6 3.1-3.1 5.5-6.2 6.1-.1 0-.1.2 0 .3 3.1.6 5.6 3 6.2 6.1 0 .1.3.1.3 0 .6-3.1 3.1-5.5 6.2-6.1.1-.1.1-.3 0-.3z"></path>
  <path fill="#87D147" d="M50.013 68.5h2.3v2.3c0 1.8 1.4 3.2 3.2 3.2 1.7 0 3.2-1.4 3.2-3.1v-2.4h2.3c1.8 0 3.2-1.4 3.2-3.2 0-1.7-1.4-3.2-3.1-3.2h-2.4v-2.3c0-1.8-1.4-3.2-3.2-3.2-1.7 0-3.2 1.4-3.2 3.1v2.4h-2.3c-1.8 0-3.2 1.4-3.2 3.2-.1 1.7 1.3 3.2 3.2 3.2-.1 0-.1 0 0 0z"></path>
  <circle cx="46.413" cy="17.9" r="3.4" fill="#F5C84C"></circle>
  <circle cx="182.413" cy="74.4" r="3.4" fill="#FC657E"></circle>
  <path fill="#F5C84C" d="M208.813 27.2c4.5-.8 8-4.3 8.9-8.7 0-.2.4-.2.4 0 .9 4.4 4.4 7.9 8.9 8.7.2 0 .2.3 0 .4-4.5.8-8 4.3-8.9 8.7 0 .2-.4.2-.4 0-.9-4.4-4.4-7.9-8.9-8.7-.2-.1-.2-.4 0-.4z"></path>
  <path d="M168.17 184.068c-5.572 0-8.505-1.354-11.094-2.548-2.427-1.121-4.524-2.088-8.998-2.088s-6.57.968-8.998 2.088c-2.588 1.194-5.521 2.548-11.094 2.548-5.572 0-8.505-1.354-11.093-2.548-2.428-1.121-4.524-2.088-8.998-2.088-4.473 0-6.569.968-8.997 2.088-2.588 1.194-5.521 2.548-11.092 2.548a2.5 2.5 0 1 1 0-5c4.473 0 6.569-.968 8.996-2.088 2.588-1.194 5.521-2.548 11.092-2.548 5.572 0 8.505 1.354 11.094 2.548 2.427 1.121 4.524 2.088 8.998 2.088s6.57-.968 8.998-2.088c2.588-1.194 5.521-2.548 11.094-2.548 5.572 0 8.505 1.354 11.093 2.548 2.428 1.121 4.524 2.088 8.998 2.088a2.5 2.5 0 0 1 .001 5zm-40.183 28c-5.572 0-8.505-1.354-11.093-2.548-2.428-1.121-4.524-2.088-8.998-2.088a2.5 2.5 0 1 1 0-5c5.572 0 8.505 1.354 11.094 2.548 2.427 1.121 4.524 2.088 8.998 2.088s6.57-.968 8.998-2.088c2.588-1.194 5.521-2.548 11.094-2.548a2.5 2.5 0 1 1 0 5c-4.474 0-6.57.968-8.998 2.088-2.59 1.194-5.523 2.548-11.095 2.548z"></path>
  <path d="M190.425 148.902a2.497 2.497 0 0 0-2.464-.53c-2.349.77-4.883 1.128-7.973 1.128-5.951 0-8.867-1.346-11.953-2.77-3.28-1.514-6.999-3.23-14.047-3.23-7.049 0-10.768 1.716-14.048 3.23-3.086 1.425-6.001 2.77-11.953 2.77-5.951 0-8.866-1.345-11.952-2.77-3.281-1.514-6.999-3.23-14.048-3.23s-10.767 1.716-14.047 3.23c-3.086 1.425-6 2.77-11.951 2.77-3.081 0-5.607-.356-7.95-1.121a2.5 2.5 0 0 0-3.213 2.938 244.205 244.205 0 0 1 6.217 54.697v33.893c0 .672.271 1.316.75 1.786 2.792 2.734 6.564 4.07 10.36 3.656 5.187-.561 10.142 1.83 12.943 6.236a13.969 13.969 0 0 0 3.771 3.961c.421.295.923.454 1.437.454h55.392c.514 0 1.016-.159 1.437-.454a13.995 13.995 0 0 0 3.771-3.961c2.802-4.407 7.765-6.797 12.943-6.236 3.794.41 7.569-.923 10.36-3.656a2.5 2.5 0 0 0 .75-1.786v-33.893c0-18.375 2.092-36.78 6.219-54.705a2.501 2.501 0 0 0-.751-2.407zm-10.468 57.112v32.759c-1.61 1.239-3.594 1.82-5.572 1.605-7.089-.767-13.87 2.499-17.701 8.524a9.08 9.08 0 0 1-1.833 2.098H101.15a9.08 9.08 0 0 1-1.833-2.098c-3.831-6.025-10.61-9.292-17.701-8.524-1.982.212-3.962-.367-5.572-1.605v-32.759c0-17.416-1.841-34.856-5.477-51.906 1.677.265 3.461.392 5.422.392 7.048 0 10.766-1.716 14.046-3.23 3.086-1.425 6.001-2.77 11.951-2.77 5.951 0 8.866 1.345 11.952 2.77 3.281 1.514 6.999 3.23 14.048 3.23s10.768-1.716 14.048-3.23c3.086-1.425 6.001-2.77 11.953-2.77 5.951 0 8.866 1.345 11.952 2.77 3.281 1.514 6.999 3.23 14.048 3.23 1.97 0 3.762-.128 5.447-.396a249.23 249.23 0 0 0-5.477 51.91z"></path>
  <path d="M179.988 154.5c-7.049 0-10.768-1.716-14.048-3.23-3.086-1.425-6.001-2.77-11.952-2.77-5.953 0-8.87 1.345-11.958 2.77-1.359.626-2.764 1.275-4.433 1.827a2.501 2.501 0 0 1-3.106-3.302l5.162-12.906c3.132-7.83 10.605-12.89 19.039-12.89h7.712c4.906 0 9.572-2.358 12.482-6.307l3.206-4.352a20.583 20.583 0 0 1 16.507-8.341h2.088a2.502 2.502 0 0 1 2.405 3.183l-8.871 31.262a243.848 243.848 0 0 0-3.044 11.866 2.502 2.502 0 0 1-1.772 1.85c-2.835.914-5.83 1.34-9.417 1.34zm-26.001-11c7.049 0 10.767 1.716 14.047 3.23 3.086 1.424 6.002 2.77 11.953 2.77 2.519 0 4.668-.238 6.649-.743a249.067 249.067 0 0 1 2.773-10.678l7.954-28.029a15.573 15.573 0 0 0-11.248 6.257l-3.206 4.352A20.583 20.583 0 0 1 166.402 129h-7.712a15.43 15.43 0 0 0-14.396 9.747l-2.934 7.334c2.974-1.316 6.573-2.581 12.627-2.581zm-77.998 11c-3.623 0-6.643-.435-9.502-1.368a2.502 2.502 0 0 1-1.661-1.816 245.519 245.519 0 0 0-3.045-11.872l-8.872-31.262a2.5 2.5 0 0 1 2.406-3.183h2.088a20.58 20.58 0 0 1 16.507 8.341l3.206 4.352a15.563 15.563 0 0 0 12.482 6.307h7.713c8.433 0 15.906 5.06 19.038 12.889l5.166 12.917a2.502 2.502 0 0 1-3.104 3.303c-1.683-.555-3.098-1.208-4.466-1.838-3.088-1.425-6.005-2.77-11.958-2.77-5.95 0-8.865 1.345-11.951 2.77-3.281 1.514-6.999 3.23-14.047 3.23zm-6.624-5.737c1.974.501 4.115.737 6.624.737 5.95 0 8.865-1.345 11.951-2.77 3.28-1.514 6.998-3.23 14.047-3.23 6.076 0 9.679 1.274 12.659 2.596l-2.939-7.35A15.431 15.431 0 0 0 97.311 129h-7.713a20.58 20.58 0 0 1-16.507-8.341l-3.206-4.352a15.57 15.57 0 0 0-11.248-6.257l7.955 28.029c.99 3.493 1.922 7.081 2.773 10.684zM128 53.669c-10.219 0-18.532-8.313-18.532-18.532S117.781 16.605 128 16.605s18.532 8.313 18.532 18.532S138.219 53.669 128 53.669zm0-32.064c-7.462 0-13.532 6.07-13.532 13.532s6.07 13.532 13.532 13.532 13.532-6.07 13.532-13.532-6.07-13.532-13.532-13.532zm0-10.879a2.5 2.5 0 0 1-2.5-2.5V2.5a2.5 2.5 0 1 1 5 0v5.726a2.5 2.5 0 0 1-2.5 2.5zm0 59.548a2.5 2.5 0 0 1-2.5-2.5v-5.726a2.5 2.5 0 1 1 5 0v5.726a2.5 2.5 0 0 1-2.5 2.5zm-13.453-55.942a2.497 2.497 0 0 1-2.167-1.25l-2.863-4.958a2.5 2.5 0 1 1 4.33-2.5l2.863 4.958a2.5 2.5 0 0 1-2.163 3.75zm29.774 51.57a2.499 2.499 0 0 1-2.167-1.25l-2.863-4.959a2.5 2.5 0 1 1 4.33-2.5l2.863 4.959a2.5 2.5 0 0 1-2.163 3.75zm-39.629-41.72c-.424 0-.854-.108-1.248-.335l-4.959-2.863a2.5 2.5 0 1 1 2.5-4.33l4.959 2.863a2.5 2.5 0 0 1-1.252 4.665zm51.57 29.774c-.424 0-.854-.108-1.248-.335l-4.959-2.863a2.5 2.5 0 1 1 2.5-4.33l4.959 2.863a2.5 2.5 0 0 1-1.252 4.665zm-55.173-16.319h-5.726a2.5 2.5 0 1 1 0-5h5.726a2.5 2.5 0 1 1 0 5zm59.548 0h-5.726a2.5 2.5 0 1 1 0-5h5.726a2.5 2.5 0 1 1 0 5zM99.738 53.956a2.499 2.499 0 0 1-1.252-4.665l4.959-2.863a2.499 2.499 0 1 1 2.5 4.33l-4.959 2.863a2.494 2.494 0 0 1-1.248.335zm51.57-29.774a2.5 2.5 0 0 1-1.252-4.665l4.959-2.863a2.5 2.5 0 0 1 2.5 4.33l-4.959 2.863a2.494 2.494 0 0 1-1.248.335zm-39.629 41.72a2.5 2.5 0 0 1-2.163-3.75l2.863-4.959a2.5 2.5 0 1 1 4.33 2.5l-2.863 4.959a2.497 2.497 0 0 1-2.167 1.25zm29.774-51.57a2.5 2.5 0 0 1-2.163-3.75l2.863-4.958a2.499 2.499 0 1 1 4.33 2.5l-2.863 4.958a2.499 2.499 0 0 1-2.167 1.25z"></path>
  <path d="M182.456 242.406a2.5 2.5 0 0 1-2.5-2.5v-33.893c0-22.977 3.18-45.833 9.453-67.935l10.487-36.954c1.989-7.011 8.405-11.835 15.965-12.004 4.911-.11 9.076-2.97 10.662-7.304l4.527-24.115c.979-5.215 5.571-8.918 10.847-8.825l6.366.124c4.266.083 7.737 3.621 7.737 7.888V205.95a2.5 2.5 0 0 1-3.289 2.372 12.949 12.949 0 0 0-5.662-.59 13.549 13.549 0 0 0-10.013 6.413c-2.66 4.341-7.357 6.687-12.267 6.124-5.189-.598-10.337 1.894-13.104 6.344-2.69 4.325-7.472 6.696-12.48 6.183-5.207-.534-10.16 1.902-12.933 6.353a13.757 13.757 0 0 1-2.046 2.543 2.5 2.5 0 0 1-1.75.714zm59.23-188.531a5.806 5.806 0 0 0-5.722 4.75l-4.563 24.308a2.515 2.515 0 0 1-.096.36c-2.232 6.419-8.251 10.669-15.333 10.828-5.352.12-9.88 3.483-11.266 8.37l-10.487 36.954a243.812 243.812 0 0 0-9.263 66.569v26.851c3.878-3.724 9.205-5.608 14.737-5.042 3.09.312 6.052-1.16 7.725-3.85 3.783-6.083 10.815-9.485 17.92-8.671 2.95.337 5.8-1.105 7.434-3.769 3.001-4.897 7.99-8.092 13.688-8.766a17.86 17.86 0 0 1 4.539.042V56.888a2.904 2.904 0 0 0-2.834-2.889l-6.365-.123-.114-.001zM73.544 242.406a2.5 2.5 0 0 1-1.75-.714 13.742 13.742 0 0 1-2.046-2.542c-2.773-4.451-7.73-6.885-12.933-6.354-5.013.516-9.79-1.858-12.48-6.183-2.768-4.45-7.919-6.943-13.104-6.344-4.91.558-9.606-1.784-12.267-6.124a13.547 13.547 0 0 0-10.013-6.414 12.946 12.946 0 0 0-5.662.59A2.497 2.497 0 0 1 0 205.95V56.888C0 52.621 3.471 49.083 7.737 49l6.356-.122a10.813 10.813 0 0 1 10.849 8.839l4.442 23.837a11.56 11.56 0 0 0 10.67 7.569c7.591.102 14.042 4.93 16.052 12.015l10.483 36.941a248.779 248.779 0 0 1 9.453 67.935v33.893a2.501 2.501 0 0 1-2.498 2.499zM58.24 227.723c4.827 0 9.379 1.854 12.803 5.141v-26.851c0-22.515-3.117-44.912-9.263-66.569l-10.483-36.941c-1.402-4.941-5.947-8.309-11.309-8.38-6.926-.093-13.109-4.551-15.386-11.095a2.554 2.554 0 0 1-.096-.363l-4.478-24.032c-.524-2.811-2.988-4.778-5.838-4.756l-6.356.122A2.904 2.904 0 0 0 5 56.888v145.92a17.859 17.859 0 0 1 4.539-.042c5.698.674 10.687 3.869 13.688 8.767 1.633 2.664 4.484 4.111 7.434 3.769 7.102-.817 14.138 2.589 17.92 8.671 1.673 2.69 4.637 4.163 7.725 3.85.648-.067 1.294-.1 1.934-.1z"></path>
  <path d="M247.398 256h-91.703a2.501 2.501 0 0 1-1.437-4.546 8.991 8.991 0 0 0 2.425-2.552c3.831-6.025 10.611-9.291 17.701-8.524 3.013.326 5.934-1.159 7.624-3.873 3.791-6.084 10.565-9.415 17.686-8.683 3.089.313 6.052-1.159 7.725-3.85 3.783-6.083 10.815-9.485 17.92-8.671 2.95.337 5.8-1.105 7.434-3.769 3.001-4.897 7.99-8.092 13.688-8.766a17.956 17.956 0 0 1 7.828.812A2.5 2.5 0 0 1 256 205.95v41.448c0 4.743-3.859 8.602-8.602 8.602zm-86.102-5h86.103a3.606 3.606 0 0 0 3.602-3.602v-39.524a12.867 12.867 0 0 0-3.951-.142 13.549 13.549 0 0 0-10.013 6.413c-2.66 4.341-7.357 6.687-12.267 6.124-5.189-.598-10.337 1.894-13.104 6.344-2.69 4.325-7.472 6.696-12.48 6.183-5.204-.534-10.16 1.902-12.933 6.353-2.715 4.358-7.466 6.737-12.406 6.2-4.948-.533-9.694 1.619-12.551 5.651zm-60.992 5H8.602C3.859 256 0 252.141 0 247.398V205.95a2.5 2.5 0 0 1 1.711-2.372 17.936 17.936 0 0 1 7.828-.812 18.517 18.517 0 0 1 13.688 8.766c1.632 2.664 4.479 4.111 7.434 3.77 7.099-.813 14.137 2.588 17.92 8.671 1.673 2.69 4.637 4.163 7.725 3.85 7.121-.726 13.896 2.599 17.686 8.683 1.69 2.714 4.609 4.199 7.624 3.873 7.091-.769 13.87 2.499 17.701 8.524a8.991 8.991 0 0 0 2.425 2.552 2.502 2.502 0 0 1 .947 2.799 2.503 2.503 0 0 1-2.385 1.746zM5 207.875v39.524A3.606 3.606 0 0 0 8.602 251h86.103a13.51 13.51 0 0 0-12.55-5.651c-4.935.537-9.691-1.841-12.406-6.2-2.773-4.451-7.729-6.884-12.933-6.353-5.013.516-9.79-1.858-12.48-6.183-2.767-4.449-7.907-6.94-13.104-6.344-4.902.565-9.606-1.784-12.266-6.125a13.546 13.546 0 0 0-10.013-6.413 12.847 12.847 0 0 0-3.953.144zm236.633-51.16c-1.808 0-3.601-.238-5.361-.716-7.038-1.914-13.124-7.573-17.601-16.365-4.677-9.184-12.26-13.63-22.542-13.233a2.5 2.5 0 0 1-2.503-3.181l6.27-22.095c1.99-7.011 8.405-11.835 15.965-12.004 4.911-.11 9.076-2.97 10.662-7.304l4.527-24.115c.979-5.215 5.53-8.916 10.847-8.825l6.366.123c4.266.083 7.737 3.621 7.737 7.888v93.547c0 .853-.435 1.647-1.154 2.106-4.329 2.768-8.816 4.174-13.213 4.174zm-42.302-35.282c8.023.458 17.666 3.895 23.796 15.933 3.819 7.5 8.819 12.275 14.458 13.809 4.279 1.164 8.893.42 13.416-2.149V56.888a2.904 2.904 0 0 0-2.834-2.889l-6.365-.123c-2.826-.039-5.31 1.942-5.836 4.749l-4.563 24.308a2.515 2.515 0 0 1-.096.36c-2.232 6.419-8.251 10.669-15.333 10.828-5.352.12-9.88 3.483-11.266 8.37l-5.377 18.942zM14.367 156.715c-4.397 0-8.883-1.406-13.213-4.173A2.498 2.498 0 0 1 0 150.436V56.888C0 52.621 3.471 49.083 7.737 49l6.365-.123a10.786 10.786 0 0 1 10.847 8.825l4.527 24.115c1.586 4.334 5.751 7.195 10.662 7.305 7.56.169 13.976 4.993 15.965 12.004l6.27 22.095a2.504 2.504 0 0 1-.44 2.229 2.473 2.473 0 0 1-2.063.952c-10.286-.399-17.865 4.049-22.542 13.233-4.477 8.792-10.563 14.451-17.601 16.365a20.39 20.39 0 0 1-5.36.715zM5 149.025c4.522 2.568 9.134 3.312 13.416 2.149 5.639-1.534 10.638-6.309 14.458-13.809 6.13-12.038 15.773-15.475 23.796-15.933l-5.375-18.942c-1.386-4.887-5.914-8.25-11.266-8.37-7.082-.159-13.101-4.409-15.333-10.828a2.515 2.515 0 0 1-.096-.36l-4.563-24.308c-.526-2.806-2.951-4.827-5.836-4.749l-6.365.123A2.906 2.906 0 0 0 5 56.888v92.137z"></path>
</svg>
