<svg xmlns="http://www.w3.org/2000/svg" viewBox="0 0 128 128" id="glasses">
  <path fill="#444b54" d="M126.5 75.2 91.1 23.3s0-.1-.1-.1c-7-9.4-19.3-13.3-30.1-9.5-1.6.6-2.4 2.3-1.8 3.8s2.3 2.4 3.8 1.8c8.2-2.9 17.8.1 23.2 7.4L114 67.6C103.1 62 82.6 62.8 74.4 70c-.7.6-1.4 1.3-1.9 2-2.7-1-6.2-1.2-8.4-1.2-2.3 0-5.8.2-8.4 1.2-.6-.7-1.2-1.4-1.9-2-6.1-5.3-18.8-7.1-29.4-5.5l26.4-21.1c6.5-5.2 15.1-6.7 22.5-4.1.4.1.7.3 1.1.4 1.5.6 3.3-.1 3.9-1.6.6-1.5-.1-3.3-1.6-3.9-.5-.2-.9-.4-1.4-.5-9.4-3.3-20.2-1.4-28.3 5.1L2.2 74.5c-1 .8-1.4 2.1-1 3.3.4 1.2 1.6 2 2.8 2h1.1c-.1.7-.1 1.3-.1 2v.5c0 15.2 12.4 28 27 28s27-12.8 27-28v-.5c0-1.5-.2-3-.7-4.4 2.7-.8 8.6-.8 11.3 0-.4 1.4-.7 2.9-.7 4.4v.5c0 15.2 12.4 28 27 28s27-12.8 27-28v-.5c0-.7-.1-1.3-.1-2h1.1c1.1 0 2.1-.6 2.7-1.6.6-.9.5-2.1-.1-3z"></path>
  <path fill="#fff" d="M18 97.1c-.9 0-1.8-.4-2.4-1.2C12.7 92 11 87.2 11 82.4v-.5c0-2.8 1.2-5.5 3.3-7.3 1.2-1.1 3.1-1 4.2.3 1.1 1.2 1 3.1-.3 4.2-.8.7-1.3 1.7-1.3 2.8v.5c0 3.5 1.2 7 3.3 9.9 1 1.3.7 3.2-.6 4.2-.3.4-.9.6-1.6.6zm60.7-15c-.4 0-.8-.1-1.2-.3-1.5-.7-2.2-2.5-1.5-4 .6-1.3 1.4-2.4 2.5-3.3 3.2-2.7 10.1-4.5 17.7-4.5 1.7 0 3 1.3 3 3s-1.3 3-3 3c-7.5 0-12.3 1.8-13.7 3.1-.4.3-.7.8-.9 1.2-.7 1.1-1.8 1.8-2.9 1.8z"></path>
  <circle cx="32.1" cy="73" r="3" fill="#fff"></circle>
</svg>
