<svg width="25" height="25" viewBox="0 0 25 25" fill="none" xmlns="http://www.w3.org/2000/svg">
<g id="iconamoon:home">
<path id="Vector" d="M20.7501 10.9616C20.7501 10.6964 20.6447 10.442 20.4572 10.2545C20.2697 10.0669 20.0153 9.96158 19.7501 9.96158C19.4849 9.96158 19.2305 10.0669 19.043 10.2545C18.8554 10.442 18.7501 10.6964 18.7501 10.9616H20.7501ZM6.75008 10.9616C6.75008 10.6964 6.64472 10.442 6.45719 10.2545C6.26965 10.0669 6.0153 9.96158 5.75008 9.96158C5.48486 9.96158 5.23051 10.0669 5.04297 10.2545C4.85544 10.442 4.75008 10.6964 4.75008 10.9616H6.75008ZM21.0431 13.6686C21.2317 13.8507 21.4843 13.9515 21.7465 13.9493C22.0087 13.947 22.2595 13.8418 22.4449 13.6564C22.6303 13.471 22.7355 13.2202 22.7378 12.958C22.74 12.6958 22.6392 12.4432 22.4571 12.2546L21.0431 13.6686ZM12.7501 3.96158L13.4571 3.25458C13.2696 3.06711 13.0152 2.96179 12.7501 2.96179C12.4849 2.96179 12.2306 3.06711 12.0431 3.25458L12.7501 3.96158ZM3.04308 12.2546C2.94757 12.3468 2.87139 12.4572 2.81898 12.5792C2.76657 12.7012 2.73898 12.8324 2.73783 12.9652C2.73668 13.098 2.76198 13.2296 2.81226 13.3525C2.86254 13.4754 2.93679 13.5871 3.03069 13.681C3.12458 13.7749 3.23623 13.8491 3.35913 13.8994C3.48202 13.9497 3.6137 13.975 3.74648 13.9738C3.87926 13.9727 4.01048 13.9451 4.13249 13.8927C4.25449 13.8403 4.36483 13.7641 4.45708 13.6686L3.04308 12.2546ZM7.75008 22.9616H17.7501V20.9616H7.75008V22.9616ZM20.7501 19.9616V10.9616H18.7501V19.9616H20.7501ZM6.75008 19.9616V10.9616H4.75008V19.9616H6.75008ZM22.4571 12.2546L13.4571 3.25458L12.0431 4.66858L21.0431 13.6686L22.4571 12.2546ZM12.0431 3.25458L3.04308 12.2546L4.45708 13.6686L13.4571 4.66858L12.0431 3.25458ZM17.7501 22.9616C18.5457 22.9616 19.3088 22.6455 19.8714 22.0829C20.434 21.5203 20.7501 20.7572 20.7501 19.9616H18.7501C18.7501 20.2268 18.6447 20.4811 18.4572 20.6687C18.2697 20.8562 18.0153 20.9616 17.7501 20.9616V22.9616ZM7.75008 20.9616C7.48486 20.9616 7.23051 20.8562 7.04297 20.6687C6.85544 20.4811 6.75008 20.2268 6.75008 19.9616H4.75008C4.75008 20.7572 5.06615 21.5203 5.62876 22.0829C6.19137 22.6455 6.95443 22.9616 7.75008 22.9616V20.9616Z" fill="#454749"/>
</g>
</svg>
