<svg width="25" height="25" viewBox="0 0 25 25" fill="none" xmlns="http://www.w3.org/2000/svg">
<g id="iconamoon:home">
<path id="Vector" d="M20.75 10.9616C20.75 10.6964 20.6446 10.442 20.4571 10.2545C20.2695 10.0669 20.0152 9.96158 19.75 9.96158C19.4847 9.96158 19.2304 10.0669 19.0429 10.2545C18.8553 10.442 18.75 10.6964 18.75 10.9616H20.75ZM6.74996 10.9616C6.74996 10.6964 6.6446 10.442 6.45707 10.2545C6.26953 10.0669 6.01518 9.96158 5.74996 9.96158C5.48474 9.96158 5.23039 10.0669 5.04285 10.2545C4.85532 10.442 4.74996 10.6964 4.74996 10.9616H6.74996ZM21.043 13.6686C21.2316 13.8507 21.4842 13.9515 21.7464 13.9493C22.0086 13.947 22.2594 13.8418 22.4448 13.6564C22.6302 13.471 22.7354 13.2202 22.7376 12.958C22.7399 12.6958 22.6391 12.4432 22.457 12.2546L21.043 13.6686ZM12.75 3.96158L13.457 3.25458C13.2694 3.06711 13.0151 2.96179 12.75 2.96179C12.4848 2.96179 12.2305 3.06711 12.043 3.25458L12.75 3.96158ZM3.04296 12.2546C2.94745 12.3468 2.87127 12.4572 2.81886 12.5792C2.76645 12.7012 2.73886 12.8324 2.73771 12.9652C2.73655 13.098 2.76186 13.2296 2.81214 13.3525C2.86242 13.4754 2.93667 13.5871 3.03056 13.681C3.12446 13.7749 3.23611 13.8491 3.35901 13.8994C3.4819 13.9497 3.61358 13.975 3.74636 13.9738C3.87914 13.9727 4.01036 13.9451 4.13236 13.8927C4.25437 13.8403 4.36471 13.7641 4.45696 13.6686L3.04296 12.2546ZM7.74996 22.9616H17.75V20.9616H7.74996V22.9616ZM20.75 19.9616V10.9616H18.75V19.9616H20.75ZM6.74996 19.9616V10.9616H4.74996V19.9616H6.74996ZM22.457 12.2546L13.457 3.25458L12.043 4.66858L21.043 13.6686L22.457 12.2546ZM12.043 3.25458L3.04296 12.2546L4.45696 13.6686L13.457 4.66858L12.043 3.25458ZM17.75 22.9616C18.5456 22.9616 19.3087 22.6455 19.8713 22.0829C20.4339 21.5203 20.75 20.7572 20.75 19.9616H18.75C18.75 20.2268 18.6446 20.4811 18.4571 20.6687C18.2695 20.8562 18.0152 20.9616 17.75 20.9616V22.9616ZM7.74996 20.9616C7.48474 20.9616 7.23039 20.8562 7.04285 20.6687C6.85532 20.4811 6.74996 20.2268 6.74996 19.9616H4.74996C4.74996 20.7572 5.06603 21.5203 5.62864 22.0829C6.19125 22.6455 6.95431 22.9616 7.74996 22.9616V20.9616Z" fill="#3669BB"/>
</g>
</svg>
