<svg width="47" height="47" viewBox="0 0 47 47" fill="none" xmlns="http://www.w3.org/2000/svg">
<g id="Group">
<path id="Vector" d="M35.7527 0.932617H11.3152C5.36087 0.932617 0.533936 5.75955 0.533936 11.7139V36.1514C0.533936 42.1057 5.36087 46.9326 11.3152 46.9326H35.7527C41.707 46.9326 46.5339 42.1057 46.5339 36.1514V11.7139C46.5339 5.75955 41.707 0.932617 35.7527 0.932617Z" fill="url(#paint0_radial_150_1833)"/>
<path id="Vector_2" d="M35.7527 0.932617H11.3152C5.36087 0.932617 0.533936 5.75955 0.533936 11.7139V36.1514C0.533936 42.1057 5.36087 46.9326 11.3152 46.9326H35.7527C41.707 46.9326 46.5339 42.1057 46.5339 36.1514V11.7139C46.5339 5.75955 41.707 0.932617 35.7527 0.932617Z" fill="url(#paint1_radial_150_1833)"/>
<path id="Vector_3" d="M23.0154 5.96387C18.2767 5.96387 17.6819 5.98525 15.8208 6.0724C13.9632 6.16009 12.6952 6.46286 11.5858 6.90723C10.4381 7.36615 9.46461 7.98014 8.49481 8.9792C7.52414 9.97809 6.92792 10.9806 6.48089 12.162C6.04816 13.3048 5.75381 14.6111 5.67023 16.5232C5.587 18.4399 5.56519 19.0527 5.56519 23.9328C5.56519 28.8129 5.58612 29.4235 5.67058 31.3401C5.75607 33.253 6.05008 34.5588 6.48124 35.7013C6.92723 36.8832 7.52345 37.8857 8.49359 38.8844C9.46321 39.884 10.4367 40.4994 11.5836 40.9584C12.6938 41.4027 13.962 41.7055 15.8192 41.7932C17.6805 41.8803 18.2748 41.9017 23.0133 41.9017C27.7525 41.9017 28.3454 41.8803 30.2065 41.7932C32.0641 41.7055 33.3335 41.4027 34.4437 40.9584C35.591 40.4994 36.563 39.884 37.5325 38.8844C38.5032 37.8857 39.0992 36.8832 39.5464 35.7018C39.9753 34.5588 40.2698 33.2527 40.3571 31.3404C40.4406 29.4239 40.4625 28.8129 40.4625 23.9328C40.4625 19.0527 40.4406 18.4403 40.3571 16.5236C40.2698 14.6106 39.9753 13.305 39.5464 12.1625C39.0992 10.9806 38.5032 9.97809 37.5325 8.9792C36.562 7.97978 35.5913 7.36579 34.4427 6.90741C33.3303 6.46286 32.0616 6.15991 30.2041 6.0724C28.3428 5.98525 27.7503 5.96387 23.01 5.96387H23.0154ZM21.4501 9.20202C21.9147 9.2013 22.4331 9.20202 23.0154 9.20202C27.6744 9.20202 28.2264 9.21927 30.0662 9.30534C31.7675 9.38548 32.6908 9.67819 33.3059 9.92418C34.1202 10.2498 34.7007 10.6392 35.3111 11.2682C35.9218 11.8971 36.2997 12.496 36.6168 13.3346C36.8557 13.9671 37.1402 14.9181 37.2177 16.67C37.3013 18.5643 37.3194 19.1332 37.3194 23.9287C37.3194 28.7242 37.3013 29.2932 37.2177 31.1873C37.1399 32.9393 36.8557 33.8902 36.6168 34.5229C36.3006 35.3615 35.9218 35.9586 35.3111 36.5871C34.7004 37.216 34.1206 37.6052 33.3059 37.931C32.6915 38.1781 31.7675 38.4701 30.0662 38.5502C28.2268 38.6363 27.6744 38.655 23.0154 38.655C18.3563 38.655 17.804 38.6363 15.9647 38.5502C14.2635 38.4693 13.3401 38.1766 12.7245 37.9306C11.9104 37.6049 11.3286 37.2157 10.7179 36.5868C10.1072 35.9578 9.7293 35.3604 9.41226 34.5214C9.17339 33.8887 8.8888 32.9378 8.81133 31.1859C8.72775 29.2916 8.711 28.7227 8.711 23.9242C8.711 19.1256 8.72775 18.5598 8.81133 16.6655C8.88915 14.9136 9.17339 13.9627 9.41226 13.3293C9.7286 12.4907 10.1072 11.8918 10.7181 11.2629C11.329 10.6339 11.9104 10.2446 12.7247 9.91825C13.3398 9.67118 14.2635 9.37919 15.9647 9.29869C17.5744 9.22376 18.1982 9.2013 21.4501 9.19752V9.20202ZM32.3295 12.1855C31.1735 12.1855 30.2356 13.1505 30.2356 14.3411C30.2356 15.5315 31.1735 16.4973 32.3295 16.4973C33.4854 16.4973 34.4233 15.5315 34.4233 14.3411C34.4233 13.1506 33.4854 12.1848 32.3295 12.1848V12.1855ZM23.0154 14.7049C18.067 14.7049 14.0548 18.8367 14.0548 23.9328C14.0548 29.0289 18.067 33.1587 23.0154 33.1587C27.964 33.1587 31.9747 29.0289 31.9747 23.9328C31.9747 18.8369 27.9637 14.7049 23.015 14.7049H23.0154ZM23.0154 17.9431C26.2275 17.9431 28.8317 20.6246 28.8317 23.9328C28.8317 27.2407 26.2275 29.9225 23.0154 29.9225C19.8033 29.9225 17.1992 27.2407 17.1992 23.9328C17.1992 20.6246 19.8031 17.9431 23.0154 17.9431Z" fill="white"/>
</g>
<defs>
<radialGradient id="paint0_radial_150_1833" cx="0" cy="0" r="1" gradientUnits="userSpaceOnUse" gradientTransform="translate(12.7527 50.4755) rotate(-90) scale(45.5894 42.4018)">
<stop stop-color="#FFDD55"/>
<stop offset="0.1" stop-color="#FFDD55"/>
<stop offset="0.5" stop-color="#FF543E"/>
<stop offset="1" stop-color="#C837AB"/>
</radialGradient>
<radialGradient id="paint1_radial_150_1833" cx="0" cy="0" r="1" gradientUnits="userSpaceOnUse" gradientTransform="translate(-7.17124 4.24623) rotate(78.681) scale(20.3787 84.0017)">
<stop stop-color="#3771C8"/>
<stop offset="0.128" stop-color="#3771C8"/>
<stop offset="1" stop-color="#6600FF" stop-opacity="0"/>
</radialGradient>
</defs>
</svg>
