<svg xmlns="http://www.w3.org/2000/svg" viewBox="0 0 50 50" id="methods">
  <path fill="none" stroke="#000" stroke-linecap="round" stroke-linejoin="round" stroke-miterlimit="10" stroke-width="1.5" d="m29.8 37.2 4.6-8.1h9.2l4.7 8.1-4.7 8.1h-9.2zM29.8 20.9l4.6-8.1h9.2l4.7 8.1-4.7 8.1h-9.2zM1.8 37.2l4.6-8.1h9.2l4.6 8.1-4.6 8.1H6.4zM1.8 20.9l4.6-8.1h9.2l4.6 8.1-4.6 8.1H6.4zM15.8 29.1l4.6-8.1h9.2l4.7 8.1-4.7 8.1h-9.2zM15.8 12.8l4.6-8.1h9.2l4.7 8.1-4.7 8.1h-9.2zM11 33.9v6.5M14.2 37.2H7.7M28.3 9.6l-6.5 6.5M28.3 16.1l-6.5-6.5"></path>
  <path fill="none" stroke="#000" stroke-linecap="round" stroke-linejoin="round" stroke-miterlimit="10" stroke-width="1.5" d="m7.7 21.5 1.8 1.6 4.7-4.3"></path>
  <path d="M24.5 30.8c-.1-.1-.1-.2-.1-.3 0-.3.1-.6.2-.9.1-.3.3-.5.4-.6l.6-.6c.3-.2.5-.4.6-.6.1-.2.2-.4.2-.6 0-.8-.5-1.2-1.6-1.2-.3 0-.5 0-.8.1-.3.1-.5.2-.7.3-.1.1-.2.1-.3.1-.1 0-.2 0-.3-.1-.1-.1-.1-.2-.1-.3 0-.2.1-.3.3-.4.3-.2.6-.3.9-.4.3-.1.7-.1 1-.1.8 0 1.4.2 1.8.6.5.4.7.9.7 1.5 0 .3-.1.5-.2.8-.1.2-.2.4-.4.6-.2.2-.3.3-.6.5-.3.3-.6.5-.7.7-.2.2-.2.5-.2.8 0 .1 0 .2-.1.3-.1.1-.2.1-.3.1-.1-.2-.3-.2-.3-.3zm-.2 2.1c-.1-.1-.2-.3-.2-.5s.1-.3.2-.5c.1-.1.3-.2.5-.2s.3.1.5.2c.1.1.2.3.2.5s-.1.3-.2.5c-.1.1-.3.2-.5.2s-.3-.1-.5-.2z"></path>
  <path fill="none" stroke="#000" stroke-linecap="round" stroke-linejoin="round" stroke-miterlimit="10" stroke-width="1.5" d="M35.8 20.9h6.5"></path>
  <g fill="none" stroke="#000" stroke-linecap="round" stroke-linejoin="round" stroke-miterlimit="10" stroke-width="1.5">
    <path d="M35.8 35.4h6.5M35.8 39h6.5"></path>
  </g>
</svg>
