<svg xmlns="http://www.w3.org/2000/svg" viewBox="0 0 24 24" id="mouse">
  <g fill="none" stroke="#303c42" stroke-linecap="round" stroke-linejoin="round">
    <path d="M12 23.5c4.8 0 7-2.37 7-5.5 0-1.71-.5-3.21-.5-5s1-4.25 1-7S17.5.5 12 .5 4.5 3.25 4.5 6s1 5.21 1 7-.5 3.29-.5 5c0 3.13 2.2 5.5 7 5.5Z"></path>
    <path d="M4.5 6h0A3.35 3.35 0 0 1 6 7.5l1.95 3.89a2 2 0 0 0 1.79 1.11h4.53a2 2 0 0 0 1.79-1.11L18 7.5A3.35 3.35 0 0 1 19.5 6h0M12 12.5V.5"></path>
    <rect width="1" height="3" x="11.5" y="2.5" rx=".5" ry=".5"></rect>
  </g>
</svg>
