<svg xmlns="http://www.w3.org/2000/svg" viewBox="0 0 512 512" id="non-violence">
  <path fill="#eab84b" d="M449.301 86.665a70.503 70.503 0 0 1-48.63-5.338l-3.036-1.518a70.503 70.503 0 0 0-45.356-6.075l-8.563 1.713c-28.722 5.745-50.901 28.65-55.717 57.543h144a35.1 35.1 0 0 0 24-33.298V84.99l-6.698 1.675Z"></path>
  <path fill="#dfdfdf" d="M431.993 132.99v40c11.027 3.676 14.33 17.67 6.112 25.889l-6.112 6.111a73.388 73.388 0 0 1-46.194 54.324l-.037.013a73.388 73.388 0 0 1-51.537 0l-.037-.013a73.388 73.388 0 0 1-46.195-54.324l-6.111-6.111c-8.219-8.219-4.915-22.213 6.111-25.889v-40l61.42-9.449a157.762 157.762 0 0 1 82.58 9.45Z"></path>
  <path fill="#8c8c8c" d="m311.03 161.109 32-7.997 1.94 7.76-32.001 7.997zM373.78 160.32l4.438-6.657 24 16-4.438 6.656zM366.222 208.568l-5.07-2.535c-8.043-4.022-12.43-12.991-10.666-21.81l5.603-28.017 7.844 1.568-5.603 28.017c-1.057 5.292 1.573 10.674 6.4 13.087l5.07 2.535-3.578 7.155zm15.509 31.75a39.162 39.162 0 0 0-43.563 0l-4.437-6.656c15.927-10.618 36.51-10.618 52.437 0l-4.437 6.656z"></path>
  <path fill="#41a08e" d="M496 334.522c-12.351-20.839-33.554-35.702-58.482-39.55L392.334 288H360v.002h-32.334l-45.184 6.973c-34.966 5.396-62.617 32.457-68.766 67.3l-7.235 40.998c-3.778 21.41 7.942 42.545 28.105 50.68L240 456v40h120v-.002h120V456l5.414-2.05A45.996 45.996 0 0 0 496 447.945V334.522Z"></path>
  <path fill="#75bbad" d="M312.754 305.935c28.826 18.344 65.664 18.344 94.49 0l18.53-11.792L392 288.002h-64l-33.775 6.14 18.53 11.793Z"></path>
  <path fill="#dfdfdf" d="m336 256-55.762 174.254C275.33 445.592 261.07 456 244.967 456a37.033 37.033 0 0 1-31.756-17.98l-2.054-3.423a37.033 37.033 0 0 1-.398-37.427L296 248l6.56-65.592c.817-8.18 7.7-14.408 15.92-14.408H345.8c10.921 0 18.633 10.7 15.18 21.06L352 216l2.94-.98c10.36-3.454 21.06 4.258 21.06 15.179V232l-40 24Z"></path>
  <path fill="#dfdfdf" d="M496 374.584 423.666 248l-6.56-65.592c-.817-8.18-7.7-14.408-15.92-14.408h-27.321c-10.921 0-18.633 10.7-15.179 21.06l8.98 26.94-2.94-.98c-10.36-3.454-21.06 4.258-21.06 15.179V232l40 24 55.761 174.254C444.335 445.592 458.594 456 474.698 456c7.754 0 15.16-2.44 21.302-6.762v-74.654Z"></path>
  <path fill="#f2c34e" d="M104 328c-44.183 0-80 35.817-80 80s35.817 80 80 80 80-35.817 80-80-35.817-80-80-80Zm-53.333 80c0-29.455 23.878-53.333 53.333-53.333 10.172 0 19.678 2.847 27.766 7.789l-73.31 73.31c-4.942-8.088-7.79-17.594-7.79-27.766ZM104 461.333c-10.172 0-19.678-2.847-27.766-7.789l73.31-73.31c4.942 8.088 7.79 17.594 7.79 27.766 0 29.455-23.879 53.333-53.334 53.333Z"></path>
  <path fill="#dfdfdf" d="M169.344 305.984a3.999 3.999 0 0 1-3.976-4.43c.963-8.93-2.416-17.382-9.27-23.186-6.856-5.806-15.747-7.744-24.399-5.323l-15.09 4.226a4 4 0 0 1-4.612-5.727l6.694-12.613c3.13-5.895 3.154-12.638.067-18.498-3.094-5.873-8.78-9.816-15.21-10.546l.903-7.95c9.063 1.03 17.057 6.55 21.385 14.768 4.34 8.238 4.311 17.707-.078 25.977l-2.319 4.368 6.103-1.71a34.6 34.6 0 0 1 31.726 6.922 34.61 34.61 0 0 1 11.388 18.72l3.945-5.212c8.214-10.854 20.696-17.84 34.243-19.166 11.085-1.084 22.192 1.682 31.432 7.677l1.028-9.52a61.171 61.171 0 0 1 26.445-44.068l4.502 6.614a53.182 53.182 0 0 0-22.994 38.312l-1.786 16.56a3.998 3.998 0 0 1-6.637 2.559c-8.628-7.686-19.71-11.296-31.21-10.172-11.499 1.126-21.672 6.82-28.644 16.032l-10.446 13.8a4.001 4.001 0 0 1-3.19 1.586ZM212.286 17.485l7.428-2.97 16 39.999-7.428 2.971zM141.44 27.073l5.12-6.146 48 40-5.12 6.146z"></path>
  <path fill="#41a08e" d="M312 24 24 224l16 24L328.414 44 312 24z"></path>
  <path fill="#dfdfdf" d="m267.96 141.144-67.701-47.36A32 32 0 0 0 181.908 88h-37.913L68.488 35.726l-39.402 67.547L87.996 136l9.94 23.978a16 16 0 0 0 5.618 6.99l60.233 42.067c6.63 4.64 15.778 2.918 20.266-3.814 4.333-6.5 2.698-15.26-3.672-19.766l13.508 9.459c6.63 4.64 15.777 2.918 20.266-3.815 4.344-6.516 2.691-15.309-3.721-19.804l8.771 6.14c6.629 4.64 15.777 2.918 20.265-3.814 4.31-6.464 2.712-15.161-3.572-19.689l15.514 10.86c6.45 4.515 15.33 3.027 19.955-3.344 4.74-6.53 3.206-15.678-3.406-20.304Z"></path>
  <path fill="#cecece" d="m183.178 157.098 4.588-6.554 24.962 17.474-4.588 6.554zM206.176 138.008l4.585-6.555 27.275 19.08-4.586 6.555zM156.302 173.477l4.588-6.552 21.785 15.254-4.588 6.552z"></path>
  <path fill="#dfdfdf" d="M328 248v40.002c18.962 14.222 45.036 14.222 64 0V248h-64Z"></path>
  <path fill="#cecece" d="M421.42 182.01a19.936 19.936 0 0 0-19.9-18.01h-27.322a19.933 19.933 0 0 0-14.194 5.92c-3.727-3.79-8.755-5.92-14.204-5.92h-27.321a19.937 19.937 0 0 0-19.9 18.01l-4.16 41.592 7.961.796 4.16-41.592A11.96 11.96 0 0 1 318.478 172h27.32c3.905 0 7.453 1.816 9.736 4.984 2.283 3.167 2.884 7.107 1.65 10.81l-8.98 26.94a4.001 4.001 0 0 0 5.059 5.06l2.94-.979c3.704-1.236 7.644-.634 10.812 1.649 3.043 2.193 4.839 5.554 4.974 9.276l-38.048 22.83a4 4 0 0 0-1.752 2.21l-10.24 32 7.618 2.44 7.873-24.602c7.35 2.242 14.945 3.381 22.548 3.381s15.206-1.137 22.567-3.383l7.874 24.603 7.619-2.438-10.24-32a4 4 0 0 0-1.752-2.211l-18.283-10.97 10.283-6.17a4 4 0 0 0 1.942-3.43v-1.801c0-6.507-3.027-12.42-8.306-16.225-4.023-2.9-8.801-4.175-13.568-3.701l6.65-19.949c1.491-4.475 1.366-9.156-.26-13.405a11.97 11.97 0 0 1 9.683-4.919h27.322a11.96 11.96 0 0 1 11.94 10.806l3.358 33.592 7.961-.796-3.359-33.592Zm-42.817 75.418a69.35 69.35 0 0 1-37.215.004L360 246.265l18.604 11.163Z"></path>
  <path fill="#365650" d="M104 324c-46.317 0-84 37.682-84 84s37.683 84 84 84 84-37.682 84-84-37.683-84-84-84Zm0 160c-41.906 0-76-34.093-76-76s34.094-76 76-76 76 34.093 76 76-34.094 76-76 76Z"></path>
  <path fill="#365650" d="M135.738 361.983a3.998 3.998 0 0 0-1.886-2.941A57.23 57.23 0 0 0 104 350.667c-31.613 0-57.333 25.72-57.333 57.333a57.22 57.22 0 0 0 8.375 29.852 3.998 3.998 0 0 0 6.241.743l73.312-73.31a3.998 3.998 0 0 0 1.143-3.302zm-76.321 67.164A49.313 49.313 0 0 1 54.667 408c0-27.203 22.13-49.334 49.333-49.334a49.307 49.307 0 0 1 21.147 4.751l-65.73 65.73zm90.6-52.885a4.007 4.007 0 0 0-3.3 1.143l-73.312 73.31a3.998 3.998 0 0 0 .743 6.243A57.23 57.23 0 0 0 104 465.333c31.613 0 57.333-25.72 57.333-57.333a57.22 57.22 0 0 0-8.375-29.852 3.998 3.998 0 0 0-2.94-1.886zM104 457.334a49.307 49.307 0 0 1-21.147-4.751l65.73-65.73a49.313 49.313 0 0 1 4.75 21.147c0 27.203-22.13 49.334-49.333 49.334zm63.87-151.632a4.001 4.001 0 0 0 4.664-1.304l10.445-13.8c6.973-9.213 17.146-14.906 28.644-16.032 11.501-1.124 22.583 2.486 31.211 10.172a4 4 0 0 0 6.637-2.558l1.786-16.56a53.182 53.182 0 0 1 22.994-38.313l-4.502-6.614a61.171 61.171 0 0 0-26.445 44.068l-1.028 9.52c-9.24-5.995-20.347-8.761-31.432-7.677-13.547 1.327-26.029 8.312-34.243 19.166l-3.945 5.211a34.61 34.61 0 0 0-11.388-18.719 34.6 34.6 0 0 0-31.726-6.921l-6.103 1.71 2.319-4.369c4.39-8.27 4.418-17.739.078-25.977-4.328-8.217-12.322-13.738-21.385-14.768l-.902 7.95c6.43.73 12.115 4.673 15.209 10.546 3.087 5.86 3.062 12.603-.067 18.498l-6.694 12.612a4 4 0 0 0 4.612 5.728l15.09-4.226c8.652-2.421 17.543-.483 24.399 5.323 6.854 5.804 10.233 14.256 9.27 23.187a3.999 3.999 0 0 0 2.502 4.147zM212.286 17.485l7.428-2.97 16 39.999-7.428 2.971zM141.44 27.073l5.12-6.146 48 40-5.12 6.146z"></path>
  <path fill="#365650" d="M493.735 446.195A32.9 32.9 0 0 1 475.032 452c-14.422 0-27.065-9.229-31.462-22.965L387.81 254.78a4 4 0 0 0-1.752-2.211l-18.283-10.97 10.283-6.17A4 4 0 0 0 380 232v-1.801c0-6.507-3.027-12.42-8.306-16.225-.064-.046-.131-.083-.195-.128L364.217 192l.558-1.676c1.492-4.475 1.367-9.156-.26-13.405A11.97 11.97 0 0 1 374.2 172h27.322a11.96 11.96 0 0 1 11.939 10.806l6.56 65.592a4 4 0 0 0 .507 1.586l73.143 128 6.945-3.968-37.97-66.448a75.996 75.996 0 0 1 29.863 29.665l6.99-3.892a83.962 83.962 0 0 0-43.666-37.698l-27.936-48.888-1.618-16.176a77.03 77.03 0 0 0 9.395-23.604l5.266-5.267c4.848-4.848 6.801-11.725 5.227-18.396-1.346-5.698-5.06-10.378-10.166-12.974v-34.582a39.042 39.042 0 0 0 24-36.064V84.99a4 4 0 0 0-4.97-3.88l-6.698 1.675a66.552 66.552 0 0 1-45.87-5.036l-3.036-1.518c-14.745-7.372-31.767-9.651-47.93-6.419l-8.563 1.713c-30.133 6.026-53.777 30.424-58.863 60.725l-.006.03-.01.052.006.001a4 4 0 0 0-.06.657v37.348c-5.106 2.596-8.82 7.276-10.166 12.974-1.574 6.671.379 13.548 5.227 18.395l5.266 5.268a77.027 77.027 0 0 0 9.395 23.605l-1.618 16.175-27.929 48.876a83.918 83.918 0 0 0-53.239 65.454l-6.25 39.592c-4.55 11.71-3.532 25.023 3.041 35.977l2.055 3.425c5.806 9.676 15.405 16.446 26.219 18.895L236 462.25l.002 33.75h8c0-10.461-.002-28.185-.001-36.032.322.008.643.032.967.032 17.914 0 33.62-11.464 39.08-28.527l36.364-113.636A94.419 94.419 0 0 0 360 326.54a94.448 94.448 0 0 0 39.587-8.704l36.364 113.636C441.412 448.536 457.118 460 475.032 460c.323 0 .646-.01.968-.018V496h8v-36.989a40.91 40.91 0 0 0 14.265-6.221l-4.53-6.595ZM388 281.625v4.325c-17.135 11.798-40.264 11.523-57.125-.809l6.565-20.516a77.405 77.405 0 0 0 22.559 3.372c7.607 0 15.21-1.139 22.56-3.378L388 281.625Zm-9.364-24.178a69.449 69.449 0 0 1-37.261-.007L360 246.265l18.636 11.182Zm-16.764-47.18a19.58 19.58 0 0 0-3.746.006L360 204.65l1.872 5.617ZM344.501 79.37l8.562-1.713c14.43-2.887 29.624-.85 42.785 5.73l3.036 1.517a74.546 74.546 0 0 0 51.388 5.641l1.728-.432v9.58a31.04 31.04 0 0 1-19.992 29.021c-26.429-10.271-55.154-13.44-83.196-9.126l-55.7 8.569c6.279-24.503 26.314-43.773 51.389-48.787Zm-52.578 124.836a4.005 4.005 0 0 0-1.095-2.044l-6.111-6.112a11.563 11.563 0 0 1-3.097-10.9 11.563 11.563 0 0 1 7.645-8.365A4 4 0 0 0 292 172.99v-36.568l58.028-8.927a153.868 153.868 0 0 1 77.972 8.23v37.265a4 4 0 0 0 2.735 3.795 11.562 11.562 0 0 1 7.645 8.365 11.564 11.564 0 0 1-3.097 10.9l-6.111 6.113a3.993 3.993 0 0 0-1.094 2.044 69.382 69.382 0 0 1-3.303 11.342l-3.354-33.54A19.936 19.936 0 0 0 401.52 164h-7.795l-15.507-10.338-4.438 6.656 5.523 3.682h-5.105a19.94 19.94 0 0 0-12.38 4.293l2.103-10.519-7.844-1.568-1.92 9.602A20.002 20.002 0 0 0 345.8 164h-13.349l12.518-3.13-1.94-7.76-32 8 .992 3.969a19.915 19.915 0 0 0-13.443 16.93l-3.354 33.54a69.358 69.358 0 0 1-3.302-11.343Zm-34.556 103.339-41.285 72.25 2.757-17.462a75.935 75.935 0 0 1 38.528-54.788Zm19.063 121.49C272.033 442.77 259.39 452 244.968 452c-11.536 0-22.39-6.146-28.325-16.037l-2.055-3.424a33.071 33.071 0 0 1-.356-33.385l85.24-149.17a4 4 0 0 0 .508-1.586l6.56-65.592A11.96 11.96 0 0 1 318.48 172h27.32c3.905 0 7.453 1.816 9.736 4.984 2.282 3.167 2.884 7.107 1.65 10.81l-8.98 26.94a4.001 4.001 0 0 0 5.059 5.06l2.94-.98a11.979 11.979 0 0 1 4.929-.557c.372.037.744.084 1.115.156.076.015.15.033.227.049.404.087.807.194 1.205.323 1.17.381 2.297.93 3.336 1.679 3.043 2.193 4.838 5.554 4.974 9.276l-38.049 22.83a4 4 0 0 0-1.752 2.21l-55.76 174.255Zm46.44-118.88 5.456-17.047c9.544 6.316 20.606 9.485 31.674 9.485s22.13-3.169 31.674-9.485l5.456 17.048a86.474 86.474 0 0 1-74.26-.001Z"></path>
  <path fill="#365650" d="m270.258 137.866-34-23.784 94.709-66.989-5.092-6.197-96.582 68.314-16.431-11.494 101.684-70.614-4.827-6.388-103.844 72.114-3.317-2.32A35.826 35.826 0 0 0 181.913 84H145.25L70.514 32.26l-4.043 6.93 75.253 52.099A3.997 3.997 0 0 0 144 92h37.913c5.774 0 11.326 1.75 16.058 5.063l67.7 47.359c2.312 1.617 3.843 4.04 4.31 6.822s-.189 5.57-1.847 7.854c-3.322 4.574-9.791 5.66-14.423 2.417l-42.945-30.062-4.587 6.554v.001l27.432 19.202c4.465 3.257 5.613 9.576 2.536 14.192a10.34 10.34 0 0 1-6.742 4.46 10.346 10.346 0 0 1-7.901-1.704l-33.733-23.614-4.588 6.554 24.959 17.472c4.596 3.222 5.803 9.64 2.689 14.31a10.337 10.337 0 0 1-6.742 4.46 10.34 10.34 0 0 1-7.9-1.704l-35.294-24.712-4.588 6.554 21.78 15.25c4.556 3.233 5.745 9.62 2.642 14.274a10.34 10.34 0 0 1-6.74 4.46 10.342 10.342 0 0 1-7.907-1.707l-60.232-42.067a11.974 11.974 0 0 1-4.214-5.242l-9.94-23.978a4.001 4.001 0 0 0-1.754-1.965L31.1 99.813l-4.033 6.91 57.773 32.097 9.406 22.69a19.966 19.966 0 0 0 3.959 6.09l-76.485 53.114a4 4 0 0 0-1.047 5.505l16 24a3.996 3.996 0 0 0 5.638 1.047l86.927-61.486 32.261 22.532c3.135 2.194 6.776 3.335 10.517 3.335 1.145 0 2.3-.107 3.453-.324a18.276 18.276 0 0 0 11.918-7.884 18.233 18.233 0 0 0 3.054-10.062l1.16.813c3.135 2.194 6.777 3.336 10.516 3.336 1.146 0 2.301-.108 3.452-.324a18.277 18.277 0 0 0 11.92-7.884c2.163-3.246 3.13-6.967 3.034-10.637 2.194.901 4.531 1.367 6.91 1.367 1.145 0 2.301-.108 3.453-.324a18.277 18.277 0 0 0 11.919-7.885 18.237 18.237 0 0 0 3.053-10.057l3.266 2.287a18.284 18.284 0 0 0 10.516 3.302c5.726 0 11.385-2.637 14.97-7.573a18.294 18.294 0 0 0 3.261-13.878 18.296 18.296 0 0 0-7.612-12.054ZM41.047 242.36l-11.542-17.313 75.328-52.311 17.434 12.176-81.22 57.448Z"></path>
</svg>
