<svg xmlns="http://www.w3.org/2000/svg" viewBox="0 0 64 64" id="partition">
  <polygon fill="#9d8980" points="2 8 2 58 19.979 52.007 19.979 2.007 2 8"></polygon>
  <path fill="#b9aaa5" d="M4.021,36.33A13.653,13.653,0,0,0,19.979,49.781V2.007L4.021,7.326Z"></path>
  <polyline fill="#9d8980" points="38 8 62 8 62 58 38 58"></polyline>
  <path fill="#b9aaa5" d="M40,32A24,24,0,0,0,62,55.911V8H40Z"></path>
  <polygon fill="#705850" points="38 8 38 58 20 52 20 2 38 8"></polygon>
  <path fill="#886f65" d="M22,31.026A26.324,26.324,0,0,0,38,55.241V8L22,2.667Z"></path>
  <rect width="24" height="2" x="38" y="52" fill="#606160"></rect>
  <rect width="18.974" height="1.999" x="1.513" y="49" fill="#606160" transform="rotate(-18.453 10.998 49.997)"></rect>
  <rect width="24" height="2" x="38" y="13" fill="#606160"></rect>
  <rect width="18.974" height="1.999" x="1.513" y="10" fill="#606160" transform="rotate(-18.453 10.999 11)"></rect>
  <rect width="2" height="39" x="10" y="11" fill="#606160"></rect>
  <rect width="2" height="39" x="28" y="11" fill="#212121"></rect>
  <rect width="2" height="39" x="49" y="14" fill="#606160"></rect>
  <polygon fill="#414241" points="1 8.333 1 63 3 63 3 7.667 1 8.333"></polygon>
  <rect width="2" height="55" x="61" y="8" fill="#414241"></rect>
  <rect width="1.999" height="18.974" x="28" y="40.513" fill="#212121" transform="rotate(-71.565 29 50)"></rect>
  <rect width="1.999" height="18.974" x="28" y="1.513" fill="#212121" transform="rotate(-71.565 29 11)"></rect>
  <polygon fill="#414241" points="20 2 19 2.333 19 57 21 57 21 2.333 20 2"></polygon>
  <polygon fill="#414241" points="39 8 39 63 37 63 37 7.67 38 8 39 8"></polygon>
  <path d="M62,7H38.161L20.316,1.052a.991.991,0,0,0-.632,0l-18,6A1,1,0,0,0,1,8V63H3V58.72l16-5.333V57h2V53.387L37,58.72V63h2V59H61v4h2V8A1,1,0,0,0,62,7ZM3,14.72l7-2.333V49.28L3,51.613Zm9-3,7-2.333V46.28l-7,2.333ZM39,52V15H49V52Zm-2-.387-7-2.334V12.387l7,2.333Zm-9-3L21,46.28V9.387l7,2.333Zm-7-.226L37,53.72v2.892L21,51.28ZM39,54H61v3H39Zm22-2H51V15H61Zm0-39H39V9H61Zm-24-.387L21,7.28V3.387L37,8.721ZM19,3.387V7.28L3,12.613V8.721ZM3,53.72l16-5.333V51.28L3,56.612Z"></path>
</svg>
