<svg xmlns="http://www.w3.org/2000/svg" id="pencils" viewBox="0 0 64 64">
  <rect width="4.01" height="12.02" x="45.49" y="10.49" style="fill:#a64a17" transform="rotate(-45 47.497 16.506)"></rect>
  <path d="m57.41,12.25l-5.67-5.67c-.78-.78-2.05-.78-2.83,0l-4.25,4.25,8.5,8.5,4.25-4.25c.78-.78.78-2.05,0-2.83Z" style="fill:#8c3d36"></path>
  <rect width="42.07" height="4.01" x="10.17" y="30.79" style="fill:#f3c53c" transform="rotate(-45 31.204 32.795)"></rect>
  <rect width="42.07" height="4.01" x="13" y="33.62" style="fill:#f19a2d" transform="rotate(-45 34.035 35.622)"></rect>
  <rect width="42.07" height="4.01" x="7.34" y="27.96" style="fill:#f19a2d" transform="rotate(-45 28.373 29.968)"></rect>
  <polygon points="20.58 51.92 12.9 55.57 8.43 51.1 12.08 43.42 20.58 51.92" style="fill:#f1f2f2"></polygon>
  <path d="m12.9,55.57l-4.87,2.3c-.55.25-1.19.14-1.61-.28s-.53-1.07-.28-1.61l2.3-4.87,4.46,4.46Z" style="fill:#f3c53c"></path>
</svg>
