<svg xmlns="http://www.w3.org/2000/svg" viewBox="0 0 260 260" id="run">
  <path fill="#EDF5F9" d="M219.794 256H30.946c-8.094 0-14.679-6.585-14.679-14.679s6.585-14.678 14.679-14.678h54.397c6.179 0 11.205-5.027 11.205-11.205v-4.359c0-6.179-5.026-11.205-11.205-11.205h-47.88c-4.33 0-7.852-3.522-7.852-7.852s3.522-7.852 7.852-7.852h27.89c6.18 0 11.206-5.026 11.206-11.205v-25.018c0-6.178-5.027-11.205-11.206-11.205h-35.58c-7.28 0-13.204-5.924-13.204-13.205V90.07c0-7.28 5.924-13.205 13.205-13.205h84.3c6.178 0 11.205-5.026 11.205-11.205v-1.34c0-6.178-5.027-11.205-11.205-11.205h-36.62c-7.282 0-13.206-5.924-13.206-13.205s5.924-13.205 13.206-13.205h65.854a4.27 4.27 0 0 0 4.265-4.265 4.27 4.27 0 0 0-4.265-4.265h-34.757c-3.908 0-7.088-3.18-7.088-7.088S104.643 4 108.55 4h115.5a5.692 5.692 0 0 1 5.687 5.686 5.693 5.693 0 0 1-5.686 5.686h-40.46c-6.18 0-11.206 5.026-11.206 11.205v10.974c0 6.178 5.027 11.205 11.205 11.205a1 1 0 1 1 0 2h-22.776c3.735 2.335 6.224 6.485 6.224 11.205v28.965c0 4.72-2.49 8.869-6.224 11.204h2.498a1 1 0 1 1 0 2c-6.179 0-11.205 5.026-11.205 11.205v13.313c0 6.178 5.026 11.205 11.205 11.205h79.682c7.281 0 13.205 5.923 13.205 13.205v23.441c0 7.281-5.924 13.205-13.205 13.205h-51.511c-6.179 0-11.205 5.026-11.205 11.205v25.4c0 6.178 5.026 11.205 11.205 11.205h28.31c5.097 0 9.243 4.146 9.243 9.243S224.891 256 219.794 256zM30.946 228.643c-6.991 0-12.679 5.687-12.679 12.678S23.955 254 30.946 254h188.848c3.994 0 7.243-3.249 7.243-7.243s-3.249-7.243-7.243-7.243h-28.31c-7.281 0-13.205-5.924-13.205-13.205v-25.4c0-7.281 5.924-13.205 13.205-13.205h51.511c6.179 0 11.205-5.026 11.205-11.205v-23.441c0-6.18-5.026-11.205-11.205-11.205h-79.682c-7.281 0-13.205-5.923-13.205-13.205v-13.313c0-4.72 2.49-8.87 6.224-11.205h-2.498a1 1 0 1 1 0-2c6.179 0 11.205-5.026 11.205-11.204V61.96c0-6.179-5.026-11.205-11.205-11.205a1 1 0 1 1 0-2h22.776c-3.735-2.335-6.224-6.485-6.224-11.205V26.577c0-7.281 5.924-13.205 13.205-13.205h40.46a3.69 3.69 0 0 0 3.687-3.685A3.69 3.69 0 0 0 224.052 6H108.55a5.093 5.093 0 0 0-5.088 5.087 5.093 5.093 0 0 0 5.088 5.088h34.757a6.272 6.272 0 0 1 6.265 6.265 6.272 6.272 0 0 1-6.265 6.265H77.454c-6.18 0-11.206 5.026-11.206 11.205s5.027 11.205 11.206 11.205h36.62c7.28 0 13.205 5.924 13.205 13.205v1.34c0 7.281-5.924 13.205-13.205 13.205h-84.3c-6.178 0-11.205 5.027-11.205 11.205v33.467c0 6.179 5.027 11.205 11.205 11.205h35.58c7.28 0 13.205 5.924 13.205 13.205v25.018c0 7.281-5.924 13.205-13.206 13.205h-27.89a5.859 5.859 0 0 0-5.852 5.852 5.858 5.858 0 0 0 5.852 5.852h47.88c7.281 0 13.205 5.924 13.205 13.205v4.358c0 7.282-5.924 13.206-13.205 13.206H30.946z"></path>
  <path fill="#EDF5F9" d="M116.894 248.098a1 1 0 0 1-1-1v-5.957a1 1 0 1 1 2 0v5.957a1 1 0 0 1-1 1z"></path>
  <path fill="#EDF5F9" d="M119.872 245.12h-5.957a1 1 0 1 1 0-2h5.957a1 1 0 1 1 0 2zm29.146-11.665c-1.715 0-3.11-1.395-3.11-3.11s1.395-3.11 3.11-3.11 3.11 1.395 3.11 3.11-1.396 3.11-3.11 3.11zm0-4.22a1.112 1.112 0 0 0 0 2.22 1.112 1.112 0 0 0 0-2.22zm-120.6-72.873c-2.296 0-4.165-1.869-4.165-4.166s1.869-4.165 4.166-4.165c2.296 0 4.165 1.868 4.165 4.165s-1.869 4.166-4.165 4.166zm0-6.33a2.168 2.168 0 0 0-2.165 2.164c0 1.195.972 2.166 2.166 2.166s2.165-.971 2.165-2.166a2.168 2.168 0 0 0-2.165-2.165zM213.483 36.858c-1.715 0-3.11-1.395-3.11-3.11s1.395-3.11 3.11-3.11 3.11 1.395 3.11 3.11-1.395 3.11-3.11 3.11zm0-4.22a1.112 1.112 0 0 0 0 2.22 1.112 1.112 0 0 0 0-2.22zM7.778 173.864a1 1 0 0 1-1-1v-5.956a1 1 0 1 1 2 0v5.956a1 1 0 0 1-1 1z"></path>
  <path fill="#EDF5F9" d="M10.756 170.887H4.8a1 1 0 1 1 0-2h5.956a1 1 0 1 1 0 2zm52.789-156.88c-2.297 0-4.165-1.868-4.165-4.165s1.868-4.165 4.165-4.165c2.297 0 4.165 1.868 4.165 4.165s-1.868 4.165-4.165 4.165zm0-6.33c-1.194 0-2.165.971-2.165 2.165s.971 2.165 2.165 2.165 2.165-.972 2.165-2.165-.971-2.165-2.165-2.165zM238.97 212.143c-2.296 0-4.165-1.869-4.165-4.165s1.869-4.166 4.165-4.166c2.297 0 4.166 1.869 4.166 4.166s-1.869 4.165-4.166 4.165zm0-6.33c-1.194 0-2.165.971-2.165 2.165s.971 2.165 2.165 2.165 2.166-.972 2.166-2.165-.972-2.166-2.166-2.166z"></path>
  <path fill="#FF6060" d="M47.5 194.449h2.969V183.15h-11.76c-.871 0-1.577.705-1.577 1.576v21.194c0 .87.706 1.577 1.577 1.577a8.79 8.79 0 0 0 8.79-8.79v-4.26z"></path>
  <path fill="#F44A4A" d="M50.473 183.15v11.3h-2.975v4.263a8.768 8.768 0 0 1-2.575 6.213 8.767 8.767 0 0 1-6.212 2.574 1.577 1.577 0 0 1-1.575-1.575v-5.887a8.68 8.68 0 0 0 4.187-2.325 8.768 8.768 0 0 0 2.575-6.212v-2.782c0-.818.664-1.48 1.482-1.48s1.48-.664 1.48-1.482v-2.606h3.613z"></path>
  <path fill="#FF6060" d="M170.651 244.63v-2.97h-11.298v11.76c0 .871.706 1.577 1.577 1.577h21.193c.871 0 1.577-.706 1.577-1.577a8.79 8.79 0 0 0-8.79-8.79h-4.259z"></path>
  <path fill="#F44A4A" d="M183.697 253.425c0 .862-.7 1.575-1.575 1.575h-21.188a1.587 1.587 0 0 1-1.587-1.575v-2.55h16.413c.874 0 1.574-.7 1.574-1.575a8.63 8.63 0 0 0-1.312-4.6 8.751 8.751 0 0 1 5.1 2.5 8.775 8.775 0 0 1 2.575 6.225z"></path>
  <path fill="#F9E1D7" d="M170.098 241.992c-4.681 1.394-6.557 1.813-10.156 0l-8.938-49.838-27.939-33.68s-14.35 34.968-23.29 38.062c-8.826 3.053-49.306-2.265-49.306-2.265-2.508-3.82-2.63-7.384 0-10.652l41.622-1.072 10.12-49.674 20.854-9.771v4.178l16.772 1.498s24.172 44.1 26.953 53.976c2.71 9.623 3.308 59.238 3.308 59.238z"></path>
  <path fill="#F9E1D7" d="M116.535 172.838a180.4 180.4 0 0 1-1.55 3.088c-4.75 9.262-10.675 19.037-15.212 20.612-8.825 3.05-49.3-2.262-49.3-2.262-2.512-3.825-2.637-7.388 0-10.663l41.612-1.062 2.326-11.413.924-4.512c.05.05.1.1.163.137 5.6 3.863 12.662 5.813 21.037 6.075z"></path>
  <path fill="#31394C" d="m117.173 172.863-.713 1.813a2.066 2.066 0 0 1-1.475 1.25c-.138.037-.287.05-.437.05-7.876-.113-14.638-1.65-20.137-4.838l.924-4.512c.05.05.1.1.163.137 5.6 3.863 12.662 5.813 21.037 6.075.212.013.425.025.638.025z" opacity=".1"></path>
  <path fill="#EDC1B2" d="M170.094 241.992c-1.488.45-2.688.787-3.75 1-.013-1.063-.625-49.7-3.3-59.224-2.787-9.875-26.962-53.975-26.962-53.975l-16.762-1.5v-3.437l3.75-1.75v4.175l16.762 1.5s24.175 44.1 26.962 53.974c2.712 9.625 3.3 59.237 3.3 59.237zm-48.766-86.441c-2.488 5.88-14.828 34.202-22.833 36.979-8.825 3.05-49.3-2.275-49.3-2.275a9.401 9.401 0 0 1-.625-1.063c.1 1.638.75 3.338 1.9 5.075 0 0 40.475 5.325 49.3 2.263 7.058-2.435 20.13-27.396 24.218-36.699l-2.66-4.28z"></path>
  <path fill="#F9E1D7" d="M112.177 65.105c-4.344-.878-8.693 1.515-10.502 5.56-3.689 8.248-11.097 25.977-8.706 30.345 3.303 6.034 36.325 10.286 36.325 10.286l2.133-6.423-22.2-9.638 9.295-15.826c3.026-5.152.75-11.953-4.896-13.908-.478-.165-.96-.297-1.45-.396z"></path>
  <path fill="#FF6060" d="M155.51 157.75c-5.875 6.776-12.775 11.738-20.138 14.626a2.031 2.031 0 0 1-2.275-.588l-9.337-10.962-3.063 7.85-1.137 2.9a2.018 2.018 0 0 1-1.912 1.3c-8.863-.125-16.312-2.075-22.15-6.113a2.064 2.064 0 0 1-.863-2.1l6.188-30.812.212-1.037.138-3.188 41.162.563 13.425 25.275c.4.737.3 1.65-.25 2.287z"></path>
  <path fill="#F44A4A" d="m104.93 133.851-3.757-4.225-.138 3.188-.212 1.037-6.188 30.812a2.064 2.064 0 0 0 .863 2.1c5.838 4.038 13.287 5.988 22.15 6.113a2.018 2.018 0 0 0 1.912-1.3l1.137-2.9 2.76-7.074-18.528-27.75z"></path>
  <path fill="#FF6060" d="m122.105 164.94-2.545 6.636a2.018 2.018 0 0 1-1.912 1.3c-8.863-.125-16.312-2.075-22.15-6.113a2.064 2.064 0 0 1-.863-2.1l6.188-30.812 1.6.138s9.061 17.262 19.682 30.951z"></path>
  <path fill="#F44A4A" d="M155.51 157.75a59.177 59.177 0 0 1-4.513 4.663c.475-.512.95-1.024 1.413-1.562.55-.637.637-1.55.25-2.287l-13.425-25.275-38.2-.513.138-3.15 41.162.563 13.425 25.275c.4.737.3 1.65-.25 2.287z"></path>
  <path fill="#F9E1D7" d="m123.069 123.381-.5-.038.5-.237z"></path>
  <path fill="#FFD372" d="m134.118 57.145-16.242-2.262S106.02 57.06 100.28 76.058c-4.321 14.305 0 59.774 0 59.774 0 5.595 45.57 5.595 45.57 0v-34.283a89.902 89.902 0 0 0-11.732-44.404z"></path>
  <path fill="#FFB85A" d="M145.847 101.552v34.274c0 5.6-45.562 5.6-45.562 0 0 0-.312-3.312-.7-8.425 13.35 1.638 33.962-60.399 29.787-70.924l4.75.663a89.92 89.92 0 0 1 11.725 44.412z"></path>
  <path fill="#F9E1D7" d="M115.208 73.754c-2.605 8.652-7.689 27.182-4.76 31.209 4.047 5.562 39.708 7.929 39.708 7.929l1.296-6.643-25.616-9.09 7.198-16.883c-7.6-.023-14.01-1.589-17.826-6.522z"></path>
  <path fill="#EDC1B2" d="m150.722 109.964-.563 2.925s-35.661-2.362-39.711-7.925c-2.925-4.025 2.15-22.562 4.762-31.212a13.494 13.494 0 0 0 2.962 2.825c-2.587 9.362-5.574 22.45-3.175 25.762 3.213 4.413 26.3 6.813 35.725 7.625z"></path>
  <path fill="#F9E1D7" d="M146.652 12.354s1.76 6.935 1.045 8.99c-.47 1.35-2.302 2.902-.4 5.704s4.05 8.706-.177 7.605c0 0-2.065 4.132-1.113 6.333.953 2.202-.512 7.476-5.916 5.775-5.403-1.701-6.604-.2-6.604-.2-1.633 3.023-.701 6.448.631 10.584-4.787 3.12-12.957.767-18.061-2.262 2.012-2.546 1.11-7.525 0-12.125v-30.12l10.625-5.704 19.97 5.42z"></path>
  <path fill="#EDC1B2" d="M147.122 34.652s-2.063 4.138-1.112 6.338c.95 2.2-.513 7.475-5.913 5.775-5.412-1.7-6.612-.2-6.612-.2-1.625 3.025-.7 6.45.637 10.575-4.787 3.124-12.962.775-18.062-2.263.212-.262.388-.55.538-.85 4.6 1.7 9.912 2.35 13.424.063-.452-1.411-.858-2.74-1.133-3.996-.892-4.078 2.957-7.657 6.947-6.43l.161.05c5.4 1.7 6.875-3.574 5.913-5.774-.44-1.02-.231-2.455.12-3.702.358-1.268 1.4-2.115 2.617-2.622 1.903-.794.146-5.28-1.437-7.614-1.913-2.812-.075-4.362.4-5.712.462-1.325-.113-4.7-.575-6.912l3.613.975s1.762 6.937 1.05 8.987c-.476 1.35-2.3 2.9-.401 5.712 1.9 2.8 4.05 8.7-.175 7.6z"></path>
  <path fill="#434A54" d="M118.46 45.13s-.328 6.361-5.93 4.055c-5.602-2.307-1.9-12.5-6.294-18.101S104.938 3.05 132.962 5.136c32.997 2.458 14.28 14.5 7.25 14.72s-13.646 4.847-14.195 12.316c-.55 7.47-4.284 4.834-6.152.989s-7.008 1.862-1.405 11.968z"></path>
  <path fill="#F9E1D7" d="M151.452 106.249s3.709-3.46 5.339-1.915c1.907 1.807-1.888 3.496-1.888 3.496s4.928-1.678 4.525 2.434c-.505 5.15-5.389 5.39-9.283 2.687l1.307-6.702zM123.77 160.456l-15.366-21.249"></path>
  <path fill="#FFF" d="M131.621 10.807c1.26 3.197-2.316 7.592-7.992 9.828-5.675 2.235-11.299 1.465-12.558-1.732-1.26-3.197 2.328-7.596 8.003-9.832 5.675-2.236 11.288-1.46 12.547 1.736z" opacity=".05"></path>
  <path fill="#FFF" d="M124.923 10.875c.582 1.477-1.07 3.509-3.694 4.542s-5.222.677-5.804-.8c-.582-1.478 1.076-3.511 3.699-4.544s5.217-.676 5.799.802z" opacity=".05"></path>
  <path fill="#EDF5F9" d="M197.562 116.77a1 1 0 0 1-1-1v-5.818a1 1 0 1 1 2 0v5.818a1 1 0 0 1-1 1z"></path>
  <path fill="#EDF5F9" d="M200.471 113.86h-5.817a1 1 0 1 1 0-2h5.817a1 1 0 1 1 0 2zm26.01-31c-1.714 0-3.11-1.396-3.11-3.111s1.396-3.11 3.11-3.11 3.111 1.395 3.111 3.11-1.395 3.11-3.11 3.11zm0-4.221a1.112 1.112 0 0 0 0 2.22 1.112 1.112 0 0 0 0-2.22z"></path>
  <path fill="#31394C" d="M242.136 254h-57.503c.05-.19.07-.378.07-.578 0-5.4-4.4-9.79-9.79-9.79h-3.26c-.12-1.364.339-2.464-.58-2.87-.1-7.86-.82-49.37-3.32-58.28-1.17-4.17-5.99-14.13-11.25-24.4 1.745-2.645-.74-3.606-9.74-21.7.17-.51.06.706.09-22.73 1.27.1 2.26.17 2.87.21 1.74 1.18 3.6 1.79 5.28 1.79.87 0 1.68-.16 2.41-.5 1.21-.56 2.72-1.85 3.01-4.79.17-1.76-.5-2.69-1.09-3.16-.4-.31-.87-.51-1.35-.61.15-.25.26-.53.31-.83.09-.54.03-1.35-.81-2.15-1.9-1.8-4.98.42-6.25 1.5l-4.38-1.56c-.155-1.256 1.643-23.016-11.8-46.78-1.28-3.96-2.07-6.98-.78-9.56.31-.17 1.7-.7 5.52.5 3.32 1.05 5.19-.32 6.01-1.22 1.55-1.73 1.79-4.36 1.12-5.9-.48-1.11.14-3.31.78-4.82 1.3.13 2-.42 2.37-.94 1.54-2.19-.95-6.88-1.95-8.35-1.14-1.67-.61-2.62-.01-3.72.802-1.401.936-2.254.6-5.01 2.33-1.55 4.12-3.54 4.17-5.65.09-4.29-6.58-6.98-19.85-7.96-17.46-1.31-24.45 6.74-27.07 11.65-3.29 6.17-2.85 12.94-.51 15.91 1.83 2.34 2.12 5.67 2.4 8.89.35 3.95.71 8.04 4.3 9.52 1.334.54 2.747.817 4.09.32.022 3.353-1.14 3.623-1.18 4.36-3.05 1.37-8.16 4.69-12.31 12.49-.81.86-1.49 1.85-1.99 2.97-5.29 11.82-11.08 26.84-8.67 31.24.73 1.35 2.69 2.59 5.35 3.72.336 13.652 1.757 30.486 1.88 31.02-5.436 29.05-6.65 28.737-5.07 30.72l-2.98 14.61-39.97 1.04c-.53-.84-.86-.28-12.59-.45-1.43 0-2.58 1.15-2.58 2.58v21.19c0 1.42 1.15 2.57 2.58 2.57 5.39 0 9.79-4.39 9.79-9.79v-3.25h1.97a.9.9 0 0 0 .46-.12c5.21.68 40.7 5.07 49.17 2.15 5.25-1.82 12.05-13.55 17.05-23.62.102 0 .417.008.52.01 1.24 0 2.36-.77 2.82-1.93l3.59-9.2c8.284 9.349 8.15 10.452 10.13 10.73l15.85 19.12 8.66 48.3c-.683.505-.234.56-.37 12.53 0 .2.02.389.07.578H17.267a1 1 0 1 0 0 2h224.869a1 1 0 1 0 0-2zm-67.222-8.367c4.29 0 7.79 3.49 7.79 7.79 0 .32-.26.57-.58.57h-21.19c-.32 0-.58-.25-.58-.57v-10.14c3.382 1.482 5.691.94 9.3-.11.094.52-.422 2.46 1 2.46h4.26zm-18.81-140.57c.11.1.24.25.22.36-.07.42-1.02 1.13-1.83 1.49-.49.22-.72.79-.52 1.28.2.5.75.76 1.25.58.63-.21 2.23-.51 2.87 0 .29.23.41.7.34 1.39-.16 1.61-.78 2.68-1.86 3.18-1.37.63-3.41.29-5.32-.86l1.12-5.71c1.25-1.09 3.19-2.23 3.73-1.71zm-5.8 1.84-.96 4.93c-5.61-.416-34.74-2.855-38.09-7.46-2.697-3.74 3.09-24.149 4.4-28.6 4.016 4.12 10.11 5.297 15.88 5.48l-6.62 15.51a1.01 1.01 0 0 0 .59 1.34l24.8 8.8zm-3.94-85.11c-.68 1.24-1.72 3.12.11 5.82 1.62 2.39 2.45 5.38 1.96 6.06-.1.15-.52.15-1.06.01-.46-.12-.94.1-1.15.52-.23.47-2.24 4.63-1.13 7.18.4.93.18 2.71-.78 3.77-.88.97-2.2 1.2-3.92.65-5.62-1.76-7.31-.35-7.69.13-.03.05-.07.1-.1.15-1.762 3.277-.843 6.96.32 10.6-4.349 2.173-11.143.188-15.47-2.16.819-1.637.866-3.774.72-5.59.686-.93 1.616-3.427 1.16-4.29-3.127-5.632-2.091-8.009-2.28-9.45.273-1.475 1.188-3.132 1.91-1.59 1.08 2.22 3.09 4.68 5.18 4.29 1.65-.32 2.62-2.22 2.87-5.65.53-7.22 7.06-11.19 13.23-11.39 1.78-.06 4.27-.8 6.58-1.99.163 1.96-.053 2.19-.46 2.93zm-33.45 26.47c-2.47-1.02-2.74-4.18-3.06-7.85-.3-3.34-.63-7.14-2.83-9.95-1.65-2.1-2.33-8.05.71-13.73 2.02-3.79 6.94-9.62 18.3-10.58 4.912-.598 24.944.853 24.85 5.91-.033 1.877-2.684 3.776-4.34 4.68v.01c-2.14 1.2-4.62 2.05-6.36 2.1-7.07.22-14.55 4.84-15.16 13.25-.22 2.87-.89 3.75-1.25 3.82-.56.1-1.93-.98-3.01-3.2-2.47-5.112-9.588 1.004-3.33 12.62-.382 2.912-1.849 4.026-4.52 2.92zm-19.07 52.27c-1.13-2.07.5-9 4.32-18.9-.76 5.88-.91 13.63-.77 21.41-1.83-.82-3.09-1.67-3.55-2.51zm12.95-35.94v-.01c3.74-5.24 7.74-7.41 9.82-8.24 4.871 2.621 12.194 4.607 17.12 2.16 12.009 21.692 11.067 43.917 11.12 44.34l-17.68-6.27 6.78-15.9c.13-.31.1-.67-.08-.95-.19-.28-.5-.45-.84-.45-6.419-.013-13.136-1.102-17.03-6.13a.999.999 0 0 0-.98-.37c-.37.07-.67.33-.77.69-1.748 5.79-8.144 27.228-4.61 32.09 3.656 5.037 29.054 7.387 35.21 7.93 0 20.656.08 22.32-.02 22.42-.868 3.468-39.764 4.681-43.42.11-.158-.158-.12.454-.72-7.26-2.639-35.623-2.54-52.066 6.1-64.16zm-59.29 128.86c-.56 0-1 .44-1 1v4.25c0 4.3-3.5 7.79-7.79 7.79-.32 0-.58-.25-.58-.57v-21.19c0-.32.26-.58.58-.58h10.17c-1.78 2.86-1.8 5.97-.05 9.3h-1.33zm51.94 2.14c-8.485 2.936-48.025-2.22-48.38-2.25-1.99-3.24-2.02-6.1-.09-8.74l41.14-1.06c.47-.01.86-.34.96-.8l2.94-14.44c5.09 3.2 11.45 5.04 18.94 5.47-5 9.95-11.17 20.32-15.51 21.82zm16.48-23.77c-6.956-.302-14.118-1.897-19.86-5.88-1.121-.768-.272-.65 4.93-27.85 1.761 1.045 4.757 1.645 6.79 1.96l14.95 20.67c-4.782 12.232-3.643 11.264-6.81 11.1zm8.85-11.36c0-.57.681.737-14.27-20.05 7.84.885 28.972 1.264 34.84-2.44 10.483 20.35 10.564 17.955 8.77 19.83-6.304 7.058-14.313 12.08-19.11 13.64-1.26.504-1.313-.874-10.23-10.98zm27.22 31.51c-.04-.17-.11-.33-.22-.46l-15.34-18.49c6.79-2.8 13.2-7.37 18.66-13.31 5.07 9.93 9.63 19.4 10.73 23.31 2.315 8.211 3.26 50.983 3.26 58.23-3.81 1.11-5.44 1.38-8.25.06l-8.84-49.34z"></path>
</svg>
