<svg xmlns="http://www.w3.org/2000/svg" enable-background="new 0 0 4000 4000" viewBox="0 0 4000 4000" id="scientist">
  <polygon fill="none" points="1121.86 1022.28 1121.85 1022.07 1121.86 1022.53"></polygon>
  <path fill="#ccc4ae" d="M2880.44,1783.72c-4.76-10.52-7.64-22.27-8.3-34.84c-0.13-2.42-0.19-4.73-0.19-6.98
			c-0.01-6.81,0.62-12.99,2.15-18.82c1.53-5.82,4.01-11.19,7.23-16.05c2.14-3.25,4.58-6.29,7.28-9.26
			c3.6-3.97,7.67-7.84,12.28-12.04c26.48-24.08,47.43-54.11,61.73-87.11s21.95-68.95,21.95-104.76c0-3.89-0.1-7.78-0.28-11.67
			c-0.42,0.58-0.84,1.16-1.26,1.72c-7.37,9.97-15.85,19.52-26.3,27.51c-7.05,5.4-15,9.8-23.48,12.91
			c-8.47,3.1-17.48,4.92-26.64,4.92c-9.49,0-19.18-1.98-28.14-6.6c-6.29-3.23-11.76-7.52-16.35-12.46
			c-4.59-4.93-8.31-10.53-11.26-16.45c-5.87-11.89-8.65-25.12-8.66-38.13c0-1.67,0.05-3.33,0.14-4.98c0.45-7.88,1.91-15.27,4-22.22
			c2.1-6.95,4.83-13.44,7.81-19.6c6.01-12.33,13.01-23.44,18.8-34.49c3.86-7.37,7.22-14.68,9.59-22.25
			c7.9-25.26,11.54-52.57,11.54-79.24c0-8.05-0.34-16.06-0.98-23.92c-1.17-14.46-3.97-29.1-7.05-44.11
			c-3.07-15.03-6.41-30.4-8.41-46.39c-1.35-10.87-2.01-21.8-2.01-32.72c0.01-45.71,11.61-91.3,33.52-131.43
			c-6.95,2.48-13.64,5.77-19.89,9.74c-13.71,8.71-25.27,20.73-32.94,34.77c-4.2,7.66-7.51,16.23-10.82,25.36
			c-3.33,9.11-6.64,18.76-11.14,28.41c-8.46,18.14-20.55,34.41-35.17,47.89c-14.62,13.5-31.81,24.23-50.56,31.21
			c-18.51,6.89-36.93,10.1-54.71,10.1c-17.12,0-33.63-2.97-49.07-8.39c-15.45-5.42-29.84-13.28-42.83-23.02
			c-25.97-19.5-46.36-46.53-58.61-77.32c-8.15-20.51-12.67-42.74-12.67-65.49c0-10.78,1.01-21.67,3.14-32.55
			c4.95-25.36,14.94-49.57,28.96-71.15c8.66-13.32,18.85-25.63,30.36-36.58c-9.44,0.7-19.07,2.99-28.59,6.51
			c-11.54,4.27-22.85,10.36-33.19,17.38c-13.66,9.25-26.58,20.24-39.8,31.57c-13.22,11.32-26.74,22.97-41.79,33.31
			c-18.57,12.74-40.31,21.54-62.99,27.25c-22.7,5.68-46.35,8.27-68.93,8.27c-1.75,0-3.48-0.01-5.21-0.05
			c-41.18,5.37-84.04-1.68-120.72-21.21c-18.4-9.8-34.06-30.11-45.53-47.15c-13.09-19.47-21.94-41.45-30.41-63.23
			c-8.45-21.76-17.25-43.75-30.25-63.27c-12.94-19.43-28.63-32.95-48.59-44.45c14.17,23.01,18.83,53.77,16.15,80.58
			c-2.83,28.47-14.18,55.79-30.71,79.16c-59.16,83.66-167.48,95.57-261.88,85.12c-30.91-3.42-61.83-9.8-89.9-23.16
			c-28.08-13.38-53.27-34.2-67.96-61.6c-15.88-29.63-15-61.2-7.91-92.82c-36.51,30.61-54.07,74.44-66.15,119.74
			c-10.91,40.88-18.41,83.14-36.88,121.2c-35.46,73.12-108.79,90.07-181.94,104.7c-31.09,6.21-63.29,3.13-92.29-10.17
			c-17.87-8.2-34.03-20.06-47.37-34.5c-13.45-14.55-22.59-29.22-29.84-47.26c-47.56,59.79-56.75,147.57-22.58,215.9
			c10.09,20.17,23.25,38.69,28.8,60.72c13.73,54.55,14.54,128.34-46.43,153.89c-32.59,13.65-84.62,5.5-103.95-26.34
			c-3.24,45.61-0.02,95.96,16.99,138.79c14.41,36.27,37.2,69.36,66.6,95.06c1.75-2.89,3.69-5.69,5.85-8.4
			c3.92-4.91,8.56-9.3,13.81-12.94c5.24-3.64,11.09-6.53,17.42-8.3c4.23-1.17,8.66-1.83,13.21-1.83c1.72,0,3.47,0.1,5.22,0.29
			c4.09,0.46,7.97,1.45,11.6,2.78c3.64,1.34,7.03,3.01,10.2,4.88c6.33,3.75,11.81,8.26,16.69,12.68
			c11.02,10.04,20.91,21.26,29.48,33.39c4.43-9.48,9.15-18.86,14.15-28.12c29.78-55.18,69.48-106.11,117.26-151.47
			c15.93-15.11,32.76-29.62,50.41-43.45c141.25-110.65,335.68-178.69,550.2-178.72c120.66,0,234.96,21.55,337.04,60.08
			c102.06,38.54,191.88,94.05,263.55,162.09c47.79,45.36,87.48,96.29,117.27,151.47c0.46,0.85,0.93,1.71,1.38,2.58
			c4.77-7.29,10.3-14.22,16.64-20.45c8.19-8.02,17.77-14.88,28.78-19.54c9.34-3.95,19.48-6.02,29.66-6.02
			c7.13,0,14.29,1.02,21.19,3.22c6.89,2.19,13.51,5.57,19.4,10.27c5.01,3.98,9.18,8.62,12.64,13.58c3.47,4.97,6.21,10.25,8.45,15.66
			c4.46,10.81,6.91,22.1,8.62,32.74c2.81,17.6,4.19,35.4,4.19,53.21c0,48.05-10.1,96.06-29.78,139.96
			c-4.17,9.27-8.74,18.34-13.73,27.19c2.07-1.62,4.08-3.38,5.96-5.22c5.48-5.31,10.64-11.58,16.13-18.2
			c5.49-6.61,11.32-13.58,18.35-20.06c7.02-6.48,14.64-11.87,22.56-16.48c7.93-4.61,16.15-8.45,24.44-11.85
			c16.62-6.78,33.57-11.81,49.38-17.31c11.7-4.06,23.42-8.85,34-14.65c9.86-5.4,18.72-11.68,25.82-18.95
			c-16.24-0.71-31.48-5.55-44.41-13.81C2898.89,1812.52,2887.55,1799.52,2880.44,1783.72z"></path>
  <path d="M2968.4,1762.35c-2.58,0.58-4.78,0.8-6.72,0.8c-3.08-0.02-5.38-0.53-7.31-1.28c-1.47-0.59-2.64-1.28-3.67-2.08
			c-1.05-0.82-1.96-1.76-2.83-2.99c-0.88-1.25-1.64-2.67-2.29-4.54c-0.62-1.85-1.13-4.16-1.3-7.2l-0.01-0.06
			c-0.01-0.31-0.02-0.6-0.04-0.88l0.1-0.09c1.31-1.3,3.05-2.93,5.15-4.86c34.56-31.43,61.25-69.92,79.42-111.82
			c18.15-41.92,27.88-87.43,27.9-133.49c0-16.02-1.19-32.09-3.63-48.09l-6.26-40.86h-1.12l-22.99-124.77l-81.97,136.11
			c-1.53,2.52-2.98,4.91-4.34,7.15c-2.08,3.42-4.09,6.61-6.02,9.56c-1.92,2.94-3.78,5.63-5.55,8.02c-2.34,3.19-4.56,5.86-6.57,8
			c-1.3,1.39-2.5,2.53-3.63,3.51c0.06-0.36,0.14-0.72,0.22-1.13c0.29-1.24,0.71-2.72,1.42-4.62c0.95-2.6,2.57-6.12,4.84-10.44
			c2.27-4.33,5.18-9.44,8.5-15.3l0.04-0.06c3.3-5.86,7.13-12.66,10.94-20.51c3.83-7.85,7.65-16.76,10.79-26.79
			c5.23-16.66,8.92-33.59,11.33-50.48c2.39-16.88,3.52-33.75,3.52-50.33c0-10.05-0.43-19.97-1.21-29.73v-0.05
			c-1.62-19.71-5.15-37.28-8.29-52.75c-1.61-7.74-3.11-15.01-4.41-21.83c-1.29-6.8-2.36-13.12-3.08-18.98
			c-0.98-7.84-1.46-15.8-1.46-23.8v-0.13c0-20.14,3.13-40.54,9.17-59.99c6.04-19.45,14.97-37.93,26.37-54.32l14.21-20.44
			l56.84-81.81l-124.29,7.82c-14.46,0.92-28.53,3.76-41.9,8.21c-13.36,4.47-26.03,10.54-37.76,18.02
			c-11.75,7.46-22.63,16.36-32.33,26.57c-9.72,10.21-18.25,21.73-25.22,34.44l-0.04,0.09c-3.62,6.63-6.55,13.04-9.03,18.96
			c-2.47,5.93-4.49,11.4-6.26,16.25l-0.05,0.12c-1.76,4.88-3.32,9.26-4.75,13.03c-1.44,3.78-2.74,6.95-3.9,9.43l-0.03,0.07
			c-4.28,9.21-10.76,18.03-18.7,25.34c-7.89,7.3-17.21,13.05-26.75,16.58c-10.77,3.99-20.38,5.55-29.53,5.57
			c-5.86-0.01-11.47-0.67-16.98-1.95c-5.51-1.27-10.9-3.16-16.21-5.68c-3.95-1.88-7.83-4.09-11.61-6.64
			c-3.78-2.57-7.44-5.45-10.96-8.65c-7-6.39-13.35-14-18.61-22.44c-5.26-8.43-9.44-17.66-12.27-27.23
			c-2.83-9.59-4.31-19.47-4.31-29.31v-0.08c0-6.26,0.58-12.48,1.8-18.66l0.01-0.06c3.08-15.87,9.51-31.61,18.64-45.61
			c9.1-14.03,20.86-26.28,34.12-35.54l20.46-14.33l81.88-57.32l-119.8-35.39c-13.75-4.07-27.56-5.83-40.82-5.83
			c-10.83,0-21.31,1.15-31.29,3.13c-9.97,1.98-19.45,4.78-28.43,8.09l-0.04,0.02c-17.99,6.67-34.17,15.55-48.62,25.31
			c-9.03,6.13-17.27,12.44-24.92,18.6c-7.64,6.18-14.7,12.22-21.31,17.88l-0.03,0.04c-6.63,5.67-12.85,11-18.77,15.82
			c-5.94,4.82-11.56,9.12-16.92,12.79l-0.02,0.03c-4.72,3.25-10.59,6.45-17.32,9.3c-6.71,2.87-14.29,5.39-22.32,7.4l-0.03,0.01
			c-16.07,4.06-34.24,6.12-51.17,6.09h-0.09h-0.07c-6.24,0-12.34-0.26-18.12-0.76c-7.8-0.67-15.42-2.07-22.43-4.12
			c-7.02-2.02-13.4-4.69-18.82-7.75c-5.45-3.07-10.02-6.56-13.81-10.36c-3.76-3.82-6.76-7.89-9.31-12.92
			c-2.41-4.75-4.76-10.28-7.1-16.58c-2.34-6.3-4.67-13.34-7.13-21.01l-0.03-0.07c-2.48-7.68-5.12-16.08-8.23-25.01
			c-3.12-8.93-6.71-18.42-11.19-28.24c-9.65-21.23-22.19-40.7-36.9-58.1s-31.59-32.74-50.07-45.73l-0.04-0.03
			c-8.52-5.98-17.41-11.47-26.61-16.43c-9.19-4.96-18.71-9.39-28.47-13.24c-19.46-7.67-39.97-13.07-61.14-15.74l-0.17-0.02
			l-0.06-0.02c-3.72-0.47-7.27-0.83-10.65-1.1l-28.99-2.35l-115.62-9.34l93.74,110.59c6.92,8.15,12.5,18.04,16.32,29.04
			c3.82,10.97,5.86,23.03,5.85,34.95c0,9.4-1.24,18.72-3.64,27.43c-2.39,8.7-5.92,16.77-10.43,23.9c-2.89,4.58-5.85,8.47-8.9,11.9
			c-3.06,3.42-6.23,6.4-9.61,9.09c-5,3.99-10.44,7.34-16.69,10.27c-9.26,4.34-20.29,7.64-33.02,9.79
			c-12.69,2.16-27.04,3.12-42.29,3.12c-10.39,0-21.22-0.45-32.25-1.17c-14.16-0.95-28.79-2.53-42.66-5.06
			c-10.41-1.91-20.4-4.37-29.34-7.33c-6.72-2.22-12.89-4.74-18.32-7.47c-5.43-2.74-10.11-5.66-14.03-8.67
			c-3.93-3.04-7.11-6.14-9.77-9.43c-2.66-3.31-4.81-6.75-6.7-11.02c-1.48-3.35-2.66-7.03-3.45-10.92
			c-0.81-3.87-1.22-7.95-1.22-12.05c0-4.87,0.59-9.83,1.73-14.53c1.15-4.68,2.82-9.1,4.89-13.01c0.46-0.86,0.94-1.71,1.44-2.54
			l23.51-39.08l94.3-156.71L1603.42,713.9l-0.05,0.03c-1.99,1.12-3.98,2.28-5.98,3.47l-0.08,0.05
			c-33.21,19.72-62.61,45.04-87.12,74.37c-26.02,31.14-46.6,66.88-60.1,105.63c-2.91,8.33-5.39,16.46-7.59,24.31
			c-2.2,7.85-4.13,15.43-5.96,22.69c-1.82,7.28-3.53,14.25-5.22,20.88c-1.69,6.63-3.36,12.92-5.11,18.82
			c-3.13,10.59-7.26,20.04-12.28,28.65c-5.02,8.6-10.96,16.35-17.87,23.46c-6.88,7.07-14.74,13.47-23.65,19.15
			c-8.91,5.68-18.87,10.66-29.93,14.79c-8.11,3.03-16.77,5.49-25.46,7.15c-8.68,1.66-17.38,2.51-25.59,2.51
			c-10.52,0.02-20.3-1.41-28.63-3.98c-4.2-1.3-8.07-2.88-11.64-4.73c-3.58-1.86-6.88-4-10.02-6.49c-3.35-2.7-6.54-5.91-9.39-9.55
			c-2.86-3.64-5.37-7.68-7.41-11.94l-0.03-0.08c-3.78-7.83-5.94-16.53-6.22-24.58l-0.01-0.24v-0.22c-0.02-0.42-0.03-0.95-0.03-1.65
			c0-0.41,0-0.83,0.01-1.26l0.01-0.07l1.01-40.08l4.05-160.08l-114.57,164.07l-0.04,0.05c-1.3,1.88-2.59,3.71-3.84,5.53
			c-11.99,17.19-24.49,35.29-36.47,54.74c-13.25,21.53-25.89,44.78-36.11,70.43c-6.48,16.29-11.84,33.46-15.62,51.3
			c-3.36,15.87-5.44,32.28-5.88,49.07l-23.69-119.82l-56.24,315.07c-0.25,1.45-0.54,3.01-0.83,4.7
			c-4.07,22.81-8.23,46.57-11.43,71.2c-3.22,24.73-5.46,50.35-5.47,76.79c0,17.16,0.95,34.67,3.25,52.43
			c1.23,9.51,2.89,19.05,4.97,28.54c2.1,9.47,4.63,18.92,7.61,28.26c5.97,18.71,13.78,37.06,23.6,54.58
			c9.86,17.54,21.8,34.25,36.06,49.41c6.8,7.24,14.14,14.1,22.02,20.5c-0.69,8.99-1.04,17.97-1.04,26.96
			c0,68.49,23.38,139.27,61.18,196.11c19.53,29.36,26.68,55.46,35.42,89.05c-8.12,14.23-14.75,29.13-19.89,44.41
			c-9.31,27.61-13.91,56.47-13.91,85.31c0,25.2,3.53,50.46,10.73,74.91c7.21,24.45,18.14,48.11,33.05,69.81l12.35,17.97
			l152.85,289.62l192.96-6.99c-35.2,96.71-77.09,190.98-125.32,281.9l-3.34,6.32l-13.39,25.28l19.74,29.81
			c0.22,0.33,0.5,0.73,0.86,1.26c2.8,4.08,10.42,14.61,23.51,28.4c10.86,11.45,25.48,25.14,44.2,39.16
			c17.7,13.25,39.1,26.75,64.35,38.76l-25.21,61.41c-5.91,3.56-11.62,7.43-17.13,11.57c-16.69,12.58-31.47,27.74-43.63,45.13
			c-1.24,1.76-2.35,3.4-3.33,4.88l-0.03,0.06c-3.3,5.04-7.07,11.5-10.27,19.48l-0.05,0.11l-0.05,0.13
			c-1.5,3.82-3.06,8.41-4.25,13.69c-1.22,5.37-2.03,11.43-2.03,18c0,5.71,0.61,11.85,2.19,18.28l0.02,0.09l0.01,0.07
			c1.6,6.38,4.05,12.75,7.6,18.99l0.02,0.05l0.04,0.07c2.83,4.94,6.04,9.3,9.55,13.15c3.51,3.89,7.31,7.27,11.34,10.22l0.07,0.05
			c5.56,4.07,11.32,7.14,16.83,9.4c7.84,3.21,15.16,4.83,21.1,5.73l0.14,0.03c6.24,0.91,11.76,1.15,16.41,1.15
			c0.34,0,0.96,0,1.95-0.01l0.1-0.01c11.01-0.17,21.58-1.23,31.66-2.84c10.05-1.61,19.63-3.78,28.7-6.2l0.05-0.01
			c18.15-4.86,34.52-10.76,49.21-15.99c3.03-1.09,6.76-2.42,10.98-4.1c4.22-1.68,8.95-3.73,13.99-6.32l0.07-0.03
			c5.07-2.63,10.61-5.9,16.24-10.07l0.04-0.02l0.03-0.04c5.72-4.24,11.56-9.46,16.97-15.88l0.07-0.09
			c7.02-8.34,12.1-17.56,15.48-26.88l0.01-0.04c1.74-4.77,3.1-9.81,4.03-15.03l149.14-155.11l139.5,165.03
			c3.05,9.33,6.92,18.24,11.5,26.64l0.03,0.03c12.17,22.21,29.25,41.1,49.74,55.49c10.24,7.19,21.4,13.28,33.34,17.99
			c11.94,4.7,24.67,8.03,37.93,9.62l0.18,0.02c4.58,0.53,9.42,0.84,14.52,0.84h0.08c5.68-0.01,11.84-0.4,18.38-1.47
			c6.53-1.06,13.45-2.8,20.5-5.55l0.07-0.02l0.12-0.05c6.7-2.65,13.86-6.37,20.79-11.53h6.6l14.19-22.29
			c4.94-7.76,8.27-15.83,10.38-23.73l0.03-0.08l0.02-0.12c2.07-7.91,2.86-15.56,2.86-22.58v-0.09c-0.01-5.84-0.56-11.37-1.43-16.5
			c-0.88-5.11-2.08-9.83-3.42-14.14c-2.67-8.6-6.05-16.14-9.57-22.73c-9.68-18.15-22.16-34.45-36.79-48.46
			c-7.06-6.76-14.65-12.97-22.68-18.63l-7.91-35.3c2.37-0.43,4.76-0.89,7.23-1.43c15.51-3.41,32.86-9.04,51.42-17.83
			c18.58-8.78,38.27-20.67,58.65-36.42c18.23-14.06,37-31.22,56.07-51.98c3.68,2.18,7.65,4.42,11.89,6.66
			c6.96,3.7,14.63,7.38,22.94,10.79c8.34,3.4,17.43,6.57,27.34,8.99c9.86,2.41,20.83,4.18,32.83,4.2h0.08
			c5.74,0,11.8-0.41,18.11-1.45c6.29-1.04,12.84-2.72,19.4-5.23l0.04-0.01c8.33-3.18,15.91-7.2,22.74-11.69l0.12-0.09
			c6.75-4.47,12.86-9.47,18.33-14.78l0.09-0.07c8.14-7.9,14.72-16.27,20.2-24.47l0.06-0.08l0.04-0.05
			c8.22-12.4,14.24-24.81,19.02-36.36c4.79-11.6,8.36-22.5,11.21-31.8l0.02-0.06c9.84-32.22,19.36-64.36,28.86-96.31
			c7.43-1.8,14.73-4.02,21.86-6.65c20.33-7.52,38.66-17.99,54.94-30.13c16.27-12.14,30.57-25.96,43.07-40.67l0.02-0.03
			c14.02-16.48,26.56-35.06,36.46-55.64c4.93-10.29,9.22-21.1,12.64-32.4c3.41-11.27,5.95-23.05,7.38-35.19l0.01-0.1
			c0.87-7.34,1.3-14.7,1.3-22.07v-0.05c-0.01-6.94-0.41-13.91-1.19-20.89l54.96-68.96l-131.73-138.19l-61.19,60.15l-2.69-2.13
			l1.07,3.71l-1.34,1.32c-2.56-0.12-5.1-0.19-7.59-0.19h-0.06h-0.11c-8.05,0.01-15.79,0.61-23.16,1.59
			c-7.41,0.97-14.45,2.32-21.16,3.83l-0.04,0.01c-13.42,3.05-25.67,6.81-36.88,10.35l-0.06,0.02c-9.84,3.13-20.81,7.06-32.23,12.34
			l-0.08,0.03c-7.13,3.31-14.56,7.2-22.05,11.91l-31.69-8.43c45.32-23.7,87.66-50.91,126.42-81.28
			c37.65-29.49,71.91-61.96,102.19-97.07c30.27-35.11,56.54-72.84,78.15-112.87c26.56-49.17,46-101.82,57.02-156.84
			c4.49-5,8.85-10.12,13.09-15.33c4.68-1.46,9.11-3.15,13.28-5.04c5.26-2.39,10.08-5.05,14.54-7.83l0.04-0.02
			c8.94-5.61,16.68-11.94,23.44-18.5c4.64-4.52,8.64-8.91,12.16-12.95c3.51-4.03,6.55-7.73,9.16-10.87l0.03-0.05
			c2.61-3.13,4.89-5.85,6.84-8.04c1.97-2.19,3.59-3.86,4.81-4.96c2.62-2.42,5.84-4.78,10.01-7.23c3.11-1.8,6.81-3.66,11.02-5.52
			c4.23-1.86,8.97-3.72,14.17-5.6c10.34-3.77,22.59-7.58,35.94-12.2l0.07-0.02c9.38-3.27,19.34-7.08,29.55-11.78
			c10.19-4.69,20.66-10.27,30.96-17.14l0.04-0.03l0.33-0.22c10.24-6.88,20.42-15.13,29.79-25.26c4.73-5.13,9.26-10.74,13.4-16.86
			c4.13-6.09,7.89-12.68,11.11-19.76l0.03-0.06l10.09-22.06l40.45-88.52L2968.4,1762.35z M1121.86,1022.28v0.25l-0.01-0.46
			L1121.86,1022.28z M1121.37,1938.5l14.62-3.8l20.08-5.23l24.37-6.33l23.32-6.07l-10.89,18.53l27.12,104.18l5.8,22.3
			c-4.62,0.71-9.1,1.9-13.38,3.45c-5.22,1.92-10.17,4.36-14.83,7.2c-3.94,2.39-7.66,5.06-11.2,7.91c-3.21,2.59-6.27,5.35-9.17,8.2
			c-0.12,0.12-0.25,0.24-0.37,0.39l-9.61-36.92l-10.02-38.5l-16.71-64.21L1121.37,1938.5z M1152.21,2288.07
			c-5.17-17.56-7.76-36.01-7.76-54.47c0-21.15,3.39-42.31,10.11-62.23c3.17-9.39,7.07-18.49,11.7-27.2
			c3.06-5.79,6.45-11.39,10.15-16.78c2.42-3.53,4.99-6.96,7.69-10.29c0.13-0.18,0.26-0.35,0.4-0.52c0.47-0.57,0.93-1.13,1.41-1.7
			c5.77-6.86,12.25-13.23,19.12-18.2c0.89-0.65,1.8-1.28,2.7-1.88c4.21-2.79,8.55-5.04,12.92-6.63c3.72-1.35,7.45-2.24,11.25-2.59
			c0.7-0.09,1.4-0.14,2.1-0.17c0.63-0.03,1.23-0.05,1.84-0.05c5.09,0.01,10.13,0.99,15.03,2.85c2.56,0.97,5.09,2.18,7.55,3.62
			c4.57,2.67,8.9,6.1,12.78,10.11c5.97,6.15,10.83,13.64,13.94,21.47c4.42,11.11,6.29,23.2,6.29,35.84c0,6.08-0.44,12.29-1.22,18.51
			c-0.83,6.72-2.06,13.48-3.56,20.15c-0.1,0.42-0.19,0.85-0.3,1.27c-2.66,11.6-6.07,23.03-10.19,34.21c-1.09,3-2.25,5.97-3.47,8.93
			c-2.3,5.68-4.79,11.29-7.46,16.81c-5.36,11.05-11.43,21.75-18.16,32.02l-1.55-2.39l-14.78,7.59l-21.94,11.27l-10.67,5.48
			l-28.7,14.75C1162.06,2315.39,1156.33,2302.01,1152.21,2288.07z M1311.37,2390.9l-50.14-77.77c7.53-10.64,14.35-21.74,20.46-33.23
			c0.37,0.45,0.74,0.91,1.14,1.37L1311.37,2390.9z M1440.44,3013.85c-6.51-6.04-11.87-11.6-16.11-16.32
			c-2.16-2.4-4.03-4.59-5.61-6.5c-0.94-1.14-1.77-2.18-2.5-3.11c4.53-8.6,8.99-17.23,13.4-25.88
			c48.49-95.06,90.33-193.48,125.16-294.34c4.65-13.41,9.16-26.87,13.55-40.37c2.63-8.11,5.22-16.24,7.76-24.38l-25.53,0.93
			l-226.65,8.2l-52.98-100.39l-17.8-33.72l-61.99-117.46l-6.96-13.17l30.83-15.83l21.94-11.28l0.16-0.07l93.65,145.29l4.4,6.8
			l0.01,0.02l0.09,0.15l3.35,5.19l10.72,16.64l15.48,24.01l137.49-62.62c10.13,5.32,20.41,10.47,30.85,15.42
			c16.13,7.67,32.66,14.88,49.54,21.62c7.46,2.99,15.01,5.89,22.62,8.68c23.4,8.63,47.43,16.34,72.02,23.13
			c-4.72,7.07-8.62,14.63-11.71,22.48c-5.83,14.82-8.8,30.71-8.8,46.63c0,21.53,5.45,43.15,16.95,61.93
			c2.09,3.4,4.25,6.56,6.27,9.57c3.05,4.53,5.78,8.73,7.7,12.62c0.96,1.95,1.73,3.8,2.27,5.6c0.55,1.79,0.9,3.5,1.04,5.22
			c0.03,0.57,0.06,1.12,0.06,1.69c0,2.41-0.39,4.86-1.15,7.52c-1.13,3.98-3.16,8.34-5.74,12.95c-2.56,4.63-5.64,9.5-8.63,14.66
			c-13.2,22.83-20.98,47.51-26.06,72.5c-5.08,25.02-7.48,50.42-9.75,74.99c-6.81,73.86-13.6,147.73-20.42,221.6
			c-7.28-0.93-14.35-2.05-21.21-3.33l-0.05-0.01c-24.56-4.6-46.46-11.34-65.83-19.25
			C1490.35,3054.74,1460.13,3032.12,1440.44,3013.85z M1691.18,2591.46c1.46,6.19,3.83,12.35,7.38,18.06
			c1.78,2.85,3.85,5.58,6.26,8.1c2.42,2.51,5.18,4.8,8.27,6.74c3.9,2.44,8.07,4.15,12.28,5.24c4.21,1.08,8.48,1.56,12.65,1.56
			c0.97,0,1.93-0.02,2.88-0.08c-6.51,140.5-37.92,279.9-92.39,409.56c5.08-55.19,10.16-110.38,15.24-165.58
			c2.25-24.51,4.64-49.06,9.38-72.39c4.74-23.36,11.84-45.43,23.31-65.26c1.77-3.07,3.76-6.31,5.79-9.74
			c3.03-5.14,6.18-10.68,8.66-16.85c1.24-3.1,2.31-6.35,3.07-9.78c0.77-3.43,1.23-7.05,1.23-10.81c0-1.17-0.05-2.36-0.14-3.55
			c-0.38-4.91-1.55-9.48-3.12-13.65c-2.35-6.25-5.57-11.66-8.75-16.58c-3.18-4.92-6.35-9.37-8.88-13.51
			c-8.95-14.58-13.4-31.86-13.4-49.34c0-12.91,2.43-25.89,7.12-37.82c0.4-1.01,0.82-2.02,1.26-3.02c-0.1,1.57-0.15,3.08-0.2,4.56
			c-0.1,3.46-0.2,7.05-0.2,10.74C1688.88,2575.47,1689.28,2583.34,1691.18,2591.46z M1968.85,2568.23c3.8,4.44,6.91,9.62,9.16,15.16
			c2.73,6.72,4.19,13.97,4.18,21.06c0,5.99-1.03,11.87-3.15,17.32c-1.26,3.29-3.01,6.79-4.99,10.49
			c-2.98,5.56-6.54,11.53-9.54,18.31c-1.49,3.4-2.84,7.01-3.83,10.9c-0.98,3.87-1.61,8.03-1.61,12.4c0,0.18,0,0.39,0.01,0.62
			c0.05,3.83,0.57,7.52,1.44,11c1.52,6.11,4.11,11.55,7.09,16.48c4.49,7.37,9.87,13.66,14.87,19.6c5,5.91,9.64,11.47,12.9,16.79
			c2.39,3.88,4.3,8,5.83,12.36c2.3,6.53,3.74,13.64,4.6,21.17c0.84,7.54,1.09,15.49,1.09,23.61c0,6.16-0.14,12.43-0.25,18.71
			c-0.09,5.66-0.14,11.33-0.14,17c0,46.49,3.3,92.97,9.85,138.99c-6.06-17.68-11.82-35.46-17.27-53.32
			c-28.4-92.83-48.86-188.08-61.04-284.38c2.4-1,4.73-2.24,6.98-3.7c6.43-4.2,11.39-9.81,15.03-15.9
			c3.65-6.11,6.04-12.73,7.41-19.38c1.21-5.93,1.64-11.77,1.64-17.41C1969.11,2573.45,1969.02,2570.82,1968.85,2568.23z
			 M1886.88,2904.34c-55.16-0.12-110.33-0.22-165.49-0.32c23.75-85.47,38.26-173.52,43.07-262.09c0.32-5.72,0.59-11.43,0.82-17.15
			c3.58-1.64,6.95-3.46,10.15-5.39c3.81-2.29,7.41-4.7,10.84-7.08c2.57,0.61,5.92,1.36,9.86,2.09c9.24,1.74,21.66,3.5,34.88,3.51
			c6.55-0.01,13.31-0.45,20.02-1.6c4.22-0.73,8.43-1.75,12.56-3.15c3.64,2.82,7.45,5.67,11.48,8.38c6.1,4.1,12.79,7.89,20.26,10.7
			c5.98,2.21,12.37,3.66,18.94,4.05c11.51,90.71,30.26,180.49,55.97,268.22C1942.46,2904.45,1914.67,2904.39,1886.88,2904.34z
			 M1922.87,2928.49c-0.37,4.73-0.75,9.47-1.12,14.2c-17.36,0.06-34.71,0.12-52.07,0.18c0-4.83,0-9.66,0-14.49
			C1887.41,2928.42,1905.13,2928.44,1922.87,2928.49z M1845.6,2928.34c0,4.87,0,9.74,0,14.61c-19.23,0.07-38.44,0.13-57.67,0.21
			c-0.03-4.98-0.05-9.96-0.09-14.93C1807.1,2928.25,1826.35,2928.3,1845.6,2928.34z M1763.85,2943.23
			c-18.05,0.07-36.08,0.13-54.13,0.19c1.6-5.1,3.18-10.22,4.72-15.35c16.44,0.04,32.88,0.07,49.32,0.11
			C1763.8,2933.2,1763.83,2938.21,1763.85,2943.23z M1947.01,2928.54c9.99,0.01,19.98,0.04,29.98,0.06l3.1,13.88
			c-11.39,0.05-22.79,0.09-34.18,0.12C1946.29,2937.92,1946.65,2933.22,1947.01,2928.54z M1943.88,2588.69
			c-0.86,4.25-2.41,8.4-4.48,11.85c-1.31,2.19-2.81,4.08-4.46,5.65c-0.96,0.93-1.98,1.74-3.05,2.44c-1.51,0.97-3.15,1.76-4.94,2.34
			c-0.46,0.17-0.93,0.3-1.4,0.44c-2.33,0.61-4.9,0.94-7.59,0.94c-2.16,0-4.4-0.21-6.64-0.62c-2.56-0.44-5.13-1.14-7.57-2.06
			c-5.14-1.92-10.19-4.72-15.28-8.14c-5.08-3.4-10.2-7.41-15.47-11.59l-5.9-4.65l-6.77,3.24c-3.8,1.83-8.38,3.19-13.4,4.05
			c-5,0.86-10.46,1.25-15.92,1.25c-11.06,0-22.19-1.53-30.43-3.1c-4.12-0.77-7.52-1.55-9.87-2.13c-1.17-0.27-2.07-0.51-2.66-0.67
			c-0.3-0.08-0.52-0.15-0.65-0.18l-0.15-0.04h-0.01v-0.01h-0.01l-5.54-1.6l-4.72,3.32c-3.72,2.63-7.33,5.16-10.88,7.43
			c-1.01,0.65-2.02,1.28-3.04,1.88c-4.53,2.72-8.96,4.92-13.41,6.39c-2.56,0.86-5.23,1.45-7.86,1.74c-1.28,0.15-2.53,0.22-3.76,0.22
			c-2.36,0-4.61-0.27-6.64-0.79c-2.04-0.53-3.87-1.3-5.5-2.32c-1.32-0.82-2.53-1.83-3.69-3.03c-1.72-1.79-3.27-4.03-4.56-6.61
			c-1.3-2.56-2.31-5.44-3.01-8.39c-1.28-5.39-1.67-11.37-1.66-17.88c0-3.23,0.08-6.59,0.19-10.04c0.1-3.31,0.28-6.63,0.64-9.76
			c0.26-2.34,0.64-4.56,1.12-6.57c0.71-2.91,1.64-5.3,2.71-7.06l0.12-0.22c0.55-0.88,1.12-1.6,1.73-2.2c0.6-0.6,1.24-1.1,2.01-1.54
			c0.87-0.49,1.87-0.88,3.13-1.16c1.27-0.27,2.78-0.44,4.53-0.43c1.7,0,3.59,0.14,5.61,0.43c2.08,0.29,4.29,0.7,6.56,1.21
			c0.25,0.06,0.5,0.11,0.75,0.17c4.75,1.09,9.67,2.51,14.53,3.64c3.09,0.71,6.12,1.51,9.05,2.38c3.95,1.15,7.77,2.46,11.46,3.96
			c5.34,2.15,10.43,4.68,15.36,7.71c1.04,0.64,2.08,1.3,3.11,1.99l4.24,2.82l4.95-1.06h0.02v-0.01c0.32-0.06,3.07-0.61,7.3-1.09
			c3.4-0.37,7.75-0.7,12.53-0.7c5.22-0.01,10.94,0.4,16.44,1.47c3.99,0.77,7.86,1.91,11.37,3.43c1.33,0.57,2.62,1.21,3.83,1.89
			l9.32,5.27l4.28-5.85l2.03-2.8c2.13-2.91,4.98-5.77,8.4-8.39c5.12-3.94,11.49-7.34,18.15-9.86c1.37-0.52,2.75-1,4.15-1.43
			c5.33-1.73,10.7-2.86,15.54-3.39c1.23-0.13,2.47-0.2,3.7-0.2c3.19,0,6.26,0.48,8.75,1.4c1.26,0.44,2.38,0.98,3.35,1.62
			c0.53,0.34,1.02,0.71,1.48,1.11c0.39,0.32,0.75,0.68,1.08,1.06c1.04,1.14,1.94,2.45,2.75,4.02c1.2,2.32,2.18,5.21,2.93,8.51
			c0.72,3.19,1.22,6.76,1.64,10.45c0.03,0.12,0.04,0.24,0.05,0.36c0.68,5.88,1.18,11.55,1.18,16.91
			C1945.03,2580.54,1944.7,2584.73,1943.88,2588.69z M1581.74,3268.39c-0.69,1.93-1.72,3.71-2.87,5.06
			c-1.37,1.63-2.97,3.11-4.84,4.49c-2.79,2.08-6.2,3.96-10.05,5.67c-3.85,1.72-8.11,3.28-12.55,4.87
			c-14.62,5.22-29.13,10.37-43.54,14.22c-14.4,3.85-28.68,6.4-42.9,6.62c-0.31,0-0.61,0-0.89,0c-1.81,0-3.6-0.1-5.23-0.3
			c-2.44-0.3-4.46-0.89-5.65-1.51c-0.61-0.3-1-0.59-1.27-0.82c-0.26-0.25-0.41-0.43-0.56-0.68c-0.12-0.23-0.2-0.43-0.27-0.68
			c-0.06-0.26-0.11-0.6-0.11-1.06c0-0.54,0.07-1.26,0.27-2.13c0.29-1.29,0.85-2.89,1.65-4.56c0.48-1.01,1.04-2.06,1.66-3.1
			c0.4-0.68,0.82-1.38,1.26-2.05c8.03-12.25,18.28-23.08,30.03-31.95c11.26-8.47,23.86-15.11,37.18-19.45l54.12,13.71l3.84,0.98
			l-0.56,0.66c0.71,0.6,1.21,1.25,1.63,2.27c0.42,1,0.71,2.38,0.71,4C1582.8,3264.43,1582.45,3266.47,1581.74,3268.39z
			 M2002.22,3246.86l-195.96-231.79l-210.96,219.42l-15.3-3.88l-53.01-13.42l44.06-107.37c0.45,0.12,0.91,0.23,1.37,0.34
			c17.79,4.4,37,7.76,57.63,9.69l8.27,0.77l3.66-7.46c0.31-0.61,0.59-1.21,0.88-1.82c22.75-46.62,42.44-94.69,59-143.82
			c94.53-0.32,189.09-0.65,283.63-0.97l57.88,258.47L2002.22,3246.86z M2105.42,3291.66c1.75,3.27,3.29,6.79,4.33,10.16
			c1.06,3.37,1.6,6.59,1.6,9.3c0,1.6-0.18,3.02-0.51,4.28c-0.33,1.26-0.8,2.35-1.48,3.42c-0.76,1.18-1.66,2.15-2.82,3.04
			c-1.72,1.34-4.1,2.48-7.05,3.27c-2.94,0.78-6.38,1.17-9.93,1.17c-2.05,0-4.14-0.13-6.17-0.37c-9.09-1.07-17.97-3.79-26.3-7.87
			c-12.49-6.13-23.7-15.36-32.25-26.48c-5.35-6.96-9.66-14.64-12.69-22.73l47.01-24.94c8.4,4.84,16.23,10.74,23.26,17.47
			C2091.63,3270.2,2099.45,3280.46,2105.42,3291.66z M2430.52,2931.01c-2.22,7.25-4.76,14.95-7.76,22.54
			c-4.5,11.39-10.07,22.51-16.86,31.42c-3.4,4.46-7.08,8.37-11.04,11.58c-3.99,3.23-8.23,5.76-12.9,7.54
			c-3.27,1.26-7.21,1.93-11.73,1.93c-4.76,0-10.14-0.75-15.74-2.14c-8.42-2.04-17.32-5.48-25.6-9.41c-1.73-0.82-3.44-1.66-5.12-2.52
			c-6.3-3.21-12.11-6.59-16.94-9.63c-20.79-13.07-39.17-29.82-54.55-49.1c-15.37-19.26-27.71-41.04-36.44-64.11
			c-4.01-10.6-8.09-21.56-11.11-32.45c-3.04-10.9-4.99-21.69-4.99-31.89c0-3.79,0.27-7.51,0.84-11.14c0.58-3.72,1.43-6.89,2.45-9.61
			c1.82-4.77,4.12-8.19,6.98-11.1c2.16-2.18,4.69-4.06,7.67-5.77c4.47-2.56,9.99-4.67,16.33-6.5c6.33-1.86,13.45-3.42,20.99-5.13
			c38.09-8.61,76.28-17.13,114.38-26.17c4.09,13.52,10.69,26.19,19.22,37.38c12.13,15.92,28.22,28.87,46.9,36.79
			c2.95,1.25,5.92,2.36,8.95,3.36c7.1,2.34,14.38,3.97,21.74,4.96C2454.32,2851.63,2442.62,2891.41,2430.52,2931.01z
			 M2623.73,2510.51l2.79-2.74l37.64,39.49l-20.19,25.34c-5.07-10-11.55-19.33-19.51-27.57c-1.09-1.13-2.2-2.24-3.32-3.3
			c-5.24-4.99-10.68-9.21-16.29-12.66L2623.73,2510.51z M2420.89,2639.22c2.43,2.15,5.21,4.02,8.34,5.42
			c3.12,1.38,6.58,2.3,10.22,2.54l1.59-24.02c-0.89-0.08-1.73-0.33-2.71-0.88c-0.72-0.42-1.48-1.02-2.23-1.81
			c-0.83-0.88-1.61-1.98-2.25-3.22c-0.2-0.41-0.41-0.84-0.58-1.27c-0.71-1.72-1.08-3.57-1.09-5.2c-0.01-0.23-0.01-0.45-0.01-0.66
			c0-3.94,0.49-7.5,1.38-10.81c1.16-4.3,2.99-8.21,5.46-11.91c0.85-1.29,1.79-2.55,2.8-3.79c2.94-3.59,6.5-6.95,10.58-10.07
			c2.47-1.89,5.13-3.68,7.93-5.39c4.11-2.51,8.53-4.82,13.09-6.91c7.66-3.52,15.7-6.46,23.41-8.89c8.62-2.72,17.06-5.29,25.26-7.37
			c1.95-0.5,3.89-0.97,5.8-1.4c10.01-2.28,19.58-3.65,28.57-3.65c9.26,0.01,17.87,1.42,26.16,4.75c8.3,3.36,16.39,8.66,24.54,17.08
			c8.83,9.13,15.52,20.25,20.01,32.44c4.49,12.2,6.75,25.48,6.75,38.72c0,4.56-0.27,9.12-0.8,13.63
			c-1.82,15.45-6.52,30.52-13.4,44.85c-6.89,14.33-15.96,27.88-26.41,40.16c-1.45,1.71-2.93,3.41-4.45,5.07
			c-8.16,9.02-17.13,17.31-26.75,24.49c-11.42,8.5-23.73,15.43-36.82,20.27c-13.25,4.92-27.49,7.56-41.48,7.55
			c-13.5,0-26.77-2.44-38.91-7.58c-14.53-6.15-27.42-16.46-37.14-29.22c-6.54-8.57-11.63-18.23-14.89-28.39
			c-1.59-4.96-2.76-10.06-3.43-15.18c-0.04-0.23-0.06-0.47-0.09-0.7c-0.44-3.57-0.67-7.14-0.67-10.74c0-13.93,3.3-28.02,9.39-40.73
			c4.27-8.92,9.91-17.17,16.67-24.25C2416.44,2634.72,2418.51,2637.1,2420.89,2639.22z M2414.9,2580.99
			c-0.24,0.5-0.48,0.99-0.72,1.5c-2.71,5.73-4.61,12.04-5.51,18.76c-0.18,1.4-0.33,2.82-0.43,4.27
			c-13.65,10.91-24.44,24.92-31.9,40.48c-7.45,15.57-11.58,32.76-11.74,50.13l-142.55-67.65l-91.66-32.79l-26.39-9.43
			c1.77,9.18,3.6,18.37,5.49,27.53c26.89,130.85,64.9,259.41,113.5,383.82c-35.42,38.78-67.34,60.74-93.47,73.11
			c-27.35,12.93-48.42,15.44-61.03,15.46c-3.13,0-5.75-0.16-7.79-0.37c-1.84-4.33-3.67-8.66-5.47-13.01l5.79-1.49
			c-20.19-78.32-30.43-159.22-30.43-240.1c0-5.52,0.05-11.05,0.14-16.59c0.11-6.19,0.25-12.59,0.25-19.12
			c-0.01-11.48-0.44-23.34-2.51-35.16c-1.05-5.92-2.51-11.81-4.54-17.62c-2.05-5.8-4.67-11.51-8.04-16.97
			c-3.5-5.69-7.49-10.71-11.39-15.4c-2.94-3.53-5.82-6.86-8.44-10.09c-3.95-4.83-7.29-9.39-9.49-13.68
			c-1.11-2.15-1.94-4.21-2.5-6.25c-0.57-2.03-0.88-4.04-0.91-6.16v-0.03c-0.01-0.08-0.01-0.16-0.01-0.27
			c0.01-2.81,0.52-5.64,1.53-8.76c1.5-4.65,4.19-9.84,7.34-15.54c3.13-5.72,6.7-11.94,9.49-19.12c3.25-8.41,4.76-17.25,4.76-26
			c-0.02-13.8-3.7-27.42-10.41-39.37c-1.5-2.66-3.15-5.25-4.97-7.73c35.95-1.99,71.23-5.89,105.67-11.57
			c7.95-1.31,15.85-2.72,23.7-4.23c17.98-3.43,35.72-7.35,53.18-11.76c6.51-1.64,12.97-3.33,19.4-5.1l83.32,19.43L2414.9,2580.99z
			 M2752.5,1920.96c-10.34,23.06-23.53,44.85-39.09,64.8c-8.62,11.06-17.96,21.56-27.95,31.38c-2.06,13.24-4.68,26.32-7.84,39.27
			v0.01c-9.97,40.74-25.32,80.01-45.5,117.38c-28.47,52.76-66.57,101.7-112.65,145.45c-69.12,65.62-156.21,119.54-255.5,157.02
			c-23.23,8.78-47.14,16.66-71.64,23.57c-15.73,4.44-31.69,8.47-47.89,12.11c-57.88,12.98-118.63,20.71-181.36,22.46
			c-0.69-1.86-1.5-3.74-2.46-5.58c-1.63-3.16-3.68-6.26-6.26-9.12c-2.24-2.47-4.75-4.56-7.39-6.26c-3.98-2.56-8.23-4.27-12.48-5.34
			c-4.27-1.07-8.53-1.52-12.67-1.52c-2.13,0-4.24,0.12-6.28,0.35c-5.55,0.6-11.29,1.73-17.04,3.38c-8.61,2.47-17.25,6.07-25.21,10.9
			c-4.99,3.03-9.72,6.54-13.93,10.63c-0.47-0.04-0.94-0.07-1.41-0.11c-4.1-1.5-8.25-2.58-12.3-3.37
			c-7.44-1.45-14.63-1.91-21.04-1.91c-4.52,0.01-8.67,0.24-12.22,0.56c-3.95-0.5-7.88-1.03-11.81-1.59
			c-4.73-2.62-9.54-4.9-14.46-6.89c-7.84-3.16-15.88-5.57-24.1-7.47c-3.93-0.9-8.99-2.36-14.57-3.65
			c-5.6-1.28-11.75-2.41-18.31-2.42c-3.16,0-6.41,0.27-9.72,1c-2.51,0.55-5.05,1.37-7.53,2.55
			c-57.81-13.96-112.63-33.19-163.55-56.96c-6.08-2.83-12.1-5.73-18.06-8.69c-9.17-4.55-18.21-9.26-27.11-14.11
			c-36.93-20.13-71.42-42.76-103.07-67.58c-35.53-27.83-67.5-58.4-95.33-91.23l-6.79-26.13c4.14-11,7.64-22.24,10.5-33.65
			c0.57-2.32,1.13-4.66,1.66-7.01c3.18-14.1,5.37-28.93,5.37-43.94c0-14.99-2.21-30.2-8-44.75c-2.89-7.24-6.75-14.1-11.42-20.37
			c-7.01-9.41-15.82-17.51-26.03-23.37c-5.93-3.41-12.35-6.06-19.13-7.67l-32.24-123.9l16.22-27.66l19.04-32.41l-28.14,7.32
			l-8.95,2.34l-34.53,8.98l-24.78,6.45l-13.73,3.57c-5.43-13.31-8.18-27.79-8.18-42.3c0-16.65,3.62-33.25,10.75-48.08
			c6.94,10.15,13.3,20.72,19,31.61c6.92,13.22,12.88,26.93,17.8,41.02c1.78-14.95,4.29-29.75,7.49-44.37
			c-5.18-10.57-10.91-20.86-17.18-30.82c-11.51-18.31-24.8-35.5-39.66-51.25l-17.5,16.53c8.65,9.18,16.74,18.88,24.21,29.05
			l-13.35-7.15c-10.48,19.55-15.63,41.53-15.64,63.46c0.01,16.46,2.91,32.95,8.8,48.41l-20.79,5.41c-0.21-0.54-0.4-1.07-0.59-1.61
			c-11.39-31.68-17.33-65.38-17.33-98.98c0-21.81,2.5-43.56,7.61-64.73c1.67-6.94,3.61-13.67,6.09-19.81s5.49-11.66,9.26-16.37
			c3.3-4.14,7.55-7.77,12.04-10.24c2.25-1.23,4.56-2.18,6.84-2.82c2.29-0.64,4.54-0.95,6.75-0.95c0.83,0,1.68,0.04,2.51,0.13
			c1.99,0.23,3.98,0.73,6.03,1.47c3.06,1.12,6.23,2.84,9.43,5.05c3.19,2.19,6.4,4.85,9.54,7.71c13.4,12.19,24.95,26.45,34.18,42.08
			c5.71,9.65,10.53,19.81,14.34,30.32c3.73-10.72,7.85-21.31,12.34-31.79c6.06-14.14,12.79-28.05,20.16-41.71
			c4.09-7.58,8.38-15.08,12.87-22.49c26.71-44.21,60.32-85.5,99.78-122.96c69.12-65.62,156.22-119.55,255.49-157.02
			c99.28-37.48,210.73-58.53,328.54-58.53c209.4-0.02,398.79,66.57,535.34,173.59c68.29,53.5,123.37,117.07,161.33,187.41
			c3.06,5.65,6.01,11.36,8.84,17.12c5.02,10.18,9.69,20.5,13.97,30.94c1.45-4.23,2.93-8.38,4.5-12.46
			c2.46-6.44,5.14-12.69,8.16-18.64c1.24-2.48,2.55-4.91,3.94-7.28c4.65-8.03,10.27-15.54,16.66-21.78
			c6.39-6.28,13.52-11.28,21.31-14.57c6.32-2.69,13.39-4.13,20.27-4.12c4.82,0,9.54,0.7,13.87,2.08c4.35,1.39,8.29,3.43,11.72,6.17
			c3.01,2.39,5.6,5.22,7.88,8.51c3.43,4.91,6.16,10.86,8.27,17.45c2.12,6.58,3.63,13.76,4.78,20.97
			c2.61,16.32,3.89,32.87,3.89,49.42C2780.19,1835.53,2770.77,1880.25,2752.5,1920.96z M2931.57,1854.24
			c-10.58,5.8-22.3,10.59-34,14.65c-15.81,5.5-32.76,10.53-49.38,17.31c-8.29,3.4-16.51,7.24-24.44,11.85
			c-7.92,4.61-15.54,10-22.56,16.48c-7.03,6.48-12.86,13.45-18.35,20.06c-5.49,6.62-10.65,12.89-16.13,18.2
			c-1.88,1.84-3.89,3.6-5.96,5.22c4.99-8.85,9.56-17.92,13.73-27.19c19.68-43.9,29.78-91.91,29.78-139.96
			c0-17.81-1.38-35.61-4.19-53.21c-1.71-10.64-4.16-21.93-8.62-32.74c-2.24-5.41-4.98-10.69-8.45-15.66
			c-3.46-4.96-7.63-9.6-12.64-13.58c-5.89-4.7-12.51-8.08-19.4-10.27c-6.9-2.2-14.06-3.22-21.19-3.22
			c-10.18,0-20.32,2.07-29.66,6.02c-11.01,4.66-20.59,11.52-28.78,19.54c-6.34,6.23-11.87,13.16-16.64,20.45
			c-0.45-0.87-0.92-1.73-1.38-2.58c-29.79-55.18-69.48-106.11-117.27-151.47c-71.67-68.04-161.49-123.55-263.55-162.09
			c-102.08-38.53-216.38-60.08-337.04-60.08c-214.52,0.03-408.95,68.07-550.2,178.72c-17.65,13.83-34.48,28.34-50.41,43.45
			c-47.78,45.36-87.48,96.29-117.26,151.47c-5,9.26-9.72,18.64-14.15,28.12c-8.57-12.13-18.46-23.35-29.48-33.39
			c-4.88-4.42-10.36-8.93-16.69-12.68c-3.17-1.87-6.56-3.54-10.2-4.88c-3.63-1.33-7.51-2.32-11.6-2.78
			c-1.75-0.19-3.5-0.29-5.22-0.29c-4.55,0-8.98,0.66-13.21,1.83c-6.33,1.77-12.18,4.66-17.42,8.3c-5.25,3.64-9.89,8.03-13.81,12.94
			c-2.16,2.71-4.1,5.51-5.85,8.4c-2.74,4.53-5.01,9.23-6.92,13.96c-2.52,6.22-4.44,12.52-6.04,18.68
			c-9.48-6.32-18.14-13.74-25.96-22.07c-14.79-15.71-26.67-34.66-35.55-55.31c-8.89-20.63-14.78-42.95-17.65-65.23
			c-1.85-14.29-2.65-28.69-2.65-43.17c-0.01-33.43,4.31-67.34,9.89-101.36c7.34,10,16.52,18.66,27.17,25.24
			c15.43,9.54,33.34,14.42,51.31,14.43c8.51,0,17.06-1.11,25.35-3.38c8.97-2.45,16.77-6.88,23.05-12.6
			c4.72-4.28,8.59-9.24,11.74-14.59c4.71-8.03,7.8-16.88,9.77-25.99c1.95-9.13,2.78-18.54,2.78-27.83c0-10.18-1-20.2-2.71-29.47
			c-1.72-9.27-4.13-17.78-7.15-25.1c-7.2-17.4-16.47-33.17-25.06-48.53c-8.61-15.38-16.52-30.32-21.53-45.83
			c-4.84-14.96-7.04-30.64-7.04-46.59c0-26.82,6.27-54.41,16.47-80c8.16-20.49,18.69-40.09,30.5-59.27
			c6.28-10.19,12.91-20.25,19.71-30.27c2.27,9.47,5.54,18.67,9.74,27.44c8.62,17.98,21.12,34.13,36.84,46.71
			c13.84,11.08,29.32,18.87,45.5,23.85c16.2,4.99,33.07,7.2,49.92,7.2c26.33-0.01,52.6-5.37,76.37-14.25
			c30.99-11.59,58.21-28.78,80.03-51.2c21.83-22.41,38.22-50.03,47.66-82.02c4.22-14.33,7.62-28.63,11.12-42.62
			c3.51-13.99,7.12-27.67,11.68-40.78c10.53-30.22,26.75-58.46,47.32-83.09c12.53-15.01,26.68-28.66,42.12-40.59
			c-2.24,9.76-3.36,19.78-3.36,29.78c0,17.83,3.55,35.7,10.84,52.19c7.91,17.91,19.5,32.56,33.23,44.21
			c10.3,8.77,21.79,15.9,33.93,21.71c18.21,8.73,37.87,14.57,57.51,18.57c19.64,3.99,39.27,6.14,57.44,7.34
			c12.22,0.81,24.62,1.34,37.03,1.34c16.21,0,32.44-0.89,48.37-3.21c23.88-3.46,47.16-10.16,68.32-22.05
			c10.58-5.95,20.61-13.2,29.85-21.93c9.23-8.71,17.67-18.92,25.09-30.71c16.99-26.96,25.18-58.43,25.18-89.84
			c0-19.92-3.29-39.86-9.86-58.69c-3.34-9.63-7.56-18.98-12.61-27.87c23.02,5.55,45.02,15.66,64.54,29.36
			c27.04,18.99,49.21,44.82,62.77,74.65c6.46,14.17,11.3,29.6,16.41,45.51c5.13,15.88,10.54,32.24,18.55,48.08
			c5.99,11.86,13.65,22.26,22.49,31.18c13.28,13.38,29.18,23.42,46.29,30.51c17.12,7.08,35.46,11.22,53.86,12.83
			c6.23,0.52,12.61,0.86,19.1,0.97c1.73,0.04,3.46,0.05,5.21,0.05c22.58,0,46.23-2.59,68.93-8.27
			c22.68-5.71,44.42-14.51,62.99-27.25c15.05-10.34,28.57-21.99,41.79-33.31c13.22-11.33,26.14-22.32,39.8-31.57
			c10.34-7.02,21.65-13.11,33.19-17.38c9.52-3.52,19.15-5.81,28.59-6.51c-11.51,10.95-21.7,23.26-30.36,36.58
			c-14.02,21.58-24.01,45.79-28.96,71.15c-2.13,10.88-3.14,21.77-3.14,32.55c0,22.75,4.52,44.98,12.67,65.49
			c12.25,30.79,32.64,57.82,58.61,77.32c12.99,9.74,27.38,17.6,42.83,23.02c15.44,5.42,31.95,8.39,49.07,8.39
			c17.78,0,36.2-3.21,54.71-10.1c18.75-6.98,35.94-17.71,50.56-31.21c14.62-13.48,26.71-29.75,35.17-47.89
			c4.5-9.65,7.81-19.3,11.14-28.41c3.31-9.13,6.62-17.7,10.82-25.36c7.67-14.04,19.23-26.06,32.94-34.77
			c6.25-3.97,12.94-7.26,19.89-9.74c-21.91,40.13-33.51,85.72-33.52,131.43c0,10.92,0.66,21.85,2.01,32.72
			c2,15.99,5.34,31.36,8.41,46.39c3.08,15.01,5.88,29.65,7.05,44.11c0.64,7.86,0.98,15.87,0.98,23.92
			c0,26.67-3.64,53.98-11.54,79.24c-2.37,7.57-5.73,14.88-9.59,22.25c-5.79,11.05-12.79,22.16-18.8,34.49
			c-2.98,6.16-5.71,12.65-7.81,19.6c-2.09,6.95-3.55,14.34-4,22.22c-0.09,1.65-0.14,3.31-0.14,4.98
			c0.01,13.01,2.79,26.24,8.66,38.13c2.95,5.92,6.67,11.52,11.26,16.45c4.59,4.94,10.06,9.23,16.35,12.46
			c8.96,4.62,18.65,6.6,28.14,6.6c9.16,0,18.17-1.82,26.64-4.92c8.48-3.11,16.43-7.51,23.48-12.91
			c10.45-7.99,18.93-17.54,26.3-27.51c0.42-0.56,0.84-1.14,1.26-1.72c0.18,3.89,0.28,7.78,0.28,11.67
			c0,35.81-7.65,71.76-21.95,104.76s-35.25,63.03-61.73,87.11c-4.61,4.2-8.68,8.07-12.28,12.04c-2.7,2.97-5.14,6.01-7.28,9.26
			c-3.22,4.86-5.7,10.23-7.23,16.05c-1.53,5.83-2.16,12.01-2.15,18.82c0,2.25,0.06,4.56,0.19,6.98c0.66,12.57,3.54,24.32,8.3,34.84
			c7.11,15.8,18.45,28.8,32.54,37.76c12.93,8.26,28.17,13.1,44.41,13.81C2950.29,1842.56,2941.43,1848.84,2931.57,1854.24z"></path>
  <path fill="#e6a089" d="M2776.29,1741.44c-1.15-7.21-2.66-14.39-4.78-20.97c-2.11-6.59-4.84-12.54-8.27-17.45
			c-2.28-3.29-4.87-6.12-7.88-8.51c-3.43-2.74-7.37-4.78-11.72-6.17c-4.33-1.38-9.05-2.08-13.87-2.08
			c-6.88-0.01-13.95,1.43-20.27,4.12c-7.79,3.29-14.92,8.29-21.31,14.57c-6.39,6.24-12.01,13.75-16.66,21.78
			c-1.39,2.37-2.7,4.8-3.94,7.28c-3.02,5.95-5.7,12.2-8.16,18.64c-1.57,4.08-3.05,8.23-4.5,12.46
			c-4.28-10.44-8.95-20.76-13.97-30.94c-2.83-5.76-5.78-11.47-8.84-17.12c-37.96-70.34-93.04-133.91-161.33-187.41
			c-136.55-107.02-325.94-173.61-535.34-173.59c-117.81,0-229.26,21.05-328.54,58.53c-99.27,37.47-186.37,91.4-255.49,157.02
			c-39.46,37.46-73.07,78.75-99.78,122.96c-3.86,9.9-7.12,19.74-9.69,29.44c-14.27,53.79-22.92,109.2-25.09,164.78l8.95-2.34
			l28.14-7.32l-19.04,32.41l-16.22,27.66l32.24,123.9c6.78,1.61,13.2,4.26,19.13,7.67c10.21,5.86,19.02,13.96,26.03,23.37
			c4.67,6.27,8.53,13.13,11.42,20.37c5.79,14.55,8,29.76,8,44.75c0,15.01-2.19,29.84-5.37,43.94c-0.53,2.35-1.09,4.69-1.66,7.01
			c58.83,98.22,142.15,181.68,239.86,241.39c50.92,23.77,105.74,43,163.55,56.96c2.48-1.18,5.02-2,7.53-2.55
			c3.31-0.73,6.56-1,9.72-1c6.56,0.01,12.71,1.14,18.31,2.42c5.58,1.29,10.64,2.75,14.57,3.65c8.22,1.9,16.26,4.31,24.1,7.47
			c4.92,1.99,9.73,4.27,14.46,6.89c3.93,0.56,7.86,1.09,11.81,1.59c3.55-0.32,7.7-0.55,12.22-0.56c6.41,0,13.6,0.46,21.04,1.91
			c4.05,0.79,8.2,1.87,12.3,3.37c0.47,0.04,0.94,0.07,1.41,0.11c4.21-4.09,8.94-7.6,13.93-10.63c7.96-4.83,16.6-8.43,25.21-10.9
			c5.75-1.65,11.49-2.78,17.04-3.38c2.04-0.23,4.15-0.35,6.28-0.35c4.14,0,8.4,0.45,12.67,1.52c4.25,1.07,8.5,2.78,12.48,5.34
			c2.64,1.7,5.15,3.79,7.39,6.26c2.58,2.86,4.63,5.96,6.26,9.12c0.96,1.84,1.77,3.72,2.46,5.58c62.73-1.75,123.48-9.48,181.36-22.46
			c16.2-3.64,32.16-7.67,47.89-12.11c24.5-6.91,48.41-14.79,71.64-23.57c99.29-37.48,186.38-91.4,255.5-157.02
			c46.08-43.75,84.18-92.69,112.65-145.45c20.18-37.37,35.53-76.64,45.5-117.38v-0.01c3.16-12.95,5.78-26.03,7.84-39.27
			c9.99-9.82,19.33-20.32,27.95-31.38c15.56-19.95,28.75-41.74,39.09-64.8c18.27-40.71,27.69-85.43,27.68-130.1
			C2780.18,1774.31,2778.9,1757.76,2776.29,1741.44z M2212.02,1772.25c0.02,21.33-6.5,41.26-17.62,57.72
			c-11.14,16.47-26.88,29.53-45.4,37.38c-12.36,5.22-25.97,8.11-40.18,8.11c-21.35,0-41.26-6.5-57.72-17.63
			c-16.47-11.13-29.54-26.87-37.38-45.41c-5.23-12.35-8.12-25.95-8.12-40.17c-0.01-21.34,6.51-41.26,17.63-57.72
			c11.14-16.46,26.86-29.53,45.4-37.37c12.35-5.24,25.97-8.13,40.19-8.13c21.33,0,41.25,6.52,57.7,17.64
			c16.48,11.12,29.55,26.86,37.39,45.4C2209.13,1744.42,2212.02,1758.03,2212.02,1772.25z M1984.38,1596.66
			c9.56-15.26,21.93-28.62,36.23-39.43c14.29-10.8,30.49-19.07,47.79-24.11c13.39-3.9,27.27-5.82,41.14-5.82
			c21.97,0,43.92,4.79,63.86,14.29l5.48,2.6l14.51,74l3.13,15.96l-16.18-1.67c-10.11-1.04-20.28-1.55-30.44-1.55
			c-43.89-0.02-87.83,9.64-127.55,28.22l-10.61,4.96l-30.95-61.72L1984.38,1596.66z M1587.08,1538.02l7.43-2.98
			c18.71-7.47,38.75-11.18,58.78-11.18c20.41,0,40.84,3.85,59.85,11.61c18.82,7.68,35.96,19.08,50.47,33.16
			c14.49,14.1,26.37,30.91,34.58,49.52l2.27,5.16l-31.12,62.87l-11.73-9.77c-16.06-13.37-34.64-23.74-54.45-30.76
			c-19.82-7.02-40.88-10.67-61.85-10.67c-13.81,0-27.57,1.58-40.95,4.81l-15.13,3.63L1587.08,1538.02z M1597.9,1714.53
			c11.12-16.46,26.86-29.53,45.4-37.37c12.35-5.24,25.97-8.13,40.17-8.13c21.34,0,41.26,6.52,57.72,17.64
			c16.47,11.12,29.55,26.86,37.38,45.4c5.23,12.35,8.12,25.96,8.12,40.18c0.01,21.33-6.5,41.26-17.63,57.72
			c-11.13,16.47-26.87,29.53-45.4,37.38c-12.36,5.22-25.97,8.11-40.19,8.11c-21.33,0-41.24-6.5-57.7-17.63
			c-16.47-11.13-29.55-26.87-37.39-45.41c-5.22-12.35-8.12-25.95-8.11-40.17C1580.26,1750.91,1586.77,1730.99,1597.9,1714.53z
			 M2330.69,2133.45c-3.1,20.14-8.87,39.34-16.7,57.51v2.67h-1.18c-0.21,0.5-0.44,0.99-0.65,1.48c-8.78,19.4-19.88,37.6-32.59,54.59
			c-25.44,34-57.31,63.19-90.34,87.59c-37.39,27.64-77.61,50.94-120.47,67.54c-42.82,16.59-88.33,26.46-136.04,27.15h-0.08
			c-1.04,0.01-2.09,0.02-3.14,0.04h-0.06c-0.91,0.01-1.83,0.01-2.76,0.01c-41.04,0-81.62-5.91-120.93-16.44
			c-39.31-10.51-77.36-25.63-113.38-44.06c-34.7-17.76-68.1-36.81-98.89-59.58c-30.81-22.78-59.02-49.33-83.15-81.93
			c-8.56-11.57-16.11-24.25-21.75-37.84c-5.65-13.6-9.41-28.12-10.24-43.24c-0.11-1.94-0.17-3.88-0.17-5.83
			c0-10.76,1.63-21.58,4.88-31.91c1.4-4.43,3.08-8.77,5.09-12.97c2.66-5.6,5.88-10.96,9.66-15.94c1.31-1.73,2.7-3.43,4.16-5.07
			c-8.84-6.35-17.66-12.74-26.45-19.09l-14.53-10.54l15.26-9.45c21.33-13.23,44.86-26.58,69.61-38.16
			c24.76-11.59,50.76-21.39,77.12-27.43c17.57-4.02,35.32-6.37,52.95-6.37c14.22-0.01,28.41,1.53,42.28,4.97
			c1.11-3.25,2.44-6.37,3.91-9.36c4.1-8.42,9.23-15.94,13.98-22.72c14.96-21.37,29.93-42.73,44.89-64.09
			c16.51-23.56,33-47.12,49.51-70.68l19.72,13.82c-16.49,23.56-33,47.11-49.51,70.67c-0.73,1.05-1.47,2.11-2.2,3.16
			c-11.97,29.32-22.7,58.31-14.83,88.11c6.46,24.54,24.64,43.98,42.18,62.31c0.14,0.14,0.28,0.29,0.42,0.43l0.01,0.01
			c0.65,0.68,1.29,1.35,1.95,2.03c19.52,20.33,40.59,40.92,67.73,48.12c17.08,4.52,35.35,2.44,51.52-4.58
			c0.23-0.26,0.47-0.53,0.7-0.79c6.44-7.35,12.9-15.52,20.21-23.5c6.43-7.02,13.53-13.92,21.96-19.8c1.16-0.8,2.34-1.6,3.54-2.36
			c5.65-3.57,11.26-5.91,16.36-7.73c5.13-1.81,9.77-3.14,13.72-4.56c2.63-0.94,4.97-1.91,7.03-3.01c2.74-1.47,5-3.09,7.17-5.42
			c1.24-1.33,2.44-2.91,3.65-4.9c2.37-3.93,4.13-8.29,5.28-12.96c1.17-4.67,1.73-9.65,1.73-14.72c0-4.16-0.38-8.4-1.1-12.56
			c-1.24-7.22-3.44-14.39-6.3-21.58c-2.86-7.18-6.38-14.34-10.18-21.5c-20.96-39.44-48.48-75.43-81.06-105.97l16.47-17.57
			c34.51,32.37,63.64,70.44,85.85,112.23c4.03,7.61,7.96,15.55,11.29,23.9c2.62,6.56,4.87,13.4,6.48,20.52
			c22.59-8.82,46.9-12.51,71.56-12.51c29.37,0,59.31,5.21,88.01,13.55c28.69,8.35,56.16,19.85,80.51,32.61l12.92,6.76l-9.09,11.41
			c-3.26,4.09-6.57,8.16-9.94,12.18c7.93,10.41,14.24,21.94,18.86,34.08c5.95,15.68,9.09,32.41,9.09,49.22
			C2332.2,2120.1,2331.71,2126.8,2330.69,2133.45z M2722.49,1913.7l-8.87-6.02l-11.06-7.51c3.27-4.81,6.2-9.83,8.79-15.04
			c9.45-18.91,14.43-40.21,14.41-61.41c0-10.75-1.27-21.48-3.85-31.86l23.37-5.79c3.07,12.34,4.56,25.01,4.56,37.65
			C2749.83,1855.5,2740.45,1887.23,2722.49,1913.7z M2695.35,1807.67c-6.68,7.41-12.89,15.26-18.56,23.48
			c-2.46-9.78-5.23-19.46-8.31-29.06c5.79-7.17,11.96-14.03,18.49-20.55c19.04-19.03,41.03-35.12,65.1-47.35l10.9,21.47
			C2737.52,1768.58,2714.5,1786.39,2695.35,1807.67z"></path>
  <path d="M2721.91 1791.86c2.58 10.38 3.85 21.11 3.85 31.86.02 21.2-4.96 42.5-14.41 61.41-2.59 5.21-5.52 10.23-8.79 15.04l11.06 7.51 8.87 6.02c17.96-26.47 27.34-58.2 27.35-89.98 0-12.64-1.49-25.31-4.56-37.65L2721.91 1791.86zM2686.97 1781.54c-6.53 6.52-12.7 13.38-18.49 20.55 3.08 9.6 5.85 19.28 8.31 29.06 5.67-8.22 11.88-16.07 18.56-23.48 19.15-21.28 42.17-39.09 67.62-52.01l-10.9-21.47C2728 1746.42 2706.01 1762.51 2686.97 1781.54z"></path>
  <path fill="#e4f7f6" d="M2624.46,2545.03c7.96,8.24,14.44,17.57,19.51,27.57l20.19-25.34l-37.64-39.49l-2.79,2.74
			c-0.87,10.41-1.74,20.82-2.59,31.22C2622.26,2542.79,2623.37,2543.9,2624.46,2545.03z"></path>
  <path fill="#efc4b9" d="M2601.89,2598.78c16.56,31.73,15.02,70.65,2.82,104.3c-4.24,11.67-9.64,22.83-15.86,33.55
			c1.52-1.66,3-3.36,4.45-5.07c10.45-12.28,19.52-25.83,26.41-40.16c6.88-14.33,11.58-29.4,13.4-44.85c0.53-4.51,0.8-9.07,0.8-13.63
			c0-13.24-2.26-26.52-6.75-38.72c-4.49-12.19-11.18-23.31-20.01-32.44c-8.15-8.42-16.24-13.72-24.54-17.08
			c-8.29-3.33-16.9-4.74-26.16-4.75c-8.99,0-18.56,1.37-28.57,3.65c-1.91,0.43-3.85,0.9-5.8,1.4
			C2555.33,2548.26,2586.42,2569.12,2601.89,2598.78z"></path>
  <path fill="#d0fcfb" d="M2623.73,2510.51l-18.88,18.56c5.61,3.45,11.05,7.67,16.29,12.66
			C2621.99,2531.33,2622.86,2520.92,2623.73,2510.51z"></path>
  <path fill="#e4f7f6" d="M2422.62,2879.6c-6.84,22.83-13.81,45.94-26.2,66.3c-12.39,20.36-31.01,38.01-54.06,44.1
			c-6,1.59-12.32,2.24-18.59,1.95c1.68,0.86,3.39,1.7,5.12,2.52c8.28,3.93,17.18,7.37,25.6,9.41c5.6,1.39,10.98,2.14,15.74,2.14
			c4.52,0,8.46-0.67,11.73-1.93c4.67-1.78,8.91-4.31,12.9-7.54c3.96-3.21,7.64-7.12,11.04-11.58c6.79-8.91,12.36-20.03,16.86-31.42
			c3-7.59,5.54-15.29,7.76-22.54c12.1-39.6,23.8-79.38,35.67-119.17c-7.36-0.99-14.64-2.62-21.74-4.96
			C2437.18,2831.13,2429.89,2855.36,2422.62,2879.6z"></path>
  <path fill="#d0fcfb" d="M2342.36,2990c23.05-6.09,41.67-23.74,54.06-44.1c12.39-20.36,19.36-43.47,26.2-66.3
			c7.27-24.24,14.56-48.47,21.83-72.72c-3.03-1-6-2.11-8.95-3.36c-18.68-7.92-34.77-20.87-46.9-36.79
			c-8.53-11.19-15.13-23.86-19.22-37.38c-38.1,9.04-76.29,17.56-114.38,26.17c-7.54,1.71-14.66,3.27-20.99,5.13
			c-6.34,1.83-11.86,3.94-16.33,6.5c-2.98,1.71-5.51,3.59-7.67,5.77c-2.86,2.91-5.16,6.33-6.98,11.1c-1.02,2.72-1.87,5.89-2.45,9.61
			c-0.57,3.63-0.84,7.35-0.84,11.14c0,10.2,1.95,20.99,4.99,31.89c3.02,10.89,7.1,21.85,11.11,32.45
			c8.73,23.07,21.07,44.85,36.44,64.11c15.38,19.28,33.76,36.03,54.55,49.1c4.83,3.04,10.64,6.42,16.94,9.63
			C2330.04,2992.24,2336.36,2991.59,2342.36,2990z"></path>
  <path fill="#e6a089" d="M2398.06,2656.4c-6.09,12.71-9.39,26.8-9.39,40.73c0,3.6,0.23,7.17,0.67,10.74c0.03,0.23,0.05,0.47,0.09,0.7
			c0.67,5.12,1.84,10.22,3.43,15.18c3.26,10.16,8.35,19.82,14.89,28.39c9.72,12.76,22.61,23.07,37.14,29.22
			c12.14,5.14,25.41,7.58,38.91,7.58c13.99,0.01,28.23-2.63,41.48-7.55c13.09-4.84,25.4-11.77,36.82-20.27
			c9.62-7.18,18.59-15.47,26.75-24.49c6.22-10.72,11.62-21.88,15.86-33.55c12.2-33.65,13.74-72.57-2.82-104.3
			c-15.47-29.66-46.56-50.52-79.81-53.8c-8.2,2.08-16.64,4.65-25.26,7.37c-7.71,2.43-15.75,5.37-23.41,8.89
			c-4.56,2.09-8.98,4.4-13.09,6.91c-2.8,1.71-5.46,3.5-7.93,5.39c-4.08,3.12-7.64,6.48-10.58,10.07c-1.01,1.24-1.95,2.5-2.8,3.79
			c-2.47,3.7-4.3,7.61-5.46,11.91c-0.89,3.31-1.38,6.87-1.38,10.81c0,0.21,0,0.43,0.01,0.66c0.01,1.63,0.38,3.48,1.09,5.2
			c0.17,0.43,0.38,0.86,0.58,1.27c0.64,1.24,1.42,2.34,2.25,3.22c0.75,0.79,1.51,1.39,2.23,1.81c0.98,0.55,1.82,0.8,2.71,0.88
			l-1.59,24.02c-3.64-0.24-7.1-1.16-10.22-2.54c-3.13-1.4-5.91-3.27-8.34-5.42c-2.38-2.12-4.45-4.5-6.16-7.07
			C2407.97,2639.23,2402.33,2647.48,2398.06,2656.4z"></path>
  <path fill="#ade9da" d="M2173.44,2529.79c-17.46,4.41-35.2,8.33-53.18,11.76c-7.85,1.51-15.75,2.92-23.7,4.23
			c-34.44,5.68-69.72,9.58-105.67,11.57c1.82,2.48,3.47,5.07,4.97,7.73c6.71,11.95,10.39,25.57,10.41,39.37
			c0,8.75-1.51,17.59-4.76,26c-2.79,7.18-6.36,13.4-9.49,19.12c-3.15,5.7-5.84,10.89-7.34,15.54c-1.01,3.12-1.52,5.95-1.53,8.76
			c0,0.11,0,0.19,0.01,0.27v0.03c0.03,2.12,0.34,4.13,0.91,6.16c0.56,2.04,1.39,4.1,2.5,6.25c2.2,4.29,5.54,8.85,9.49,13.68
			c2.62,3.23,5.5,6.56,8.44,10.09c3.9,4.69,7.89,9.71,11.39,15.4c3.37,5.46,5.99,11.17,8.04,16.97c2.03,5.81,3.49,11.7,4.54,17.62
			c2.07,11.82,2.5,23.68,2.51,35.16c0,6.53-0.14,12.93-0.25,19.12c-0.09,5.54-0.14,11.07-0.14,16.59
			c0,80.88,10.24,161.78,30.43,240.1l-5.79,1.49c1.8,4.35,3.63,8.68,5.47,13.01c2.04,0.21,4.66,0.37,7.79,0.37
			c12.61-0.02,33.68-2.53,61.03-15.46c26.13-12.37,58.05-34.33,93.47-73.11c-48.6-124.41-86.61-252.97-113.5-383.82
			c-1.89-9.16-3.72-18.35-5.49-27.53l26.39,9.43l91.66,32.79l142.55,67.65c0.16-17.37,4.29-34.56,11.74-50.13
			c7.46-15.56,18.25-29.57,31.9-40.48c0.1-1.45,0.25-2.87,0.43-4.27c-47.37-32.25-106.81-45.15-163.72-56.81
			C2221.11,2539.55,2197.27,2534.67,2173.44,2529.79z M2144.3,2876.36l16,8.66l-81.21,89.73l-16.71-13.79L2144.3,2876.36z"></path>
  <path d="M2304.25,2030.1c3.37-4.02,6.68-8.09,9.94-12.18l9.09-11.41l-12.92-6.76c-24.35-12.76-51.82-24.26-80.51-32.61
			c-28.7-8.34-58.64-13.55-88.01-13.55c-24.66,0-48.97,3.69-71.56,12.51c-1.61-7.12-3.86-13.96-6.48-20.52
			c-3.33-8.35-7.26-16.29-11.29-23.9c-22.21-41.79-51.34-79.86-85.85-112.23l-16.47,17.57c32.58,30.54,60.1,66.53,81.06,105.97
			c3.8,7.16,7.32,14.32,10.18,21.5c2.86,7.19,5.06,14.36,6.3,21.58c0.72,4.16,1.1,8.4,1.1,12.56c0,5.07-0.56,10.05-1.73,14.72
			c-1.15,4.67-2.91,9.03-5.28,12.96c-1.21,1.99-2.41,3.57-3.65,4.9c-2.17,2.33-4.43,3.95-7.17,5.42c-2.06,1.1-4.4,2.07-7.03,3.01
			c-3.95,1.42-8.59,2.75-13.72,4.56c-5.1,1.82-10.71,4.16-16.36,7.73c-1.2,0.76-2.38,1.56-3.54,2.36
			c-8.43,5.88-15.53,12.78-21.96,19.8c-7.31,7.98-13.77,16.15-20.21,23.5c-0.23,0.26-0.47,0.53-0.7,0.79
			c-5.54,6.19-11.98,11.62-18.86,15.59c-7.17,4.16-14.72,6.72-22.37,7.25c-1.02,0.06-2.04,0.1-3.07,0.1
			c-7.79,0.01-15.72-2.04-23.37-5.72c-7.64-3.68-14.92-8.99-21.16-15.16c-4.12-4.06-7.93-9.22-11.78-15.04
			c-2.87-4.35-5.76-9.05-8.9-13.83c-3.35-5.08-6.98-10.3-11.32-15.21c-0.62-0.71-1.25-1.4-1.9-2.09c-1.21-1.28-2.46-2.52-3.77-3.73
			c-3.52-3.24-7.47-6.22-11.96-8.7c-4.46-2.49-9.46-4.46-14.92-5.73c-3.6-0.84-6.99-1.4-10.16-1.89c-4.74-0.71-8.98-1.25-12.79-2.04
			c-3.85-0.81-7.25-1.84-10.71-3.52c-5.43-2.63-10.52-6.4-14.24-10.68c-1.88-2.14-3.42-4.4-4.58-6.72
			c-1.16-2.31-1.95-4.67-2.36-7.09c-0.21-1.37-0.32-2.74-0.32-4.13c0-2.72,0.41-5.52,1.23-8.48c0.27-1.03,0.6-2.05,0.98-3.11
			c1.24-3.5,3.01-7.18,5.13-10.91c2.76-4.85,6.1-9.77,9.53-14.66c14.23-20.31,28.46-40.61,42.69-60.93c0.73-1.05,1.47-2.11,2.2-3.16
			c16.51-23.56,33.02-47.11,49.51-70.67l-19.72-13.82c-16.51,23.56-33,47.12-49.51,70.68c-14.96,21.36-29.93,42.72-44.89,64.09
			c-4.75,6.78-9.88,14.3-13.98,22.72c-1.47,2.99-2.8,6.11-3.91,9.36c-13.87-3.44-28.06-4.98-42.28-4.97
			c-17.63,0-35.38,2.35-52.95,6.37c-26.36,6.04-52.36,15.84-77.12,27.43c-24.75,11.58-48.28,24.93-69.61,38.16l-15.26,9.45
			l14.53,10.54c8.79,6.35,17.61,12.74,26.45,19.09c-1.46,1.64-2.85,3.34-4.16,5.07c-3.78,4.98-7,10.34-9.66,15.94
			c-2.01,4.2-3.69,8.54-5.09,12.97c-3.25,10.33-4.88,21.15-4.88,31.91c0,1.95,0.06,3.89,0.17,5.83
			c0.83,15.12,4.59,29.64,10.24,43.24c5.64,13.59,13.19,26.27,21.75,37.84c24.13,32.6,52.34,59.15,83.15,81.93
			c30.79,22.77,64.19,41.82,98.89,59.58c36.02,18.43,74.07,33.55,113.38,44.06c39.31,10.53,79.89,16.44,120.93,16.44
			c0.93,0,1.85,0,2.76-0.01h0.06c1.05-0.02,2.1-0.03,3.14-0.04h0.08c47.71-0.69,93.22-10.56,136.04-27.15
			c42.86-16.6,83.08-39.9,120.47-67.54c33.03-24.4,64.9-53.59,90.34-87.59c12.71-16.99,23.81-35.19,32.59-54.59
			c0.21-0.49,0.44-0.98,0.65-1.48h1.18v-2.67c7.83-18.17,13.6-37.37,16.7-57.51c1.02-6.65,1.51-13.35,1.51-20.05
			c0-16.81-3.14-33.54-9.09-49.22C2318.49,2052.04,2312.18,2040.51,2304.25,2030.1z M1536.95,2031.2
			c13.98-7.22,28.38-13.95,42.97-19.77c16.05-6.41,32.3-11.72,48.42-15.41c16.12-3.69,32.09-5.77,47.58-5.76
			c5.37,0,10.7,0.24,15.93,0.76c7.92,0.78,15.69,2.17,23.29,4.22c0.08,0.96,0.21,1.91,0.37,2.86c0.82,4.98,2.43,9.68,4.6,13.98
			c3.25,6.46,7.72,12.04,12.83,16.74c5.12,4.7,10.9,8.53,16.97,11.49c3.77,1.84,7.49,3.17,11.06,4.16
			c5.37,1.5,10.36,2.24,14.93,2.92c4.59,0.66,8.75,1.24,12.71,2.17c2.94,0.68,5.49,1.66,7.87,2.87c4.11,2.13,7.71,5.07,11.22,8.86
			c2.61,2.83,5.13,6.13,7.63,9.77c3.77,5.44,7.48,11.62,11.66,17.91c4.17,6.3,8.83,12.76,14.74,18.62
			c7.96,7.83,17.27,14.7,27.62,19.69c10.36,5,21.82,8.12,33.83,8.12c1.58,0,3.16-0.05,4.73-0.16h0.02
			c11.89-0.83,22.97-4.75,32.76-10.43c9.81-5.68,18.39-13.12,25.62-21.37c6.94-7.94,13.3-15.96,19.84-23.1
			c6.54-7.15,13.21-13.38,20.62-18.07c3.61-2.28,7.45-3.94,11.75-5.44c3.21-1.15,6.65-2.19,10.31-3.4c2.73-0.91,5.59-1.91,8.52-3.18
			c4.39-1.87,8.98-4.34,13.33-7.86c4.35-3.5,8.39-8.04,11.75-13.63c3.75-6.2,6.37-12.84,8.04-19.61c1.48-5.95,2.24-12.01,2.4-18.05
			c20.85-9.33,44.31-13.45,68.97-13.43c26.5-0.02,54.34,4.75,81.28,12.59c21.91,6.37,43.25,14.77,62.84,24.19
			c-40.51,48.69-87.66,91.82-141.65,123.61c-28.66,16.88-59.39,30.49-91.17,39.89c-5.63,1.66-11.27,3.19-16.94,4.57h-0.03
			c-26.44,6.47-53.47,9.96-80.55,9.96c-1,0-2,0-2.99-0.02c-3.47-0.03-7.2-0.06-11-0.2c-5.7-0.22-11.56-0.7-16.58-1.69
			c-2.51-0.49-4.81-1.1-6.73-1.8c-1.94-0.7-3.51-1.49-4.63-2.26l-4.13-2.8l-25.58,4.88l-0.07,0.01l-0.06,0.01
			c-16.13,2.88-32.46,4.23-48.83,4.23c-27.13,0-54.44-3.71-81.28-10.28c-26.85-6.59-53.23-16.05-78.49-27.5
			c-53.93-24.45-103.78-57.79-152.94-92.89c-5.99-4.28-11.97-8.58-17.95-12.9C1514.87,2043.07,1525.77,2036.97,1536.95,2031.2z
			 M2306.88,2129.79c-2.1,13.7-5.6,26.95-10.28,39.76h-65.66v24.08h55.26c-11.58,23.18-26.98,44.77-44.76,64.6
			c-19.93,22.21-42.83,42.19-66.51,59.7c-35.98,26.58-74.36,48.76-114.86,64.45c-40.49,15.67-83.07,24.86-127.69,25.53
			c-1.05,0.02-2.1,0.03-3.14,0.04l0.06-0.01c-0.87,0.01-1.75,0.01-2.62,0.01c-38.73,0-77.22-5.59-114.71-15.62
			c-37.49-10.03-73.98-24.5-108.63-42.23c-34.07-17.43-66.28-35.87-95.55-57.51c-29.27-21.66-55.6-46.5-78.1-76.9l-0.2-0.28h85.37
			v-24.08h-100.21c-1.39-2.77-2.67-5.57-3.85-8.4c-4.77-11.47-7.76-23.33-8.43-35.3c-0.07-1.51-0.12-3-0.12-4.52
			c0-11.12,2.27-22.41,6.65-32.41c2.19-4.99,4.9-9.66,8.09-13.87c1.48-1.95,3.06-3.8,4.74-5.55c45.38,31.96,92.31,62.43,143.58,85.7
			c26.45,12.01,54.21,21.97,82.7,28.96c28.47,6.98,57.69,10.98,87.01,10.98c17.74,0,35.54-1.47,53.2-4.63l0.06-0.01l16.54-3.15
			c2.83,1.43,5.76,2.51,8.69,3.39c6.88,2.03,13.93,2.94,20.64,3.43c6.71,0.5,13.06,0.55,18.25,0.59c1.07,0.02,2.14,0.02,3.22,0.02
			c35.43,0,70.54-5.54,104.34-15.52c33.81-9.98,66.31-24.41,96.56-42.23c49.69-29.25,93.4-67.3,131.58-109.98
			c5.09,7.41,9.3,15.46,12.5,23.91c4.93,12.97,7.53,26.86,7.52,40.66C2308.12,2118.9,2307.71,2124.38,2306.88,2129.79z"></path>
  <path fill="#fff" d="M2288.1,2048.83c-38.18,42.68-81.89,80.73-131.58,109.98c-30.25,17.82-62.75,32.25-96.56,42.23
			c-33.8,9.98-68.91,15.52-104.34,15.52c-1.08,0-2.15,0-3.22-0.02c-5.19-0.04-11.54-0.09-18.25-0.59
			c-6.71-0.49-13.76-1.4-20.64-3.43c-2.93-0.88-5.86-1.96-8.69-3.39l-16.54,3.15l-0.06,0.01c-17.66,3.16-35.46,4.63-53.2,4.63
			c-29.32,0-58.54-4-87.01-10.98c-28.49-6.99-56.25-16.95-82.7-28.96c-51.27-23.27-98.2-53.74-143.58-85.7
			c-1.68,1.75-3.26,3.6-4.74,5.55c-3.19,4.21-5.9,8.88-8.09,13.87c-4.38,10-6.65,21.29-6.65,32.41c0,1.52,0.05,3.01,0.12,4.52
			c0.67,11.97,3.66,23.83,8.43,35.3c1.18,2.83,2.46,5.63,3.85,8.4h100.21v24.08h-85.37l0.2,0.28c22.5,30.4,48.83,55.24,78.1,76.9
			c29.27,21.64,61.48,40.08,95.55,57.51c34.65,17.73,71.14,32.2,108.63,42.23c37.49,10.03,75.98,15.62,114.71,15.62
			c0.87,0,1.75,0,2.62-0.01l-0.06,0.01c1.04-0.01,2.09-0.02,3.14-0.04c44.62-0.67,87.2-9.86,127.69-25.53
			c40.5-15.69,78.88-37.87,114.86-64.45c23.68-17.51,46.58-37.49,66.51-59.7c17.78-19.83,33.18-41.42,44.76-64.6h-55.26v-24.08
			h65.66c4.68-12.81,8.18-26.06,10.28-39.76c0.83-5.41,1.24-10.89,1.24-16.39c0.01-13.8-2.59-27.69-7.52-40.66
			C2297.4,2064.29,2293.19,2056.24,2288.1,2048.83z"></path>
  <path fill="#ccc4ae" d="M1547.9,2043.97c93.99,95.28,232.3,145.22,365.5,131.62c39.81,10.96,81.9,13.07,122.77,6.93h0.03
			c5.67-1.38,11.31-2.91,16.94-4.57c31.78-9.4,62.51-23.01,91.17-39.89c53.99-31.79,101.14-74.92,141.65-123.61
			c-19.59-9.42-40.93-17.82-62.84-24.19c-26.94-7.84-54.78-12.61-81.28-12.59c-24.66-0.02-48.12,4.1-68.97,13.43
			c-0.16,6.04-0.92,12.1-2.4,18.05c-1.67,6.77-4.29,13.41-8.04,19.61c-3.36,5.59-7.4,10.13-11.75,13.63
			c-4.35,3.52-8.94,5.99-13.33,7.86c-2.93,1.27-5.79,2.27-8.52,3.18c-3.66,1.21-7.1,2.25-10.31,3.4c-4.3,1.5-8.14,3.16-11.75,5.44
			c-7.41,4.69-14.08,10.92-20.62,18.07c-6.54,7.14-12.9,15.16-19.84,23.1c-7.23,8.25-15.81,15.69-25.62,21.37
			c-9.79,5.68-20.87,9.6-32.76,10.43h-0.02c-1.57,0.11-3.15,0.16-4.73,0.16c-12.01,0-23.47-3.12-33.83-8.12
			c-10.35-4.99-19.66-11.86-27.62-19.69c-5.91-5.86-10.57-12.32-14.74-18.62c-4.18-6.29-7.89-12.47-11.66-17.91
			c-2.5-3.64-5.02-6.94-7.63-9.77c-3.51-3.79-7.11-6.73-11.22-8.86c-2.38-1.21-4.93-2.19-7.87-2.87c-3.96-0.93-8.12-1.51-12.71-2.17
			c-4.57-0.68-9.56-1.42-14.93-2.92c-3.57-0.99-7.29-2.32-11.06-4.16c-6.07-2.96-11.85-6.79-16.97-11.49
			c-5.11-4.7-9.58-10.28-12.83-16.74c-2.17-4.3-3.78-9-4.6-13.98c-0.16-0.95-0.29-1.9-0.37-2.86c-7.6-2.05-15.37-3.44-23.29-4.22
			c-38.99,9.96-78.21,20.12-114.67,37.17C1567.16,2032.87,1557.33,2038.12,1547.9,2043.97z"></path>
  <path d="M2166.52,1686.67c-16.45-11.12-36.37-17.64-57.7-17.64c-14.22,0-27.84,2.89-40.19,8.13
			c-18.54,7.84-34.26,20.91-45.4,37.37c-11.12,16.46-17.64,36.38-17.63,57.72c0,14.22,2.89,27.82,8.12,40.17
			c7.84,18.54,20.91,34.28,37.38,45.41c16.46,11.13,36.37,17.63,57.72,17.63c14.21,0,27.82-2.89,40.18-8.11
			c18.52-7.85,34.26-20.91,45.4-37.38c11.12-16.46,17.64-36.39,17.62-57.72c0-14.22-2.89-27.83-8.11-40.18
			C2196.07,1713.53,2183,1697.79,2166.52,1686.67z M2064.9,1730.59c-8.37,0-13.12-5.6-14.26-11.98c-1.5-8.39,3.25-18.12,14.26-18.12
			c2.78,0,5.16,0.62,7.14,1.68C2083.9,1708.5,2081.5,1730.59,2064.9,1730.59z M2140.32,1853.35c-5.15,0-9.83-1.46-13.78-3.95
			c-7.45-4.72-12.29-13.16-12.71-22.54c-0.65-14.3,12.63-26.49,26.49-26.49c14.59,0,25.46,11.73,26.43,25.77
			c0.03,0.24,0.04,0.48,0.05,0.72C2167.44,1841.16,2154.16,1853.35,2140.32,1853.35z"></path>
  <path fill="#b2ac9b" d="M1013.35,1616.12c-17.01-42.83-20.23-93.18-16.99-138.79c19.33,31.84,71.36,39.99,103.95,26.34
			c60.97-25.55,60.16-99.34,46.43-153.89c-5.55-22.03-18.71-40.55-28.8-60.72c-34.17-68.33-24.98-156.11,22.58-215.9
			c7.25,18.04,16.39,32.71,29.84,47.26c13.34,14.44,29.5,26.3,47.37,34.5c29,13.3,61.2,16.38,92.29,10.17
			c73.15-14.63,146.48-31.58,181.94-104.7c18.47-38.06,25.97-80.32,36.88-121.2c12.08-45.3,29.64-89.13,66.15-119.74
			c-7.09,31.62-7.97,63.19,7.91,92.82c14.69,27.4,39.88,48.22,67.96,61.6c28.07,13.36,58.99,19.74,89.9,23.16
			c94.4,10.45,202.72-1.46,261.88-85.12c16.53-23.37,27.88-50.69,30.71-79.16c2.68-26.81-1.98-57.57-16.15-80.58
			c19.96,11.5,35.65,25.02,48.59,44.45c13,19.52,21.8,41.51,30.25,63.27c8.47,21.78,17.32,43.76,30.41,63.23
			c11.47,17.04,27.13,37.35,45.53,47.15c36.68,19.53,79.54,26.58,120.72,21.21c-6.49-0.11-12.87-0.45-19.1-0.97
			c-18.4-1.61-36.74-5.75-53.86-12.83c-17.11-7.09-33.01-17.13-46.29-30.51c-8.84-8.92-16.5-19.32-22.49-31.18
			c-8.01-15.84-13.42-32.2-18.55-48.08c-5.11-15.91-9.95-31.34-16.41-45.51c-13.56-29.83-35.73-55.66-62.77-74.65
			c-19.52-13.7-41.52-23.81-64.54-29.36c5.05,8.89,9.27,18.24,12.61,27.87c6.57,18.83,9.86,38.77,9.86,58.69
			c0,31.41-8.19,62.88-25.18,89.84c-7.42,11.79-15.86,22-25.09,30.71c-9.24,8.73-19.27,15.98-29.85,21.93
			c-21.16,11.89-44.44,18.59-68.32,22.05c-15.93,2.32-32.16,3.21-48.37,3.21c-12.41,0-24.81-0.53-37.03-1.34
			c-18.17-1.2-37.8-3.35-57.44-7.34c-19.64-4-39.3-9.84-57.51-18.57c-12.14-5.81-23.63-12.94-33.93-21.71
			c-13.73-11.65-25.32-26.3-33.23-44.21c-7.29-16.49-10.84-34.36-10.84-52.19c0-10,1.12-20.02,3.36-29.78
			c-15.44,11.93-29.59,25.58-42.12,40.59c-20.57,24.63-36.79,52.87-47.32,83.09c-4.56,13.11-8.17,26.79-11.68,40.78
			c-3.5,13.99-6.9,28.29-11.12,42.62c-9.44,31.99-25.83,59.61-47.66,82.02c-21.82,22.42-49.04,39.61-80.03,51.2
			c-23.77,8.88-50.04,14.24-76.37,14.25c-16.85,0-33.72-2.21-49.92-7.2c-16.18-4.98-31.66-12.77-45.5-23.85
			c-15.72-12.58-28.22-28.73-36.84-46.71c-4.2-8.77-7.47-17.97-9.74-27.44c-6.8,10.02-13.43,20.08-19.71,30.27
			c-11.81,19.18-22.34,38.78-30.5,59.27c-10.2,25.59-16.47,53.18-16.47,80c0,15.95,2.2,31.63,7.04,46.59
			c5.01,15.51,12.92,30.45,21.53,45.83c8.59,15.36,17.86,31.13,25.06,48.53c3.02,7.32,5.43,15.83,7.15,25.1
			c1.71,9.27,2.71,19.29,2.71,29.47c0,9.29-0.83,18.7-2.78,27.83c-1.97,9.11-5.06,17.96-9.77,25.99
			c-3.15,5.35-7.02,10.31-11.74,14.59c-6.28,5.72-14.08,10.15-23.05,12.6c-8.29,2.27-16.84,3.38-25.35,3.38
			c-17.97-0.01-35.88-4.89-51.31-14.43c-10.65-6.58-19.83-15.24-27.17-25.24c-5.58,34.02-9.9,67.93-9.89,101.36
			c0,14.48,0.8,28.88,2.65,43.17c2.87,22.28,8.76,44.6,17.65,65.23c8.88,20.65,20.76,39.6,35.55,55.31
			c7.82,8.33,16.48,15.75,25.96,22.07c1.6-6.16,3.52-12.46,6.04-18.68c1.91-4.73,4.18-9.43,6.92-13.96
			C1050.55,1685.48,1027.76,1652.39,1013.35,1616.12z"></path>
  <path fill="#d9f4eb" d="M2192.84,2524.69c-6.43,1.77-12.89,3.46-19.4,5.1c23.83,4.88,47.67,9.76,71.51,14.65
			c56.91,11.66,116.35,24.56,163.72,56.81c0.9-6.72,2.8-13.03,5.51-18.76c0.24-0.51,0.48-1,0.72-1.5l-138.74-36.87L2192.84,2524.69z
			"></path>
  <path d="M2022.35,1659.15c39.72-18.58,83.66-28.24,127.55-28.22c10.16,0,20.33,0.51,30.44,1.55l16.18,1.67l-3.13-15.96l-14.51-74
			l-5.48-2.6c-19.94-9.5-41.89-14.29-63.86-14.29c-13.87,0-27.75,1.92-41.14,5.82c-17.3,5.04-33.5,13.31-47.79,24.11
			c-14.3,10.81-26.67,24.17-36.23,39.43l-3.59,5.73l30.95,61.72L2022.35,1659.15z M2035.13,1576.44c12.01-9.08,25.64-16.02,40-20.21
			c11.13-3.24,22.76-4.85,34.41-4.85c16.46-0.01,32.95,3.23,48.08,9.54l9.09,46.37c-5.6-0.3-11.21-0.44-16.81-0.44
			c-43.51,0-86.96,8.75-127.04,25.73l-14.39-28.68C2015.84,1593.47,2024.89,1584.18,2035.13,1576.44z"></path>
  <path fill="#fff" d="M2166.75,1826.14c-0.97-14.04-11.84-25.77-26.43-25.77c-13.86,0-27.14,12.19-26.49,26.49
			c0.42,9.38,5.26,17.82,12.71,22.54c3.95,2.49,8.63,3.95,13.78,3.95c13.84,0,27.12-12.19,26.48-26.49
			C2166.79,1826.62,2166.78,1826.38,2166.75,1826.14z"></path>
  <path fill="#ccc4ae" d="M2149.9,1606.85c5.6,0,11.21,0.14,16.81,0.44l-9.09-46.37c-15.13-6.31-31.62-9.55-48.08-9.54
			c-11.65,0-23.28,1.61-34.41,4.85c-14.36,4.19-27.99,11.13-40,20.21c-10.24,7.74-19.29,17.03-26.66,27.46l14.39,28.68
			C2062.94,1615.6,2106.39,1606.85,2149.9,1606.85z"></path>
  <polygon fill="#61c7a0" points="2079.09 2974.75 2160.3 2885.02 2144.3 2876.36 2062.38 2960.96"></polygon>
  <path fill="#516572" d="M2082.42,3261.38c-7.03-6.73-14.86-12.63-23.26-17.47l-47.01,24.94c3.03,8.09,7.34,15.77,12.69,22.73
			c8.55,11.12,19.76,20.35,32.25,26.48c8.33,4.08,17.21,6.8,26.3,7.87c2.03,0.24,4.12,0.37,6.17,0.37c3.55,0,6.99-0.39,9.93-1.17
			c2.95-0.79,5.33-1.93,7.05-3.27c1.16-0.89,2.06-1.86,2.82-3.04c0.68-1.07,1.15-2.16,1.48-3.42c0.33-1.26,0.51-2.68,0.51-4.28
			c0-2.71-0.54-5.93-1.6-9.3c-1.04-3.37-2.58-6.89-4.33-10.16C2099.45,3280.46,2091.63,3270.2,2082.42,3261.38z"></path>
  <path fill="#fff" d="M2072.04,1702.17c-1.98-1.06-4.36-1.68-7.14-1.68c-11.01,0-15.76,9.73-14.26,18.12
			c1.14,6.38,5.89,11.98,14.26,11.98C2081.5,1730.59,2083.9,1708.5,2072.04,1702.17z"></path>
  <path fill="#516572" d="M1985.49,2966.55c-94.54,0.32-189.1,0.65-283.63,0.97c-16.56,49.13-36.25,97.2-59,143.82
			c-0.29,0.61-0.57,1.21-0.88,1.82l-3.66,7.46l-8.27-0.77c-20.63-1.93-39.84-5.29-57.63-9.69c-15.52,38.5-12.45,84.13,7.58,120.45
			l15.3,3.88l210.96-219.42l195.96,231.79l41.15-21.84L1985.49,2966.55z"></path>
  <path fill="#b2ac9b" d="M1675.25,2155.06c25.26,11.45,51.64,20.91,78.49,27.5c26.84,6.57,54.15,10.28,81.28,10.28
			c16.37,0,32.7-1.35,48.83-4.23l0.06-0.01l0.07-0.01l25.58-4.88l4.13,2.8c1.12,0.77,2.69,1.56,4.63,2.26
			c1.92,0.7,4.22,1.31,6.73,1.8c5.02,0.99,10.88,1.47,16.58,1.69c3.8,0.14,7.53,0.17,11,0.2c0.99,0.02,1.99,0.02,2.99,0.02
			c27.08,0,54.11-3.49,80.55-9.96c-40.87,6.14-82.96,4.03-122.77-6.93c-133.2,13.6-271.51-36.34-365.5-131.62
			c9.43-5.85,19.26-11.1,29.28-15.78c36.46-17.05,75.68-27.21,114.67-37.17c-5.23-0.52-10.56-0.76-15.93-0.76
			c-15.49-0.01-31.46,2.07-47.58,5.76c-16.12,3.69-32.37,9-48.42,15.41c-14.59,5.82-28.99,12.55-42.97,19.77
			c-11.18,5.77-22.08,11.87-32.59,18.07c5.98,4.32,11.96,8.62,17.95,12.9C1571.47,2097.27,1621.32,2130.61,1675.25,2155.06z"></path>
  <path fill="#65c69f" d="M1960.06,2612.9c-3.64,6.09-8.6,11.7-15.03,15.9c-2.25,1.46-4.58,2.7-6.98,3.7
			c12.18,96.3,32.64,191.55,61.04,284.38c5.45,17.86,11.21,35.64,17.27,53.32c-6.55-46.02-9.85-92.5-9.85-138.99
			c0-5.67,0.05-11.34,0.14-17c0.11-6.28,0.25-12.55,0.25-18.71c0-8.12-0.25-16.07-1.09-23.61c-0.86-7.53-2.3-14.64-4.6-21.17
			c-1.53-4.36-3.44-8.48-5.83-12.36c-3.26-5.32-7.9-10.88-12.9-16.79c-5-5.94-10.38-12.23-14.87-19.6
			c-2.98-4.93-5.57-10.37-7.09-16.48c-0.87-3.48-1.39-7.17-1.44-11c-0.01-0.23-0.01-0.44-0.01-0.62c0-4.37,0.63-8.53,1.61-12.4
			c0.99-3.89,2.34-7.5,3.83-10.9c3-6.78,6.56-12.75,9.54-18.31c1.98-3.7,3.73-7.2,4.99-10.49c2.12-5.45,3.15-11.33,3.15-17.32
			c0.01-7.09-1.45-14.34-4.18-21.06c-2.25-5.54-5.36-10.72-9.16-15.16c0.17,2.59,0.26,5.22,0.26,7.88c0,5.64-0.43,11.48-1.64,17.41
			C1966.1,2600.17,1963.71,2606.79,1960.06,2612.9z"></path>
  <path fill="#516572" d="M1976.99,2928.6c-10-0.02-19.99-0.05-29.98-0.06c-0.36,4.68-0.72,9.38-1.1,14.06
			c11.39-0.03,22.79-0.07,34.18-0.12L1976.99,2928.6z"></path>
  <path fill="#9e4747" d="M1943.8,2558.84c-0.42-3.69-0.92-7.26-1.64-10.45c-0.75-3.3-1.73-6.19-2.93-8.51
			c-0.81-1.57-1.71-2.88-2.75-4.02c-0.33-0.38-0.69-0.74-1.08-1.06c-0.46-0.4-0.95-0.77-1.48-1.11c-0.97-0.64-2.09-1.18-3.35-1.62
			c-2.49-0.92-5.56-1.4-8.75-1.4c-1.23,0-2.47,0.07-3.7,0.2c-4.84,0.53-10.21,1.66-15.54,3.39c-1.4,0.43-2.78,0.91-4.15,1.43
			c-6.66,2.52-13.03,5.92-18.15,9.86c-3.42,2.62-6.27,5.48-8.4,8.39l-2.03,2.8l-4.28,5.85l-9.32-5.27c-1.21-0.68-2.5-1.32-3.83-1.89
			c-3.51-1.52-7.38-2.66-11.37-3.43c-5.5-1.07-11.22-1.48-16.44-1.47c-4.78,0-9.13,0.33-12.53,0.7c-4.23,0.48-6.98,1.03-7.3,1.09
			v0.01h-0.02l-4.95,1.06l-4.24-2.82c-1.03-0.69-2.07-1.35-3.11-1.99c-4.93-3.03-10.02-5.56-15.36-7.71
			c-3.69-1.5-7.51-2.81-11.46-3.96c-2.93-0.87-5.96-1.67-9.05-2.38c-4.86-1.13-9.78-2.55-14.53-3.64c-0.25-0.06-0.5-0.11-0.75-0.17
			c-2.27-0.51-4.48-0.92-6.56-1.21c-4.07,3.24-7.28,7.78-9.22,12.63c-3.59,9-3.6,18.99-3.25,28.68c0.18,5.08,0.45,10.25,2.22,15
			c1.79,4.77,5.31,9.14,10.14,10.69c4.74,1.53,9.9,0.18,14.62-1.42c10.77-3.63,21.09-8.58,30.67-14.7
			c29.3,11.68,63.65,10.18,91.78-4.04c4.99,12.95,15.08,23.93,27.68,29.81c8.55,3.99,18.16,5.61,27.56,4.81
			c1.79-0.58,3.43-1.37,4.94-2.34c1.07-0.7,2.09-1.51,3.05-2.44c1.65-1.57,3.15-3.46,4.46-5.65c2.07-3.45,3.62-7.6,4.48-11.85
			c0.82-3.96,1.15-8.15,1.15-12.58c0-5.36-0.5-11.03-1.18-16.91C1943.84,2559.08,1943.83,2558.96,1943.8,2558.84z"></path>
  <path fill="#516572" d="M1869.68,2942.87c17.36-0.06,34.71-0.12,52.07-0.18c0.37-4.73,0.75-9.47,1.12-14.2
			c-17.74-0.05-35.46-0.07-53.19-0.11C1869.68,2933.21,1869.68,2938.04,1869.68,2942.87z"></path>
  <path fill="#b9c5ce" d="M1914.27,2636.29c-6.57-0.39-12.96-1.84-18.94-4.05c-7.47-2.81-14.16-6.6-20.26-10.7
			c-4.03-2.71-7.84-5.56-11.48-8.38c-4.13,1.4-8.34,2.42-12.56,3.15c-6.71,1.15-13.47,1.59-20.02,1.6
			c-13.22-0.01-25.64-1.77-34.88-3.51c-3.94-0.73-7.29-1.48-9.86-2.09c-3.43,2.38-7.03,4.79-10.84,7.08
			c-3.2,1.93-6.57,3.75-10.15,5.39c-0.23,5.72-0.5,11.43-0.82,17.15c1,32.02,3.29,63.99,9.48,95.39
			c8.58,43.58,25.1,86.38,53.6,120.44c16.2,19.38,36.6,35.7,59.34,46.58c27.79,0.05,55.58,0.11,83.36,0.17
			C1944.53,2816.78,1925.78,2727,1914.27,2636.29z"></path>
  <path fill="#874141" d="M1899.39,2606.16c-12.6-5.88-22.69-16.86-27.68-29.81c-28.13,14.22-62.48,15.72-91.78,4.04
			c-9.58,6.12-19.9,11.07-30.67,14.7c-4.72,1.6-9.88,2.95-14.62,1.42c-4.83-1.55-8.35-5.92-10.14-10.69
			c-1.77-4.75-2.04-9.92-2.22-15c-0.35-9.69-0.34-19.68,3.25-28.68c1.94-4.85,5.15-9.39,9.22-12.63c-2.02-0.29-3.91-0.43-5.61-0.43
			c-1.75-0.01-3.26,0.16-4.53,0.43c-1.26,0.28-2.26,0.67-3.13,1.16c-0.77,0.44-1.41,0.94-2.01,1.54c-0.61,0.6-1.18,1.32-1.73,2.2
			l-0.12,0.22c-1.07,1.76-2,4.15-2.71,7.06c-0.48,2.01-0.86,4.23-1.12,6.57c-0.36,3.13-0.54,6.45-0.64,9.76
			c-0.11,3.45-0.19,6.81-0.19,10.04c-0.01,6.51,0.38,12.49,1.66,17.88c0.7,2.95,1.71,5.83,3.01,8.39c1.29,2.58,2.84,4.82,4.56,6.61
			c1.16,1.2,2.37,2.21,3.69,3.03c1.63,1.02,3.46,1.79,5.5,2.32c2.03,0.52,4.28,0.79,6.64,0.79c1.23,0,2.48-0.07,3.76-0.22
			c2.63-0.29,5.3-0.88,7.86-1.74c4.45-1.47,8.88-3.67,13.41-6.39c1.02-0.6,2.03-1.23,3.04-1.88c3.55-2.27,7.16-4.8,10.88-7.43
			l4.72-3.32l5.54,1.6h0.01v0.01h0.01l0.15,0.04c0.13,0.03,0.35,0.1,0.65,0.18c0.59,0.16,1.49,0.4,2.66,0.67
			c2.35,0.58,5.75,1.36,9.87,2.13c8.24,1.57,19.37,3.1,30.43,3.1c5.46,0,10.92-0.39,15.92-1.25c5.02-0.86,9.6-2.22,13.4-4.05
			l6.77-3.24l5.9,4.65c5.27,4.18,10.39,8.19,15.47,11.59c5.09,3.42,10.14,6.22,15.28,8.14c2.44,0.92,5.01,1.62,7.57,2.06
			c2.24,0.41,4.48,0.62,6.64,0.62c2.69,0,5.26-0.33,7.59-0.94c0.47-0.14,0.94-0.27,1.4-0.44
			C1917.55,2611.77,1907.94,2610.15,1899.39,2606.16z"></path>
  <path fill="#a8aeb2" d="M1827.54,2857.76c-28.5-34.06-45.02-76.86-53.6-120.44c-6.19-31.4-8.48-63.37-9.48-95.39
			c-4.81,88.57-19.32,176.62-43.07,262.09c55.16,0.1,110.33,0.2,165.49,0.32C1864.14,2893.46,1843.74,2877.14,1827.54,2857.76z"></path>
  <path fill="#d0fcfb" d="M1845.6,2942.95c0-4.87,0-9.74,0-14.61c-19.25-0.04-38.5-0.09-57.76-0.11c0.04,4.97,0.06,9.95,0.09,14.93
			C1807.16,2943.08,1826.37,2943.02,1845.6,2942.95z"></path>
  <path fill="#d19180" d="M1746.28,1967.54c-2.12,3.73-3.89,7.41-5.13,10.91c-0.38,1.06-0.71,2.08-0.98,3.11
			c-0.82,2.96-1.23,5.76-1.23,8.48c0,1.39,0.11,2.76,0.32,4.13c0.41,2.42,1.2,4.78,2.36,7.09c1.16,2.32,2.7,4.58,4.58,6.72
			c3.72,4.28,8.81,8.05,14.24,10.68c3.46,1.68,6.86,2.71,10.71,3.52c3.81,0.79,8.05,1.33,12.79,2.04c3.17,0.49,6.56,1.05,10.16,1.89
			c5.46,1.27,10.46,3.24,14.92,5.73c4.49,2.48,8.44,5.46,11.96,8.7c1.31,1.21,2.56,2.45,3.77,3.73c0.65,0.69,1.28,1.38,1.9,2.09
			c4.34,4.91,7.97,10.13,11.32,15.21c3.14,4.78,6.03,9.48,8.9,13.83c3.85,5.82,7.66,10.98,11.78,15.04
			c6.24,6.17,13.52,11.48,21.16,15.16c7.65,3.68,15.58,5.73,23.37,5.72c1.03,0,2.05-0.04,3.07-0.1c7.65-0.53,15.2-3.09,22.37-7.25
			c6.88-3.97,13.32-9.4,18.86-15.59c-16.17,7.02-34.44,9.1-51.52,4.58c-27.14-7.2-48.21-27.79-67.73-48.12
			c-0.66-0.68-1.3-1.35-1.95-2.03l-0.01-0.01c-0.14-0.14-0.28-0.29-0.42-0.43c-17.54-18.33-35.72-37.77-42.18-62.31
			c-7.87-29.8,2.86-58.79,14.83-88.11c-14.23,20.32-28.46,40.62-42.69,60.93C1752.38,1957.77,1749.04,1962.69,1746.28,1967.54z"></path>
  <path d="M1641.31,1634.98c20.97,0,42.03,3.65,61.85,10.67c19.81,7.02,38.39,17.39,54.45,30.76l11.73,9.77l31.12-62.87l-2.27-5.16
			c-8.21-18.61-20.09-35.42-34.58-49.52c-14.51-14.08-31.65-25.48-50.47-33.16c-19.01-7.76-39.44-11.61-59.85-11.61
			c-20.03,0-40.07,3.71-58.78,11.18l-7.43,2.98l-1.85,105.4l15.13-3.63C1613.74,1636.56,1627.5,1634.98,1641.31,1634.98z
			 M1610.87,1554.7c13.61-4.5,28.01-6.76,42.42-6.76c17.39,0,34.76,3.3,50.75,9.82c15.84,6.47,30.43,16.14,42.77,28.14
			c11.02,10.71,20.24,23.26,27.01,36.96l-12.8,25.85c-15.34-10.88-32.17-19.5-49.82-25.75c-22.39-7.94-46.12-12.06-69.89-12.06
			c-10.52,0-21.04,0.81-31.46,2.46L1610.87,1554.7z"></path>
  <path d="M1625.77,1857.83c16.46,11.13,36.37,17.63,57.7,17.63c14.22,0,27.83-2.89,40.19-8.11c18.53-7.85,34.27-20.91,45.4-37.38
			c11.13-16.46,17.64-36.39,17.63-57.72c0-14.22-2.89-27.83-8.12-40.18c-7.83-18.54-20.91-34.28-37.38-45.4
			c-16.46-11.12-36.38-17.64-57.72-17.64c-14.2,0-27.82,2.89-40.17,8.13c-18.54,7.84-34.28,20.91-45.4,37.37
			c-11.13,16.46-17.64,36.38-17.63,57.72c-0.01,14.22,2.89,27.82,8.11,40.17C1596.22,1830.96,1609.3,1846.7,1625.77,1857.83z
			 M1713.01,1802.17c14.67,0,25.58,11.85,26.45,26c0.02,0.16,0.02,0.33,0.03,0.48c0.64,14.31-12.64,26.49-26.48,26.49
			c-5.84,0-11.08-1.88-15.33-5.02c-6.57-4.85-10.78-12.75-11.16-21.47C1685.87,1814.35,1699.15,1802.17,1713.01,1802.17z
			 M1641.18,1702.29c1.55,0,2.97,0.19,4.27,0.54c15,4.07,13.56,29.55-4.27,29.55c-9.77,0-14.61-7.62-14.53-15.19
			C1626.72,1709.71,1631.57,1702.29,1641.18,1702.29z"></path>
  <path fill="#516572" d="M1709.72,2943.42c18.05-0.06,36.08-0.12,54.13-0.19c-0.02-5.02-0.05-10.03-0.09-15.05
			c-16.44-0.04-32.88-0.07-49.32-0.11C1712.9,2933.2,1711.32,2938.32,1709.72,2943.42z"></path>
  <path fill="#ccc4ae" d="M1711.2,1622.96c17.65,6.25,34.48,14.87,49.82,25.75l12.8-25.85c-6.77-13.7-15.99-26.25-27.01-36.96
			c-12.34-12-26.93-21.67-42.77-28.14c-15.99-6.52-33.36-9.82-50.75-9.82c-14.41,0-28.81,2.26-42.42,6.76l-1.02,58.66
			c10.42-1.65,20.94-2.46,31.46-2.46C1665.08,1610.9,1688.81,1615.02,1711.2,1622.96z"></path>
  <path fill="#fff" d="M1697.68,1850.12c4.25,3.14,9.49,5.02,15.33,5.02c13.84,0,27.12-12.18,26.48-26.49
			c-0.01-0.15-0.01-0.32-0.03-0.48c-0.87-14.15-11.78-26-26.45-26c-13.86,0-27.14,12.18-26.49,26.48
			C1686.9,1837.37,1691.11,1845.27,1697.68,1850.12z"></path>
  <path fill="#65c69f" d="M1689.28,2552.76c-0.44,1-0.86,2.01-1.26,3.02c-4.69,11.93-7.12,24.91-7.12,37.82
			c0,17.48,4.45,34.76,13.4,49.34c2.53,4.14,5.7,8.59,8.88,13.51c3.18,4.92,6.4,10.33,8.75,16.58c1.57,4.17,2.74,8.74,3.12,13.65
			c0.09,1.19,0.14,2.38,0.14,3.55c0,3.76-0.46,7.38-1.23,10.81c-0.76,3.43-1.83,6.68-3.07,9.78c-2.48,6.17-5.63,11.71-8.66,16.85
			c-2.03,3.43-4.02,6.67-5.79,9.74c-11.47,19.83-18.57,41.9-23.31,65.26c-4.74,23.33-7.13,47.88-9.38,72.39
			c-5.08,55.2-10.16,110.39-15.24,165.58c54.47-129.66,85.88-269.06,92.39-409.56c-0.95,0.06-1.91,0.08-2.88,0.08
			c-4.17,0-8.44-0.48-12.65-1.56c-4.21-1.09-8.38-2.8-12.28-5.24c-3.09-1.94-5.85-4.23-8.27-6.74c-2.41-2.52-4.48-5.25-6.26-8.1
			c-3.55-5.71-5.92-11.87-7.38-18.06c-1.9-8.12-2.3-15.99-2.3-23.4c0-3.69,0.1-7.28,0.2-10.74
			C1689.13,2555.84,1689.18,2554.33,1689.28,2552.76z"></path>
  <path fill="#ade9da" d="M1598.1,3091.11l0.05,0.01c6.86,1.28,13.93,2.4,21.21,3.33c6.82-73.87,13.61-147.74,20.42-221.6
			c2.27-24.57,4.67-49.97,9.75-74.99c5.08-24.99,12.86-49.67,26.06-72.5c2.99-5.16,6.07-10.03,8.63-14.66
			c2.58-4.61,4.61-8.97,5.74-12.95c0.76-2.66,1.15-5.11,1.15-7.52c0-0.57-0.03-1.12-0.06-1.69c-0.14-1.72-0.49-3.43-1.04-5.22
			c-0.54-1.8-1.31-3.65-2.27-5.6c-1.92-3.89-4.65-8.09-7.7-12.62c-2.02-3.01-4.18-6.17-6.27-9.57
			c-11.5-18.78-16.95-40.4-16.95-61.93c0-15.92,2.97-31.81,8.8-46.63c3.09-7.85,6.99-15.41,11.71-22.48
			c-24.59-6.79-48.62-14.5-72.02-23.13c-7.61-2.79-15.16-5.69-22.62-8.68c-16.88-6.74-33.41-13.95-49.54-21.62l-178.94,57.63
			c-43.9-65.06-99.41-122.27-163.07-168.18l61.99,117.46l17.8,33.72l52.98,100.39l226.65-8.2l25.53-0.93
			c-2.54,8.14-5.13,16.27-7.76,24.38c-4.39,13.5-8.9,26.96-13.55,40.37c-22.9,107.81-62.66,212.02-117.41,307.68
			C1473.19,3032.74,1532.42,3075.07,1598.1,3091.11z M1509.72,2886.56l81.92,84.6l-16.7,13.77l-81.22-89.71L1509.72,2886.56z"></path>
  <path fill="#fff" d="M1641.18,1732.38c17.83,0,19.27-25.48,4.27-29.55c-1.3-0.35-2.72-0.54-4.27-0.54
			c-9.61,0-14.46,7.42-14.53,14.9C1626.57,1724.76,1631.41,1732.38,1641.18,1732.38z"></path>
  <polygon fill="#61c7a0" points="1591.64 2971.16 1509.72 2886.56 1493.72 2895.22 1574.94 2984.93"></polygon>
  <path fill="#516572" d="M1580.46,3256.38l0.56-0.66l-3.84-0.98c-28.96,22.07-63.87,36.3-100.04,40.58
			c-7.49,0.89-15.46,1.23-22.55-0.84c-0.62,1.04-1.18,2.09-1.66,3.1c-0.8,1.67-1.36,3.27-1.65,4.56c-0.2,0.87-0.27,1.59-0.27,2.13
			c0,0.46,0.05,0.8,0.11,1.06c0.07,0.25,0.15,0.45,0.27,0.68c0.15,0.25,0.3,0.43,0.56,0.68c0.27,0.23,0.66,0.52,1.27,0.82
			c1.19,0.62,3.21,1.21,5.65,1.51c1.63,0.2,3.42,0.3,5.23,0.3c0.28,0,0.58,0,0.89,0c14.22-0.22,28.5-2.77,42.9-6.62
			c14.41-3.85,28.92-9,43.54-14.22c4.44-1.59,8.7-3.15,12.55-4.87c3.85-1.71,7.26-3.59,10.05-5.67c1.87-1.38,3.47-2.86,4.84-4.49
			c1.15-1.35,2.18-3.13,2.87-5.06c0.71-1.92,1.06-3.96,1.06-5.74c0-1.62-0.29-3-0.71-4
			C1581.67,3257.63,1581.17,3256.98,1580.46,3256.38z"></path>
  <path fill="#455760" d="M1477.14 3295.32c36.17-4.28 71.08-18.51 100.04-40.58l-54.12-13.71c-13.32 4.34-25.92 10.98-37.18 19.45-11.75 8.87-22 19.7-30.03 31.95-.44.67-.86 1.37-1.26 2.05C1461.68 3296.55 1469.65 3296.21 1477.14 3295.32zM1572.42 3110.16c-.46-.11-.92-.22-1.37-.34l-44.06 107.37 53.01 13.42C1559.97 3194.29 1556.9 3148.66 1572.42 3110.16z"></path>
  <path fill="#a3d3c5" d="M1598.1,3091.11c-65.68-16.04-124.91-58.37-160.73-115.73c54.75-95.66,94.51-199.87,117.41-307.68
			c-34.83,100.86-76.67,199.28-125.16,294.34c-4.41,8.65-8.87,17.28-13.4,25.88c0.73,0.93,1.56,1.97,2.5,3.11
			c1.58,1.91,3.45,4.1,5.61,6.5c4.24,4.72,9.6,10.28,16.11,16.32c19.69,18.27,49.91,40.89,91.83,58.01
			C1551.64,3079.77,1573.54,3086.51,1598.1,3091.11z"></path>
  <path fill="#d19180" d="M1308.48,2210.2c-2.86,11.41-6.36,22.65-10.5,33.65l6.79,26.13c27.83,32.83,59.8,63.4,95.33,91.23
			c31.65,24.82,66.14,47.45,103.07,67.58c8.9,4.85,17.94,9.56,27.11,14.11c5.96,2.96,11.98,5.86,18.06,8.69
			C1450.63,2391.88,1367.31,2308.42,1308.48,2210.2z"></path>
  <path fill="#a3d3c5" d="M1354.21,2528.69l178.94-57.63c-10.44-4.95-20.72-10.1-30.85-15.42l-137.49,62.62l-15.48-24.01l-10.72-16.64
			l-3.35-5.19l-0.09-0.15l-0.01-0.02l-4.4-6.8l-93.65-145.29l-0.16,0.07l-21.94,11.28l-30.83,15.83l6.96,13.17
			C1254.8,2406.42,1310.31,2463.63,1354.21,2528.69z"></path>
  <path fill="#d19180" d="M1211.2,2159.45c10.43,20.45,11.65,44.4,9.68,67.28c-2.57,29.81-10.41,59.11-22.75,86.37l10.67-5.48
			l21.94-11.27l14.78-7.59l1.55,2.39c6.73-10.27,12.8-20.97,18.16-32.02c2.67-5.52,5.16-11.13,7.46-16.81
			c1.22-2.96,2.38-5.93,3.47-8.93c4.12-11.18,7.53-22.61,10.19-34.21c0.11-0.42,0.2-0.85,0.3-1.27c1.5-6.67,2.73-13.43,3.56-20.15
			c0.78-6.22,1.22-12.43,1.22-18.51c0-12.64-1.87-24.73-6.29-35.84c-3.11-7.83-7.97-15.32-13.94-21.47
			c-3.88-4.01-8.21-7.44-12.78-10.11c-2.46-1.44-4.99-2.65-7.55-3.62c-4.9-1.86-9.94-2.84-15.03-2.85c-0.61,0-1.21,0.02-1.84,0.05
			c-0.7,0.03-1.4,0.08-2.1,0.17c-3.8,0.35-7.53,1.24-11.25,2.59c-4.37,1.59-8.71,3.84-12.92,6.63c-0.9,0.6-1.81,1.23-2.7,1.88
			c-6.87,4.97-13.35,11.34-19.12,18.2c-0.48,0.57-0.94,1.13-1.41,1.7c-0.14,0.17-0.27,0.34-0.4,0.52c-2.7,3.33-5.27,6.76-7.69,10.29
			C1191.22,2132.95,1203.89,2145.13,1211.2,2159.45z"></path>
  <path fill="#c1e5e3" d="M1281.69,2279.9c-6.11,11.49-12.93,22.59-20.46,33.23l50.14,77.77l-28.54-109.63
			C1282.43,2280.81,1282.06,2280.35,1281.69,2279.9z"></path>
  <path fill="#d0fcfb" d="M1219.99,2039.78l-27.12-104.18l10.89-18.53l-23.32,6.07l-24.37,6.33l-20.08,5.23
			c1.98,4.72,4.12,9.38,6.41,13.95C1160.39,1984.69,1187.27,2016.28,1219.99,2039.78z"></path>
  <path fill="#e6a089" d="M1220.88,2226.73c1.97-22.88,0.75-46.83-9.68-67.28c-7.31-14.32-19.98-26.5-34.79-32.06
			c-3.7,5.39-7.09,10.99-10.15,16.78c-4.63,8.71-8.53,17.81-11.7,27.2c-6.72,19.92-10.11,41.08-10.11,62.23
			c0,18.46,2.59,36.91,7.76,54.47c4.12,13.94,9.85,27.32,17.22,39.78l28.7-14.75C1210.47,2285.84,1218.31,2256.54,1220.88,2226.73z"></path>
  <path fill="#d19180" d="M1251.64,1694.56c-4.49,7.41-8.78,14.91-12.87,22.49c-7.37,13.66-14.1,27.57-20.16,41.71
			c-4.49,10.48-8.61,21.07-12.34,31.79c-3.81-10.51-8.63-20.67-14.34-30.32c-9.23-15.63-20.78-29.89-34.18-42.08
			c-3.14-2.86-6.35-5.52-9.54-7.71c-3.2-2.21-6.37-3.93-9.43-5.05c-2.05-0.74-4.04-1.24-6.03-1.47c-0.83-0.09-1.68-0.13-2.51-0.13
			c-2.21,0-4.46,0.31-6.75,0.95c-2.28,0.64-4.59,1.59-6.84,2.82c-4.49,2.47-8.74,6.1-12.04,10.24c-3.77,4.71-6.78,10.23-9.26,16.37
			s-4.42,12.87-6.09,19.81c-5.11,21.17-7.61,42.92-7.61,64.73c0,33.6,5.94,67.3,17.33,98.98c0.19,0.54,0.38,1.07,0.59,1.61
			l20.79-5.41c-5.89-15.46-8.79-31.95-8.8-48.41c0.01-21.93,5.16-43.91,15.64-63.46l13.35,7.15c-7.47-10.17-15.56-19.87-24.21-29.05
			l17.5-16.53c14.86,15.75,28.15,32.94,39.66,51.25c6.27,9.96,12,20.25,17.18,30.82c-3.2,14.62-5.71,29.42-7.49,44.37
			c-4.92-14.09-10.88-27.8-17.8-41.02c-5.7-10.89-12.06-21.46-19-31.61c-7.13,14.83-10.75,31.43-10.75,48.08
			c0,14.51,2.75,28.99,8.18,42.3l13.73-3.57l24.78-6.45l34.53-8.98c2.17-55.58,10.82-110.99,25.09-164.78
			C1244.52,1714.3,1247.78,1704.46,1251.64,1694.56z"></path>
  <path fill="#c1e5e3" d="M1167.23,2052.31l9.61,36.92c0.12-0.15,0.25-0.27,0.37-0.39c2.9-2.85,5.96-5.61,9.17-8.2
			c3.54-2.85,7.26-5.52,11.2-7.91c4.66-2.84,9.61-5.28,14.83-7.2c4.28-1.55,8.76-2.74,13.38-3.45l-5.8-22.3
			c-32.72-23.5-59.6-55.09-77.59-91.13c-2.29-4.57-4.43-9.23-6.41-13.95l-14.62,3.8l19.13,11.1l16.71,64.21L1167.23,2052.31z"></path>
</svg>
