<svg width="24" height="24" viewBox="0 0 24 24" fill="none" xmlns="http://www.w3.org/2000/svg">
<g id="material-symbols-light:settings-outline-rounded">
<path id="Vector" d="M10.96 21C10.7274 21 10.5257 20.9237 10.355 20.771C10.1837 20.6183 10.0774 20.428 10.036 20.2L9.77302 18.108C9.45369 18.0113 9.10835 17.86 8.73702 17.654C8.36635 17.4473 8.05069 17.226 7.79002 16.99L5.87502 17.814C5.66369 17.9073 5.44902 17.9173 5.23102 17.844C5.01302 17.7707 4.84502 17.6323 4.72702 17.429L3.64802 15.57C3.53002 15.3667 3.49535 15.154 3.54402 14.932C3.59269 14.71 3.70869 14.528 3.89202 14.386L5.56402 13.136C5.53402 12.9547 5.50969 12.7683 5.49102 12.577C5.47102 12.385 5.46102 12.1987 5.46102 12.018C5.46102 11.85 5.47102 11.6733 5.49102 11.488C5.50969 11.3027 5.53402 11.094 5.56402 10.862L3.89202 9.612C3.70869 9.47 3.59602 9.285 3.55402 9.057C3.51202 8.829 3.54969 8.613 3.66702 8.409L4.72702 6.609C4.84502 6.41767 5.01302 6.28234 5.23102 6.203C5.44902 6.12367 5.66369 6.13067 5.87502 6.224L7.77102 7.028C8.06969 6.77934 8.39302 6.555 8.74102 6.355C9.08769 6.155 9.42535 6.00034 9.75402 5.891L10.037 3.799C10.0777 3.571 10.1837 3.38067 10.355 3.228C10.5264 3.07534 10.728 2.99934 10.96 3H13.04C13.2727 3 13.4744 3.07634 13.645 3.229C13.8164 3.38167 13.9227 3.572 13.964 3.8L14.227 5.912C14.6104 6.04667 14.949 6.201 15.243 6.375C15.537 6.549 15.84 6.767 16.152 7.029L18.144 6.225C18.356 6.13167 18.571 6.12467 18.789 6.204C19.007 6.28334 19.1747 6.41867 19.292 6.61L20.352 8.429C20.47 8.633 20.5047 8.84567 20.456 9.067C20.4074 9.28834 20.2914 9.47067 20.108 9.614L18.36 10.92C18.4147 11.1267 18.4454 11.3163 18.452 11.489C18.4587 11.6617 18.462 11.8317 18.462 11.999C18.462 12.1543 18.4554 12.318 18.442 12.49C18.4294 12.6627 18.4 12.8713 18.354 13.116L20.044 14.386C20.2274 14.528 20.3467 14.71 20.402 14.932C20.4574 15.154 20.426 15.3667 20.308 15.57L19.242 17.409C19.1247 17.613 18.9537 17.7513 18.729 17.824C18.5044 17.8973 18.2864 17.8873 18.075 17.794L16.152 16.97C15.8407 17.232 15.5274 17.4563 15.212 17.643C14.8967 17.8297 14.5684 17.978 14.227 18.088L13.963 20.199C13.9224 20.427 13.8164 20.6173 13.645 20.77C13.4737 20.9227 13.272 20.9993 13.04 21H10.96ZM11 20H12.956L13.325 17.292C13.829 17.1587 14.2824 16.9757 14.685 16.743C15.089 16.5103 15.4997 16.1917 15.917 15.787L18.412 16.85L19.406 15.15L17.217 13.506C17.3004 13.2213 17.3557 12.9593 17.383 12.72C17.4097 12.4813 17.423 12.2413 17.423 12C17.423 11.7467 17.4097 11.5067 17.383 11.28C17.3564 11.0533 17.301 10.8043 17.217 10.533L19.444 8.85L18.45 7.15L15.898 8.22C15.5954 7.88734 15.1977 7.57567 14.705 7.285C14.2117 6.995 13.745 6.80267 13.305 6.708L13 4H11.006L10.694 6.689C10.19 6.79634 9.72669 6.96967 9.30402 7.209C8.88202 7.44767 8.46202 7.776 8.04402 8.194L5.55002 7.15L4.55602 8.85L6.72502 10.47C6.64169 10.694 6.58335 10.9373 6.55002 11.2C6.51669 11.4627 6.50002 11.736 6.50002 12.02C6.50002 12.2733 6.51669 12.525 6.55002 12.775C6.58335 13.025 6.63535 13.2683 6.70602 13.505L4.55602 15.15L5.55002 16.85L8.02502 15.8C8.41769 16.196 8.82502 16.5137 9.24702 16.753C9.66969 16.9923 10.1457 17.1787 10.675 17.312L11 20ZM11.973 14.5C12.6704 14.5 13.2614 14.2577 13.746 13.773C14.2307 13.2883 14.473 12.6973 14.473 12C14.473 11.3027 14.2307 10.7117 13.746 10.227C13.2614 9.74234 12.6704 9.5 11.973 9.5C11.2717 9.5 10.6797 9.74234 10.197 10.227C9.71435 10.7117 9.47302 11.3027 9.47302 12C9.47302 12.6973 9.71435 13.2883 10.197 13.773C10.6797 14.2577 11.2717 14.5 11.973 14.5Z" fill="#454749"/>
</g>
</svg>
