<svg xmlns="http://www.w3.org/2000/svg" xml:space="preserve" viewBox="0 0 24 24" id="stars">
  <path fill="#FED600" d="m18 9.622-4.409-.478L12 5l-1.591 4.144L6 9.622l3.42 2.863L8.39 17 12 14.483 15.609 17l-1.029-4.515z"></path>
  <path fill="#010101" d="M9.467 12.275 6 9.622l3.42 2.863zM14.533 12.275l.047.21L18 9.622zM12 14.233l-3.541 2.47L8.39 17 12 14.483 15.609 17l-.068-.297z" opacity=".05"></path>
  <path fill="#FFF" d="M10.409 9.394 12 5.25l1.591 4.144L18 9.622l-4.409-.478L12 5l-1.591 4.144L6 9.622z" opacity=".2"></path>
  <path fill="#FED600" d="m24 14.111-2.807-.467L20 11l-1.193 2.644-2.807.467 2.077 1.985L17.308 19 20 17.575 22.692 19l-.769-2.904z"></path>
  <path fill="#010101" d="M18.13 15.893 16 14.11l2.077 1.981zM21.87 15.897l.052.2L24 14.11zM20 17.325l-2.615 1.384-.077.291L20 17.575 22.692 19l-.077-.29z" opacity=".05"></path>
  <path fill="#FFF" d="M18.807 13.894 20 11.25l1.193 2.644 2.807.217-2.807-.467L20 11l-1.193 2.644-2.807.467z" opacity=".2"></path>
  <path fill="#FED600" d="m8 14.111-2.807-.467L4 11l-1.193 2.644L0 14.111l2.077 1.985L1.308 19 4 17.575 6.692 19l-.769-2.904z"></path>
  <path fill="#010101" d="M2.13 15.893 0 14.11l2.077 1.981zM5.87 15.897l.052.2L8 14.11zM4 17.325l-2.615 1.384-.077.291L4 17.575 6.692 19l-.077-.29z" opacity=".05"></path>
  <path fill="#FFF" d="M2.807 13.894 4 11.25l1.193 2.644L8 14.111l-2.807-.467L4 11l-1.193 2.644L0 14.111z" opacity=".2"></path>
  <linearGradient id="a" x1="1.997" x2="22.508" y1="9.828" y2="19.393" gradientUnits="userSpaceOnUse">
    <stop offset="0" stop-color="#FFF" stop-opacity=".2"></stop>
    <stop offset="1" stop-color="#FFF" stop-opacity="0"></stop>
  </linearGradient>
  <path fill="url(#a)" d="m18 9.622-4.409-.478L12 5l-1.591 4.144L6 9.622l3.42 2.863L8.39 17 12 14.483 15.609 17l-1.028-4.515L18 9.622zm6 4.49-2.807-.468L20 11l-1.193 2.644-2.807.467 2.077 1.985L17.308 19 20 17.575 22.692 19l-.769-2.904L24 14.11zm-18.807-.468L4 11l-1.193 2.644L0 14.111l2.077 1.985L1.308 19 4 17.575 6.692 19l-.769-2.904L8 14.11l-2.807-.467z"></path>
</svg>
