<svg width="18" height="19" viewBox="0 0 18 19" fill="none" xmlns="http://www.w3.org/2000/svg">
<path id="Union" fill-rule="evenodd" clip-rule="evenodd" d="M9.41918 11.2971C9.31662 11.0169 9.04736 10.8164 8.73214 10.8164C8.41692 10.8164 8.14762 11.0169 8.0451 11.2971L8.73214 11.7878L9.41918 11.2971ZM8.73214 14.7838C8.60423 14.8986 8.4592 14.9926 8.30229 15.0626L8.42906 15.5698H9.03519L9.16199 15.0626C9.00508 14.9926 8.86005 14.8986 8.73214 14.7838ZM14.7995 4.35442C14.8266 4.32886 14.8536 4.30316 14.8801 4.27661C16.0225 3.13427 16.254 1.51367 15.3972 0.656927C14.5405 -0.199811 12.9199 0.0316776 11.7775 1.17402C11.7486 1.20294 11.7205 1.2323 11.6928 1.26181C13.0389 1.91986 14.1355 3.01174 14.7995 4.35442ZM5.77153 1.26181C5.74373 1.23212 5.71547 1.20285 5.68677 1.17402C4.54439 0.0316411 2.92383 -0.199848 2.06705 0.656891C1.21031 1.51363 1.4418 3.13423 2.58415 4.27657C2.61069 4.30312 2.63768 4.32882 2.6647 4.35438C3.32874 3.01174 4.42541 1.91986 5.77153 1.26181ZM2.44239 16.8294C2.53384 16.9023 2.6269 16.9733 2.72148 17.0422C4.33382 18.2148 6.46845 18.8606 8.73214 18.8606C10.9958 18.8606 13.1305 18.2148 14.7428 17.0422C14.8374 16.9733 14.9304 16.9023 15.0219 16.8293C14.3281 14.4781 12.4625 12.6608 10.1429 12.1281L9.28061 12.7441V13.5588C9.28061 13.8612 9.52665 14.1072 9.82907 14.1072C10.1315 14.1072 10.3775 13.8612 10.3775 13.5588C10.3775 13.2559 10.6231 13.0103 10.926 13.0103C11.2289 13.0103 11.4745 13.2559 11.4745 13.5588C11.4745 14.3123 10.9651 14.9488 10.2726 15.1429L9.99551 16.2513C9.96584 16.37 9.89736 16.4753 9.80095 16.5506C9.70454 16.6258 9.58574 16.6667 9.46343 16.6667H8.00086C7.87854 16.6667 7.75974 16.6258 7.66333 16.5506C7.56692 16.4753 7.49844 16.3699 7.46877 16.2513L7.19169 15.1429C6.49923 14.9488 5.98982 14.3123 5.98982 13.5588C5.98982 13.2559 6.23539 13.0103 6.53829 13.0103C6.84118 13.0103 7.08675 13.2559 7.08675 13.5588C7.08675 13.8612 7.33279 14.1072 7.63521 14.1072C7.93764 14.1072 8.18368 13.8612 8.18368 13.5588V12.7441L7.32138 12.1282C5.00174 12.6608 3.1362 14.4781 2.44239 16.8294ZM6.96385 11.0834C5.58479 11.4199 4.31971 12.1497 3.29444 13.2197C2.52418 14.0235 1.93849 14.9681 1.55939 15.9975C0.635558 14.961 0.139526 13.7429 0.139526 12.4618C0.139526 10.5999 1.20117 8.859 3.06467 7.64513V7.34282C3.06467 4.21778 5.6071 1.67535 8.73214 1.67535C11.8572 1.67535 14.3996 4.21778 14.3996 7.34282V7.64513C16.2631 8.859 17.3248 10.5999 17.3248 12.4618C17.3248 13.7429 16.8287 14.961 15.9049 15.9975C15.5258 14.9681 14.9401 14.0235 14.1698 13.2197C13.1445 12.1497 11.8795 11.4199 10.5004 11.0834C10.2944 10.2995 9.57985 9.7195 8.73214 9.7195C7.88443 9.7195 7.16986 10.2995 6.96385 11.0834ZM11.2916 6.79436C10.9887 6.79436 10.7432 7.03992 10.7432 7.34282V8.43975C10.7432 8.74265 10.9887 8.98821 11.2916 8.98821C11.5945 8.98821 11.8401 8.74265 11.8401 8.43975V7.34282C11.8401 7.03992 11.5945 6.79436 11.2916 6.79436ZM6.17264 6.79436C5.86974 6.79436 5.62417 7.03992 5.62417 7.34282V8.43975C5.62417 8.74265 5.86974 8.98821 6.17264 8.98821C6.47554 8.98821 6.7211 8.74265 6.7211 8.43975V7.34282C6.7211 7.03992 6.47554 6.79436 6.17264 6.79436Z" fill="white"/>
</svg>
