<svg xmlns="http://www.w3.org/2000/svg" viewBox="0 0 512 512" id="viking">
  <path fill="#5274bb" d="M211.45 303.39c-3.08-21.1-1.16-30.17 1.17-42.7a52.991 52.991 0 0 0 43.37-20.38l1.19 64.39-45.4.61q-.195-1.01-.33-1.92Z"></path>
  <path fill="#4689d3" d="M301.21 259.49c2.59 10.43 4.95 16.03 4.5 33.35a64.538 64.538 0 0 1-1.43 11.22l-47.1.64-1.19-64.39a58.8 58.8 0 0 0 45.22 19.18Z"></path>
  <path fill="#5274bb" d="M293.53 334.19a73.269 73.269 0 0 1-22.86 25.39l-12.31 8.47-1.18-63.35 47.1-.64a131.781 131.781 0 0 1-7.6 23.61 69.875 69.875 0 0 1-3.15 6.52Z"></path>
  <path fill="#4689d3" d="m257.18 304.7 1.18 63.35-9.38-5.69a76.212 76.212 0 0 1-32.35-40.01 125.069 125.069 0 0 1-4.85-17.04Z"></path>
  <path fill="#d4e1f4" d="M324.47 100.29s81.25-30.47 93.96-82.22a2.763 2.763 0 0 1 5.35 0c23.99 93.57-70.07 131.13-70.07 131.13a104.916 104.916 0 0 0-29.24-48.91zM89.69 86.7c-7.58-18.14-10.46-40.82-3.33-68.63a2.757 2.757 0 0 1 5.34 0c12.71 51.75 90.23 80.78 90.23 80.78l.03.04a104.225 104.225 0 0 0-30.24 48.21c-.85-.34-44.3-17.93-62.03-60.4z"></path>
  <path fill="#4a5160" d="M353.71 149.2a105.3 105.3 0 0 0-69.2-72.62l-54.55-2.26a104.449 104.449 0 0 0-81.68 89.52h208.28a103.8 103.8 0 0 0-2.85-14.64Z"></path>
  <path fill="#6d7486" d="M361.15 163.84H145.48a10 10 0 0 0-10 10v33.66a10 10 0 0 0 10 10h215.67a10 10 0 0 0 10-10v-33.66a10 10 0 0 0-10-10Z"></path>
  <path fill="#bc5e51" d="M351.47 465.55c-23.51-6.15-49.98-21.24-74.15-38.96L256 409.65c-38.16-32.22-74.6-72.43-101.25-104.65l-28.02-36.12-.07-.07c-7.21-9.44-14.1-17.82-16.63-21.27a2.754 2.754 0 0 0-4.09-.38l-14.25 13.18a2.775 2.775 0 0 0-.46 3.53c2.22 3.46 6.38 9.36 14.09 19.42l30.21 37.79c26.2 31.51 61.91 71.24 99.11 105.51L256 445.4c24.6 20.64 50.72 39.17 74.18 50.08a5.54 5.54 0 0 0 6.47-1.31l17.58-19.54a5.556 5.556 0 0 0-2.76-9.08Z"></path>
  <path fill="#88ced8" d="M469.86 277.83c-19.37 8.55-48.65 9.91-63 5.22l-20.95-14.04a92.425 92.425 0 0 1-17.32-22.59c-8.37 4.56-18.64 13.95-25 25.27a110.661 110.661 0 0 0-9.51 22.4 121.934 121.934 0 0 1 23.29 10.76L376.54 321c12.6 14.69 21.89 37.13 14.18 67.41a74.462 74.462 0 0 0 79.14-110.58Z"></path>
  <path fill="#775b84" d="M168.41 271.69a110.661 110.661 0 0 1 9.51 22.4A101.135 101.135 0 0 0 154.75 305a89.622 89.622 0 0 0-19.22 16.08c-13.03 14.71-22.12 36.4-14.25 67.33a74.462 74.462 0 0 1-79.14-110.58c19.37 8.55 50.16 10.8 63.18 5.46a67.685 67.685 0 0 0 21.41-14.41 89.739 89.739 0 0 0 16.68-22.46c8.37 4.56 18.64 13.95 25 25.27Z"></path>
  <path fill="#c79a83" d="m420.31 260.34-14.25-13.18a2.754 2.754 0 0 0-4.09.38c-2.67 3.64-8.22 11.22-16.06 21.47-7.55 9.86-17.23 22.18-28.54 35.84-26.84 32.44-62.87 72.42-101.37 104.8a448.465 448.465 0 0 1-21.36 16.94c-24.77 18.4-50.04 32.66-74.11 38.96a5.556 5.556 0 0 0-2.76 9.08l17.58 19.54a5.54 5.54 0 0 0 6.47 1.31c23.79-11.06 49.17-28.97 74.18-50.08 7.16-6.04 14.28-12.34 21.32-18.81 37.49-34.45 72.85-73.91 99.22-105.59 12.29-14.77 22.63-27.86 30.32-37.95 7.01-9.2 11.82-15.92 13.91-19.18a2.775 2.775 0 0 0-.46-3.53Z"></path>
  <path fill="#5f6877" d="M211.96 98.89a104.268 104.268 0 0 1 43.606-23.509L229.96 74.32a104.449 104.449 0 0 0-81.68 89.52h30a104.526 104.526 0 0 1 33.68-64.95Z"></path>
  <path fill="#838a9b" d="M165.48 207.5v-33.66a10 10 0 0 1 10-10h-30a10 10 0 0 0-10 10v33.66a10 10 0 0 0 10 10h30a10 10 0 0 1-10-10Z"></path>
  <path fill="#d9bb4b" d="M228.74 192.07h56.09v25.43h-56.09z"></path>
  <path fill="#eeaf42" d="M228.74 163.84h56.09v28.23h-56.09z"></path>
  <path fill="#d9bb4b" d="M228.74 134.84h56.09v29h-56.09zM229.96 74.32a9.59 9.59 0 0 1 1.12-1.65l20.66-24.64a6.568 6.568 0 0 1 10.09 0l20.66 24.64a9.963 9.963 0 0 1 2.34 6.43v19.75h-56.09V79.1a9.935 9.935 0 0 1 1.22-4.78Z"></path>
  <path fill="#eeaf42" d="M228.74 98.85h56.09v35.99h-56.09z"></path>
  <path fill="#284268" d="M429.59 16.577a8.752 8.752 0 0 0-8.5-6.577h-.045a8.613 8.613 0 0 0-8.443 6.637c-10.387 42.3-71.822 70.371-86.9 76.679a110.522 110.522 0 0 0-36.666-21.525 15.937 15.937 0 0 0-1.953-2.971l-20.651-24.648a12.587 12.587 0 0 0-19.3 0l-20.651 24.647c-.054.065-.1.135-.152.2a110.354 110.354 0 0 0-45.439 22.94c-14.3-6.006-72.964-32.993-83.359-75.322A8.611 8.611 0 0 0 89.089 10h-.045a8.751 8.751 0 0 0-8.5 6.576c-7.478 29.17-4.278 52.893 3.32 71.581a5.941 5.941 0 0 0 .662 1.6 109.742 109.742 0 0 0 21.147 32.03 138.445 138.445 0 0 0 38.941 28.677q-.906 3.741-1.547 7.577a15.99 15.99 0 0 0-13.587 15.8V207.5a16 16 0 0 0 16 16h215.67a16 16 0 0 0 16-16v-33.659a15.988 15.988 0 0 0-15.418-15.971q-.452-2.644-1.029-5.249a151.1 151.1 0 0 0 41.334-29.715c19.792-20.339 40.635-55.296 27.553-106.329zm-315.462 96.681A98.966 98.966 0 0 1 97.059 88.6l4.957-3.813a6 6 0 1 0-7.316-9.516l-2.24 1.722q-6.733-21.264-2.7-46c8.045 18.624 24.317 36.034 48.537 51.891a242.977 242.977 0 0 0 33.115 18.059 110.529 110.529 0 0 0-23.264 37.847 127.5 127.5 0 0 1-34.02-25.532zm108.616 44.583h-9.176a6 6 0 1 0 0 12h9.176V211.5h-77.26a4 4 0 0 1-4-4v-19.919h2.236a6 6 0 0 0 0-12h-2.236v-1.74a4 4 0 0 1 4-4h28.084a6 6 0 0 0 0-12H155.3a98.613 98.613 0 0 1 67.441-75.4zm56.082 53.659h-44.082v-13.427h44.082zm0-25.427h-44.082v-16.232h44.082zm0-28.232h-44.082v-17h44.082zm0-29h-44.082v-23.988h44.082zm0-35.989h-44.082V79.1a4.007 4.007 0 0 1 .934-2.57l20.656-24.646a.587.587 0 0 1 .9 0l20.657 24.648a4.008 4.008 0 0 1 .934 2.569zm12-7.517a99.323 99.323 0 0 1 58.719 72.505h-58.719zm70.328 84.505a4 4 0 0 1 4 4v19.96h-2.161a6 6 0 0 0 0 12h2.161v1.7a4 4 0 0 1-4 4h-70.328v-41.659zm-3.744-29a111.445 111.445 0 0 0-22.5-38.4 262.766 262.766 0 0 0 35.027-18.812 196.378 196.378 0 0 0 20.531-15.06l1.42 1.42a6 6 0 0 0 8.486-8.484l-1.048-1.047c9.525-9.483 16.563-19.329 21.022-29.488 5.061 31.762-3.868 59.735-26.628 83.283a140.19 140.19 0 0 1-36.31 26.59zM301.042 253.5a52.62 52.62 0 0 1-20.336-3.429 53.488 53.488 0 0 1-20.294-13.806 6 6 0 0 0-9.149.357 46.958 46.958 0 0 1-38.472 18.071 6.027 6.027 0 0 0-6.073 4.9l-.216 1.156c-2.3 12.337-4.112 22.082-.987 43.512.929 6.367 3.475 14.427 5.446 20.067a82.415 82.415 0 0 0 34.908 43.157l9.378 5.7a6 6 0 0 0 6.516-.185l12.307-8.467a79.22 79.22 0 0 0 24.722-27.461l.02-.037a80.048 80.048 0 0 0 3.393-7.028c5.786-13.695 9.251-27.184 9.5-37.007.4-15.591-1.433-22.56-3.561-30.63-.361-1.371-.736-2.793-1.116-4.319a6.037 6.037 0 0 0-5.986-4.551zM215.9 286.749h3.546a6 6 0 1 0 0-12h-3.055c.314-2.752.742-5.4 1.235-8.145a58.487 58.487 0 0 0 32.624-12.21l.824 44.385-34.135.459c-.613-4.781-.934-8.853-1.039-12.489zm36.2 70.479a70.393 70.393 0 0 1-29.809-36.863 160.453 160.453 0 0 1-2.915-9.159l31.923-.43.864 46.49zm39.053-31.9a64.646 64.646 0 0 1-1.3 2.86h-6.583a6 6 0 0 0-.737 11.951 67.291 67.291 0 0 1-15.264 14.5l-3.115 2.142-.858-46.17 33.258-.447a136.86 136.86 0 0 1-5.403 15.168zm8.563-32.647a48.025 48.025 0 0 1-.49 5.445l-36.151.487-.834-44.9a64.407 64.407 0 0 0 34.314 11.739c2.045 7.754 3.518 13.371 3.159 27.233z"></path>
  <path fill="#284268" d="M179.759 137.178a5.993 5.993 0 0 0 7.765-3.421c.064-.166 6.794-16.694 19.068-19.609a6 6 0 0 0-2.773-11.675c-18.536 4.4-27.125 26.022-27.481 26.94a6 6 0 0 0 3.421 7.765zm287.684 135.163c-14.684 6.478-35.88 8.509-50.183 6.772 4.306-5.789 7.239-9.942 8.563-12.011a8.761 8.761 0 0 0-1.435-11.164l-14.252-13.181a8.752 8.752 0 0 0-13 1.235l-.583.794q-5.578 7.594-11.19 15.011a83.359 83.359 0 0 1-11.394-16.032 6 6 0 0 0-8.246-2.612c-10.377 5.646-21.118 16.48-27.366 27.6a116.883 116.883 0 0 0-10.026 23.609 6 6 0 0 0 3.931 7.445 115.021 115.021 0 0 1 15.883 6.763q-20.3 24.229-40.714 45.8a699.359 699.359 0 0 1-51.381 49.433c-36.016-31-69.154-67.76-92.14-95.181a91.9 91.9 0 0 1 15.676-6.77 6 6 0 0 0 4.085-7.491 116.883 116.883 0 0 0-10.026-23.609c-6.248-11.121-16.989-21.955-27.366-27.6a6 6 0 0 0-8.246 2.613 83.093 83.093 0 0 1-10.877 15.87c-2.4-3.077-4.668-5.932-6.629-8.4-2.555-3.217-4.573-5.76-5.661-7.24a8.751 8.751 0 0 0-13-1.236l-14.254 13.179a8.761 8.761 0 0 0-1.435 11.162c1.919 3 4.9 7.208 8.845 12.511-13.547 1.685-35.443-.644-50.465-7.272a6 6 0 0 0-7.607 2.471 80.462 80.462 0 0 0 85.528 119.48 6 6 0 0 0 4.612-7.359c-5.558-21.834-2.675-40.731 8.543-56.383 19.238 22.85 52.5 60.671 89.643 95.519-24.041 17.149-46.188 28.426-66.268 33.681a11.545 11.545 0 0 0-5.7 18.889l17.577 19.545a11.472 11.472 0 0 0 8.55 3.827 11.618 11.618 0 0 0 4.91-1.094c23.14-10.761 47.58-27.715 71.682-47.7 26.21 21.605 50.9 38.062 71.619 47.7a11.625 11.625 0 0 0 4.912 1.1 11.473 11.473 0 0 0 8.55-3.828l17.576-19.544a11.545 11.545 0 0 0-5.7-18.889c-23.433-6.132-48.021-20.955-66.191-33.74 33.556-31.43 64.979-66.3 89.506-95.479 8.407 12.2 15.125 30.779 8.6 56.4a6 6 0 0 0 4.612 7.359 80.465 80.465 0 0 0 85.528-119.48 6 6 0 0 0-7.596-2.473zm-125.849 18.1a104.775 104.775 0 0 1 7.224-15.813 64.066 64.066 0 0 1 17.731-19.8 102.617 102.617 0 0 0 11.411 14.64q-10.954 14.193-22 27.667a132.858 132.858 0 0 0-14.366-6.691zM107.4 253.981a887.488 887.488 0 0 0 3.726 4.713c2.184 2.751 4.751 5.987 7.451 9.46a61.093 61.093 0 0 1-11.391 7.679c-4.051-5.357-7.212-9.7-9.414-12.947zm6.632 129.509a68.456 68.456 0 0 1-69.132-98.1c20.431 7.346 48.884 9.116 62.7 3.462 19.788-8.1 32.328-24.92 37.923-33.966a64.061 64.061 0 0 1 17.662 19.749 104.621 104.621 0 0 1 7.2 15.755A109.771 109.771 0 0 0 138.7 309.5c-15.414 13.559-31.691 37.192-24.667 73.99zm29.54-62.142a78.994 78.994 0 0 1 2.767-2.59A85.024 85.024 0 0 1 153.6 313c23.011 27.542 56.508 64.857 93.14 96.616q-5.9 4.824-11.649 9.208c-38.16-35.603-72.413-74.711-91.518-97.476zM349.26 471.176 332.421 489.9c-19.321-9.031-42.406-24.377-67.081-44.56q6.251-5.4 12.442-11.014c19.029 13.581 45.641 29.922 71.478 36.85zm-20.291-104.952c-39.869 43.224-98.125 99.725-149.39 123.676l-16.839-18.724c91.46-24.47 198.435-158.226 241.909-217.148l9.573 8.853c-9.647 14.138-43.191 57.746-85.253 103.343zm132.063-10.59a68.511 68.511 0 0 1-63.073 27.855c5.369-28.511-3.64-49.141-13.719-62.484 9.756-11.827 18.166-22.438 24.865-31.133 14.8 3.329 38.988 2.314 57.993-4.488a68.7 68.7 0 0 1-6.066 70.25z"></path>
  <path fill="#284268" d="M80.288 350.1c-7.052-2.4-11.921-7.578-14.47-15.393a38.1 38.1 0 0 1-1.812-12.207 6 6 0 0 0-11.982-.67c-.612 10.632 3.7 32.6 24.4 39.639a6 6 0 0 0 3.864-11.369zm374.724-33.91a6.01 6.01 0 0 0-5.669 6.3 38.1 38.1 0 0 1-1.812 12.217c-2.55 7.815-7.418 12.994-14.47 15.393a6 6 0 1 0 3.863 11.361c20.7-7.039 25.013-29.007 24.4-39.639a5.988 5.988 0 0 0-6.312-5.632z"></path>
</svg>
