<svg xmlns="http://www.w3.org/2000/svg" viewBox="0 0 200 132.38" id="wings">
  <path d="M74.64,117.11a7.23,7.23,0,0,1-.82,2.21c-.85,1.08-1,2.35-1.43,3.54a55.05,55.05,0,0,1-2.13,5.08,7.73,7.73,0,0,1-1.75,2.2A2.41,2.41,0,0,1,64.8,130a10.12,10.12,0,0,1-1.87-3c-.68-1.8-1.1-3.7-1.66-5.69l-1,.68c-2.77,2-5.44,1.24-6.62-2a13,13,0,0,1-.14-7.64,19.63,19.63,0,0,1,3.09-6.75c.28-.39.56-.8,1-1.42-.67.18-1.09.28-1.5.41a40.51,40.51,0,0,1-14.4,2,51.4,51.4,0,0,1-6-.88,3.61,3.61,0,0,1-1.47-.69.8.8,0,0,1,.12-1.45,8,8,0,0,1,1.54-.53c2.11-.58,4.24-1.09,6.32-1.75a15.15,15.15,0,0,0,5-2.65c.37-.29.69-.64,1.28-1.2a22.49,22.49,0,0,1-8.2-.33,23.84,23.84,0,0,1-9.47-4.54,16,16,0,0,1-1.24-1.08C28.31,90.27,27.28,89,27.74,87l-2.51-.65a32.15,32.15,0,0,1-12-6.16,13.16,13.16,0,0,1-1.79-1.79,1.66,1.66,0,0,1-.38-1.93,1.52,1.52,0,0,1,1.73-.59,19.64,19.64,0,0,1,2.75.65,43.19,43.19,0,0,0,8.82,2.15,37,37,0,0,0,10.56-.31c-2-.22-3.94-.42-5.9-.68a53.06,53.06,0,0,1-16.34-4.47,29.16,29.16,0,0,1-8.13-5.74A7.05,7.05,0,0,1,3.36,66a1,1,0,0,1,.91-1.69,9.11,9.11,0,0,1,2.08.15c2.54.42,5.07.86,7.61,1.3l.11-.3c-.25-.17-.49-.37-.76-.52-1.16-.68-2.33-1.33-3.48-2a9.75,9.75,0,0,1-1.32-1c-.7-.59-1.42-1.23-1.07-2.27s1.25-1.2,2.15-1.35c.67-.11,1.35-.16,2.4-.27l-1.51-1.16A29.75,29.75,0,0,1,1.39,45.76,32.73,32.73,0,0,1,.12,42,2.84,2.84,0,0,1,0,41.07c0-1.4.85-2,2.17-1.55a11.41,11.41,0,0,1,2.1,1.11c1.34.85,2.66,1.75,4,2.62.33.22.68.39,1.29.73-.27-.57-.4-.91-.58-1.23A37.9,37.9,0,0,1,4.53,30a9.34,9.34,0,0,1-.09-2.53c.13-1.38,1.08-1.76,2.19-.91a9,9,0,0,1,1.14,1.17A4.73,4.73,0,0,0,8.88,28.8c-.23-1-.47-2-.68-2.95a44.5,44.5,0,0,1-1-9.62,9.64,9.64,0,0,1,.31-2.51c.35-1.27,1.39-1.47,2.2-.43a8.07,8.07,0,0,1,1,1.83c.54,1.28,1,2.59,1.53,3.88A38.15,38.15,0,0,0,19,29.65c.16.18.36.32.79.71-.22-.67-.3-1-.45-1.39a56.62,56.62,0,0,1-4.11-16.44c-.33-3-.48-5.95-.68-8.92a10,10,0,0,1,.11-2.38A1.77,1.77,0,0,1,15.38.07c.52-.26.93.23,1.17.68.42.79.81,1.6,1.17,2.41,1.81,4.09,3.48,8.26,5.45,12.27A56.56,56.56,0,0,0,33,29.77a14,14,0,0,0,2.74,2.31c-.18-.32-.38-.63-.55-1-.78-1.61-1.61-3.19-2.29-4.84-.29-.7-.56-1.64.24-2.2s1.44,0,2,.46c1.42,1,2.83,2.05,4.19,3.13a121.38,121.38,0,0,0,15.8,11c2.16,1.22,4.42,2.27,6.64,3.4a1.25,1.25,0,0,0,.92.1c-.4-.41-.82-.8-1.2-1.23-1.11-1.27-2.2-2.56-3.29-3.85a2,2,0,0,1-.45-.77,5.81,5.81,0,0,1-.08-1.11,3.64,3.64,0,0,1,1.23,0,9.12,9.12,0,0,1,1.71.92A125,125,0,0,1,75.48,47.41a130.17,130.17,0,0,1,11.18,11,37.13,37.13,0,0,1,8,13.19,19.34,19.34,0,0,1,.56,4.71c.72,11.59-2,22.52-6.4,33.12-1.61,3.9-3.48,7.7-5.18,11.57-1.31,3-2.54,5.94-3.81,8.92a12.14,12.14,0,0,1-.82,1.75c-.63,1-1.45,1-2.11,0a9.28,9.28,0,0,1-.9-1.88,24.41,24.41,0,0,1-1.32-7.62C74.61,120.44,74.64,118.75,74.64,117.11Zm12-46,.15-.25c-.38-.38-.76-.77-1.16-1.14-3.15-2.82-6.29-5.65-9.46-8.45-8.86-7.84-18.21-15-29.07-19.91a29.79,29.79,0,0,1-7.64-5.16,11.14,11.14,0,0,0-1-.69c-1.33-1-2.75-1.81-4-2.88-4.75-4.15-8.24-9.28-11.29-14.73a109.16,109.16,0,0,1-6.35-14c-.3-.76-.66-1.49-1-2.24l-.37.07c0,.57-.07,1.13-.05,1.7A91.69,91.69,0,0,0,17,17.66a46.31,46.31,0,0,0,7.92,19.13,52.33,52.33,0,0,0,16.6,14.55,158.46,158.46,0,0,0,20,9.3c4.74,1.92,9.52,3.76,14.25,5.71,3,1.23,5.92,2.59,8.88,3.89C85.33,70.54,86,70.81,86.68,71.1ZM67.62,64.62l.08-.34c-.3-.14-.6-.29-.91-.41-2.9-1.18-5.81-2.34-8.7-3.53a135.26,135.26,0,0,1-18.38-8.89A51.19,51.19,0,0,1,22.09,34.39a8.37,8.37,0,0,0-1.37-1.55,39.71,39.71,0,0,1-10.08-15c-.4-1.08-.83-2.13-1.29-3.18a4.74,4.74,0,0,0-.63-.86l-.32.08a25.52,25.52,0,0,0-.22,2.61,41.45,41.45,0,0,0,4.5,18.82A55.32,55.32,0,0,0,23.42,49.57a65.88,65.88,0,0,0,17.77,12.7,20.93,20.93,0,0,0,6.51,2c.36,0,.88,0,1.08-.17A4.26,4.26,0,0,1,52.37,63c2.68.18,5.34.47,8,.75C62.8,64,65.21,64.34,67.62,64.62ZM5.7,27.06a3.25,3.25,0,0,0-.23,2.35A37.57,37.57,0,0,0,8.84,40.34,38.35,38.35,0,0,0,22,54.94a57.76,57.76,0,0,0,9.53,5.25c.5.22,1.19.28,1.31,1.24a3.13,3.13,0,0,1-1,0A18.66,18.66,0,0,1,30,60.65c-6.57-3-12.56-6.93-17.24-12.54a15.15,15.15,0,0,0-4.4-3.69c-1.74-1-3.35-2.14-5.05-3.18A3.18,3.18,0,0,0,1,40.47a10.16,10.16,0,0,0,.32,2.24A35.82,35.82,0,0,0,3.77,48,30.7,30.7,0,0,0,18,60.06,66.52,66.52,0,0,0,29.5,63.64c6.29,1.49,12.65,2.68,18.82,4.67.06,0,.16,0,.33-.11l-.43-2.74c-4.5-.59-8.41-2.52-12.19-4.78A71.69,71.69,0,0,1,22.32,49.93,53.22,53.22,0,0,1,11.69,35.61a51,51,0,0,0-4.6-7.13A12.21,12.21,0,0,0,5.7,27.06Zm6.15,49.88A6.12,6.12,0,0,0,14,79.52a32.47,32.47,0,0,0,16.29,6.82,68.76,68.76,0,0,0,14,.35,77.35,77.35,0,0,0,18.63-3.84,2.32,2.32,0,0,0,1-.56c1.08-1.21,2.1-2.46,3.18-3.74-1.68,0-3.35.07-5,0a8.52,8.52,0,0,1-5.31-1.65,1.51,1.51,0,0,0-1.39-.2,117,117,0,0,1-14.35,1.69,8.83,8.83,0,0,0-1.75.32,40.39,40.39,0,0,1-16.12.8c-2.73-.46-5.38-1.35-8.07-2A6.84,6.84,0,0,0,11.85,76.94Zm82.33-.17c.2-3-.34-5.62-2.48-7.69-.32-.31-.57-.7-.89-1-3.22-3.18-6.34-6.46-9.68-9.51C76.35,54.2,71.4,50,66.56,45.73A9.33,9.33,0,0,0,63.85,44,89,89,0,0,1,42.34,31.25c-2.25-1.73-4.48-3.48-6.74-5.19a18.16,18.16,0,0,0-1.68-1l-.29.24c.36.95.65,1.94,1.09,2.86a24.31,24.31,0,0,0,7.11,8.71,40.75,40.75,0,0,0,7.8,4.66A76.74,76.74,0,0,1,61,48a216.6,216.6,0,0,1,32.7,28.46A3,3,0,0,0,94.18,76.77ZM62.83,84.05c-.48.11-.81.17-1.12.27a75.23,75.23,0,0,1-17.07,3.35,68.07,68.07,0,0,1-14.27-.31c-.57-.08-1.25-.37-1.64.28s0,1.26.34,1.79a8.34,8.34,0,0,0,1.16,1.35,22.69,22.69,0,0,0,2.46,1.93c5.91,3.83,12.25,5.21,19,2.79,3.35-1.2,6.53-2.86,9.88-4.35C60.85,88.61,62.05,86.46,62.83,84.05ZM56,75.42V75c-.72-.08-1.44-.17-2.16-.23-1.88-.16-3.77-.23-5.65-.46a136.36,136.36,0,0,1-28.1-6.6c-1.94-.67-3.82-1.38-5.91-1.15a4.08,4.08,0,0,1-1-.1c-2.51-.38-5-.77-7.52-1.14a12.81,12.81,0,0,0-1.57,0c.69.78,1.1,1.32,1.59,1.79a29.2,29.2,0,0,0,9.48,6.08c6.44,2.6,13.21,3.62,20.07,4.1,6.65.46,13.2-.47,19.73-1.57A11.05,11.05,0,0,0,56,75.42ZM76.08,96.69a7.1,7.1,0,0,1-1.61-.59,2.21,2.21,0,0,0-2.73.26,20.42,20.42,0,0,0-8.15,10.71,32.86,32.86,0,0,0-1.06,14.45,17.39,17.39,0,0,0,2,6.51c1.42,2.37,2.82,2.45,4.38.19a22.09,22.09,0,0,0,3-7.11,1.64,1.64,0,0,0-.33-1.36,14,14,0,0,1-1.7-3.44c-1.78-6.55-.45-12.38,4.28-17.36C74.83,98.24,75.43,97.46,76.08,96.69ZM8.31,60.11A3.71,3.71,0,0,0,10,61.79a74.75,74.75,0,0,0,7,3.64,119.34,119.34,0,0,0,26.11,7.12c4,.69,8.2.82,12.29,1.36,1.45.19,2.39-.44,3.6-1.26-1-.1-1.7-.19-2.44-.25A11.28,11.28,0,0,1,50,70.06a2.75,2.75,0,0,0-.94-.41c-1.66-.53-3.3-1.12-5-1.53-4.58-1.13-9.18-2.2-13.77-3.26-5.58-1.29-11.1-2.74-16.14-5.58-1.14-.64-4.48-.29-5.6.47C8.44,59.8,8.41,59.92,8.31,60.11Zm27,44.14v.25a8.57,8.57,0,0,0,1.36.43,54.33,54.33,0,0,0,6.06.7,42.67,42.67,0,0,0,14.07-2.32,11.67,11.67,0,0,0,4-2.14,26.13,26.13,0,0,1,4-2.6c1.51-.85,3.11-1.55,4.66-2.35,1.36-.72,2.88-1.19,3.68-2.76.32-.62,1.13-1,1.72-1.46a5.84,5.84,0,0,0-1.72.51c-1.66.69-3.29,1.42-5,2.06a25.8,25.8,0,0,1-3,.88,1.43,1.43,0,0,1-1.64-.39,1.46,1.46,0,0,1,.13-1.68c.46-.77,1-1.5,1.46-2.26.17-.26.33-.53.61-1-1.33.72-2.38,1.36-3.49,1.88-1.93.9-3.89,1.76-5.85,2.61-1.69.74-3.37,1.49-5.08,2.15a7.19,7.19,0,0,0-2.12,1.32,28.87,28.87,0,0,1-4.06,3,26.26,26.26,0,0,1-7.59,2.61C36.86,103.85,36.1,104.06,35.34,104.25ZM62.68,90.71a18.31,18.31,0,0,0,1.59-1c1.44-1.06,2.82-2.21,4.3-3.21a33,33,0,0,1,12.37-5.32,1.81,1.81,0,0,0,1.3-1.08c1.29-2.24,2.61-4.46,3.9-6.69.2-.33.35-.69.58-1.16-.94-.41-1.81-.76-2.64-1.18a1.75,1.75,0,0,0-1.69,0c-2.72,1.34-5.48,2.59-8.17,4A32.13,32.13,0,0,0,67.31,80a16,16,0,0,0-4.8,8.25A3.33,3.33,0,0,0,62.68,90.71Zm15.08,40.46.38,0c.28-.63.56-1.26.83-1.89,1.38-3.19,2.73-6.39,4.13-9.57.92-2.09,1.87-4.17,2.9-6.21a1.85,1.85,0,0,0-.32-2.26c-1.63-2.18-3.15-4.45-4.71-6.68l-.54-.79a2,2,0,0,0-.28.3,37.69,37.69,0,0,0-4.52,15.77A25.44,25.44,0,0,0,77,129.62C77.22,130.15,77.51,130.66,77.76,131.17ZM94.19,83.43c-.18,0-.25,0-.27.08l-.54,1.22a25.6,25.6,0,0,1-5.55,8.59,13.21,13.21,0,0,1-6.68,3.73l-1,.24c-.08,5.8,3.51,9.64,6.84,13.91C90.78,102.13,93.63,93.11,94.19,83.43ZM75.34,67.51a11.85,11.85,0,0,0-5.55-1.77c-4.25-.43-8.49-1-12.74-1.37a42.21,42.21,0,0,0-5.94-.23c-1.48.07-1.94.9-1.73,2.37A4.64,4.64,0,0,0,52,70.23a15.1,15.1,0,0,0,6.67,1.35,17.23,17.23,0,0,0,4.87-.4C67.49,70.1,71.33,68.77,75.34,67.51Zm-7.83,31a21.57,21.57,0,0,0-4.81,2.58,19.1,19.1,0,0,0-8.54,13.73,9.46,9.46,0,0,0,.86,5.66,2.67,2.67,0,0,0,3.88,1.26A8.31,8.31,0,0,0,60,121a2.73,2.73,0,0,0,1.21-2.52,52.45,52.45,0,0,1,.26-6.39,21.7,21.7,0,0,1,5.42-12.8C67.07,99.1,67.18,98.91,67.51,98.47ZM87.58,72.79C85.81,76,84,79,82.35,82.18a12.08,12.08,0,0,0-1,2.95,4.52,4.52,0,0,0,.07,1.9,1.67,1.67,0,0,0,1.82,1.42,5.72,5.72,0,0,0,3.25-.92,18,18,0,0,0,7.08-8,1.56,1.56,0,0,0-.27-1.9c-1-1.11-2-2.24-2.91-3.38A4.25,4.25,0,0,0,87.58,72.79Zm-5.74-2.65c-1-.41-1.68-.69-2.37-1a5.35,5.35,0,0,0-3.89-.43,148.44,148.44,0,0,0-16.71,5.38,6.63,6.63,0,0,0-.8.4c-1.25.76-1.25,1.41.09,2.1a8.51,8.51,0,0,0,2.24.78,19.07,19.07,0,0,0,7.26,0,6.24,6.24,0,0,0,2.22-.77,67.69,67.69,0,0,1,10.59-5.74C80.86,70.67,81.23,70.45,81.84,70.14ZM79,97.31a1.57,1.57,0,0,0-1.92.35,19.13,19.13,0,0,0-4.89,5.56,16.17,16.17,0,0,0-1.11,13.66,4.85,4.85,0,0,0,1.61,2.49c.27-.74.53-1.31.68-1.91a49.44,49.44,0,0,1,6-14.68,1.65,1.65,0,0,0,.31-1C79.53,100.31,79.27,98.81,79,97.31Zm2.11-15.15a5.3,5.3,0,0,0-.92.1,34,34,0,0,0-8.5,3.53,10.18,10.18,0,0,0-2.43,1.94c-1.38,1.56-2.63,3.24-3.9,4.89a15.74,15.74,0,0,0-1,1.74,4.41,4.41,0,0,0,1.23,0c5.1-1.91,10.19-3.84,15.35-5.79C79.7,86.51,80.32,84.42,81.14,82.16ZM59.52,36.61l-.23.24a27.21,27.21,0,0,0,1.76,2.08c3.47,3.28,6.9,6.6,10.46,9.77,6.55,5.81,13.33,11.36,19.28,17.81.12.12.27.22.4.33a1.79,1.79,0,0,0-.34-1.11c-1.72-2.31-3.3-4.75-5.21-6.89A133.53,133.53,0,0,0,61.12,37.6C60.6,37.25,60.06,36.94,59.52,36.61ZM73.68,94.4c.17.21.22.32.3.35,3.52,1.66,7,2.11,10.5-.11A15.89,15.89,0,0,0,86.62,93a24.48,24.48,0,0,0,6.18-9.55c0-.08,0-.21-.09-.36-1,1.16-2,2.32-3.06,3.34a9.6,9.6,0,0,1-6.61,3,2.49,2.49,0,0,0-1,.23c-2.35,1.17-4.7,2.35-7,3.57A8,8,0,0,0,73.68,94.4Z"></path>
  <path fill="#f99927" d="M86.68,71.1c-.68-.29-1.35-.56-2-.86-3-1.3-5.89-2.66-8.88-3.89-4.73-1.95-9.51-3.79-14.25-5.71a158.46,158.46,0,0,1-20-9.3,52.33,52.33,0,0,1-16.6-14.55A46.31,46.31,0,0,1,17,17.66,91.69,91.69,0,0,1,15.52,3.44c0-.57,0-1.13.05-1.7l.37-.07c.33.75.69,1.48,1,2.24a109.16,109.16,0,0,0,6.35,14c3,5.45,6.54,10.58,11.29,14.73,1.22,1.07,2.64,1.93,4,2.88a11.14,11.14,0,0,1,1,.69,29.79,29.79,0,0,0,7.64,5.16C58,46.29,67.35,53.42,76.21,61.26c3.17,2.8,6.31,5.63,9.46,8.45.4.37.78.76,1.16,1.14Z"></path>
  <path fill="#fcbf49" d="M67.62,64.62c-2.41-.28-4.82-.59-7.24-.84-2.67-.28-5.33-.57-8-.75a4.26,4.26,0,0,0-3.59,1.11c-.2.22-.72.21-1.08.17a20.93,20.93,0,0,1-6.51-2,65.88,65.88,0,0,1-17.77-12.7A55.32,55.32,0,0,1,12.68,35.35a41.45,41.45,0,0,1-4.5-18.82,25.52,25.52,0,0,1,.22-2.61l.32-.08a4.74,4.74,0,0,1,.63.86c.46,1.05.89,2.1,1.29,3.18a39.71,39.71,0,0,0,10.08,15,8.37,8.37,0,0,1,1.37,1.55A51.19,51.19,0,0,0,39.71,51.45a135.26,135.26,0,0,0,18.38,8.89c2.89,1.19,5.8,2.35,8.7,3.53.31.12.61.27.91.41Z"></path>
  <path fill="#fcbf49" d="M5.7 27.06a12.21 12.21 0 011.39 1.42 51 51 0 014.6 7.13A53.22 53.22 0 0022.32 49.93 71.69 71.69 0 0036 60.68c3.78 2.26 7.69 4.19 12.19 4.78l.43 2.74c-.17.06-.27.13-.33.11-6.17-2-12.53-3.18-18.82-4.67A66.52 66.52 0 0118 60.06 30.7 30.7 0 013.77 48a35.82 35.82 0 01-2.43-5.26A10.16 10.16 0 011 40.47a3.18 3.18 0 012.33.77c1.7 1 3.31 2.23 5.05 3.18a15.15 15.15 0 014.4 3.69C17.48 53.72 23.47 57.6 30 60.65a18.66 18.66 0 001.78.76 3.13 3.13 0 001 0c-.12-1-.81-1-1.31-1.24A57.76 57.76 0 0122 54.94 38.35 38.35 0 018.84 40.34 37.57 37.57 0 015.47 29.41 3.25 3.25 0 015.7 27.06zM11.85 76.94a6.84 6.84 0 013.29.51c2.69.69 5.34 1.58 8.07 2a40.39 40.39 0 0016.12-.8 8.83 8.83 0 011.75-.32 117 117 0 0014.35-1.69 1.51 1.51 0 011.39.2 8.52 8.52 0 005.31 1.65c1.66.09 3.33 0 5 0C66.06 79.83 65 81.08 64 82.29a2.32 2.32 0 01-1 .56 77.35 77.35 0 01-18.63 3.84 68.76 68.76 0 01-14-.35A32.47 32.47 0 0114 79.52 6.12 6.12 0 0111.85 76.94z"></path>
  <path fill="#f99927" d="M94.18,76.77a3,3,0,0,1-.47-.32A216.6,216.6,0,0,0,61,48a76.74,76.74,0,0,0-11.38-6.51,40.75,40.75,0,0,1-7.8-4.66,24.31,24.31,0,0,1-7.11-8.71c-.44-.92-.73-1.91-1.09-2.86l.29-.24a18.16,18.16,0,0,1,1.68,1c2.26,1.71,4.49,3.46,6.74,5.19A89,89,0,0,0,63.85,44a9.33,9.33,0,0,1,2.71,1.77C71.4,50,76.35,54.2,81.13,58.56c3.34,3,6.46,6.33,9.68,9.51.32.31.57.7.89,1C93.84,71.15,94.38,73.75,94.18,76.77Z"></path>
  <path fill="#fcbf49" d="M62.83 84.05c-.78 2.41-2 4.56-1.25 7.1-3.35 1.49-6.53 3.15-9.88 4.35-6.76 2.42-13.1 1-19-2.79a22.69 22.69 0 01-2.46-1.93 8.34 8.34 0 01-1.16-1.35c-.38-.53-.73-1.15-.34-1.79s1.07-.36 1.64-.28a68.07 68.07 0 0014.27.31 75.23 75.23 0 0017.07-3.35C62 84.22 62.35 84.16 62.83 84.05zM56 75.42a11.05 11.05 0 01-1.09.3c-6.53 1.1-13.08 2-19.73 1.57-6.86-.48-13.63-1.5-20.07-4.1a29.2 29.2 0 01-9.48-6.08c-.49-.47-.9-1-1.59-1.79a12.81 12.81 0 011.57 0c2.51.37 5 .76 7.52 1.14a4.08 4.08 0 001 .1c2.09-.23 4 .48 5.91 1.15a136.36 136.36 0 0028.1 6.6c1.88.23 3.77.3 5.65.46.72.06 1.44.15 2.16.23zM76.08 96.69c-.65.77-1.25 1.55-1.92 2.26-4.73 5-6.06 10.81-4.28 17.36a14 14 0 001.7 3.44 1.64 1.64 0 01.33 1.36 22.09 22.09 0 01-3 7.11c-1.56 2.26-3 2.18-4.38-.19a17.39 17.39 0 01-2-6.51 32.86 32.86 0 011.06-14.45 20.42 20.42 0 018.15-10.71 2.21 2.21 0 012.73-.26A7.1 7.1 0 0076.08 96.69z"></path>
  <path fill="#fcbf49" d="M8.31 60.11c.1-.19.13-.31.2-.36 1.12-.76 4.46-1.11 5.6-.47 5 2.84 10.56 4.29 16.14 5.58C34.84 65.92 39.44 67 44 68.12c1.69.41 3.33 1 5 1.53a2.75 2.75 0 01.94.41 11.28 11.28 0 006.64 2.34c.74.06 1.48.15 2.44.25-1.21.82-2.15 1.45-3.6 1.26-4.09-.54-8.24-.67-12.29-1.36A119.34 119.34 0 0117 65.43a74.75 74.75 0 01-7-3.64A3.71 3.71 0 018.31 60.11zM35.34 104.25c.76-.19 1.52-.4 2.28-.57a26.26 26.26 0 007.59-2.61 28.87 28.87 0 004.06-3 7.19 7.19 0 012.12-1.32c1.71-.66 3.39-1.41 5.08-2.15 2-.85 3.92-1.71 5.85-2.61 1.11-.52 2.16-1.16 3.49-1.88-.28.47-.44.74-.61 1-.48.76-1 1.49-1.46 2.26a1.46 1.46 0 00-.13 1.68 1.43 1.43 0 001.64.39 25.8 25.8 0 003-.88c1.67-.64 3.3-1.37 5-2.06A5.84 5.84 0 0174.93 92c-.59.48-1.4.84-1.72 1.46-.8 1.57-2.32 2-3.68 2.76-1.55.8-3.15 1.5-4.66 2.35a26.13 26.13 0 00-4 2.6 11.67 11.67 0 01-4 2.14 42.67 42.67 0 01-14.07 2.32 54.33 54.33 0 01-6.06-.7 8.57 8.57 0 01-1.36-.43z"></path>
  <path fill="#f47610" d="M62.68,90.71a3.33,3.33,0,0,1-.17-2.45A16,16,0,0,1,67.31,80a32.13,32.13,0,0,1,6.91-4.91c2.69-1.4,5.45-2.65,8.17-4a1.75,1.75,0,0,1,1.69,0c.83.42,1.7.77,2.64,1.18-.23.47-.38.83-.58,1.16-1.29,2.23-2.61,4.45-3.9,6.69a1.81,1.81,0,0,1-1.3,1.08,33,33,0,0,0-12.37,5.32c-1.48,1-2.86,2.15-4.3,3.21A18.31,18.31,0,0,1,62.68,90.71Z"></path>
  <path fill="#fcbf49" d="M77.76,131.17c-.25-.51-.54-1-.74-1.55a25.44,25.44,0,0,1-1.39-9.82A37.69,37.69,0,0,1,80.15,104a2,2,0,0,1,.28-.3l.54.79c1.56,2.23,3.08,4.5,4.71,6.68a1.85,1.85,0,0,1,.32,2.26c-1,2-2,4.12-2.9,6.21-1.4,3.18-2.75,6.38-4.13,9.57-.27.63-.55,1.26-.83,1.89Z"></path>
  <path fill="#f47610" d="M94.19 83.43c-.56 9.68-3.41 18.7-7.23 27.77-3.33-4.27-6.92-8.11-6.84-13.91l1-.24a13.21 13.21 0 006.68-3.73 25.6 25.6 0 005.55-8.59l.54-1.22S94 83.48 94.19 83.43zM75.34 67.51c-4 1.26-7.85 2.59-11.77 3.67a17.23 17.23 0 01-4.87.4A15.1 15.1 0 0152 70.23a4.64 4.64 0 01-2.65-3.72c-.21-1.47.25-2.3 1.73-2.37a42.21 42.21 0 015.94.23c4.25.41 8.49.94 12.74 1.37A11.85 11.85 0 0175.34 67.51z"></path>
  <path fill="#fcbf49" d="M67.51,98.47c-.33.44-.44.63-.59.8a21.7,21.7,0,0,0-5.42,12.8,52.45,52.45,0,0,0-.26,6.39A2.73,2.73,0,0,1,60,121a8.31,8.31,0,0,1-1.13.72A2.67,2.67,0,0,1,55,120.44a9.46,9.46,0,0,1-.86-5.66,19.1,19.1,0,0,1,8.54-13.73A21.57,21.57,0,0,1,67.51,98.47Z"></path>
  <path fill="#f99927" d="M87.58,72.79a4.25,4.25,0,0,1,2.81,1.44c1,1.14,1.93,2.27,2.91,3.38a1.56,1.56,0,0,1,.27,1.9,18,18,0,0,1-7.08,8,5.72,5.72,0,0,1-3.25.92A1.67,1.67,0,0,1,81.42,87a4.52,4.52,0,0,1-.07-1.9,12.08,12.08,0,0,1,1-2.95C84,79,85.81,76,87.58,72.79Z"></path>
  <path fill="#f47610" d="M81.84,70.14c-.61.31-1,.53-1.37.7a67.69,67.69,0,0,0-10.59,5.74,6.24,6.24,0,0,1-2.22.77,19.07,19.07,0,0,1-7.26,0,8.51,8.51,0,0,1-2.24-.78c-1.34-.69-1.34-1.34-.09-2.1a6.63,6.63,0,0,1,.8-.4,148.44,148.44,0,0,1,16.71-5.38,5.35,5.35,0,0,1,3.89.43C80.16,69.45,80.89,69.73,81.84,70.14Z"></path>
  <path fill="#fcbf49" d="M79,97.31c.24,1.5.5,3,.7,4.52a1.65,1.65,0,0,1-.31,1,49.44,49.44,0,0,0-6,14.68c-.15.6-.41,1.17-.68,1.91a4.85,4.85,0,0,1-1.61-2.49,16.17,16.17,0,0,1,1.11-13.66,19.13,19.13,0,0,1,4.89-5.56A1.57,1.57,0,0,1,79,97.31Z"></path>
  <path fill="#f47610" d="M81.14,82.16c-.82,2.26-1.44,4.35-.19,6.4-5.16,2-10.25,3.88-15.35,5.79a4.41,4.41,0,0,1-1.23,0,15.74,15.74,0,0,1,1-1.74c1.27-1.65,2.52-3.33,3.9-4.89a10.18,10.18,0,0,1,2.43-1.94,34,34,0,0,1,8.5-3.53A5.3,5.3,0,0,1,81.14,82.16Z"></path>
  <path fill="#f99927" d="M59.52,36.61c.54.33,1.08.64,1.6,1A133.53,133.53,0,0,1,85.64,58.84c1.91,2.14,3.49,4.58,5.21,6.89a1.79,1.79,0,0,1,.34,1.11c-.13-.11-.28-.21-.4-.33-6-6.45-12.73-12-19.28-17.81-3.56-3.17-7-6.49-10.46-9.77a27.21,27.21,0,0,1-1.76-2.08Z"></path>
  <path fill="#f47610" d="M73.68,94.4A8,8,0,0,1,75,93.31c2.33-1.22,4.68-2.4,7-3.57a2.49,2.49,0,0,1,1-.23,9.6,9.6,0,0,0,6.61-3c1.07-1,2-2.18,3.06-3.34,0,.15.12.28.09.36A24.48,24.48,0,0,1,86.62,93a15.89,15.89,0,0,1-2.14,1.6c-3.47,2.22-7,1.77-10.5.11C73.9,94.72,73.85,94.61,73.68,94.4Z"></path>
  <path d="M125.35,122.12a24.41,24.41,0,0,1-1.32,7.62,9.28,9.28,0,0,1-.9,1.88c-.66,1-1.48,1-2.11,0a12.14,12.14,0,0,1-.82-1.75c-1.27-3-2.5-6-3.81-8.92-1.7-3.87-3.57-7.67-5.18-11.57-4.38-10.6-7.12-21.53-6.4-33.12a19.34,19.34,0,0,1,.56-4.71,37.13,37.13,0,0,1,8-13.19,130.17,130.17,0,0,1,11.18-11A125,125,0,0,1,139.34,36.1a9.12,9.12,0,0,1,1.71-.92,3.64,3.64,0,0,1,1.23,0,5.81,5.81,0,0,1-.08,1.11,2,2,0,0,1-.45.77c-1.09,1.29-2.18,2.58-3.29,3.85-.38.43-.8.82-1.2,1.23a1.25,1.25,0,0,0,.92-.1c2.22-1.13,4.48-2.18,6.64-3.4a121.38,121.38,0,0,0,15.8-11c1.36-1.08,2.77-2.12,4.19-3.13.59-.42,1.3-1,2-.46s.53,1.5.24,2.2c-.68,1.65-1.51,3.23-2.29,4.84-.17.33-.37.64-.55,1A14,14,0,0,0,167,29.77a56.56,56.56,0,0,0,9.85-14.34c2-4,3.64-8.18,5.45-12.27.36-.81.75-1.62,1.17-2.41.24-.45.65-.94,1.17-.68a1.77,1.77,0,0,1,.74,1.16,10,10,0,0,1,.11,2.38c-.2,3-.35,6-.68,8.92A56.62,56.62,0,0,1,180.68,29c-.15.35-.23.72-.45,1.39.43-.39.63-.53.79-.71A38.15,38.15,0,0,0,187.81,19c.53-1.29,1-2.6,1.53-3.88a8.07,8.07,0,0,1,1-1.83c.81-1,1.85-.84,2.2.43a9.64,9.64,0,0,1,.31,2.51,44.5,44.5,0,0,1-1,9.62c-.21,1-.45,2-.68,2.95a4.73,4.73,0,0,0,1.11-1.07,9,9,0,0,1,1.14-1.17c1.11-.85,2.06-.47,2.19.91a9.34,9.34,0,0,1-.09,2.53A37.9,37.9,0,0,1,191,42.75c-.18.32-.31.66-.58,1.23.61-.34,1-.51,1.29-.73,1.33-.87,2.65-1.77,4-2.62a11.41,11.41,0,0,1,2.1-1.11c1.32-.48,2.15.15,2.17,1.55a2.84,2.84,0,0,1-.12.88,32.73,32.73,0,0,1-1.27,3.81,29.75,29.75,0,0,1-9.09,11.09L188,58c1.05.11,1.73.16,2.4.27.9.15,1.83.36,2.15,1.35s-.37,1.68-1.07,2.27a9.75,9.75,0,0,1-1.32,1c-1.15.69-2.32,1.34-3.48,2-.27.15-.51.35-.76.52l.11.3c2.54-.44,5.07-.88,7.61-1.3a9.11,9.11,0,0,1,2.08-.15,1,1,0,0,1,.91,1.69,7.05,7.05,0,0,1-1.2,1.52,29.16,29.16,0,0,1-8.13,5.74A53.06,53.06,0,0,1,171,77.68c-2,.26-3.93.46-5.9.68a37,37,0,0,0,10.56.31,43.19,43.19,0,0,0,8.82-2.15,19.64,19.64,0,0,1,2.75-.65,1.52,1.52,0,0,1,1.73.59,1.66,1.66,0,0,1-.38,1.93,13.16,13.16,0,0,1-1.79,1.79,32.15,32.15,0,0,1-12,6.16l-2.51.65c.46,2-.57,3.28-1.81,4.5a16,16,0,0,1-1.24,1.08,23.84,23.84,0,0,1-9.47,4.54,22.49,22.49,0,0,1-8.2.33c.59.56.91.91,1.28,1.2a15.15,15.15,0,0,0,5,2.65c2.08.66,4.21,1.17,6.32,1.75a8,8,0,0,1,1.54.53.8.8,0,0,1,.12,1.45,3.61,3.61,0,0,1-1.47.69,51.4,51.4,0,0,1-6,.88,40.51,40.51,0,0,1-14.4-2c-.41-.13-.83-.23-1.5-.41.42.62.7,1,1,1.42a19.63,19.63,0,0,1,3.09,6.75,13,13,0,0,1-.14,7.64c-1.18,3.25-3.85,4-6.62,2l-1-.68c-.56,2-1,3.89-1.66,5.69a10.12,10.12,0,0,1-1.87,3,2.41,2.41,0,0,1-3.71.17,7.73,7.73,0,0,1-1.75-2.2,55.05,55.05,0,0,1-2.13-5.08c-.45-1.19-.58-2.46-1.43-3.54a7.23,7.23,0,0,1-.82-2.21C125.36,118.75,125.39,120.44,125.35,122.12Zm-10-51.88c3-1.3,5.89-2.66,8.88-3.89,4.73-1.95,9.51-3.79,14.25-5.71a158.46,158.46,0,0,0,20-9.3,52.33,52.33,0,0,0,16.6-14.55A46.31,46.31,0,0,0,183,17.66a91.69,91.69,0,0,0,1.49-14.22c0-.57,0-1.13,0-1.7l-.37-.07c-.33.75-.69,1.48-1,2.24a109.16,109.16,0,0,1-6.35,14c-3.05,5.45-6.54,10.58-11.29,14.73-1.22,1.07-2.64,1.93-4,2.88a11.14,11.14,0,0,0-1,.69,29.79,29.79,0,0,1-7.64,5.16C142,46.29,132.65,53.42,123.79,61.26c-3.17,2.8-6.31,5.63-9.46,8.45-.4.37-.78.76-1.16,1.14l.15.25C114,70.81,114.67,70.54,115.34,70.24Zm24.28-6.46c2.67-.28,5.33-.57,8-.75a4.26,4.26,0,0,1,3.59,1.11c.2.22.72.21,1.08.17a20.93,20.93,0,0,0,6.51-2,65.88,65.88,0,0,0,17.77-12.7,55.32,55.32,0,0,0,10.74-14.22,41.45,41.45,0,0,0,4.5-18.82,25.52,25.52,0,0,0-.22-2.61l-.32-.08a4.74,4.74,0,0,0-.63.86c-.46,1.05-.89,2.1-1.29,3.18a39.71,39.71,0,0,1-10.08,15,8.37,8.37,0,0,0-1.37,1.55,51.19,51.19,0,0,1-17.62,17.06,135.26,135.26,0,0,1-18.38,8.89c-2.89,1.19-5.8,2.35-8.7,3.53-.31.12-.61.27-.91.41l.08.34C134.79,64.34,137.2,64,139.62,63.78Zm53.29-35.3a51,51,0,0,0-4.6,7.13,53.22,53.22,0,0,1-10.63,14.32A71.69,71.69,0,0,1,164,60.68c-3.78,2.26-7.69,4.19-12.19,4.78l-.43,2.74c.17.06.27.13.33.11,6.17-2,12.53-3.18,18.82-4.67A66.52,66.52,0,0,0,182,60.06,30.7,30.7,0,0,0,196.23,48a35.82,35.82,0,0,0,2.43-5.26,10.16,10.16,0,0,0,.32-2.24,3.18,3.18,0,0,0-2.33.77c-1.7,1-3.31,2.23-5.05,3.18a15.15,15.15,0,0,0-4.4,3.69c-4.68,5.61-10.67,9.49-17.24,12.54a18.66,18.66,0,0,1-1.78.76,3.13,3.13,0,0,1-1,0c.12-1,.81-1,1.31-1.24A57.76,57.76,0,0,0,178,54.94a38.35,38.35,0,0,0,13.12-14.6,37.57,37.57,0,0,0,3.37-10.93,3.25,3.25,0,0,0-.23-2.35A12.21,12.21,0,0,0,192.91,28.48Zm-8,49c-2.69.69-5.34,1.58-8.07,2a40.39,40.39,0,0,1-16.12-.8,8.83,8.83,0,0,0-1.75-.32,117,117,0,0,1-14.35-1.69,1.51,1.51,0,0,0-1.39.2,8.52,8.52,0,0,1-5.31,1.65c-1.66.09-3.33,0-5,0,1.08,1.28,2.1,2.53,3.18,3.74a2.32,2.32,0,0,0,1,.56,77.35,77.35,0,0,0,18.63,3.84,68.76,68.76,0,0,0,14-.35A32.47,32.47,0,0,0,186,79.52a6.12,6.12,0,0,0,2.19-2.58A6.84,6.84,0,0,0,184.86,77.45Zm-78.57-1A216.6,216.6,0,0,1,139,48a76.74,76.74,0,0,1,11.38-6.51,40.75,40.75,0,0,0,7.8-4.66,24.31,24.31,0,0,0,7.11-8.71c.44-.92.73-1.91,1.09-2.86l-.29-.24a18.16,18.16,0,0,0-1.68,1c-2.26,1.71-4.49,3.46-6.74,5.19A89,89,0,0,1,136.15,44a9.33,9.33,0,0,0-2.71,1.77c-4.84,4.29-9.79,8.47-14.57,12.83-3.34,3-6.46,6.33-9.68,9.51-.32.31-.57.7-.89,1-2.14,2.07-2.68,4.67-2.48,7.69A3,3,0,0,0,106.29,76.45Zm32.13,14.7c3.35,1.49,6.53,3.15,9.88,4.35,6.76,2.42,13.1,1,19-2.79a22.69,22.69,0,0,0,2.46-1.93,8.34,8.34,0,0,0,1.16-1.35c.38-.53.73-1.15.34-1.79s-1.07-.36-1.64-.28a68.07,68.07,0,0,1-14.27.31,75.23,75.23,0,0,1-17.07-3.35c-.31-.1-.64-.16-1.12-.27C138,86.46,139.15,88.61,138.42,91.15Zm6.65-15.43c6.53,1.1,13.08,2,19.73,1.57,6.86-.48,13.63-1.5,20.07-4.1a29.2,29.2,0,0,0,9.48-6.08c.49-.47.9-1,1.59-1.79a12.81,12.81,0,0,0-1.57,0c-2.51.37-5,.76-7.52,1.14a4.08,4.08,0,0,1-1,.1c-2.09-.23-4,.48-5.91,1.15a136.36,136.36,0,0,1-28.1,6.6c-1.88.23-3.77.3-5.65.46-.72.06-1.44.15-2.16.23v.41A11.05,11.05,0,0,0,145.07,75.72ZM125.84,99c4.73,5,6.06,10.81,4.28,17.36a14,14,0,0,1-1.7,3.44,1.64,1.64,0,0,0-.33,1.36,22.09,22.09,0,0,0,3,7.11c1.56,2.26,3,2.18,4.38-.19a17.39,17.39,0,0,0,2-6.51,32.86,32.86,0,0,0-1.06-14.45,20.42,20.42,0,0,0-8.15-10.71,2.21,2.21,0,0,0-2.73-.26,7.1,7.1,0,0,1-1.61.59C124.57,97.46,125.17,98.24,125.84,99Zm65.65-39.2c-1.12-.76-4.46-1.11-5.6-.47-5,2.84-10.56,4.29-16.14,5.58-4.59,1.06-9.19,2.13-13.77,3.26-1.69.41-3.33,1-5,1.53a2.75,2.75,0,0,0-.94.41,11.28,11.28,0,0,1-6.64,2.34c-.74.06-1.48.15-2.44.25,1.21.82,2.15,1.45,3.6,1.26,4.09-.54,8.24-.67,12.29-1.36A119.34,119.34,0,0,0,183,65.43a74.75,74.75,0,0,0,7-3.64,3.71,3.71,0,0,0,1.73-1.68C191.59,59.92,191.56,59.8,191.49,59.75Zm-29.11,43.93a26.26,26.26,0,0,1-7.59-2.61,28.87,28.87,0,0,1-4.06-3,7.19,7.19,0,0,0-2.12-1.32c-1.71-.66-3.39-1.41-5.08-2.15-2-.85-3.92-1.71-5.85-2.61-1.11-.52-2.16-1.16-3.49-1.88.28.47.44.74.61,1,.48.76,1,1.49,1.46,2.26a1.46,1.46,0,0,1,.13,1.68,1.43,1.43,0,0,1-1.64.39,25.8,25.8,0,0,1-3-.88c-1.67-.64-3.3-1.37-5-2.06a5.84,5.84,0,0,0-1.72-.51c.59.48,1.4.84,1.72,1.46.8,1.57,2.32,2,3.68,2.76,1.55.8,3.15,1.5,4.66,2.35a26.13,26.13,0,0,1,4,2.6,11.67,11.67,0,0,0,4,2.14,42.67,42.67,0,0,0,14.07,2.32,54.33,54.33,0,0,0,6.06-.7,8.57,8.57,0,0,0,1.36-.43v-.25C163.9,104.06,163.14,103.85,162.38,103.68ZM137.49,88.26a16,16,0,0,0-4.8-8.25,32.13,32.13,0,0,0-6.91-4.91c-2.69-1.4-5.45-2.65-8.17-4a1.75,1.75,0,0,0-1.69,0c-.83.42-1.7.77-2.64,1.18.23.47.38.83.58,1.16,1.29,2.23,2.61,4.45,3.9,6.69a1.81,1.81,0,0,0,1.3,1.08,33,33,0,0,1,12.37,5.32c1.48,1,2.86,2.15,4.3,3.21a18.31,18.31,0,0,0,1.59,1A3.33,3.33,0,0,0,137.49,88.26ZM123,129.62a25.44,25.44,0,0,0,1.39-9.82A37.69,37.69,0,0,0,119.85,104a2,2,0,0,0-.28-.3l-.54.79c-1.56,2.23-3.08,4.5-4.71,6.68a1.85,1.85,0,0,0-.32,2.26c1,2,2,4.12,2.9,6.21,1.4,3.18,2.75,6.38,4.13,9.57.27.63.55,1.26.83,1.89l.38,0C122.49,130.66,122.78,130.15,123,129.62ZM113,111.2c3.33-4.27,6.92-8.11,6.84-13.91l-1-.24a13.21,13.21,0,0,1-6.68-3.73,25.6,25.6,0,0,1-5.55-8.59l-.54-1.22s-.09,0-.27-.08C106.37,93.11,109.22,102.13,113,111.2Zm23.39-40a17.23,17.23,0,0,0,4.87.4A15.1,15.1,0,0,0,148,70.23a4.64,4.64,0,0,0,2.65-3.72c.21-1.47-.25-2.3-1.73-2.37a42.21,42.21,0,0,0-5.94.23c-4.25.41-8.49.94-12.74,1.37a11.85,11.85,0,0,0-5.55,1.77C128.67,68.77,132.51,70.1,136.43,71.18Zm-3.35,28.09a21.7,21.7,0,0,1,5.42,12.8,52.45,52.45,0,0,1,.26,6.39A2.73,2.73,0,0,0,140,121a8.31,8.31,0,0,0,1.13.72,2.67,2.67,0,0,0,3.88-1.26,9.46,9.46,0,0,0,.86-5.66,19.1,19.1,0,0,0-8.54-13.73,21.57,21.57,0,0,0-4.81-2.58C132.82,98.91,132.93,99.1,133.08,99.27Zm-23.47-25c-1,1.14-1.93,2.27-2.91,3.38a1.56,1.56,0,0,0-.27,1.9,18,18,0,0,0,7.08,8,5.72,5.72,0,0,0,3.25.92A1.67,1.67,0,0,0,118.58,87a4.52,4.52,0,0,0,.07-1.9,12.08,12.08,0,0,0-1-2.95C116,79,114.19,76,112.42,72.79A4.25,4.25,0,0,0,109.61,74.23Zm9.92-3.39a67.69,67.69,0,0,1,10.59,5.74,6.24,6.24,0,0,0,2.22.77,19.07,19.07,0,0,0,7.26,0,8.51,8.51,0,0,0,2.24-.78c1.34-.69,1.34-1.34.09-2.1a6.63,6.63,0,0,0-.8-.4,148.44,148.44,0,0,0-16.71-5.38,5.35,5.35,0,0,0-3.89.43c-.69.35-1.42.63-2.37,1C118.77,70.45,119.14,70.67,119.53,70.84Zm.74,31a1.65,1.65,0,0,0,.31,1,49.44,49.44,0,0,1,6,14.68c.15.6.41,1.17.68,1.91a4.85,4.85,0,0,0,1.61-2.49,16.17,16.17,0,0,0-1.11-13.66,19.13,19.13,0,0,0-4.89-5.56,1.57,1.57,0,0,0-1.92-.35C120.73,98.81,120.47,100.31,120.27,101.83Zm-1.22-13.27c5.16,2,10.25,3.88,15.35,5.79a4.41,4.41,0,0,0,1.23,0,15.74,15.74,0,0,0-1-1.74c-1.27-1.65-2.52-3.33-3.9-4.89a10.18,10.18,0,0,0-2.43-1.94,34,34,0,0,0-8.5-3.53,5.3,5.3,0,0,0-.92-.1C119.68,84.42,120.3,86.51,119.05,88.56Zm19.83-51a133.53,133.53,0,0,0-24.52,21.24c-1.91,2.14-3.49,4.58-5.21,6.89a1.79,1.79,0,0,0-.34,1.11c.13-.11.28-.21.4-.33,6-6.45,12.73-12,19.28-17.81,3.56-3.17,7-6.49,10.46-9.77a27.21,27.21,0,0,0,1.76-2.08l-.23-.24C139.94,36.94,139.4,37.25,138.88,37.6ZM125,93.31c-2.33-1.22-4.68-2.4-7-3.57a2.49,2.49,0,0,0-1-.23,9.6,9.6,0,0,1-6.61-3c-1.07-1-2-2.18-3.06-3.34,0,.15-.12.28-.09.36A24.48,24.48,0,0,0,113.38,93a15.89,15.89,0,0,0,2.14,1.6c3.47,2.22,7,1.77,10.5.11.08,0,.13-.14.3-.35A8,8,0,0,0,125,93.31Z"></path>
  <path fill="#f99927" d="M113.32,71.1c.68-.29,1.35-.56,2-.86,3-1.3,5.89-2.66,8.88-3.89,4.73-1.95,9.51-3.79,14.25-5.71a158.46,158.46,0,0,0,20-9.3,52.33,52.33,0,0,0,16.6-14.55A46.31,46.31,0,0,0,183,17.66a91.69,91.69,0,0,0,1.49-14.22c0-.57,0-1.13,0-1.7l-.37-.07c-.33.75-.69,1.48-1,2.24a109.16,109.16,0,0,1-6.35,14c-3.05,5.45-6.54,10.58-11.29,14.73-1.22,1.07-2.64,1.93-4,2.88a11.14,11.14,0,0,0-1,.69,29.79,29.79,0,0,1-7.64,5.16C142,46.29,132.65,53.42,123.79,61.26c-3.17,2.8-6.31,5.63-9.46,8.45-.4.37-.78.76-1.16,1.14Z"></path>
  <path fill="#fcbf49" d="M132.38,64.62c2.41-.28,4.82-.59,7.24-.84,2.67-.28,5.33-.57,8-.75a4.26,4.26,0,0,1,3.59,1.11c.2.22.72.21,1.08.17a20.93,20.93,0,0,0,6.51-2,65.88,65.88,0,0,0,17.77-12.7,55.32,55.32,0,0,0,10.74-14.22,41.45,41.45,0,0,0,4.5-18.82,25.52,25.52,0,0,0-.22-2.61l-.32-.08a4.74,4.74,0,0,0-.63.86c-.46,1.05-.89,2.1-1.29,3.18a39.71,39.71,0,0,1-10.08,15,8.37,8.37,0,0,0-1.37,1.55,51.19,51.19,0,0,1-17.62,17.06,135.26,135.26,0,0,1-18.38,8.89c-2.89,1.19-5.8,2.35-8.7,3.53-.31.12-.61.27-.91.41Z"></path>
  <path fill="#fcbf49" d="M194.3 27.06a12.21 12.21 0 00-1.39 1.42 51 51 0 00-4.6 7.13 53.22 53.22 0 01-10.63 14.32A71.69 71.69 0 01164 60.68c-3.78 2.26-7.69 4.19-12.19 4.78l-.43 2.74c.17.06.27.13.33.11 6.17-2 12.53-3.18 18.82-4.67A66.52 66.52 0 00182 60.06 30.7 30.7 0 00196.23 48a35.82 35.82 0 002.43-5.26 10.16 10.16 0 00.32-2.24 3.18 3.18 0 00-2.33.77c-1.7 1-3.31 2.23-5.05 3.18a15.15 15.15 0 00-4.4 3.69c-4.68 5.61-10.67 9.49-17.24 12.54a18.66 18.66 0 01-1.78.76 3.13 3.13 0 01-1 0c.12-1 .81-1 1.31-1.24A57.76 57.76 0 00178 54.94a38.35 38.35 0 0013.12-14.6 37.57 37.57 0 003.37-10.93A3.25 3.25 0 00194.3 27.06zM188.15 76.94a6.84 6.84 0 00-3.29.51c-2.69.69-5.34 1.58-8.07 2a40.39 40.39 0 01-16.12-.8 8.83 8.83 0 00-1.75-.32 117 117 0 01-14.35-1.69 1.51 1.51 0 00-1.39.2 8.52 8.52 0 01-5.31 1.65c-1.66.09-3.33 0-5 0 1.08 1.28 2.1 2.53 3.18 3.74a2.32 2.32 0 001 .56 77.35 77.35 0 0018.63 3.84 68.76 68.76 0 0014-.35A32.47 32.47 0 00186 79.52 6.12 6.12 0 00188.15 76.94z"></path>
  <path fill="#f99927" d="M105.82,76.77a3,3,0,0,0,.47-.32A216.6,216.6,0,0,1,139,48a76.74,76.74,0,0,1,11.38-6.51,40.75,40.75,0,0,0,7.8-4.66,24.31,24.31,0,0,0,7.11-8.71c.44-.92.73-1.91,1.09-2.86l-.29-.24a18.16,18.16,0,0,0-1.68,1c-2.26,1.71-4.49,3.46-6.74,5.19A89,89,0,0,1,136.15,44a9.33,9.33,0,0,0-2.71,1.77c-4.84,4.29-9.79,8.47-14.57,12.83-3.34,3-6.46,6.33-9.68,9.51-.32.31-.57.7-.89,1C106.16,71.15,105.62,73.75,105.82,76.77Z"></path>
  <path fill="#fcbf49" d="M137.17 84.05c.78 2.41 2 4.56 1.25 7.1 3.35 1.49 6.53 3.15 9.88 4.35 6.76 2.42 13.1 1 19-2.79a22.69 22.69 0 002.46-1.93 8.34 8.34 0 001.16-1.35c.38-.53.73-1.15.34-1.79s-1.07-.36-1.64-.28a68.07 68.07 0 01-14.27.31 75.23 75.23 0 01-17.07-3.35C138 84.22 137.65 84.16 137.17 84.05zM144 75.42a11.05 11.05 0 001.09.3c6.53 1.1 13.08 2 19.73 1.57 6.86-.48 13.63-1.5 20.07-4.1a29.2 29.2 0 009.48-6.08c.49-.47.9-1 1.59-1.79a12.81 12.81 0 00-1.57 0c-2.51.37-5 .76-7.52 1.14a4.08 4.08 0 01-1 .1c-2.09-.23-4 .48-5.91 1.15a136.36 136.36 0 01-28.1 6.6c-1.88.23-3.77.3-5.65.46-.72.06-1.44.15-2.16.23zM123.92 96.69c.65.77 1.25 1.55 1.92 2.26 4.73 5 6.06 10.81 4.28 17.36a14 14 0 01-1.7 3.44 1.64 1.64 0 00-.33 1.36 22.09 22.09 0 003 7.11c1.56 2.26 3 2.18 4.38-.19a17.39 17.39 0 002-6.51 32.86 32.86 0 00-1.06-14.45 20.42 20.42 0 00-8.15-10.71 2.21 2.21 0 00-2.73-.26A7.1 7.1 0 01123.92 96.69z"></path>
  <path fill="#fcbf49" d="M191.69 60.11c-.1-.19-.13-.31-.2-.36-1.12-.76-4.46-1.11-5.6-.47-5 2.84-10.56 4.29-16.14 5.58-4.59 1.06-9.19 2.13-13.77 3.26-1.69.41-3.33 1-5 1.53a2.75 2.75 0 00-.94.41 11.28 11.28 0 01-6.64 2.34c-.74.06-1.48.15-2.44.25 1.21.82 2.15 1.45 3.6 1.26 4.09-.54 8.24-.67 12.29-1.36A119.34 119.34 0 00183 65.43a74.75 74.75 0 007-3.64A3.71 3.71 0 00191.69 60.11zM164.66 104.25c-.76-.19-1.52-.4-2.28-.57a26.26 26.26 0 01-7.59-2.61 28.87 28.87 0 01-4.06-3 7.19 7.19 0 00-2.12-1.32c-1.71-.66-3.39-1.41-5.08-2.15-2-.85-3.92-1.71-5.85-2.61-1.11-.52-2.16-1.16-3.49-1.88.28.47.44.74.61 1 .48.76 1 1.49 1.46 2.26a1.46 1.46 0 01.13 1.68 1.43 1.43 0 01-1.64.39 25.8 25.8 0 01-3-.88c-1.67-.64-3.3-1.37-5-2.06a5.84 5.84 0 00-1.72-.51c.59.48 1.4.84 1.72 1.46.8 1.57 2.32 2 3.68 2.76 1.55.8 3.15 1.5 4.66 2.35a26.13 26.13 0 014 2.6 11.67 11.67 0 004 2.14 42.67 42.67 0 0014.07 2.32 54.33 54.33 0 006.06-.7 8.57 8.57 0 001.36-.43z"></path>
  <path fill="#f47610" d="M137.32,90.71a3.33,3.33,0,0,0,.17-2.45,16,16,0,0,0-4.8-8.25,32.13,32.13,0,0,0-6.91-4.91c-2.69-1.4-5.45-2.65-8.17-4a1.75,1.75,0,0,0-1.69,0c-.83.42-1.7.77-2.64,1.18.23.47.38.83.58,1.16,1.29,2.23,2.61,4.45,3.9,6.69a1.81,1.81,0,0,0,1.3,1.08,33,33,0,0,1,12.37,5.32c1.48,1,2.86,2.15,4.3,3.21A18.31,18.31,0,0,0,137.32,90.71Z"></path>
  <path fill="#fcbf49" d="M122.24,131.17c.25-.51.54-1,.74-1.55a25.44,25.44,0,0,0,1.39-9.82A37.69,37.69,0,0,0,119.85,104a2,2,0,0,0-.28-.3l-.54.79c-1.56,2.23-3.08,4.5-4.71,6.68a1.85,1.85,0,0,0-.32,2.26c1,2,2,4.12,2.9,6.21,1.4,3.18,2.75,6.38,4.13,9.57.27.63.55,1.26.83,1.89Z"></path>
  <path fill="#f47610" d="M105.81 83.43c.56 9.68 3.41 18.7 7.23 27.77 3.33-4.27 6.92-8.11 6.84-13.91l-1-.24a13.21 13.21 0 01-6.68-3.73 25.6 25.6 0 01-5.55-8.59l-.54-1.22S106 83.48 105.81 83.43zM124.66 67.51c4 1.26 7.85 2.59 11.77 3.67a17.23 17.23 0 004.87.4A15.1 15.1 0 00148 70.23a4.64 4.64 0 002.65-3.72c.21-1.47-.25-2.3-1.73-2.37a42.21 42.21 0 00-5.94.23c-4.25.41-8.49.94-12.74 1.37A11.85 11.85 0 00124.66 67.51z"></path>
  <path fill="#fcbf49" d="M132.49,98.47c.33.44.44.63.59.8a21.7,21.7,0,0,1,5.42,12.8,52.45,52.45,0,0,1,.26,6.39A2.73,2.73,0,0,0,140,121a8.31,8.31,0,0,0,1.13.72,2.67,2.67,0,0,0,3.88-1.26,9.46,9.46,0,0,0,.86-5.66,19.1,19.1,0,0,0-8.54-13.73A21.57,21.57,0,0,0,132.49,98.47Z"></path>
  <path fill="#f99927" d="M112.42,72.79a4.25,4.25,0,0,0-2.81,1.44c-1,1.14-1.93,2.27-2.91,3.38a1.56,1.56,0,0,0-.27,1.9,18,18,0,0,0,7.08,8,5.72,5.72,0,0,0,3.25.92A1.67,1.67,0,0,0,118.58,87a4.52,4.52,0,0,0,.07-1.9,12.08,12.08,0,0,0-1-2.95C116,79,114.19,76,112.42,72.79Z"></path>
  <path fill="#f47610" d="M118.16,70.14c.61.31,1,.53,1.37.7a67.69,67.69,0,0,1,10.59,5.74,6.24,6.24,0,0,0,2.22.77,19.07,19.07,0,0,0,7.26,0,8.51,8.51,0,0,0,2.24-.78c1.34-.69,1.34-1.34.09-2.1a6.63,6.63,0,0,0-.8-.4,148.44,148.44,0,0,0-16.71-5.38,5.35,5.35,0,0,0-3.89.43C119.84,69.45,119.11,69.73,118.16,70.14Z"></path>
  <path fill="#fcbf49" d="M121,97.31c-.24,1.5-.5,3-.7,4.52a1.65,1.65,0,0,0,.31,1,49.44,49.44,0,0,1,6,14.68c.15.6.41,1.17.68,1.91a4.85,4.85,0,0,0,1.61-2.49,16.17,16.17,0,0,0-1.11-13.66,19.13,19.13,0,0,0-4.89-5.56A1.57,1.57,0,0,0,121,97.31Z"></path>
  <path fill="#f47610" d="M118.86,82.16c.82,2.26,1.44,4.35.19,6.4,5.16,2,10.25,3.88,15.35,5.79a4.41,4.41,0,0,0,1.23,0,15.74,15.74,0,0,0-1-1.74c-1.27-1.65-2.52-3.33-3.9-4.89a10.18,10.18,0,0,0-2.43-1.94,34,34,0,0,0-8.5-3.53A5.3,5.3,0,0,0,118.86,82.16Z"></path>
  <path fill="#f99927" d="M140.48,36.61c-.54.33-1.08.64-1.6,1a133.53,133.53,0,0,0-24.52,21.24c-1.91,2.14-3.49,4.58-5.21,6.89a1.79,1.79,0,0,0-.34,1.11c.13-.11.28-.21.4-.33,6-6.45,12.73-12,19.28-17.81,3.56-3.17,7-6.49,10.46-9.77a27.21,27.21,0,0,0,1.76-2.08Z"></path>
  <path fill="#f47610" d="M126.32,94.4A8,8,0,0,0,125,93.31c-2.33-1.22-4.68-2.4-7-3.57a2.49,2.49,0,0,0-1-.23,9.6,9.6,0,0,1-6.61-3c-1.07-1-2-2.18-3.06-3.34,0,.15-.12.28-.09.36A24.48,24.48,0,0,0,113.38,93a15.89,15.89,0,0,0,2.14,1.6c3.47,2.22,7,1.77,10.5.11C126.1,94.72,126.15,94.61,126.32,94.4Z"></path>
</svg>
