<svg xmlns="http://www.w3.org/2000/svg" xml:space="preserve" viewBox="0 0 128 128" id="bull">
  <path fill="#D5B76F" d="M5.4 32.7S.2 44.8 12.2 43.1c0 0 2.6-11.7 9.9-9.5 7.3 2.2-3.8 18.1-13.6 16.2C.9 48.4-2 39.6 3.8 31.5c0 0 .8-.8 1.5-.2.7.5.1 1.4.1 1.4z"></path>
  <path fill="#F0DE9E" d="M5.4 32.7s.6-.9-.1-1.4c-.8-.6-1.5.2-1.5.2-5.6 7.7-3.1 16 3.6 18.1 4.6-1.1 6.1-6.4 6.1-6.4l-1.4-.1C.2 44.8 5.4 32.7 5.4 32.7z"></path>
  <path fill="#F9E8B2" d="M11.7 43.6s-1.2 3.4-3.2 3.2c-2-.2-5.9-3.3-5.2-8.5-.1 0 .5 6.4 8.4 5.3z"></path>
  <path fill="#F9E8B2" d="M19.7 34.1s1.8.2.4 2.4c-1.4 2.2-5.6 4.2-6.8 7.2-1.2 3-4.4 4.3-5.2 4.1 0 0 3.8-.8 5.2-6.8 1.4-5.9 5.5-7.1 6.4-6.9z"></path>
  <path fill="#FFF6DC" d="M11.7 43.6s-.2 1.3-1.5 2.3c0 0-4.1-.6-5.5-3.5 0 0 2.6 3 7 1.2z"></path>
  <path fill="#44434B" d="M121.3 58.4c1.6.6 2.8 2 3.2 3.6.1.6.2 1.2.3 1.7.2.6.6 1.1 1.1 1.2-.4.3-1 .3-1.5.1s-.9-.5-1.3-.8c.6.7 1.2 1.4 1.7 2.1.2.3.5.6.8.8.5.4 1.2.7 1.8.7-.8.3-1.5.6-2.3.7-.8.1-1.6 0-2.4-.3-.9-.5-1.4-1.4-2-2.2-.2.6 0 1.4.4 1.9-1.5-.4-3.1-1.2-3.9-2.6-.8-1.2-.9-2.6-.8-4 .1-.7.3-1.4.5-2.1.1-.4.3-1.5.7-1.7.3-.1 1.3.4 1.7.5.8.1 1.4.2 2 .4z"></path>
  <path fill="#373536" d="M124.5 67.7c-1.1-.5-1.9-1.5-2.5-2.6-.5-.8-1-1.6-1.4-2.5-.4.1-.7.7-.6 1.1-.1-.4-.7-.9-.9-1.3-.3-.5-.5-1-.7-1.5-.3-.9-.5-1.9-.5-2.9v-.7c-.4.2-.6 1.3-.7 1.7-.2.7-.4 1.4-.5 2.1-.2 1.4 0 2.9.8 4 .9 1.3 2.4 2.1 3.9 2.6-.4-.5-.6-1.2-.4-1.9.5.8 1.1 1.7 2 2.2.7.4 1.6.5 2.4.3.8-.1 1.5-.4 2.2-.7-1.2.5-2.2.5-3.1.1z"></path>
  <path fill="#BC8159" d="M94.8 37.3s7.1 4.4 13.7 3.7c6.6-.7 12.4 3 10.8 11.8S121 63 121 63s-4.1-.4-3.9-9.9c.1-9.5-4.3-10.5-17.1-6.7l-5.2-9.1z"></path>
  <path fill="#46332F" d="m122.3 63.3-1.3-.1c-.2 0-4.3-.5-4.1-10.1.1-3.9-.7-6.3-2.3-7.5-2.3-1.7-6.3-1.5-14.5 1h-.2l-5.7-10 .7.4c.1 0 7.1 4.3 13.5 3.6 3.7-.4 7 .6 9 2.8 2 2.2 2.7 5.4 2 9.3-1.6 8.5 1.6 10 1.6 10l1.3.6zm-12.9-19.2c2.5-.2 4.2.2 5.4 1.1 1.7 1.3 2.5 3.7 2.4 7.8-.1 5.9 1.4 8.2 2.5 9.1-.9-1.3-1.8-3.9-.8-9.5.7-3.8 0-6.8-1.9-8.9-1.9-2.1-5.1-3-8.7-2.6-5.4.6-11.2-2.2-13.1-3.3l4.7 8.3c4.2-1.1 7.2-1.8 9.5-2z"></path>
  <path fill="#BA865B" d="M56.8 57.5s1.1 7-5.4 13.3c0 0-1.1.8-1 2.5.1 1.7-.9 4.4-2.8 5.5 0 0-2.6 6.5-1.8 7.9.8 1.4 2.1 4 .9 4.4-1.2.4-1.1.1-1.1.1l.9 2.8-8.7-5.5s3.6-4.5 3.5-11.4c0 0-2.8-2.2-1.1-6.3 0 0-3-10.9-.6-16.2"></path>
  <path fill="#8C4F32" d="M50.4 73.4c0-1.1.4-1.9.8-2.2-.5-.6-1.1-1.2-1.7-1.7-.8-.7-1.5-1.4-2.5-1.8-.6-.3-2.7-.9-2.9.1-.1.4.6 1.2.7 1.6.3.6.5 1.2.7 1.9.3 1.1.5 2.2.3 3.3-.2 1.1-1 2.1-2.1 2.3.2.7.7 1.4.8 2.1.2 1-.3 1.9-.8 2.8-.4.9-.8 1.9-.4 2.8-.4-.1-.9.2-1.1.6-.1.2-.1.5-.1.7.1 1.1.2 2.2.4 3.2-.4.3-.9-.1-1.3-.2-.8-.3-1.8.2-2 1l7 4.4-.9-2.8c.1.1.3.1 1.1-.2 1.2-.4-.1-3.1-.9-4.4-.8-1.4 1.8-7.9 1.8-7.9 2.1-1.3 3.1-4 3.1-5.6z"></path>
  <path fill="#414257" d="m74 87.5-4 6.4c-.4.7-.2 1.5.4 1.9 1 .6 2.4 1.3 3.9 1.2l1.9-4.7-.5 5s7-.5 8.4-2.8c2.2-3.5-1.2-6.1-1.2-6.1s-.9 0-5.1-.4c-3.2-.4-3.8-.5-3.8-.5z"></path>
  <path fill="#2E2F42" d="M83.1 88.3h-1.5c.5 3.6-1.6 7.3-4.9 8.9 1.9-.2 6.5-.9 7.6-2.7 2.3-3.5-1.2-6.2-1.2-6.2z"></path>
  <path fill="#BA865B" d="M89.4 63.4s3.2 10.4.5 14.5c-2.4 3.7-4.5 4.9-3.3 9.1.2.8-.2 1.7-1 2l-1 .4.4 1.8s-5.2-3.2-7.6-2.8c-2.5.4-4.6 1.5-4.6 1.5s1.8-3.5 3.1-3.8c0 0 .7-1.7 3-3.8 2.3-2.1-1.5-10.9-4-13-2.6-2.1 14.5-5.9 14.5-5.9z"></path>
  <path fill="#8C4F32" d="M89.4 63.4s-17.1 3.7-14.6 5.8c.9.7 1.9 2.2 2.8 4 2.8-.8 6.4-1.2 7.8 1.5 2.4 4.7-3.3 8.6-3.3 8.6s1.4 1.6 1 3.2c-.2.8-2.2 1.5-4 1.8 2.6.6 6 2.7 6 2.7l-.4-1.8 1-.4c.8-.3 1.3-1.2 1-2-1.2-4.2.9-5.4 3.3-9.1 2.6-3.9-.6-14.3-.6-14.3z"></path>
  <path fill="#46332F" d="M74.8 69.2c2.5 2 6.3 10.9 4 13-2.3 2.1-3 3.8-3 3.8-1.3.3-3.1 3.8-3.1 3.8s2.2-1 4.6-1.5c2.5-.4 7.6 2.8 7.6 2.8l-.4-1.8 1-.4c.8-.3 1.3-1.2 1-2-1.2-4.2.9-5.4 3.3-9.1 2.7-4.1-.5-14.5-.5-14.5s2.1 9.9.4 13.5c-1.6 3.7-4 4.2-3.8 7.4.2 3.1.6 4.8-1.5 4.5 0 0-.5-.2-.2.6s.4 1.2.4 1.2-5.9-3.1-6.4-4.1c0 0 .4 1 1.1 1.5 0 0-2.1-.9-5.8 1 0 0 1.5-3.1 3.5-3l-.8.1s1.4-3.4 6.4-5.8c0 0-2.1.6-3.1 1.5 0 0 1.1-2.2-1-7s-3.7-5.5-3.7-5.5zM56.8 57.5s1.1 7-5.4 13.3c0 0-1.1.8-1 2.5.1 1.7-.9 4.4-2.8 5.5 0 0-2.6 6.5-1.8 7.9.8 1.4 2.1 4 .9 4.4-1.2.4-1.1.1-1.1.1l.9 2.8-8.7-5.5s3.6-4.5 3.5-11.4c0 0-2.8-2.2-1.1-6.3 0 0-3-10.9-.6-16.2 0 0-1.6 9.1 1 15.7 0 0 1.6-2.2 2.4-2.7 0 0-3.3 3.6-2.5 6.3.8 2.6 1.8 3.5 3 4.4l-1.6-.9s-.5 8.5-3.5 11.1l7.3 4.7-.8-3.1s.5 1.3 1.5.3-1.8-5-1.8-5l.7.6s1.2-5.9 2-7.2c0 0-1.2.1-1.6 0 0 0 3.2-.1 4-3.5.8-3.4.4-3 .4-3L48.2 74s2.1-2.8 3.3-3.9c1.3-1.1 5.2-5.1 5.3-12.6z"></path>
  <path fill="#414257" d="m38.1 88-6.3 5.4s1.2 2.8 3.5 3.6l3.4-3.3-2.3 4s6.1 2.2 8.2.8C48 96.5 46 93 46 93s-1-.4-4.4-2.3C39 89.1 38.1 88 38.1 88z"></path>
  <path fill="#2E2F42" d="M46 93s-.3-.1-1.3-.6c-.9 3.2-4.2 5.6-7.5 5.7 1.7.5 5.9 1.7 7.5.6C48 96.5 46 93 46 93z"></path>
  <path fill="#CA9465" d="M29.3 61.5s9.6 2.2 14.2 7.3 11.7 12.5 28 5.7 25.9-9.2 25.9-9.2l4-28.2s-6.2-7.5-18.6-4.5c-15 3.7-28.5-7.4-35.9-8.4-7.4-1-20 16.3-20 16.3l2.4 21z"></path>
  <path fill="#754A44" d="M57.4 28.2s7.5 3 13.2 8.8c0 0-3.6-4.1 4.8-3.4 0 0-2.8.1-9.1-1.9-2.5-.9-5.3-2-8.9-3.5z"></path>
  <path fill="#A26747" d="M88.1 61.9s-5.9 8.1-16.9 9.9C60.1 73.6 50 61.3 50 61.3s2.2 9.1.7 9.5c-1.5.4-9-9.3-13.7-10.4-2.1-.5-3.7.6-4.8 1.9 3.2 1.1 8.3 3.1 11.4 6.5 4.6 5.1 11.7 12.5 28 5.7 7.9-3.3 14.2-5.5 18.6-7-.9-1.5-1.7-3.4-2.1-5.6z"></path>
  <path fill="#46332F" d="M61.2 77.4c-9.6.7-14.6-4.8-17.9-8.4-4.5-5-14-7.2-14.1-7.2h-.1l-2.5-21.3.1-.1c.5-.7 12.8-17.4 20.2-16.4 2.4.3 5.4 1.7 8.9 3.3 7.5 3.4 16.8 7.6 26.9 5.1 12.4-3 18.8 4.5 18.8 4.5l.1.1v.1l-4 28.4h-.1c-.1 0-9.8 2.5-25.9 9.2-4 1.7-7.4 2.5-10.4 2.7zm-31.7-16c1.2.3 9.9 2.6 14.2 7.3 4.2 4.7 11.3 12.5 27.7 5.7 15.1-6.2 24.6-8.8 25.8-9.1l3.9-28c-.7-.7-6.9-7.1-18.3-4.3-10.3 2.5-19.6-1.8-27.2-5.2-3.5-1.6-6.4-2.9-8.8-3.3-7-1-18.9 14.9-19.8 16.1l2.5 20.8z"></path>
  <path fill="#414257" d="m105.1 93.4-4.6 6.1s2.3 2.6 5.2 2.6l2.5-4.9-1 5.3s7.5.1 9.3-2.2c2.7-3.5-.7-6.7-.7-6.7s-1.3 0-5.6-.9c-.9-.2-1.7-.3-2.2-.5-1.1-.1-2.2.3-2.9 1.2z"></path>
  <path fill="#2E2F42" d="M115.8 93.7s-.4 0-1.6-.2c.2 3.9-2.4 7.6-6 9 2-.1 7-.4 8.4-2.2 2.6-3.4-.8-6.6-.8-6.6z"></path>
  <path fill="#CA9465" d="M87.8 59.2c.4 13.8 12.9 17.5 16.9 19.7 4 2.2 3.1 3.7 3.8 7 .6 2.8-1.4 5.3-2.1 6l-1 1.3s1.1-.9 2.8-.1c1.8.7 5.4 2.1 7.5.7 0 0 2-.6.5-2.2-1.6-1.7-2.8-6.5-2.6-9 .2-2.4 2.6-3.5.9-5.8-1.6-2.3-2.9-4.1-2.9-14 .1-16.5-10.6-25.7-10.6-25.7"></path>
  <path fill="#46332F" d="M10.8 50.2c-.8.1-1.6 0-2.3-.1-3.4-.6-6-2.8-7.2-5.8-1.5-3.8-.6-8.6 2.4-12.8.3-.4 1.1-.8 1.8-.3.6.5.4 1.3.1 1.7-.1.3-2.3 5.7-.1 8.5 1.2 1.5 3.4 2 6.5 1.6.2-1 1.8-6.9 5.5-9 1.4-.8 3-1 4.7-.5 2.1.6 2.9 2.5 2.3 5-1.3 4.9-7.5 11.3-13.7 11.7zM4.7 31.3c-.4 0-.7.4-.7.4-2.9 4-3.8 8.7-2.3 12.4 1.2 2.9 3.7 5 6.9 5.6 6.6 1.3 14-5.9 15.4-11.3.3-1.4.5-3.7-2-4.5-1.5-.5-3-.3-4.3.4-3.8 2.2-5.3 8.8-5.3 8.9v.1h-.1c-3.4.5-5.8-.1-7.1-1.8-2.4-3.1 0-8.7.1-8.9 0 0 .5-.8 0-1.1-.3-.2-.5-.2-.6-.2z"></path>
  <path fill="#D19B6C" d="M38.6 60.1c-.8 2.3-3 3.8-5.2 4.9-1.1.5-2.4.9-3.4 1.6-1.3.9-2.3 2.3-2.5 3.9-.2 1.3 0 2.7-.5 3.9-.5 1.2-1.6 2-2.8 2.4-1.2.4-2.5.5-3.8.5-1 0-2 .1-2.8-.4-1-.5-1.6-1.6-2.1-2.6-.3-.7-.7-1.4-1-2-.2-.3-.3-.7-.6-.9-.2-.2-.5-.4-.7-.6-1-.9-1.5-2.2-1.9-3.5-.4-1.2-.7-2.9.4-3.6.5-.3 1.1-.3 1.7-.5 1.7-.5 2.5-2.3 2.8-4 .4-2.7-.3-5.5-1-8.2-.7-2.7-.9-3.2-.4-5.9.6-2.7 4.8-3.7 7.5-3.9 4-.3 5.4-1.6 8.9-3.5 1.1-.6 2-1.3 3.2-1.6 1.7-.4 3.7.5 4.5 2.1-1.2-.1-2.5.3-3.3 1.1-.7.7-.7 1.9-.7 2.9 0 1.7.1 3.6 1.1 5 .3.5.6.9 1 1.4 3.2 4.3 2.5 9.2 1.6 11.5z"></path>
  <path fill="#A26747" d="M36.7 48c1.1 1.9 2.5 5.7.7 10.7 0 0-.4 2.9-4.4 5.3l2.7-5.9s-4.1 5.8-5.8 7.2c-1.7 1.3-2.6 2.8-3 4.6-.4 1.8-1 6.2-3.9 6-2.9-.2-4.7-2.4-3.5-2.6 1.2-.2 4.3 1.1 5.6-2.2 1.1-2.8 1.9-3.2 2.1-3.2l-14.5 2.3.3.3c.2.2.5.4.7.6.3.3.4.6.6.9.3.7.7 1.4 1 2 .5 1 1.1 2.1 2.1 2.6.9.4 1.9.4 2.8.4 1.3-.1 2.6-.1 3.8-.5 1.2-.4 2.3-1.2 2.8-2.4s.3-2.6.5-3.9c.3-1.6 1.2-3 2.5-3.9 1.1-.7 2.3-1 3.4-1.6 2.2-1.1 4.4-2.6 5.2-4.9.8-2.3 1.6-7.1-1.5-11.5.1.1 0-.1-.2-.3zM27.2 68c.1 0 .1 0 0 0zM35.8 46.6c0 .1 0 .1.1.2 0-.1 0-.2-.1-.2z"></path>
  <ellipse cx="30.5" cy="53.9" fill="#46332F" rx="2.9" ry="4.9" transform="rotate(5.86 30.468 53.881)"></ellipse>
  <ellipse cx="30.4" cy="54.4" fill="#FCFAFB" rx="2.7" ry="4.1" transform="rotate(5.86 30.413 54.38)"></ellipse>
  <ellipse cx="30.6" cy="54" fill="#23B8F2" rx="2" ry="2.8" transform="rotate(4.816 30.635 54)scale(1.00003)"></ellipse>
  <ellipse cx="30.6" cy="54" rx="1.2" ry="1.7" transform="matrix(.9965 .08392 -.08392 .9965 4.64 -2.38)"></ellipse>
  <circle cx="30.1" cy="52.8" r=".6" fill="#FFFEFF"></circle>
  <path fill="#CA9465" d="M27.5 58.1s3-2.3 5.9-.7l-1.6 1.9h-2.5l-1.8-1.2z"></path>
  <path fill="#46332F" d="M27.5 58.1s2.6-2.5 5.9-.7c.1 0-1.9-1-5.9.7zM17.6 56.3c0-.8-.1-1.7-.2-2.6-.3-2.6-.9-4.4-1.2-4.1-.4.3-.4 2.6-.1 5.2.2 1.8.5 3.2.8 3.8.2-.8.5-1.5.7-2.3z"></path>
  <path fill="#FCFAFB" d="M17.6 56.4c0-.7-.1-1.4-.1-2.2-.3-2.2-.7-3.7-1.1-3.4-.4.3-.4 2.3-.2 4.4.2 1.6.5 2.8.8 3.3.1-.7.4-1.4.6-2.1z"></path>
  <path fill="#23B8F2" d="M16.3 54.7c.2 1.5.5 2.5.8 2.4.3-.2.3-1.5.2-3-.2-1.5-.5-2.5-.8-2.4-.3.2-.4 1.5-.2 3z"></path>
  <path d="M16.5 54.6c.1.9.3 1.5.5 1.4.2-.1.2-.9.1-1.8s-.3-1.5-.5-1.4c-.2.1-.2.9-.1 1.8z"></path>
  <ellipse cx="16.8" cy="53.2" fill="#FFFEFF" rx=".1" ry=".6" transform="rotate(175.924 16.763 53.214)scale(1.00003)"></ellipse>
  <path fill="#CEBCA8" d="M16.9 58.7c.1-.5.2-.9.4-1.4-.3-.3-.7-.3-1 .6l.4 1.3c0-.1.1-.3.1-.4l.1-.1z"></path>
  <path fill="#665F59" d="M17.2 57.5c0-.1.1-.2.1-.3-.3-.3-.7-.3-1 .7 0 0 .3-.7.9-.4z"></path>
  <path fill="#46332F" d="M12.2 62.9s3.8 1.5 5.9-9.4c0 0-.6 8.3-4.5 9.8l-1.4-.4zM39.6 55.4s.7 6.7-5 9.1c-5.6 2.4-6.5 4.3-6.5 4.3s-.5.9-.5 3-1.1 5.2-4.6 5.4c-3.5.2-5.5.6-6.7-1.1-1.2-1.6-1.7-3.1-1.7-3.1l2.3-2 4.9-.3 1.5-2.4 3-1.1s1.2.3 1.5.9l-1.2-.1s-1.2.6-1.4 1.6c-.2 1.1-.9 3.5-3.1 3.3-2.2-.1-4.5-.9-6.2.4l-.6.1s.1 1.2 1.1 1.3 3-.6 3-.6-1.6 1.2-2.7 1.1c0 0 .7 1.7 4.7 1.6 3.5-.1 5.1-1.2 5.5-3.1.6-2.8 0-5 2.6-7.2s4.4-5.1 4.4-5.1-1.6 3.1-2.8 4.2c0 0 5.5-1.8 6.9-4.5 1.8-3.5 1.9-8.1.1-11.3-.2 0 1.8 3.1 1.5 5.6zM26 50.5s3.1-8.3 6.9-3.3c0 0-3-3-6.9 3.3z"></path>
  <path fill="#46332F" d="M15.5 61s1.2-3.6 0-8.1c-1.1-4.5-2.1-6.5 0-9.6 2.2-3.3 9.4-2.1 9.4-2.1s-7.4-.1-9 2.7c-1.3 2.4-.6 2.9-.6 2.9s.2-.5 1.3 1c0 0-1.4.1-1.3 1.3.1 1.2.5 1.9.5 1.9s1.4 8.5-.3 10z"></path>
  <path fill="#7C6E61" d="M14.8 48.9s.4-4.4 3.1.8c-.1 0-3.1-6.7-3.1-.8z"></path>
  <path fill="#31140E" d="M27.9 68c-.6-.1-1.2 0-1.7.4s-.9.9-1.1 1.4c-.2.4-.3.9-.5 1.3-.3.6-.6 1.1-1.2 1.4-.4.2-.9.3-1.4.4h-.9c-.6-.1-1.1-.3-1.7-.3-.7-.1-1.3 0-1.9.2-.5.2-.9.4-1.4.5-.4.1-1 0-1.2-.4 0-.1-.1-.1 0-.2 0-.1.1-.1.1-.2.3-.2.6-.4 1-.6.5-.3.9-.6 1.5-.9.5-.2 1.1-.4 1.7-.5 2.3-.6 4.6-1.3 6.3-2.9.2-.2.4-.4.7-.5.3-.2.7-.1 1 .1.2.1.4.2.5.3-.2.2 0 .5.2.5z"></path>
  <path fill="#F5B97A" d="M24.7 62.3c-1.1-.7-2.8-.9-3.8-.1-.3.2-3 2.3-6 1.3-1-.3-1.7-.4-2.3-.3-.3.1-.6.1-.9.3 0 0-.1.1-.2.1-1 .7-.8 2.3-.4 3.5.4 1.3.9 2.6 1.9 3.5.2.2.5.4.7.6l.6.9s0 .1.1.1c0 0 0 .1.1.1 0 .1.1.1.1.2.5.9 1.3.1 1.9-.1 1.2-.4 2.4-.5 3.6-.2.5.1 1.1.3 1.6.3 1 0 2-.6 2.3-1.5.2-.6.3-1.3.6-1.8.6-.9 2.1-1.3 2.2-2.3 0-1 .4-3.1-2.1-4.6z"></path>
  <ellipse cx="21.6" cy="67.3" fill="#2D140D" rx="1.3" ry="1.9" transform="rotate(24.398 21.592 67.26)"></ellipse>
  <path fill="#C77730" d="M22.4 65.5c.2.5.2 1.2-.1 1.8-.4 1-1.3 1.5-1.9 1.2.1.2.3.4.4.4.6.3 1.5-.3 1.9-1.2.5-.9.3-1.9-.3-2.2z"></path>
  <path fill="#2D140D" d="M12.7 67.7c.4.9 1.1 1.4 1.6 1.2.5-.2.6-1.1.2-1.9-.4-.9-1.1-1.4-1.6-1.2-.5.1-.6 1-.2 1.9z"></path>
  <path fill="#C77730" d="M13.1 67.3c-.2-.6-.3-1.2-.1-1.6-.5.2-.6 1.1-.2 1.9.4.9 1.1 1.4 1.6 1.2.2-.1.3-.2.4-.4-.7.3-1.4-.3-1.7-1.1z"></path>
  <path fill="#A26747" d="M113.6 82.5c.2-2.4 2.6-3.5.9-5.8-1.6-2.3-2.9-4.1-2.9-14 0-14.7-8.5-23.6-10.3-25.4v-.2S99.5 35 96 33.5l-.3.1s9.6 8.1 11.7 19.5c2.1 11.4-.1 18.7.2 21.6.3 2.9 2.4 2.4 3 3.9.6 1.5-.7 3.2-.7 3.2l.2 2.7 1.4 2.3s1 1.9.9 3.6c-.1 1.3-3 2.3-4.3 2.6h.1c.6.3 1.4.6 2.3.8l1.6.4c1.3.2 2.6.2 3.5-.5 0 0 2-.6.5-2.2s-2.7-6.5-2.5-9z"></path>
  <path fill="#46332F" d="M116.2 91.5c-1.6-1.7-2.8-6.5-2.6-9 .2-2.4 2.6-3.5.9-5.8-1.6-2.3-2.9-4.1-2.9-14 0-9.3-3.2-16.3-6.1-20.6-1.1-2.3-3.9-5.1-3.9-5.1L97 33.9l-.6-.1c3.5 1.4 6.3 5.3 7.5 7.2 2.6 4.4 6.5 11.6 6.8 17.3.5 8.7.5 12.4 1.6 15.4 0 0 .8 1.7 1.4 2.5.6.8 1 1.4 1 1.9s-.5 2.5-2.7 4.7l1.3-.8s-.5 4.9 1.7 8.5c0 0 2.3 2.3.6 3-1.7.7-4.8 1.1-6.2-1.2l.3 1s-1.8-1-2.9-.9c0 0 2.5-3.3 3-6.4l-.9 1.6s-.4-7.2-1.6-9.5l.3 2.4s-1-1.5-6.6-3.8c-5.7-2.3-12.2-7.2-13.3-17.6.4 13.8 12.9 17.5 16.9 19.7 4 2.2 3.1 3.7 3.8 7 .6 2.8-1.4 5.3-2.1 6l-1 1.3s1.1-.9 2.8-.1c1.8.7 5.4 2.1 7.5.7.1.1 2.1-.5.6-2.2z"></path>
  <path fill="#CA9465" d="M69.8 54s2.7 7.7-3.5 16.2c0 0-1.1 1.2-.7 3 .4 1.9-.2 5.1-2.1 6.8 0 0-1.6 7.9-.5 9.3 1.1 1.4 3.2 4.1 1.9 4.8-1.3.7-1.2.3-1.2.3l1.6 3-11-4.5s3.2-5.8 1.6-13.6c0 0-3.6-1.9-2.5-6.9 0 0-5.5-11.7-3.9-18.2"></path>
  <path fill="#414257" d="m54.7 92.2-6 7.4s1.9 3 4.7 3.4l3.2-4.4-1.8 5s7.4 1.3 9.5-.7c3.2-3 .3-6.7.3-6.7s-1.2-.2-5.4-1.8c-3.2-1.2-4.5-2.2-4.5-2.2z"></path>
  <path fill="#2E2F42" d="m64.7 96.2-1.6-.4c-.4 3.8-3.6 7.2-7.4 8 2 .3 7 .7 8.6-.8 3.2-3.1.4-6.8.4-6.8z"></path>
  <path fill="#A26747" d="M69.8 54s2.4 8.2-4.3 17.2c0 0 .4 4.5-.3 5.8 0 0-1.2 2.3-1.7 2.5 0 0-1.4 8-.8 9.5 0 0 2.7 3.1 2.2 4.5-.4 1.3-1.7.5-1.7.5l1.6 3-9.3-3.5s3.1.7 4-2.9c.9-3.5-1.7-5.4-1.4-7.2.2-1.8 2.6-2.6 2.6-2.6s-3.3-1.3-2.5-4.6c.8-3.2 2.3-3.1 5.5-7.2 3-3.9 6.4-7.5 6.1-15z"></path>
  <path fill="#46332F" d="M69.8 54s2.7 7.7-3.5 16.2c0 0-1.1 1.2-.7 3 .4 1.9-.2 5.1-2.1 6.8 0 0-1.6 7.9-.5 9.3 1.1 1.4 3.2 4.1 1.9 4.8-1.3.7-1.2.3-1.2.3l1.6 3-11-4.5s3.2-5.8 1.6-13.6c0 0-3.6-1.9-2.5-6.9 0 0-5.5-11.7-3.9-18.2 0 0 .1 10.6 4.3 17.5 0 0 1.3-2.8 2.1-3.5 0 0-3 4.8-1.6 7.6s2.7 3.7 4.3 4.4l-2-.7s1.2 9.6-1.7 13.2l9.2 3.8-1.5-3.4s.9 1.4 1.8.1c.9-1.3-3-5.3-3-5.3l1 .6s.2-6.9.8-8.5c0 0-1.3.4-1.8.3 0 0 3.6-.7 3.8-4.8.2-4-.1-3.5-.1-3.5l-1.7 2.3s1.8-3.6 3-5.1c1.2-1.5 4.7-6.7 3.4-15.2zM12.4 43.2s0 .1-.1.3c-.1.2-.2.4-.3.7-.1.3-.3.6-.6.9-.1.2-.2.3-.4.5-.1.2-.3.3-.4.4-.1.1-.3.3-.5.4-.2.1-.3.2-.5.3-.2.1-.3.2-.5.2-.1 0-.3.1-.4.1-.1 0-.3.1-.4.1-.1 0-.2.1-.3.1-.2 0-.3.1-.3.1s.1 0 .3-.1c.1 0 .2-.1.3-.1.1 0 .2-.1.4-.2.1-.1.3-.1.4-.2.1-.1.3-.2.5-.3.1-.1.3-.2.5-.3.1-.1.3-.2.4-.4l.4-.4c.1-.1.2-.3.3-.5.2-.3.4-.6.5-.9.1-.3.2-.5.2-.7 0-.2.1-.2.1-.3l.4.3z"></path>
  <path fill="#D78556" d="M26.8 66.8c0-.7.2-2-.7-3.3.1.5.5 1.1.5 1.4.1.7-.1 1.5-.6 1.9-.5.5-1.3.6-1.8 1.1-.8.8-.6 2.2-1.5 2.9-.3.2-.7.3-1.1.4-.4.1-.8.1-1.2 0-.7-.2-1.2-.7-1.9-.9-.5-.1-1-.1-1.6 0v.5c-.6.4-1.4.2-2.1 0-.1 0-.1 0-.2-.1-.6-.2-1.2-.4-1.8-.7-.3-.2-.6-.4-.8-.6l.9 1.2c.2.2.5.4.7.6l.6.9s0 .1.1.1c0 0 0 .1.1.1 0 .1.1.1.1.2.5.9 1.3.1 1.9-.1 1.2-.4 2.4-.5 3.6-.2.5.1 1.1.3 1.6.3 1 0 2-.6 2.3-1.5.2-.6.3-1.3.6-1.8.7-.9 2.2-1.3 2.3-2.4z"></path>
  <path fill="#46332F" d="M23.1 61.5c-1.9-.5-4 1.6-5.6 2-1.6.4-2.1-.2-4.8-.5-2.7-.3-2.1 3.2-1.4 5.3.7 2.1 1.9 2.8 1.9 2.8.4.3.6.7.6.7s.5 2.3 2.2 1.1c1.7-1.2 4.5-.3 4.5-.3 3.9.9 4.2-2.6 4.3-3.2.1-.6 1.9-1.8 1.9-1.8 1.1-4.1-1.7-5.6-3.6-6.1zm3.4 5.8s-1.6 1.2-2.1 1.9c-.4.7-.1 2.2-1.5 2.7-1.4.6-3.2.2-5.4-.7l.9.5s-2.2.2-3.2.9c0 0-.6.5-1.2-1s-1.2-.6-2.1-2.6c-.9-2-1.5-4-.8-5.1.6-.9 1.2-1.1 7 1.1l-1.8-1.2s1.5.1 3.8-1.2 3.4-1.3 5.1.2c2 1.7 1.3 4.5 1.3 4.5z"></path>
  <path fill="#A26747" d="M35.7 43c.1.3.4.4.6.6 2 1 4.1 1.5 6.1 2.4.7.3 1.4.6 2.1 1.1l1.2 1.2c1 1.3 1.9 2.7 2.5 4.2.4 1 .8 2.2 1.8 2.8.2.2.5.3.5.6s-.3.5-.6.6c-1.8.6-3.7.4-5.6 0-.6-.2-1.3-.4-1.8-.7-1-.5-1.7-1.4-2.5-2.2-.9-1-1.8-2-2.4-3.3-.2-.4-.4-.9-.6-1.3-.5-.9-1.4-1.7-2.4-2.1 0 0-.8-1.7-.1-2.6"></path>
  <path fill="#D19B6C" d="M35.6 46.4c.7.5 1.7.8 2.6 1 .9.2 1.8.3 2.7.7 1.2.6 2.2 1.6 3 2.7.8 1.1 1.5 2.3 2.3 3.3.3.4.6.8 1 1.1.9.6 2.1.7 3.1.6-1.1-.4-1.6-1.6-2.1-2.7-.6-1.4-1.1-2.9-2-4.1-.8-1.3-2-2.4-3.4-3-.6-.2-1.3-.4-1.9-.6-1.8-.5-3.5-1.2-5-2.3-.1-.1-.2-.1-.3-.1-.1 0-.2 0-.2.1-1.5.8-1 2.4.2 3.3z"></path>
  <g fill="#46332F">
    <path d="M34.5 44s-.8 2.5 4.4 3.3 6.7 7.8 9.8 8.5c0 0-.7.1-1.6-.5-.9-.6-1.9-1.9-3.6-4.3 0 0-1.9-3-4.7-3.3-3.5-.4-5.3-2.4-4.3-3.7z"></path>
    <path d="M34.6 46.9c1 .4 1.9 1.1 2.4 2.1.2.4.4.9.6 1.3.6 1.2 1.5 2.2 2.4 3.3.7.8 1.5 1.7 2.5 2.2.6.3 1.2.5 1.8.7 1.8.5 3.8.7 5.6 0 .3-.1.6-.3.6-.6s-.3-.5-.5-.6c-.9-.6-1.3-1.8-1.8-2.8-.6-1.5-1.5-2.9-2.5-4.2-.4-.4-.7-.9-1.2-1.3-.6-.5-1.3-.9-2-1.2-2-.8-4-1.4-6-2.4-.3-.1-.5-.3-.9-.5 0 0 2.3 2 7 3.2 0 0 2.6.8 4.6 5 2 4.2 2.2 4.2 2.7 4.5.5.3-4.7 1.6-7.6-.5-2.9-2.2-4.5-5-4.9-5.9 0 0-.7-1.9-2.6-2.4l-.2.1z"></path>
  </g>
  <path fill="#EEDC9A" d="M22.2 36.2s3.9-6.7 11.7-2.3c7.9 4.4 14.2 10.5 16.7 8s1-8.7.7-9.6c-.3-.9.3-2 1.5-1.1 1.1.9 7.1 13.6-4.8 16.7 0 0-5.6.9-10-2.8-4.4-3.7-7.4-3.5-9.4-2.7-2.1.7-9.4.4-6.4-6.2z"></path>
  <path fill="#D4B66E" d="M52.8 31.2c-1.1-.9-1.7.2-1.5 1.1.3.9 1.7 7.1-.7 9.6 0 0-2.8 5.3-8.9 3.2 0 0-3.1-1.6-5.1-3-2-1.5-5.5-2.2-8.5-.8-3 1.3-6 0-6.5-1.4.6 3.2 5.4 3.2 7 2.7 2-.7 5-1 9.4 2.7s10 2.8 10 2.8c11.8-3.4 5.9-16 4.8-16.9z"></path>
  <path fill="#F9E8B2" d="M28.2 33.3s-4.9.3-5.1 4c-.2 3.8 6.3 1.8 6.3 1.8s6.2-.7 9.5 3.3c0 0-2-3.6-.8-5 0 .1-5.1-4.4-9.9-4.1z"></path>
  <ellipse cx="28" cy="35.4" fill="#FFF6DC" rx="2.1" ry="1.3" transform="rotate(-8.028 27.965 35.38)"></ellipse>
  <path fill="#46332F" d="M47.3 48.2c-1.6.1-6 .1-9.6-2.9-4.5-3.8-7.4-3.3-9.2-2.7-1.3.5-4.8.5-6.4-1.2-1.1-1.2-1.2-3-.2-5.3 0-.1 4.1-6.8 12-2.4 2.5 1.4 4.8 2.9 6.9 4.3 4.4 3 7.9 5.3 9.5 3.7 2.3-2.3 1-8.3.7-9.4-.2-.6 0-1.3.4-1.5.2-.2.7-.3 1.4.2.8.6 3.3 5.7 2.4 10.2-.7 3.5-3.2 5.8-7.3 6.9.1 0-.2 0-.6.1zm-16.9-6.5c2.4-.2 4.9.9 7.6 3.2 4.3 3.6 9.8 2.7 9.9 2.7 3.9-1 6.3-3.2 6.9-6.5.9-4.5-1.6-9.4-2.2-9.8-.4-.3-.7-.4-.9-.2-.3.2-.3.6-.2 1.1.4 1.3 1.7 7.3-.8 9.8-1.8 1.9-5.3-.5-10.1-3.6-2.1-1.4-4.4-2.9-6.9-4.3-7.5-4.2-11.2 1.8-11.4 2.2-1 2.1-.9 3.7.1 4.8 1.5 1.6 4.7 1.6 6 1.1.7-.3 1.4-.4 2-.5z"></path>
  <path fill="#46332F" d="M35.6 47.2s-.5-.3-1-.7c-.4-.4-.4-1.3-.3-2.2 0 0-.6 1.8.2 2.6l1.1.3z"></path>
</svg>
