<svg xmlns="http://www.w3.org/2000/svg" viewBox="0 0 74 74" id="cave">
  <polygon fill="#e1e6e9" points="68.978 47.566 65.866 30.974 60.6 23.75 59.084 13.478 47.444 9.451 37.963 3.891 28.482 9.451 16.842 13.478 15.325 23.75 10.059 30.974 5.022 47.566 8.301 51.713 3 60.769 3 70.109 71 70.109 71 60.769 65.699 51.713 68.978 47.566"></polygon>
  <polygon fill="#d5d6db" points="65.699 51.713 68.978 47.566 65.866 30.974 60.6 23.75 59.084 13.478 47.444 9.451 37.963 3.891 28.482 9.451 16.842 13.478 16.62 14.98 25.648 11.857 35.129 6.297 44.61 11.857 56.25 15.884 57.767 26.156 63.033 33.38 66.145 49.972 62.866 54.119 68.167 63.175 68.167 70.109 71 70.109 71 60.769 65.699 51.713"></polygon>
  <path fill="#323c6b" d="M24.125 20.1a.5.5 0 0 1-.322-.117l-7.282-6.121a.5.5 0 1 1 .643-.766l6.989 5.874 3.185-2.228a.5.5 0 1 1 .574.82l-3.5 2.448A.5.5 0 0 1 24.125 20.1zM62.75 64.5a.5.5 0 0 1-.291-.093l-7.334-5.25a.5.5 0 0 1 .582-.814l7.113 5.093 8-3.132a.5.5 0 0 1 .364.93l-8.25 3.231A.475.475 0 0 1 62.75 64.5zM65.866 31.474H59.875a.5.5 0 0 1-.359-.152l-4.459-4.6a.5.5 0 1 1 .718-.7l4.311 4.447h5.78a.5.5 0 0 1 0 1zM14.75 48.522a.5.5 0 0 1-.427-.239l-2.142-3.515L5.234 48.019a.5.5 0 1 1-.424-.905l7.353-3.442a.5.5 0 0 1 .639.193l2.375 3.9a.5.5 0 0 1-.167.687A.493.493 0 0 1 14.75 48.522zM43.125 19.125a.5.5 0 0 1-.435-.253l-2.625-4.625a.5.5 0 0 1 .161-.665L47.17 9.033a.5.5 0 0 1 .548.837l-6.551 4.291 2.393 4.217a.5.5 0 0 1-.435.747zM20.75 66.25a.5.5 0 0 1-.351-.145L14.32 60.1 3.052 61.267a.5.5 0 0 1-.1-1l11.5-1.191a.493.493 0 0 1 .4.142L21.1 65.4a.5.5 0 0 1-.352.855zM13.29 17.506a.462.462 0 0 1-.074-.006.5.5 0 0 1-.422-.567l.075-.506a.5.5 0 1 1 .989.146l-.074.506A.5.5 0 0 1 13.29 17.506zM13.708 14.667a.459.459 0 0 1-.073-.006.5.5 0 0 1-.422-.568l.433-2.928a.5.5 0 0 1 .331-.4l8.093-2.8a.5.5 0 0 1 .327.946l-7.806 2.7L14.2 14.24A.5.5 0 0 1 13.708 14.667zM70.555 40.854a.5.5 0 0 1-.491-.408l-.093-.5a.5.5 0 1 1 .982-.184l.094.5a.5.5 0 0 1-.492.592zM69.323 52.466a.493.493 0 0 1-.309-.108.5.5 0 0 1-.082-.7l2.712-3.43-1.095-5.673a.5.5 0 0 1 .982-.189l1.138 5.9a.5.5 0 0 1-.1.4l-2.854 3.61A.5.5 0 0 1 69.323 52.466z"></path>
  <path fill="#e7aa6c" d="M27.328,70.109V37.618h21.51V70.109H53.75V36.542a4.125,4.125,0,0,0-4.125-4.125H26.542a4.125,4.125,0,0,0-4.126,4.125V70.109Z"></path>
  <path fill="#d09865" d="M49.625,32.417H26.542a4.12,4.12,0,0,0-3.76,2.443,4.081,4.081,0,0,1,1.385-.256H47.25a4.125,4.125,0,0,1,4.125,4.125v31.38H53.75V36.542A4.125,4.125,0,0,0,49.625,32.417Z"></path>
  <rect width="21.51" height="32.491" x="27.328" y="37.618" fill="#bbbbcd"></rect>
  <path fill="#323c6b" d="M48.838,70.609H27.329a.5.5,0,0,1-.5-.5V37.618a.5.5,0,0,1,.5-.5H48.838a.5.5,0,0,1,.5.5V70.109A.5.5,0,0,1,48.838,70.609Zm-21.009-1H48.338V38.118H27.829Z"></path>
  <polygon fill="#62667c" points="43.971 62.27 48.838 70.109 27.328 70.109 32.196 62.27 43.971 62.27"></polygon>
  <path fill="#323c6b" d="M48.838,70.609H27.329a.5.5,0,0,1-.425-.763l4.867-7.84a.5.5,0,0,1,.425-.236H43.971a.5.5,0,0,1,.425.236l4.867,7.84a.5.5,0,0,1-.425.763Zm-20.61-1H47.939L43.692,62.77H32.474Z"></path>
  <path fill="#84879c" d="M38.083,43.853h0A5.887,5.887,0,0,0,32.2,49.74V62.27H43.971V49.74A5.888,5.888,0,0,0,38.083,43.853Z"></path>
  <path fill="#323c6b" d="M43.971,62.77H32.2a.5.5,0,0,1-.5-.5V49.74a6.388,6.388,0,0,1,12.775,0V62.27A.5.5,0,0,1,43.971,62.77Zm-11.275-1H43.471V49.74a5.388,5.388,0,0,0-10.775,0Z"></path>
  <path fill="#323c6b" d="M71,70.609H3a.5.5,0,0,1-.5-.5v-9.34a.494.494,0,0,1,.068-.252L7.7,51.755,4.63,47.876a.5.5,0,0,1-.087-.455L9.581,30.829a.491.491,0,0,1,.075-.15l5.193-7.123,1.5-10.151a.5.5,0,0,1,.331-.4L28.318,8.979l9.392-5.52a.5.5,0,0,1,.506,0L47.7,9.021l11.55,3.984a.5.5,0,0,1,.331.4l1.5,10.151,5.193,7.123a.486.486,0,0,1,.087.2l3.112,16.593a.5.5,0,0,1-.1.4L66.3,51.755l5.129,8.762a.494.494,0,0,1,.068.252v9.34A.5.5,0,0,1,71,70.609Zm-67.5-1h67v-8.7l-5.232-8.94a.5.5,0,0,1,.039-.562l3.138-3.968L65.4,31.177l-5.2-7.132a.5.5,0,0,1-.091-.221l-1.472-9.972L47.28,9.924,37.963,4.47,28.735,9.883,17.292,13.851,15.82,23.824a.489.489,0,0,1-.091.221L10.514,31.2,5.576,47.461,8.693,51.4a.5.5,0,0,1,.039.562L3.5,60.905Z"></path>
  <path fill="#323c6b" d="M53.75,70.609H48.838a.5.5,0,0,1-.5-.5V38.118H27.829V70.109a.5.5,0,0,1-.5.5H22.417a.5.5,0,0,1-.5-.5V36.542a4.63,4.63,0,0,1,4.625-4.625H49.625a4.631,4.631,0,0,1,4.625,4.625V70.109A.5.5,0,0,1,53.75,70.609Zm-4.412-1H53.25V36.542a3.629,3.629,0,0,0-3.625-3.625H26.542a3.628,3.628,0,0,0-3.625,3.625V69.609h3.912V37.618a.5.5,0,0,1,.5-.5H48.838a.5.5,0,0,1,.5.5Z"></path>
  <path fill="#fff" d="M35.1 41h-.75a.65.65 0 0 1 0-1.3h.75a.65.65 0 0 1 0 1.3zM29.745 47.862a.65.65 0 0 1-.65-.65V40.354a.65.65 0 0 1 .65-.65H32.2a.65.65 0 0 1 0 1.3H30.4v6.208A.65.65 0 0 1 29.745 47.862z"></path>
</svg>
