<svg xmlns="http://www.w3.org/2000/svg" xml:space="preserve" id="coil" width="64" height="64" x="0" y="0" enable-background="new 0 0 64 64" version="1.1" viewBox="0 0 64 64">
  <g>
    <g>
      <path fill="#F9BA48" d="M32,5C19.297,5,9,15.297,9,28c0,12.703,10.297,23,23,23s23-10.297,23-23C55,15.297,44.703,5,32,5z M32,42    c-7.732,0-14-6.268-14-14s6.268-14,14-14s14,6.268,14,14S39.732,42,32,42z"></path>
    </g>
    <g>
      <rect width="2" height="15" x="31" y="2" fill="#333"></rect>
    </g>
    <g>
      <rect width="2" height="15" x="25.283" y="2.905" fill="#333" transform="rotate(-17.998 26.284 10.406)"></rect>
    </g>
    <g>
      <rect width="2" height="15" x="20.126" y="5.533" fill="#333" transform="rotate(-36.002 21.124 13.033)"></rect>
    </g>
    <g>
      <rect width="2" height="15" x="16.033" y="9.626" fill="#333" transform="rotate(-53.999 17.034 17.126)"></rect>
    </g>
    <g>
      <rect width="2" height="15" x="13.405" y="14.783" fill="#333" transform="rotate(-72.002 14.404 22.282)"></rect>
    </g>
    <g>
      <rect width="15" height="2" x="6" y="27" fill="#333"></rect>
    </g>
    <g>
      <rect width="15" height="2" x="6.905" y="32.717" fill="#333" transform="rotate(-18.01 14.401 33.723)"></rect>
    </g>
    <g>
      <rect width="15" height="1.999" x="9.533" y="37.874" fill="#333" transform="rotate(-36.021 17.031 38.871)"></rect>
    </g>
    <g>
      <rect width="14.999" height="2" x="13.626" y="41.967" fill="#333" transform="rotate(-53.999 21.125 42.966)"></rect>
    </g>
    <g>
      <path fill="#333" d="M23,62.004l-0.02-5.426c-0.01-2.659,0.401-5.289,1.223-7.818l3.446-10.606l1.902,0.617l-3.446,10.606    c-0.756,2.327-1.135,4.747-1.125,7.193L25,61.996L23,62.004z"></path>
    </g>
    <g>
      <path fill="#333" d="M41,62.004l-2-0.008l0.021-5.426c0.009-2.446-0.37-4.866-1.126-7.193l-3.446-10.606l1.902-0.617    l3.446,10.606c0.821,2.528,1.232,5.159,1.224,7.818L41,62.004z"></path>
    </g>
    <g>
      <rect width="1.999" height="14.999" x="41.874" y="35.467" fill="#333" transform="rotate(-36.002 42.872 42.966)"></rect>
    </g>
    <g>
      <rect width="1.999" height="14.999" x="45.967" y="31.374" fill="#333" transform="rotate(-53.999 46.968 38.875)"></rect>
    </g>
    <g>
      <rect width="2" height="15" x="48.595" y="26.217" fill="#333" transform="rotate(-72.002 49.593 33.716)"></rect>
    </g>
    <g>
      <rect width="15" height="2" x="43" y="27" fill="#333"></rect>
    </g>
    <g>
      <rect width="15" height="2" x="42.095" y="21.283" fill="#333" transform="rotate(-17.973 49.595 22.282)"></rect>
    </g>
    <g>
      <rect width="14.999" height="2" x="39.467" y="16.126" fill="#333" transform="rotate(-36.002 46.969 17.126)"></rect>
    </g>
    <g>
      <rect width="15" height="1.999" x="35.374" y="12.033" fill="#333" transform="rotate(-53.978 42.876 13.032)"></rect>
    </g>
    <g>
      <rect width="15" height="2" x="30.217" y="9.405" fill="#333" transform="rotate(-72 37.717 10.408)"></rect>
    </g>
  </g>
</svg>
