<svg xmlns="http://www.w3.org/2000/svg" xml:space="preserve" id="fire" x="0" y="0" version="1.1" viewBox="0 0 24 24">
  <path fill="#F16923" d="M9.001 11.949C9 6 11 2 15 0c.5 6 6 8 6 15a9 9 0 0 1-18 0c0-3.5 1-5 3-7 0 3 3.001 3.949 3.001 3.949z"></path>
  <path fill="#010101" d="M12 23.75c-4.026 0-7.435-2.616-8.638-6.238C4.45 21.259 7.902 24 12 24s7.55-2.741 8.638-6.488C19.435 21.134 16.026 23.75 12 23.75z" opacity=".1"></path>
  <path fill="#FDB816" d="M16.5 17.5a4.5 4.5 0 0 1-9 0c0-1.677.5-2.542 1.5-3.5 0 2 1.5 2.5 1.5 2.5 0-2.85 1-4.542 3-5.5.25 2.875 3 3.813 3 6.5z"></path>
  <path fill="#FFF" d="M10.5 16.75c0-2.85 1-4.542 3-5.5.245 2.818 2.886 3.779 2.99 6.347.001-.033.01-.064.01-.097 0-2.688-2.75-3.625-3-6.5-2 .958-3 2.65-3 5.5 0 0-1.5-.5-1.5-2.5-1 .958-1.5 1.823-1.5 3.5 0 .024.007.046.007.07.037-1.555.53-2.398 1.493-3.32 0 2 1.5 2.5 1.5 2.5z" opacity=".2"></path>
  <path fill="#010101" d="M12 21.75a4.496 4.496 0 0 1-4.493-4.43c-.001.062-.007.116-.007.18a4.5 4.5 0 1 0 9 0c0-.053-.008-.101-.01-.153A4.494 4.494 0 0 1 12 21.75z" opacity=".1"></path>
  <path fill="#FFF" d="M9.001 12.199C9 6.25 11 2.25 15 .25c.497 5.962 5.925 7.98 5.994 14.873 0-.041.006-.081.006-.123 0-7-5.5-9-6-15-4 2-6 6-5.999 11.949C9.001 11.949 6 11 6 8c-2 2-3 3.5-3 7 0 .036.005.072.005.108C3.035 11.715 4.03 10.22 6 8.25c0 3 3.001 3.949 3.001 3.949z" opacity=".2"></path>
  <linearGradient id="SVGID_1_" x1="4.906" x2="21.397" y1="8.459" y2="16.149" gradientUnits="userSpaceOnUse">
    <stop offset="0" stop-color="#FFF" stop-opacity=".2"></stop>
    <stop offset="1" stop-color="#FFF" stop-opacity="0"></stop>
  </linearGradient>
  <path fill="url(#SVGID_1_)" d="M9.001 11.949C9 6 11 2 15 0c.5 6 6 8 6 15a9 9 0 0 1-18 0c0-3.5 1-5 3-7 0 3 3.001 3.949 3.001 3.949z"></path>
</svg>
