<svg xmlns="http://www.w3.org/2000/svg" viewBox="0 0 128 128" id="hunter">
  <path fill="#2d4356" d="M58 56.68a2 2 0 0 1-2 2h-8a2 2 0 0 1 0-4h8a2.006 2.006 0 0 1 2 2Z"></path>
  <circle cx="45.5" cy="43.5" r="2.17" fill="#2d4356"></circle>
  <circle cx="58.5" cy="43.5" r="2.17" fill="#2d4356"></circle>
  <path fill="#2d4356" d="M52 9a6 6 0 1 0 6 6 6.005 6.005 0 0 0-6-6Zm0 8a2 2 0 1 1 2-2 2.006 2.006 0 0 1-2 2Z"></path>
  <circle cx="52" cy="15" r="2" fill="#ffdb80"></circle>
  <path fill="#d68751" d="M90.543 114.11a6.019 6.019 0 0 1 .183-3.146l1.065-3.127-1.184-6.105-1.748-1.078A5.915 5.915 0 0 1 86 95.55V77.068l-19.75-8.235H36.023L13.417 79.75S6.5 84.5 6 97.833 1.71 125.98 1.71 125.98h91.446Z"></path>
  <path fill="#2d4356" d="m127.16 67.85-8.4-5.96a2.008 2.008 0 0 0-3 .85 14.356 14.356 0 0 1-10.78 8.4v-3.08h1.52a2.006 2.006 0 0 0 2-2V40.28a2.022 2.022 0 0 0-.6-1.43l-4.57-4.48V2a2 2 0 0 0-4 0v32.31l-5.63 6.62a1.988 1.988 0 0 0-.48 1.3v21.11l-2.89 4.41a1.916 1.916 0 0 0-.33 1.09v26.71a1.972 1.972 0 0 0 .96 1.7l3.24 2 1.72 8.87-1.4 4.11a1.967 1.967 0 0 0-.07 1.02l2.89 13.13A2 2 0 0 0 99.3 128a2.157 2.157 0 0 0 .35-.03l14.69-2.56a2.02 2.02 0 0 0 1.54-2.67l-8.82-21.88 8.78 3.22a4.03 4.03 0 0 0 1.41.25 4.149 4.149 0 0 0 1.91-.47 4.081 4.081 0 0 0 2.05-2.61l1.02-4.05a4.071 4.071 0 0 0-2.55-4.83l-8.89-3.28.59-.19a2.01 2.01 0 0 0 1.37-1.9v-5.28a30.97 30.97 0 0 0 14.94-11.17 1.993 1.993 0 0 0-.53-2.7Zm-8.86 28.27a.083.083 0 0 1 .05.1l-1.02 4.05-.11.06-11.35-4.17v-4.62Zm-12.43-9.6v-3.09c1-.14 1.95-.33 2.88-.54v2.67Zm-2.18-6.86a1.993 1.993 0 0 0-1.82 1.99V98a2.005 2.005 0 0 0 .12.69l9.3 23.19-10.39 1.81-2.42-10.67 1.4-4.12a2.078 2.078 0 0 0 .07-1.02l-1.99-10.26a2.002 2.002 0 0 0-.92-1.33L94 94.43V69.44l2.89-4.4a1.948 1.948 0 0 0 .33-1.1V42.96l4.16-4.89 3.12 3.05v22.94h-1.52a2 2 0 0 0-2 2v7.35a2.021 2.021 0 0 0 .6 1.43 1.999 1.999 0 0 0 1.45.57c.45-.01 10.28-.35 15.32-8.91l4.81 3.41a28.747 28.747 0 0 1-19.47 9.75Z"></path>
  <path fill="#d68751" d="m118.35 96.22-1.02 4.05-.11.06-11.35-4.17v-4.62l12.43 4.58a.083.083 0 0 1 .05.1Z"></path>
  <path fill="#fc785e" d="M101.87 81.65V98a2.005 2.005 0 0 0 .12.69l9.3 23.19-10.39 1.81-2.42-10.67 1.4-4.12a2.078 2.078 0 0 0 .07-1.02l-1.99-10.26a2.002 2.002 0 0 0-.92-1.33L94 94.43V69.44l2.89-4.4a1.948 1.948 0 0 0 .33-1.1V42.96l4.16-4.89 3.12 3.05v22.94h-1.52a2 2 0 0 0-2 2v7.35a2.021 2.021 0 0 0 .6 1.43 1.999 1.999 0 0 0 1.45.57c.45-.01 10.28-.35 15.32-8.91l4.81 3.41a28.747 28.747 0 0 1-19.47 9.75 1.993 1.993 0 0 0-1.82 1.99Z"></path>
  <path fill="#2d4356" d="M85.52 93.18a1.928 1.928 0 0 0-.32-.6l-.03-.05a1.944 1.944 0 0 0-.55-.48 16.008 16.008 0 0 0-15.24 0 2.087 2.087 0 0 0-.58.53 1.928 1.928 0 0 0-.32.6c-1.13 3.45-1.01 11.36 7.46 16.64a2.023 2.023 0 0 0 2.12 0c8.47-5.28 8.59-13.19 7.46-16.64ZM77 105.71c-5.42-3.94-5.18-8.81-4.88-10.6a12.498 12.498 0 0 1 9.75 0c.31 1.8.54 6.66-4.87 10.6Z"></path>
  <path fill="#ffdb80" d="M77 105.71c-5.42-3.94-5.18-8.81-4.88-10.6a12.498 12.498 0 0 1 9.75 0c.31 1.8.54 6.66-4.87 10.6Z"></path>
  <path fill="#2d4356" d="M35.52 93.18a1.928 1.928 0 0 0-.32-.6l-.03-.05a1.944 1.944 0 0 0-.55-.48A14.888 14.888 0 0 0 27 90.12a14.889 14.889 0 0 0-7.62 1.93 2.087 2.087 0 0 0-.58.53 1.928 1.928 0 0 0-.32.6c-1.13 3.45-1.01 11.36 7.46 16.64a2.023 2.023 0 0 0 2.12 0c8.47-5.28 8.59-13.19 7.46-16.64ZM27 105.71c-5.42-3.94-5.18-8.81-4.88-10.6a11.42 11.42 0 0 1 4.88-.99 11.331 11.331 0 0 1 4.87.99c.31 1.8.54 6.66-4.87 10.6Z"></path>
  <path fill="#ffdb80" d="M27 105.71c-5.42-3.94-5.18-8.81-4.88-10.6a11.42 11.42 0 0 1 4.88-.99 11.331 11.331 0 0 1 4.87.99c.31 1.8.54 6.66-4.87 10.6Z"></path>
  <path fill="#2d4356" d="M68 67.1v-3.7a22.762 22.762 0 0 0 6-15.65v-7.98a40.52 40.52 0 0 0 5.33-.78c1.26-.28 3.9-.86 5.12-3.06.92-1.67 1.17-4.37-2.89-7.76a21.156 21.156 0 0 0-7.42-3.97L70.68 9.63c-.01-.05-.03-.09-.04-.14A13.382 13.382 0 0 0 57.95 0H44.8a13.423 13.423 0 0 0-12.96 10.44 1.762 1.762 0 0 0-.04.2l-.92 6.78c-3.43-.56-8.04-.72-10.42 1.74-.97.99-1.96 2.82-1.17 5.89 1.43 5.6 7.38 8.1 10.71 9.46v13.24a22.763 22.763 0 0 0 6 15.65v3.7l-18.76 8.52A21.815 21.815 0 0 0 4.53 92.71l-4.51 31a2.001 2.001 0 1 0 3.96.58l4.51-31.03a17.877 17.877 0 0 1 10.4-14L36 71.49V76a2.07 2.07 0 0 0 .49 1.32L50 92.75v25.5a2 2 0 0 0 4 0V113h2a2 2 0 0 0 0-4h-2v-6h2a2 2 0 0 0 0-4h-2v-6.25l13.51-15.43A2.07 2.07 0 0 0 68 76v-4.51l17.11 7.77c.3.14.6.29.89.44v-4.43ZM34.48 20.53a1.775 1.775 0 0 0 .04-.2l1.23-9.04A9.434 9.434 0 0 1 44.8 4h13.15a9.399 9.399 0 0 1 8.86 6.63l3.22 13.58a121.076 121.076 0 0 1-33.05.19 3.955 3.955 0 0 1-.52-.12 3.142 3.142 0 0 1-1.98-3.75Zm-11.32 3.52c-.26-1.01-.2-1.73.17-2.11.55-.57 1.85-.86 3.58-.86a21.624 21.624 0 0 1 3.48.31 7.1 7.1 0 0 0 4.83 6.69 6.981 6.981 0 0 0 1.22.28 120.959 120.959 0 0 0 35.98-.49A17.04 17.04 0 0 1 79 31.24c1.56 1.3 2.16 2.37 1.95 2.75-.34.62-1.95.97-2.48 1.09-4.64 1.02-9.3.99-14.91.84-5.55-.15-10.55-.32-15.61-.95a63.373 63.373 0 0 1-16.28-4.1c-3.65-1.49-7.63-3.36-8.51-6.82ZM64 75.25 52 88.96 40 75.25v-8.51A20.645 20.645 0 0 0 51.2 70h1.6A20.645 20.645 0 0 0 64 66.74ZM52.8 66h-1.6C41.56 66 34 57.98 34 47.75V35.98a69.365 69.365 0 0 0 13.46 2.96c5.23.65 10.34.83 15.99.98 1.49.04 3.09.08 4.76.08.59 0 1.19-.01 1.79-.02v7.77C70 57.98 62.44 66 52.8 66Z"></path>
  <path fill="#d68751" d="M66.81 10.63A9.399 9.399 0 0 0 57.95 4H44.8a9.434 9.434 0 0 0-9.05 7.29l-1.23 9.04a1.775 1.775 0 0 1-.04.2 3.142 3.142 0 0 0 1.98 3.75 3.955 3.955 0 0 0 .52.12 121.076 121.076 0 0 0 33.05-.19ZM52 21a6 6 0 1 1 6-6 6.005 6.005 0 0 1-6 6Z"></path>
  <path fill="#ffdb80" d="M80.95 33.99c-.34.62-1.95.97-2.48 1.09-4.64 1.02-9.3.99-14.91.84-5.55-.15-10.55-.32-15.61-.95a63.373 63.373 0 0 1-16.28-4.1c-3.65-1.49-7.63-3.36-8.51-6.82-.26-1.01-.2-1.73.17-2.11.55-.57 1.85-.86 3.58-.86a21.624 21.624 0 0 1 3.48.31 7.1 7.1 0 0 0 4.83 6.69 6.981 6.981 0 0 0 1.22.28 120.959 120.959 0 0 0 35.98-.49A17.04 17.04 0 0 1 79 31.24c1.56 1.3 2.16 2.37 1.95 2.75Z"></path>
  <path fill="#e1ebf4" d="M68.21 40c-1.67 0-3.27-.04-4.76-.08-5.65-.15-10.76-.33-15.99-.98A69.365 69.365 0 0 1 34 35.98v11.77C34 57.98 41.56 66 51.2 66h1.6C62.44 66 70 57.98 70 47.75v-7.77c-.6.01-1.2.02-1.79.02zm-24.88 3.5a2.17 2.17 0 1 1 2.17 2.17 2.168 2.168 0 0 1-2.17-2.17zM56 58.68h-8a2 2 0 0 1 0-4h8a2 2 0 0 1 0 4zm2.5-13.01a2.17 2.17 0 1 1 2.17-2.17 2.168 2.168 0 0 1-2.17 2.17zM64 66.74v8.51L52 88.96 40 75.25v-8.51A20.645 20.645 0 0 0 51.2 70h1.6A20.645 20.645 0 0 0 64 66.74z"></path>
  <path fill="#72492d" d="m118.35 96.22-1.02 4.05-.11.06-11.35-4.17v-2l11.35 4.17.11-.06.58-2.29.39.14a.083.083 0 0 1 .05.1Z" opacity=".4"></path>
  <path fill="#a54b3f" d="m111.29 121.88-10.39 1.81-2.42-10.67.27-.8 2.15 9.47 9.64-1.68.75 1.87zM123.16 69.91a28.747 28.747 0 0 1-19.47 9.75 1.993 1.993 0 0 0-1.82 1.99v-2a1.993 1.993 0 0 1 1.82-1.99 28.962 28.962 0 0 0 18.36-8.53Z" opacity=".5"></path>
  <path fill="#e5d0c3" d="M104.5 41.12v2l-3.12-3.05-4.16 4.89v-2l4.16-4.89 3.12 3.05zM86 79.7v2c-.29-.15-.59-.3-.89-.44L68 73.49v-2l17.11 7.77c.3.14.6.29.89.44zm-50-8.21v2l-17.11 7.77a17.877 17.877 0 0 0-10.4 14l-4.51 31.03a2.001 2.001 0 0 1-3.96-.58l.14-.95a1.985 1.985 0 0 0 1.55 1.22 2.013 2.013 0 0 0 2.27-1.69l4.51-31.03a17.877 17.877 0 0 1 10.4-14z" opacity=".3"></path>
  <path fill="#9fa5aa" d="M70 45.75v2C70 57.98 62.44 66 52.8 66h-1.6C41.56 66 34 57.98 34 47.75v-2C34 55.98 41.56 64 51.2 64h1.6C62.44 64 70 55.98 70 45.75Z" opacity=".5"></path>
  <path fill="#ad9359" d="M80.95 33.99c-.34.62-1.95.97-2.48 1.09-4.64 1.02-9.3.99-14.91.84-5.55-.15-10.55-.32-15.61-.95a63.373 63.373 0 0 1-16.28-4.1c-3.65-1.49-7.63-3.36-8.51-6.82a2.623 2.623 0 0 1 .03-1.91c.92 3.4 4.86 5.25 8.48 6.73a63.373 63.373 0 0 0 16.28 4.1c5.06.63 10.06.8 15.61.95 5.61.15 10.27.18 14.91-.84a9.106 9.106 0 0 0 1.83-.57c.58.7.79 1.23.65 1.48Z" opacity=".45"></path>
  <path fill="#e5d0c3" d="M70.03 24.21c-.15.02-.3.04-.46.07l-2.76-11.65A9.399 9.399 0 0 0 57.95 6H44.8a9.434 9.434 0 0 0-9.05 7.29l-1.22 8.95a3.193 3.193 0 0 1-.05-1.71 1.778 1.778 0 0 0 .04-.2l1.23-9.04A9.434 9.434 0 0 1 44.8 4h13.15a9.399 9.399 0 0 1 8.86 6.63Z" opacity=".3"></path>
  <path fill="#ad9359" d="M77 105.71c-4.9-3.56-5.17-7.89-4.96-10a11.118 11.118 0 0 0 4.96 8 11.134 11.134 0 0 0 4.95-7.99c.22 2.13-.07 6.43-4.95 9.99zm-50 0c-4.9-3.56-5.17-7.89-4.96-10a11.118 11.118 0 0 0 4.96 8 11.134 11.134 0 0 0 4.95-7.99c.22 2.13-.07 6.43-4.95 9.99z" opacity=".45"></path>
</svg>
