<svg xmlns="http://www.w3.org/2000/svg" xmlns:xlink="http://www.w3.org/1999/xlink" width="32" height="32" id="infinity">
  <defs>
    <linearGradient id="a" x1="256" x2="256" y1="512" gradientUnits="userSpaceOnUse">
      <stop offset="0" stop-color="#fd5900"></stop>
      <stop offset="1" stop-color="#ffde00"></stop>
    </linearGradient>
    <linearGradient xlink:href="#a" id="b" x1="5.369" x2="24.913" y1="26.416" y2="6.658" gradientUnits="userSpaceOnUse"></linearGradient>
  </defs>
  <path fill="url(#b)" d="M24.717 23.387c-2.372 0-4.551-1.797-6.363-3.436a34.525 34.525 0 0 1-2.352-2.344 33.047 33.047 0 0 1-2.349 2.344c-1.813 1.639-3.989 3.436-6.362 3.436C3.27 23.387 0 20.059 0 16c0-4.059 3.27-7.387 7.291-7.387 2.373 0 4.551 1.797 6.362 3.436a33.923 33.923 0 0 1 2.349 2.344 33.62 33.62 0 0 1 2.352-2.344c1.813-1.639 3.991-3.436 6.363-3.436C28.737 8.613 32 11.941 32 16c0 4.059-3.262 7.387-7.283 7.387zm-12.496-9.758c-1.685-1.521-3.864-2.881-4.93-2.881-2.852 0-5.158 2.33-5.158 5.252 0 2.922 2.308 5.252 5.158 5.252 1.064 0 3.245-1.359 4.93-2.881 1.308-1.182 1.89-1.898 2.301-2.371-.412-.473-.994-1.189-2.301-2.371zm12.496-2.881c-1.064 0-3.246 1.359-4.931 2.881-1.305 1.18-1.889 1.898-2.3 2.371.411.473.995 1.191 2.3 2.371 1.685 1.521 3.865 2.881 4.931 2.881 2.852 0 5.149-2.33 5.149-5.252 0-2.922-2.298-5.252-5.149-5.252z"></path>
</svg>
