<svg width="47" height="47" viewBox="0 0 47 47" fill="none" xmlns="http://www.w3.org/2000/svg">
<g id="Group">
<path id="Vector" d="M35.7527 0.932495H11.3152C5.36087 0.932495 0.533936 5.75943 0.533936 11.7137V36.1512C0.533936 42.1056 5.36087 46.9325 11.3152 46.9325H35.7527C41.707 46.9325 46.5339 42.1056 46.5339 36.1512V11.7137C46.5339 5.75943 41.707 0.932495 35.7527 0.932495Z" fill="white"/>
<path id="Vector_2" d="M35.7527 0.932495H11.3152C5.36087 0.932495 0.533936 5.75943 0.533936 11.7137V36.1512C0.533936 42.1056 5.36087 46.9325 11.3152 46.9325H35.7527C41.707 46.9325 46.5339 42.1056 46.5339 36.1512V11.7137C46.5339 5.75943 41.707 0.932495 35.7527 0.932495Z" fill="#0A66C2"/>
<path id="Vector_3" d="M33.7249 40.0478H38.9844C39.175 40.0478 39.3577 39.9721 39.4925 39.8373C39.6273 39.7026 39.7031 39.5198 39.7031 39.3292L39.7058 28.217C39.7058 22.4089 38.4543 17.9446 31.667 17.9446C29.0868 17.8486 26.6537 19.1787 25.3407 21.3996C25.3343 21.4104 25.3245 21.4188 25.3129 21.4235C25.3012 21.4282 25.2884 21.429 25.2763 21.4257C25.2641 21.4224 25.2534 21.4153 25.2458 21.4054C25.2381 21.3954 25.2339 21.3832 25.2338 21.3707V19.1995C25.2338 19.0089 25.1581 18.8261 25.0233 18.6913C24.8885 18.5565 24.7057 18.4808 24.515 18.4808H19.5238C19.3332 18.4808 19.1504 18.5565 19.0156 18.6913C18.8808 18.8261 18.8051 19.0089 18.8051 19.1995V39.3281C18.8051 39.5187 18.8808 39.7016 19.0156 39.8364C19.1504 39.9711 19.3332 40.0469 19.5238 40.0469H24.7829C24.9736 40.0469 25.1564 39.9711 25.2912 39.8364C25.426 39.7016 25.5017 39.5187 25.5017 39.3281V29.3783C25.5017 26.5649 26.0354 23.8403 29.5233 23.8403C32.9616 23.8403 33.0062 27.0596 33.0062 29.5605V39.329C33.0062 39.5196 33.0819 39.7025 33.2167 39.8373C33.3515 39.972 33.5343 40.0478 33.7249 40.0478ZM7.36206 11.6469C7.36206 13.7787 9.11707 15.5328 11.2491 15.5328C13.3805 15.5326 15.1344 13.7775 15.1344 11.646C15.1341 9.51455 13.38 7.76062 11.2483 7.76062C9.11617 7.76062 7.36206 9.51509 7.36206 11.6469ZM8.61251 40.0478H13.8786C14.0692 40.0478 14.252 39.972 14.3868 39.8373C14.5216 39.7025 14.5974 39.5196 14.5974 39.329V19.1995C14.5974 19.0089 14.5216 18.8261 14.3868 18.6913C14.252 18.5565 14.0692 18.4808 13.8786 18.4808H8.61251C8.42188 18.4808 8.23906 18.5565 8.10427 18.6913C7.96948 18.8261 7.89376 19.0089 7.89376 19.1995V39.329C7.89376 39.5196 7.96948 39.7025 8.10427 39.8373C8.23906 39.972 8.42188 40.0478 8.61251 40.0478Z" fill="white"/>
</g>
</svg>
