<svg xmlns="http://www.w3.org/2000/svg" viewBox="0 0 32 32" id="temple">
  <path fill="#ff4200" d="M11.5 1.51a8.34 8.34 0 0 1 1 0 12 12 0 0 1 6 2l-7 2"></path>
  <path d="M11.5 6a.5.5 0 0 1-.5-.36.49.49 0 0 1 .36-.64l5.88-1.68A11.25 11.25 0 0 0 12.48 2h-1a.46.46 0 0 1-.48-.47.5.5 0 0 1 .48-.53 9 9 0 0 1 1 0 12.46 12.46 0 0 1 6.25 2.07.5.5 0 0 1-.13.91l-7 2Z"></path>
  <path fill="#a97c50" d="M30.5 23.51v7h-29v-7"></path>
  <path d="M30.5 31h-29a.5.5 0 0 1-.5-.5v-7a.5.5 0 0 1 1 0V30h28v-6.5a.5.5 0 0 1 1 0v7a.5.5 0 0 1-.5.5Z"></path>
  <path fill="#ff4200" d="M23.5 17.51a2.93 2.93 0 0 0 1 1 3.41 3.41 0 0 0 3 0l-1 2c.73.45 1.06.78 1 1s-1.45.37-4 0"></path>
  <path d="M26.4 22.28a21 21 0 0 1-3-.28.5.5 0 1 1 .14-1 16.72 16.72 0 0 0 3.17.27 5.5 5.5 0 0 0-.5-.35.51.51 0 0 1-.19-.65l.48-1a3.45 3.45 0 0 1-2.28-.38 3.33 3.33 0 0 1-1.18-1.18.5.5 0 0 1 .86-.51 2.35 2.35 0 0 0 .82.82 2.86 2.86 0 0 0 2.53 0 .5.5 0 0 1 .58.09.52.52 0 0 1 .09.58l-.8 1.6c.56.39 1 .83.83 1.32s-.44.67-1.55.67Z"></path>
  <path d="M23.5 24.51A.5.5 0 0 1 23 24v-6.5a.5.5 0 0 1 1 0V24a.5.5 0 0 1-.5.51Z"></path>
  <path fill="#a97c50" d="M1.5 25.51v-4h19v2h10v2"></path>
  <path d="M30.5 26a.5.5 0 0 1-.5-.5V24h-9.5a.5.5 0 0 1-.5-.5V22H2v3.5a.5.5 0 0 1-1 0v-4a.5.5 0 0 1 .5-.5h19a.5.5 0 0 1 .5.5V23h9.5a.5.5 0 0 1 .5.5v2a.5.5 0 0 1-.5.5Z"></path>
  <path fill="#8b5e3c" d="M16.5 18.51h-10l.85-2 2.15-5-.29-.29a1 1 0 0 1 0-1.42l2.29-2.29 2.29 2.29a1 1 0 0 1 0 1.42l-.29.29 2.15 5Z"></path>
  <path d="M16.5 19h-10a.52.52 0 0 1-.42-.23.49.49 0 0 1 0-.47l2.87-6.69H8.9a1.5 1.5 0 0 1 0-2.13l2.29-2.29a.5.5 0 0 1 .7 0l2.29 2.29a1.5 1.5 0 0 1 0 2.13h-.05l2.87 6.7a.49.49 0 0 1 0 .47.52.52 0 0 1-.5.22Zm-9.24-1h8.48L13 11.7a.49.49 0 0 1 .11-.55l.29-.29a.51.51 0 0 0 0-.71l-1.9-1.94-1.94 1.94a.51.51 0 0 0 0 .71l.29.29a.49.49 0 0 1 .11.55Z"></path>
  <path fill="#603913" d="M15.5 25.51a1 1 0 0 1 1 1v4h-2v-4a1 1 0 0 1 1-1Z"></path>
  <path d="M16.5 31h-2a.5.5 0 0 1-.5-.5v-4a1.5 1.5 0 0 1 3 0v4a.5.5 0 0 1-.5.5ZM15 30h1v-3.5a.5.5 0 0 0-1 0Z"></path>
  <path fill="#603913" d="M20.5 25.51a1 1 0 0 1 1 1v4h-2v-4a1 1 0 0 1 1-1Z"></path>
  <path d="M21.5 31h-2a.5.5 0 0 1-.5-.5v-4a1.5 1.5 0 0 1 3 0v4a.5.5 0 0 1-.5.5ZM20 30h1v-3.5a.5.5 0 0 0-1 0Z"></path>
  <path fill="#603913" d="M25.5 25.51a1 1 0 0 1 1 1v4h-2v-4a1 1 0 0 1 1-1Z"></path>
  <path d="M26.5 31h-2a.5.5 0 0 1-.5-.5v-4a1.5 1.5 0 0 1 3 0v4a.5.5 0 0 1-.5.5zM25 30h1v-3.5a.5.5 0 0 0-1 0zM11.5 8a.5.5 0 0 1-.5-.5v-6a.5.5 0 1 1 1 0v6a.5.5 0 0 1-.5.5zm0 7a.5.5 0 0 1-.5-.5v-4a.5.5 0 1 1 1 0v4a.5.5 0 0 1-.5.5z"></path>
  <path fill="#a97c50" d="m20.5 21.51-2-6-2 3h-10l-2-3-3 6h19z"></path>
  <path d="M20.5 22h-19a.52.52 0 0 1-.43-.24.53.53 0 0 1 0-.49l3-6a.49.49 0 0 1 .4-.27.48.48 0 0 1 .45.22L6.77 18h9.46l1.85-2.78a.48.48 0 0 1 .49-.22.5.5 0 0 1 .4.34l2 6a.48.48 0 0 1-.06.45.52.52 0 0 1-.41.21ZM2.31 21h17.5l-1.46-4.38-1.43 2.15a.52.52 0 0 1-.42.23h-10a.52.52 0 0 1-.42-.23L4.56 16.5Z"></path>
  <path fill="#603913" d="M7 24.51h1A1.5 1.5 0 0 1 9.5 26v4.5h-4V26A1.5 1.5 0 0 1 7 24.51Z"></path>
  <path d="M9.5 31h-4a.5.5 0 0 1-.5-.5V26a2 2 0 0 1 2-2h1a2 2 0 0 1 2 2v4.5a.5.5 0 0 1-.5.5ZM6 30h3v-4a1 1 0 0 0-1-1H7a1 1 0 0 0-1 1Z"></path>
</svg>
