<svg xmlns="http://www.w3.org/2000/svg" xml:space="preserve" id="time" x="0" y="0" version="1.1" viewBox="0 0 105 105">
  <path d="M57.5 49.6v5.9c8.6 1 15.3 8.3 15.3 17.2v16H32.2v-16c0-8.9 6.7-16.2 15.3-17.2v-5.9c-8.6-1-15.3-8.3-15.3-17.2v-16h40.5v16c.1 8.9-6.6 16.2-15.2 17.2" style="fill:#d3e6ed"></path>
  <path d="M72.8 89.6H32.2c-.6 0-1-.4-1-1v-16c0-9 6.5-16.6 15.3-18v-4.1c-8.8-1.5-15.3-9-15.3-18v-16c0-.6.4-1 1-1h40.5c.6 0 1 .4 1 1v16c0 9-6.5 16.6-15.3 18v4.1c8.8 1.5 15.3 9 15.3 18v16c.1.6-.4 1-.9 1m-39.6-2h38.5v-15c0-8.3-6.2-15.2-14.4-16.2-.5-.1-.9-.5-.9-1v-5.9c0-.5.4-.9.9-1 8.2-1 14.4-7.9 14.4-16.2v-15H33.2v15c0 8.3 6.2 15.2 14.4 16.2.5.1.9.5.9 1v5.9c0 .5-.4.9-.9 1-8.2 1-14.4 7.9-14.4 16.2z"></path>
  <path d="M72.8 29.7v2.7c0 8.9-6.6 16.2-15.2 17.2v35l2.6 4.1H44.7l2.8-4.1v-35c-8.6-1-15.2-8.3-15.2-17.2v-2.7z" style="fill:#ffd4a9"></path>
  <path d="M60.1 89.6H44.7c-.4 0-.7-.2-.9-.5s-.2-.7.1-1l2.6-3.8V50.4c-8.8-1.5-15.2-9-15.2-18v-2.7c0-.6.4-1 1-1h40.6c.6 0 1 .4 1 1v2.7c0 9-6.5 16.6-15.2 18v33.8l2.4 3.8c.2.3.2.7 0 1s-.6.6-1 .6m-13.5-2h11.7l-1.6-2.5c-.1-.2-.2-.3-.2-.5v-35c0-.5.4-.9.9-1 8.2-1 14.4-7.9 14.4-16.2v-1.7H33.2v1.7c0 8.3 6.2 15.2 14.4 16.2.5.1.9.5.9 1v35c0 .2-.1.4-.2.6z"></path>
  <path d="M76.2 16.4H28.8c-1.1 0-2-.9-2-2V7.5c0-1.1.9-2 2-2h47.4c1.1 0 2 .9 2 2v6.9c0 1.1-.9 2-2 2" style="fill:#3a3a3a"></path>
  <path d="M78.2 7.5v6.9c0 1.1-.9 2-2 2h-6.8c1.1 0 2-.9 2-2V7.5c0-1.1-.9-2-2-2h6.8c1.1 0 2 .9 2 2" style="opacity:.1"></path>
  <path d="M76.2 17.4H28.8c-1.7 0-3-1.3-3-3V7.5c0-1.7 1.3-3 3-3h47.4c1.7 0 3 1.3 3 3v6.9c0 1.6-1.3 3-3 3M28.8 6.5c-.6 0-1 .4-1 1v6.9c0 .6.4 1 1 1h47.4c.6 0 1-.4 1-1V7.5c0-.6-.4-1-1-1z"></path>
  <path d="M76.2 99.5H28.8c-1.1 0-2-.9-2-2v-6.9c0-1.1.9-2 2-2h47.4c1.1 0 2 .9 2 2v6.9c0 1.1-.9 2-2 2" style="fill:#3a3a3a"></path>
  <path d="M78.2 90.6v6.9c0 1.1-.9 2-2 2h-6.3c1.1 0 2-.9 2-2v-6.9c0-1.1-.9-2-2-2h6.3c1.1 0 2 .9 2 2" style="opacity:.1"></path>
  <path d="M76.2 100.5H28.8c-1.7 0-3-1.3-3-3v-6.9c0-1.7 1.3-3 3-3h47.4c1.7 0 3 1.3 3 3v6.9c0 1.7-1.3 3-3 3M28.8 89.6c-.6 0-1 .4-1 1v6.9c0 .6.4 1 1 1h47.4c.6 0 1-.4 1-1v-6.9c0-.6-.4-1-1-1z"></path>
  <path d="M57.5 49.6v5.9c8.6 1 15.2 8.3 15.2 17.2v16h-5.4v-16c0-8.9-6.7-16.2-15.3-17.2v-5.9c8.6-1 15.3-8.3 15.3-17.2v-16h5.4v16c.1 8.9-6.6 16.2-15.2 17.2" style="opacity:.1"></path>
</svg>
