<svg width="47" height="47" viewBox="0 0 47 47" fill="none" xmlns="http://www.w3.org/2000/svg">
<g id="skill-icons:twitter" clip-path="url(#clip0_150_1816)">
<g id="Group">
<path id="Vector" d="M36.1514 0.932617H11.7139C5.75955 0.932617 0.932617 5.75955 0.932617 11.7139V36.1514C0.932617 42.1057 5.75955 46.9326 11.7139 46.9326H36.1514C42.1057 46.9326 46.9326 42.1057 46.9326 36.1514V11.7139C46.9326 5.75955 42.1057 0.932617 36.1514 0.932617Z" fill="white"/>
<path id="Vector_2" d="M36.1514 0.932617H11.7139C5.75955 0.932617 0.932617 5.75955 0.932617 11.7139V36.1514C0.932617 42.1057 5.75955 46.9326 11.7139 46.9326H36.1514C42.1057 46.9326 46.9326 42.1057 46.9326 36.1514V11.7139C46.9326 5.75955 42.1057 0.932617 36.1514 0.932617Z" fill="#1D9BF0"/>
<path id="Vector_3" d="M36.7932 17.358C36.813 17.6432 36.813 17.9284 36.813 18.2162C36.813 26.9844 30.1379 37.0969 17.9323 37.0969V37.0915C14.3266 37.0967 10.7955 36.064 7.76074 34.1168C8.28531 34.1796 8.81179 34.2116 9.3402 34.2125C12.3288 34.215 15.2314 33.2126 17.5816 31.3665C16.1969 31.3402 14.855 30.882 13.7435 30.0558C12.632 29.2296 11.8064 28.0767 11.3822 26.7584C12.3763 26.9501 13.4012 26.911 14.3779 26.6441C11.2823 26.0186 9.05503 23.2987 9.05503 20.1398V20.0557C9.97788 20.5697 11.0107 20.8546 12.0666 20.8862C9.15098 18.9375 8.25219 15.0586 10.0128 12.0258C11.6786 14.076 13.7571 15.7527 16.1133 16.9471C18.4695 18.1415 21.0506 18.8268 23.689 18.9585C23.4259 17.8262 23.4648 16.6446 23.8016 15.532C24.1385 14.4195 24.7616 13.4148 25.6086 12.6186C28.2812 10.1062 32.4847 10.235 34.9971 12.9063C36.4831 12.6129 37.9081 12.0681 39.2109 11.2954C38.7155 12.8318 37.6789 14.136 36.2939 14.9653C37.6093 14.8102 38.8938 14.4581 40.1045 13.9208C39.214 15.2545 38.0927 16.4184 36.7932 17.358Z" fill="white"/>
</g>
</g>
<defs>
<clipPath id="clip0_150_1816">
<rect width="46" height="46" fill="white" transform="translate(0.932617 0.932617)"/>
</clipPath>
</defs>
</svg>
