<?xml version="1.0" encoding="UTF-8"?>
<!DOCTYPE svg PUBLIC "-//W3C//DTD SVG 1.1//EN" "http://www.w3.org/Graphics/SVG/1.1/DTD/svg11.dtd">
<!-- Creator: CorelDRAW -->
<svg xmlns="http://www.w3.org/2000/svg" xml:space="preserve" width="584px" height="581px" version="1.1" style="shape-rendering:geometricPrecision; text-rendering:geometricPrecision; image-rendering:optimizeQuality; fill-rule:evenodd; clip-rule:evenodd"
viewBox="0 0 110.67 110.11"
 xmlns:xlink="http://www.w3.org/1999/xlink">
 <defs>
  <style type="text/css">
   <![CDATA[
    .fil0 {fill:#fff}
   ]]>
  </style>
 </defs>
 <g id="Layer_x0020_1">
  <metadata id="CorelCorpID_0Corel-Layer"/>
  <g id="_105553372262368">
   <path class="fil0" d="M67.98 30.63c0,3.29 -0.14,6.49 -1,9.64 -0.33,1.24 -1.13,2.45 -0.13,2.45l34.96 0 0 55.78c0,1.72 -1.86,3.39 -3.54,3.39l-77.17 0c-1.92,0 -3.34,-1.19 -3.79,-2.97 -0.36,-1.43 0.28,-33.4 -0.23,-34.28 -0.18,-0.31 -3.33,-1.83 -4.39,-2.54 -0.68,-0.46 -3.43,-2.71 -4.15,-2.77 0,12.82 -0.15,26.26 -0.01,39.02 0.04,3.82 2.64,7.93 5.9,9.9 1.55,0.93 3.63,1.86 6.03,1.86l77.97 0c2.13,0 3.56,-0.51 5.09,-1.19l2.84 -1.83c2.64,-2.36 4.31,-6.2 4.31,-9.87l0 -67.57c0,-0.94 -0.24,-1.87 -0.41,-2.8 -0.11,-0.58 -0.23,-0.88 -0.35,-1.26 -0.18,-0.53 -0.22,-0.68 -0.43,-1.18 -0.55,-1.3 -1.69,-2.87 -2.63,-3.82 -0.72,-0.71 -1.04,-0.85 -1.82,-1.41 -0.75,-0.53 -1.1,-0.76 -2.07,-1.15 -3.28,-1.32 -5.5,-1.1 -9.04,-1.1 -0.77,0 -0.49,1.3 -0.49,2.74 0,3.69 0.39,7.43 -1.15,10.13 -3.19,5.58 -12.1,5.84 -15.03,-1.03 -0.96,-2.25 -0.77,-7.65 -0.72,-10.56 0.01,-0.69 0.16,-1.28 -0.49,-1.28l-10.96 0c-0.95,0 -0.12,1.17 0.51,2.88 1.05,2.82 2.39,7.94 2.39,10.82z"/>
   <path class="fil0" d="M16.11 4.35c0.48,0.24 1.23,0.34 1.82,0.59 1.16,0.5 2.04,1.46 2.59,2.58 0.32,0.66 0.42,1.22 0.74,1.83 0.93,-0.08 2.25,-0.85 3.18,-1.17 4.35,-1.53 9.06,-1.53 13.48,-0.51 2.38,0.55 5.19,1.8 7.24,3.08l2.59 1.92c2.82,2.2 5.06,5.16 6.65,8.34 3.92,7.85 3.26,18.25 -2.04,25.26l-2.7 3.26c-0.59,0.59 -0.88,0.88 -1.52,1.39 -1.05,0.85 -2.13,1.82 -3.36,2.44 -0.71,0.37 -1.22,0.69 -1.98,1.08 -2.44,1.22 -6.4,2.47 -9.29,2.47 -3.84,0 -4.6,-0.04 -8.25,-0.94 -1.69,-0.41 -2.9,-0.95 -4.37,-1.59 -1.26,-0.55 -2.58,-1.47 -3.68,-2.28 -1.28,-0.95 -2.05,-1.7 -3.15,-2.81l-2.02 -2.33c-1.12,-1.5 -1.94,-2.88 -2.81,-4.61 -2.36,-4.74 -2.94,-13.87 -0.14,-18.59 0.38,-0.65 1.01,-1.8 1.54,-2.16 1.64,0.38 5.17,5.89 5.88,1.69 0.71,-4.28 0.73,-8.46 0.73,-12.81 0,-2.75 -3.03,-2.1 -5.16,-2.1 -3.3,0 -6.19,0.25 -9.29,0.69 -1.93,0.28 -2.31,0.23 -2.31,2.05 0,0.47 1.62,1.55 1.97,1.9 0.66,0.65 1.55,1.2 2.06,1.97 -0.17,0.74 -0.52,1.01 -0.8,1.62 -0.13,0.26 -0.21,0.52 -0.33,0.8 -0.13,0.3 -0.27,0.51 -0.41,0.87 -0.98,2.45 -1.82,5.02 -2.34,7.66 -0.39,1.96 -0.6,3.8 -0.63,5.64l0 0.87c0.02,1.46 0.17,2.95 0.44,4.51 0.53,3.05 1.43,6.16 2.78,8.83 0.83,1.64 1.82,3.34 2.92,4.81l3.57 4.17c2.27,2.28 5.62,4.59 8.52,5.98 0.27,0.13 0.4,0.17 0.67,0.3 6.82,3.25 16.02,3.65 23.37,1.08l2.1 -0.8c2.02,-0.88 3.99,-1.94 5.78,-3.25l3.29 -2.66c1.81,-1.76 3.2,-3.12 4.68,-5.31 2.21,-3.27 4.1,-6.96 4.93,-10.87 1.33,-6.19 1.05,-11.35 -0.81,-17.37 -1.63,-5.28 -5.26,-10.61 -9.43,-13.95l-2.14 -1.72c-3.91,-2.97 -8.68,-5.06 -13.59,-5.74 -1.64,-0.23 -2.89,-0.39 -4.03,-0.46l-2.71 0c-1.14,0.07 -2.4,0.25 -4.04,0.53 -1.35,0.23 -2.55,0.51 -3.77,0.9 -1.69,0.54 -3.46,1.15 -4.98,1.95 -0.31,0.16 -0.51,0.19 -0.81,0.32 -0.47,0.21 -0.49,0.12 -0.63,0.65z"/>
   <path class="fil0" d="M26.74 31.76c0,1.73 0.54,2.98 1.5,3.82 0.45,0.41 0.43,0.3 0.59,0.7 0.21,0.58 0.16,2.38 0.4,3.63 0.69,3.59 -0.76,8.29 2.5,8.29 1.18,0 2.37,-0.74 2.43,-1.92 0.03,-0.6 0,-0.79 0.08,-1.37 0.14,-0.89 0,-1.76 0.1,-2.65 0.18,-1.74 0.42,-3.16 0.46,-5.02 0.03,-1.52 -0.2,-1.25 0.48,-2.26 1.28,-1.91 0.71,-3.61 0.97,-4.2l7.64 -8.79c0.94,-1.2 2.18,-2.12 2.18,-3.29 0,-1.41 -1.75,-2.51 -3.26,-1.17l-8.29 7.82c-0.44,0.43 -0.7,0.53 -1.14,0.97 -1.68,1.68 -0.76,0.51 -3.03,0.99 -2.24,0.47 -3.61,2.05 -3.61,4.45z"/>
   <path class="fil0" d="M80.71 12.41l0 13.55c0,3.82 5.09,5.32 7.54,2.7 0.61,-0.65 1.16,-2.13 1.16,-3.35l0 -12.41c0,-2.37 -1.65,-4.36 -4.03,-4.36l-0.97 0c-1.85,0 -3.7,1.99 -3.7,3.87z"/>
   <path class="fil0" d="M29.8 68.03c0,1.21 -0.32,7.94 0.15,8.4 0.46,0.47 7.18,0.15 8.39,0.15 0.36,-1.54 0.16,-6.19 0.16,-8.06 0,-0.38 -0.27,-0.65 -0.64,-0.65 -1.31,0 -7.23,-0.16 -8.06,0.16z"/>
   <path class="fil0" d="M80.71 68.03l0 6.78c-0.03,2.37 -1.07,1.77 8.21,1.77 0.8,0 0.49,-2.51 0.49,-4.03 0,-1.51 0,-3.01 0,-4.52 -1.13,-0.26 -7.81,-0.34 -8.7,0z"/>
   <path class="fil0" d="M46.72 85.44l0 7.74c0,0.37 0.11,0.49 0.48,0.49 9.28,0 8.24,0.6 8.22,-1.78l0 -6.77c-1.55,-0.36 -6.33,-0.16 -8.22,-0.16 -0.37,0 -0.48,0.11 -0.48,0.48z"/>
   <path class="fil0" d="M80.71 85.44c0,9.29 -0.61,8.25 1.77,8.23l6.76 0c0.36,-1.55 0.17,-6.33 0.17,-8.23 0,-0.37 -0.12,-0.48 -0.49,-0.48l-7.73 0c-0.37,0 -0.48,0.11 -0.48,0.48z"/>
   <path class="fil0" d="M29.8 85.44c0,9.29 -0.6,8.25 1.77,8.23l6.77 0c0.36,-1.54 0.16,-6.19 0.16,-8.06 0,-0.38 -0.27,-0.65 -0.64,-0.65l-7.57 0c-0.38,0 -0.49,0.11 -0.49,0.48z"/>
   <path class="fil0" d="M46.72 68.36l0 7.73c0,0.38 0.11,0.49 0.48,0.49l7.57 0c0.98,0 0.65,-2.21 0.65,-3.87 0,-1.56 0,-3.12 0,-4.68 -1.55,-0.36 -6.33,-0.16 -8.22,-0.16 -0.37,0 -0.48,0.11 -0.48,0.49z"/>
   <path class="fil0" d="M80.71 51.43l0 7.74c0,0.37 0.11,0.48 0.48,0.48l7.73 0c0.37,0 0.49,-0.11 0.49,-0.48l0 -7.74c0,-0.37 -0.12,-0.49 -0.49,-0.49l-7.73 0c-0.37,0 -0.48,0.12 -0.48,0.49z"/>
   <path class="fil0" d="M63.79 59.65l8.54 0c0.04,-0.5 0.16,-0.57 0.16,-1.13l0 -6.45c0,-0.55 -0.12,-0.62 -0.16,-1.13l-8.54 0 0 8.71z"/>
   <path class="fil0" d="M63.79 85.44l0 7.74c0,0.37 0.11,0.49 0.49,0.49l7.57 0c0.49,0 0.64,-0.48 0.64,-0.97l0 -6.77c0,-0.5 -0.15,-0.97 -0.64,-0.97l-7.57 0c-0.38,0 -0.49,0.11 -0.49,0.48z"/>
   <path class="fil0" d="M63.79 68.36l0 7.73c0,0.38 0.11,0.49 0.49,0.49l7.57 0c0.49,0 0.64,-0.47 0.64,-0.97l0 -6.77c0,-0.5 -0.15,-0.97 -0.64,-0.97l-7.57 0c-0.38,0 -0.49,0.11 -0.49,0.49z"/>
  </g>
 </g>
</svg>
