<svg width="42" height="42" viewBox="0 0 42 42" fill="none" xmlns="http://www.w3.org/2000/svg">
<g style="mix-blend-mode:luminosity">
<rect opacity="0.01" width="42" height="42" fill="black"/>
<path d="M36.0712 38.0239C36.0712 38.0239 35.8961 34.8224 35.646 34.4972C35.4209 34.1971 34.0703 33.3216 33.9952 33.0965C33.8952 32.8714 33.7951 31.8459 33.7951 31.8459C20.5389 35.2976 8.83339 31.8459 8.83339 31.8459C8.70833 32.1461 8.50824 33.0215 8.50824 33.0215C8.50824 33.0215 8.45821 33.0465 8.35816 33.0965C7.95798 33.2716 6.9575 33.7468 6.68237 34.122C6.35722 34.6223 5.95703 38.0489 5.95703 38.0489C5.95703 38.0489 10.3341 39.9998 21.2142 39.9998C31.6691 39.9998 36.0712 38.0239 36.0712 38.0239Z" fill="url(#paint0_linear_1040_12338)"/>
<path d="M8.83398 31.8465C10.2346 30.5458 28.7684 30.3207 33.7957 31.8465C33.7957 31.8465 30.3441 33.7724 21.2899 33.7724C12.2356 33.7724 8.83398 31.8465 8.83398 31.8465Z" fill="url(#paint1_linear_1040_12338)"/>
<g style="mix-blend-mode:multiply" opacity="0.5">
<path d="M35.6453 34.4973C35.4202 34.1972 34.0695 33.3218 33.9945 33.0967C33.9945 33.0967 31.0931 35.7729 20.8383 35.7729C14.8855 35.7729 10.6835 34.2472 8.35743 33.0967C7.95724 33.2718 6.95677 33.747 6.68164 34.1222C8.03228 34.5974 15.3607 36.0731 20.9133 36.0731C26.516 36.0731 33.0941 34.8975 35.6453 34.4973Z" fill="#602260"/>
</g>
<path d="M38.7469 5.45818C38.7469 5.45818 38.5218 8.30953 38.2466 8.68471C37.9715 9.05988 36.3958 10.0854 36.2707 10.3605C36.1707 10.6356 36.0456 11.8362 36.0456 11.8362C20.3632 7.73426 6.53169 11.8362 6.53169 11.8362C6.38162 11.461 6.15651 10.4355 6.15651 10.4355C6.15651 10.4355 6.10649 10.4105 5.98143 10.3605C5.50621 10.1604 4.40569 9.5351 4.0055 9.13492C3.7804 8.90981 3.65534 6.08348 3.88044 5.45818C3.93047 5.30811 8.33254 3.53228 14.5105 2.65686C14.5438 2.65686 14.5688 2.65686 14.5855 2.65686C16.6365 2.35672 18.8625 2.18164 21.1886 2.18164C21.4887 2.18164 21.7889 2.18164 22.089 2.18164C22.2724 2.18164 22.4475 2.18998 22.6143 2.20665C23.5147 2.43176 24.4902 2.53181 25.9408 2.43176C26.2743 2.48178 26.6162 2.52347 26.9663 2.55682C30.1928 2.98202 33.0442 3.65734 35.1202 4.25762C35.1202 4.25762 35.1285 4.25762 35.1452 4.25762C35.1452 4.27429 35.1535 4.28263 35.1702 4.28263C37.3962 4.93294 38.7469 5.45818 38.7469 5.45818Z" fill="url(#paint2_linear_1040_12338)"/>
<path d="M6.5332 11.837C8.20899 13.3627 30.1193 13.6378 36.0471 11.837C36.0471 11.837 31.9952 9.81104 21.2652 9.81104C10.5601 9.81104 6.5332 11.837 6.5332 11.837Z" fill="url(#paint3_linear_1040_12338)"/>
<path d="M27.3151 27.2691C24.3887 24.918 22.3628 24.893 22.2127 24.5178C22.0626 24.1677 22.1877 22.4418 22.4878 21.9916C22.763 21.5664 26.8649 20.691 28.8408 17.9147C30.8168 15.1134 31.317 11.8368 31.317 11.8368C31.317 11.8368 27.8404 10.7363 21.1622 10.7363C14.4841 10.7363 10.9824 11.8368 10.9824 11.8368C10.9824 11.8368 11.5077 15.1134 13.4836 17.9147C15.4595 20.691 19.5615 21.5664 19.8366 21.9916C20.1367 22.4418 20.2618 24.1677 20.1117 24.5178C19.9617 24.893 17.9357 24.918 15.0093 27.2691C12.0829 29.6452 12.5331 32.3715 12.5331 32.3715C15.3345 32.9968 18.4109 33.1719 21.1622 33.1469C23.9135 33.1719 26.9649 32.9968 29.7913 32.3715C29.7913 32.3715 30.2165 29.6452 27.3151 27.2691Z" fill="url(#paint4_linear_1040_12338)"/>
<path d="M30.7698 29.02C31.3701 30.4457 31.3201 31.6212 31.3201 31.7963C31.3201 32.0714 27.1681 33.6472 21.1653 33.4471C15.1625 33.6472 10.9855 32.0714 10.9855 31.7963C10.9855 31.5962 10.9355 30.2956 11.6858 28.7449C11.961 28.1446 12.3612 27.5193 12.9364 26.894C14.3621 25.3433 16.8133 24.4429 18.0639 23.8926C18.5891 23.6675 18.9143 23.5174 18.8892 23.4174C18.7642 23.0172 15.4126 21.9167 12.5613 19.3655C12.4445 19.2654 12.3362 19.157 12.2361 19.0403C10.0101 16.6642 9.38477 11.8369 9.38477 11.8369C14.062 10.5613 20.0898 10.7364 20.0898 10.7364C18.0639 10.8364 12.3862 11.6368 11.9109 12.3872C11.6108 12.8874 11.7359 15.4636 13.2616 17.5896C14.7373 19.6656 18.9143 21.3414 19.7897 21.7416C19.8063 21.7583 19.823 21.7666 19.8397 21.7666C20.54 22.1168 20.515 24.693 19.9397 24.9431C19.8564 24.9764 19.773 25.0098 19.6896 25.0431C13.9619 27.4693 12.6113 31.146 13.0115 31.2961C15.4876 32.2215 18.439 32.5217 21.1653 32.4716C23.8916 32.5217 26.843 32.2215 29.3192 31.2961C29.7193 31.146 28.3687 27.4693 22.666 25.0431C22.5826 25.0098 22.4909 24.9764 22.3909 24.9431C21.8156 24.693 21.7906 22.1168 22.4659 21.7666C22.4993 21.7499 22.541 21.7332 22.591 21.7166C23.5915 21.2664 27.6184 19.6156 29.069 17.5896C30.5697 15.4636 30.7198 12.8874 30.4197 12.3872C29.9444 11.6368 24.2668 10.8364 22.2408 10.7364C22.2408 10.7364 28.2687 10.5613 32.9459 11.8369C32.9459 11.8369 32.2705 16.8893 29.9194 19.1904C29.8694 19.2571 29.8111 19.3154 29.7444 19.3655C26.918 21.9167 23.5664 23.0172 23.4414 23.4174C23.4164 23.5174 23.7665 23.6925 24.3168 23.9176C25.5924 24.4679 27.9685 25.3683 29.3942 26.894C30.0445 27.6193 30.4947 28.3447 30.7698 29.02Z" fill="url(#paint5_linear_1040_12338)"/>
<g style="mix-blend-mode:multiply" opacity="0.5">
<path d="M9.38477 11.8374L9.4598 12.3627C9.4598 12.3627 16.3631 10.2867 24.1167 11.4373C31.8704 12.5878 32.5957 13.5633 32.5957 13.5633L32.9459 11.8374C32.9459 11.8374 28.7689 10.5618 21.1653 10.5118C13.5617 10.4868 9.38477 11.8374 9.38477 11.8374Z" fill="#9A376D"/>
</g>
<g style="mix-blend-mode:multiply" opacity="0.5">
<path d="M38.247 8.68545C37.9719 9.06063 36.3961 10.0861 36.2711 10.3612C36.2711 10.3612 32.6694 7.38484 20.5386 7.38484C13.5103 7.38484 8.73309 9.01061 5.98179 10.3612C5.50657 10.1611 4.33101 9.58588 4.00586 9.13567C11.8095 7.23477 16.8119 6.80957 20.8138 6.80957C29.0176 6.80957 35.2456 8.23524 38.247 8.68545Z" fill="#602260"/>
</g>
<path d="M28.0166 18.6648C28.0166 18.6648 22.6391 19.19 19.9628 18.8149C18.7873 18.6398 12.6094 16.4888 12.6094 16.4888C12.6094 16.4888 13.2847 18.5397 16.2611 20.0154C19.2375 21.4911 19.4626 21.5161 19.9378 21.8413C20.4131 22.1664 20.8883 24.5176 21.1634 24.8427C21.4135 24.5176 21.8887 22.1664 22.339 21.8413C22.8392 21.5161 23.0893 21.5412 26.0407 20.0154C27.1662 19.4402 28.0166 18.6648 28.0166 18.6648Z" fill="url(#paint6_linear_1040_12338)"/>
<path d="M12.6084 16.4891C13.5338 18.5151 24.639 21.9917 28.3658 18.365C28.6409 18.0899 26.4899 18.2649 22.6131 17.6647C19.5116 17.1894 17.8358 16.239 15.0345 15.6137C11.6579 14.8883 12.4083 16.0639 12.6084 16.4891Z" fill="url(#paint7_linear_1040_12338)"/>
<g style="mix-blend-mode:multiply" opacity="0.5">
<path d="M13.6119 17.8899C15.7129 20.141 20.5151 21.8418 21.4906 21.8167C22.491 21.7667 25.6926 20.191 26.0177 19.8658C26.3679 19.5157 23.2914 20.316 19.2145 19.4906C15.1626 18.6653 12.9866 17.2396 13.6119 17.8899Z" fill="#E09590"/>
</g>
<g style="mix-blend-mode:multiply" opacity="0.5">
<path d="M15.2352 19.2403C16.6859 20.2658 20.2376 21.7665 20.3126 21.3663C20.3626 21.0662 20.2876 19.9407 18.8119 19.3904C17.5113 18.9152 14.86 18.9652 15.2352 19.2403Z" fill="#E09590"/>
</g>
<g style="mix-blend-mode:multiply" opacity="0.5">
<path d="M6.50812 5.2593C5.95786 6.70999 6.43308 8.03561 6.98334 8.03561C7.5336 8.03561 14.5119 6.50989 19.064 6.48488C23.6162 6.45987 21.5902 2.60805 19.7644 2.45798C17.9635 2.30791 7.05838 3.75859 6.50812 5.2593Z" fill="#AB2781"/>
</g>
<g style="mix-blend-mode:multiply" opacity="0.5">
<path d="M10.1327 35.1975C8.83214 35.7978 9.78258 37.9238 10.1327 38.224C10.5079 38.4991 18.3866 40.0998 21.1629 39.7497C21.7882 39.6746 21.6132 36.6482 20.7628 36.4981C19.9124 36.3231 10.683 34.9474 10.1327 35.1975Z" fill="#AB2781"/>
</g>
<g style="mix-blend-mode:soft-light">
<path d="M6.35742 10.3606C6.35742 10.8359 6.40744 11.5362 6.83264 11.5362C7.28286 11.5362 10.7845 10.5607 10.8595 10.1606C10.9346 9.76037 10.9346 8.985 10.1842 9.03502C9.43387 9.08505 6.38243 9.81039 6.35742 10.3606Z" fill="#92FFFF"/>
</g>
<g style="mix-blend-mode:soft-light">
<path d="M4.10551 8.86041C4.83085 9.08552 6.35657 8.31015 6.35657 8.1851C6.38158 8.03502 6.05643 5.45881 5.68125 5.25872C5.3561 5.08363 4.18055 5.25872 4.00546 5.68392C3.83038 6.13413 3.85539 8.78538 4.10551 8.86041Z" fill="#92FFFF"/>
</g>
<g style="mix-blend-mode:soft-light" opacity="0.5">
<path d="M27.3398 3.28237C26.7645 4.33286 26.6645 6.08369 27.0897 6.38383C27.9401 6.98411 36.0439 8.10964 36.4691 7.88454C36.9193 7.65943 36.8193 5.55844 36.4691 5.18327C36.144 4.80809 27.69 2.63206 27.3398 3.28237Z" fill="white"/>
</g>
<g style="mix-blend-mode:soft-light" opacity="0.5">
<path d="M26.5156 36.1233C26.5156 36.6235 27.7912 39.0997 28.4415 39.2248C28.8167 39.2748 32.1933 39.0747 32.7936 38.8246C33.9191 38.3243 33.594 35.1729 33.0687 35.1729C32.5435 35.1729 26.5156 35.7731 26.5156 36.1233Z" fill="white"/>
</g>
<g style="mix-blend-mode:soft-light">
<path d="M6.8323 34.5976C6.03192 35.0478 6.10696 37.7491 6.207 37.8741C6.30705 37.9992 8.80823 38.5995 8.9583 38.4244C9.08336 38.2743 9.33347 35.348 9.03333 35.1729C8.7582 34.9728 7.20748 34.3725 6.8323 34.5976Z" fill="#92FFFF"/>
</g>
<g style="mix-blend-mode:soft-light" opacity="0.5">
<path d="M27.092 8.0346C26.3917 8.20968 26.7668 9.61034 27.092 9.68538C27.4171 9.78542 33.6951 10.8859 33.9952 10.7359C34.2954 10.5608 34.2954 9.51029 33.9952 9.38523C33.6951 9.28519 28.8678 7.63441 27.092 8.0346Z" fill="white"/>
</g>
<g style="mix-blend-mode:multiply" opacity="0.5">
<path d="M11.4081 8.58533C11.0329 8.81043 11.233 10.3111 11.4081 10.2861C11.6082 10.2611 18.6615 9.56079 22.4133 9.66083C23.7639 9.68584 22.9635 7.70991 21.9881 7.55984C21.0126 7.38476 13.0088 7.60987 11.4081 8.58533Z" fill="#AB2781"/>
</g>
<path d="M29.3187 31.2963C28.4683 32.0467 23.1158 32.4719 21.1649 32.4719C17.8383 32.4719 13.7114 31.8466 13.011 31.2963C12.7109 31.0462 14.2116 30.2709 16.0875 29.5205C17.8883 28.8202 20.0143 28.1449 21.1649 28.0448C22.6156 27.9198 25.742 28.9202 27.693 29.8707C28.8935 30.4459 29.6439 30.9962 29.3187 31.2963Z" fill="url(#paint8_linear_1040_12338)"/>
<g style="mix-blend-mode:multiply" opacity="0.5">
<path d="M29.3187 31.2963C28.4683 32.0467 23.1158 32.4719 21.1649 32.4719C17.8383 32.4719 13.7114 31.8466 13.011 31.2963C12.7109 31.0462 14.2116 30.2708 16.0875 29.5205C22.8907 28.7201 15.4372 30.571 18.1635 31.5714C20.8647 32.5969 28.4433 30.7961 27.693 29.8707C28.8935 30.4459 29.6439 30.9962 29.3187 31.2963Z" fill="#E09590"/>
</g>
<g style="mix-blend-mode:soft-light" opacity="0.5">
<path d="M21.5393 28.4199C20.839 28.57 21.3142 30.646 22.1646 30.8461C23.6403 31.1962 27.242 30.8711 26.5667 29.6205C26.3166 29.1703 22.7899 28.1698 21.5393 28.4199Z" fill="white"/>
</g>
<path d="M24.1883 13.2875C22.5125 15.6636 24.6385 17.8397 27.3398 15.6386C30.0411 13.4376 25.689 11.1615 24.1883 13.2875Z" fill="white"/>
<path d="M23.139 27.3687C24.5647 29.1446 25.5902 27.7689 24.2645 26.7935C23.139 25.9431 22.2386 26.2432 23.139 27.3687Z" fill="white"/>
<g style="mix-blend-mode:multiply" opacity="0.5">
<path d="M31.3177 31.7968C31.3177 32.0719 27.1657 33.6477 21.1629 33.4476C15.1601 33.6477 10.9831 32.0719 10.9831 31.7968C10.9831 31.5967 10.9331 30.2961 11.6834 28.7454C11.5084 30.2461 12.3838 31.8218 14.1096 32.4721C18.1115 33.9728 26.6905 33.2975 29.3918 31.6217C30.5673 30.9214 30.9675 30.021 30.7674 29.0205C31.3677 30.4462 31.3177 31.6217 31.3177 31.7968Z" fill="#9A376D"/>
</g>
<path d="M29.3912 33.0967C29.2411 33.1967 29.8664 33.6469 30.9919 33.4969C31.3671 33.4468 31.9924 32.8716 31.9924 32.5714C32.0174 32.3463 30.0665 32.6465 29.3912 33.0967Z" fill="#B17ABF"/>
<path d="M35.1407 4.28327C34.8905 4.20823 31.2888 3.43286 26.6867 2.88261C25.336 2.73253 23.9104 2.60748 22.4597 2.50743C19.8084 2.35736 17.0821 2.35736 14.581 2.6575C14.5643 2.6575 14.5393 2.6575 14.5059 2.6575C13.889 2.74087 13.2887 2.84092 12.7051 2.95764C12.9302 2.88261 16.4568 1.90715 21.9594 2.00719C22.1762 2.07389 22.393 2.14059 22.6097 2.20729C23.5102 2.43239 24.4856 2.53244 25.9363 2.43239C26.2031 2.41572 26.4949 2.39904 26.8117 2.38237C29.3629 2.70752 32.1642 3.30781 35.1156 4.25825C35.1156 4.25825 35.124 4.25825 35.1407 4.25825C35.1407 4.27493 35.1407 4.28327 35.1407 4.28327Z" fill="#7439B5"/>
<path d="M26.9672 2.55734C26.9922 2.6824 26.8922 2.78245 26.6921 2.88249C25.9167 3.28268 23.6406 3.35772 22.4651 2.50732C22.3317 2.42394 22.2066 2.31556 22.0899 2.18216C22.0566 2.13214 22.0149 2.07378 21.9648 2.00708C22.1816 2.07378 22.3984 2.14048 22.6152 2.20717C23.5156 2.43228 24.491 2.53233 25.9417 2.43228C26.2085 2.41561 26.5003 2.39893 26.8171 2.38226C26.9005 2.43228 26.9505 2.49064 26.9672 2.55734Z" fill="url(#paint9_linear_1040_12338)"/>
<g style="mix-blend-mode:multiply" opacity="0.5">
<path d="M24.3149 2.68246C24.69 3.40781 26.616 3.03263 26.791 2.83254C26.9661 2.63244 27.0912 2.45736 26.1657 2.48237C25.2403 2.53239 24.1898 2.45736 24.3149 2.68246Z" fill="#967566"/>
</g>
<g style="mix-blend-mode:soft-light">
<path d="M21.9901 2.05701C22.2402 2.50723 22.9655 2.8824 23.4657 2.8824C23.7659 2.8824 24.041 2.4572 23.5658 2.38217C22.1151 2.15706 21.915 1.90694 21.9901 2.05701Z" fill="white"/>
</g>
<path d="M30.7172 3.45739C32.543 7.45928 33.9437 4.18274 33.4935 3.93262C33.0433 3.6825 30.4921 2.95716 30.7172 3.45739Z" fill="white"/>
<g style="mix-blend-mode:multiply" opacity="0.5">
<path d="M23.4397 23.4173C23.4146 23.5174 23.7648 23.6925 24.3151 23.9176C23.9649 24.4929 23.2896 24.843 22.6643 25.0431C21.9139 25.3182 21.1886 25.3683 21.1886 25.3683C21.1886 25.3683 20.4633 25.3182 19.6879 25.0431C19.0626 24.818 18.4123 24.4678 18.0621 23.8926C18.5874 23.6675 18.9125 23.5174 18.8875 23.4173C18.7625 23.0172 15.4109 21.9166 12.5595 19.3654C12.4428 19.2654 12.3344 19.157 12.2344 19.0403C15.2108 21.8166 18.8875 22.5419 19.7879 21.7416C20.1131 21.4664 20.4883 21.1663 21.1886 21.1663C21.8889 21.1663 22.2641 21.4414 22.5893 21.7165C23.5147 22.4919 26.5661 22.0917 29.9177 19.1904C29.8677 19.2571 29.8093 19.3154 29.7426 19.3654C26.9163 21.9166 23.5647 23.0172 23.4397 23.4173Z" fill="#9A376D"/>
</g>
<g style="mix-blend-mode:multiply" opacity="0.5">
<path d="M11.5828 11.3109C11.3077 14.8376 12.6833 17.1387 13.3336 17.714C13.3336 17.714 11.958 15.1878 12.6083 12.5865C12.7333 12.1113 15.2095 10.8857 15.2095 10.8857L11.5828 11.3109Z" fill="#9A376D"/>
</g>
<g style="mix-blend-mode:multiply" opacity="0.5">
<path d="M30.7455 11.3109C30.9956 14.8376 29.6199 17.1387 28.9696 17.714C28.9696 17.714 30.3453 15.1878 29.695 12.5865C29.5699 12.1113 27.0938 10.8857 27.0938 10.8857L30.7455 11.3109Z" fill="#9A376D"/>
</g>
<path d="M29.5423 17.2398C28.3918 18.7155 26.3658 19.9411 26.741 20.0912C27.5163 20.3663 28.6669 20.0411 29.4673 19.1407C30.2426 18.2403 30.3677 16.2143 29.5423 17.2398Z" fill="white"/>
<path d="M11.8084 17.9648C12.0085 18.6151 13.4342 19.6156 14.7848 20.0658C15.3351 20.2659 13.7093 18.6151 12.959 17.6647C12.0085 16.4141 11.5583 17.2645 11.8084 17.9648Z" fill="white"/>
<path d="M26.2898 25.9936C27.6154 27.7445 28.6909 29.5453 29.4663 28.995C30.2417 28.4698 29.0661 26.5689 27.3653 25.6935C25.6645 24.8181 25.9897 25.6435 26.2898 25.9936Z" fill="white"/>
<path d="M13.5135 29.2954C14.3139 27.9697 15.9396 26.8692 15.8896 26.419C15.8396 26.0188 12.6881 26.4941 12.413 28.7451C12.2379 30.0707 13.1383 29.8706 13.5135 29.2954Z" fill="white"/>
<g style="mix-blend-mode:soft-light">
<path d="M12.7051 14.1379C12.6801 19.0402 19.5584 20.616 21.0091 20.2408C22.4597 19.8656 22.985 12.137 20.3087 11.7118C17.6325 11.2866 12.7302 12.3871 12.7051 14.1379Z" fill="white"/>
</g>
<path d="M28.6692 36.0735C29.8448 37.5492 30.6452 37.4741 31.3205 36.9989C32.0208 36.5237 32.471 35.198 31.7207 35.2731C30.9453 35.3481 28.169 35.4732 28.6692 36.0735Z" fill="white"/>
</g>
<defs>
<linearGradient id="paint0_linear_1040_12338" x1="5.94853" y1="31.8459" x2="36.0702" y2="31.8459" gradientUnits="userSpaceOnUse">
<stop stop-color="#902EF6"/>
<stop offset="1" stop-color="#682EFF"/>
</linearGradient>
<linearGradient id="paint1_linear_1040_12338" x1="8.82848" y1="33.7796" x2="33.7882" y2="33.7796" gradientUnits="userSpaceOnUse">
<stop stop-color="#B556E3"/>
<stop offset="1" stop-color="#C359EA"/>
</linearGradient>
<linearGradient id="paint2_linear_1040_12338" x1="3.76714" y1="2.17589" x2="38.7504" y2="2.17589" gradientUnits="userSpaceOnUse">
<stop stop-color="#902EF6"/>
<stop offset="1" stop-color="#682EFF"/>
</linearGradient>
<linearGradient id="paint3_linear_1040_12338" x1="6.53445" y1="9.80428" x2="36.0524" y2="9.80428" gradientUnits="userSpaceOnUse">
<stop stop-color="#23005F"/>
<stop offset="1" stop-color="#471689"/>
</linearGradient>
<linearGradient id="paint4_linear_1040_12338" x1="8.80765" y1="33.1456" x2="8.80765" y2="10.7341" gradientUnits="userSpaceOnUse">
<stop stop-color="#E8E5ED"/>
<stop offset="1" stop-color="#D8CCCF"/>
</linearGradient>
<linearGradient id="paint5_linear_1040_12338" x1="10.1776" y1="33.4731" x2="10.1776" y2="10.7269" gradientUnits="userSpaceOnUse">
<stop stop-color="#E8E5ED"/>
<stop offset="0.589" stop-color="#D19FD1"/>
<stop offset="1" stop-color="#846898"/>
</linearGradient>
<linearGradient id="paint6_linear_1040_12338" x1="12.6131" y1="16.4908" x2="28.0069" y2="16.4908" gradientUnits="userSpaceOnUse">
<stop stop-color="#FFA900"/>
<stop offset="1" stop-color="#FF9600"/>
</linearGradient>
<linearGradient id="paint7_linear_1040_12338" x1="12.4003" y1="15.3833" x2="28.4001" y2="15.3833" gradientUnits="userSpaceOnUse">
<stop stop-color="#FFB100"/>
<stop offset="1" stop-color="#FFC500"/>
</linearGradient>
<linearGradient id="paint8_linear_1040_12338" x1="20.5794" y1="32.4736" x2="20.5794" y2="28.0316" gradientUnits="userSpaceOnUse">
<stop stop-color="#FF9600"/>
<stop offset="1" stop-color="#FFA900"/>
</linearGradient>
<linearGradient id="paint9_linear_1040_12338" x1="26.9624" y1="3.17313" x2="21.9706" y2="3.17313" gradientUnits="userSpaceOnUse">
<stop stop-color="#471689"/>
<stop offset="1" stop-color="#23005F"/>
</linearGradient>
</defs>
</svg>
