<?xml version="1.0" encoding="UTF-8"?>
<!DOCTYPE svg PUBLIC "-//W3C//DTD SVG 1.1//EN" "http://www.w3.org/Graphics/SVG/1.1/DTD/svg11.dtd">
<!-- Creator: CorelDRAW -->
<svg xmlns="http://www.w3.org/2000/svg" xml:space="preserve" width="124px" height="159px" version="1.1" style="shape-rendering:geometricPrecision; text-rendering:geometricPrecision; image-rendering:optimizeQuality; fill-rule:evenodd; clip-rule:evenodd"
viewBox="0 0 12.07 15.49"
 xmlns:xlink="http://www.w3.org/1999/xlink">
 <defs>
  <style type="text/css">
   <![CDATA[
    .fil0 {fill:white}
   ]]>
  </style>
 </defs>
 <g id="Layer_x0020_1">
  <metadata id="CorelCorpID_0Corel-Layer"/>
  <path class="fil0" d="M0.46 13.88c-0.57,0.11 -0.45,0.5 -0.45,0.91 0,0.47 0.05,0.69 0.79,0.69 1.17,-0.01 10.54,0.03 10.82,-0.02 0.54,-0.1 0.44,-0.53 0.44,-0.92 0,-0.47 -0.05,-0.68 -0.79,-0.68 -1.16,0 -10.54,-0.04 -10.81,0.02z"/>
  <path class="fil0" d="M0.46 0.03c-0.57,0.11 -0.45,0.5 -0.45,0.92 0,0.46 0.05,0.68 0.79,0.68 1.18,0 10.54,0.04 10.82,-0.02 0.54,-0.1 0.44,-0.52 0.44,-0.92 0,-0.46 -0.05,-0.68 -0.79,-0.68 -1.15,0 -10.54,-0.03 -10.81,0.02z"/>
  <path class="fil0" d="M4.23 7.53c0,1.62 -0.62,0.92 -1.92,2.49 -0.63,0.76 -1.08,1.76 -1.09,3.05l0.6 0c0.02,-1.51 0.75,-2.71 1.74,-3.42 0.84,-0.59 1.27,-0.69 1.27,-2.15 0,-1.45 -1.04,-1.51 -1.81,-2.33 -0.65,-0.7 -1.18,-1.59 -1.2,-2.94l-0.6 0c0.02,1.71 0.89,3.2 2.17,4.03 0.48,0.31 0.84,0.47 0.84,1.27z"/>
  <path class="fil0" d="M7.24 7.5c0,1.91 0.86,1.62 1.81,2.63 0.65,0.69 1.18,1.58 1.2,2.94l0.6 0c-0.01,-1.72 -0.89,-3.21 -2.17,-4.04 -0.72,-0.46 -0.84,-0.55 -0.84,-1.53 0,-1.17 0.79,-0.86 1.92,-2.23 0.63,-0.76 1.08,-1.75 1.09,-3.04l-0.6 0c-0.02,1.5 -0.75,2.7 -1.74,3.41 -0.56,0.4 -1.27,0.68 -1.27,1.86z"/>
  <path class="fil0" d="M5.43 7.53l0 1.85c0,1.19 -0.93,1.15 -1.71,1.63 -0.6,0.37 -1.31,1 -1.3,2.06l7.23 0c-0.03,-1.09 -0.66,-1.67 -1.3,-2.06 -0.81,-0.49 -1.71,-0.43 -1.71,-1.67 0,-1.65 -0.24,-2.93 0.98,-3.84 0.36,-0.26 0.42,-0.23 0.88,-0.62 0.18,-0.16 0.52,-0.57 0.66,-0.84l-6.24 0c0.74,1.54 2.51,1.26 2.51,3.49z"/>
 </g>
</svg>
