<svg width="32" height="32" viewBox="0 0 32 32" fill="none" xmlns="http://www.w3.org/2000/svg">
<path d="M25.0444 0.503906C25.0444 0.503906 25.5101 0.539853 25.7608 1.11499C25.9757 1.69013 25.331 20.7416 25.1877 20.9573C25.0444 21.2089 24.6504 21.2808 24.6504 21.2808L25.0444 0.503906Z" fill="#C9EA00"/>
<path d="M10.0368 21.7124C9.82193 21.7483 8.81899 3.66737 9.03391 3.05628C9.213 2.4452 24.2571 0.396263 25.0451 0.504102C25.8332 0.647887 25.0809 20.0229 24.7944 21.1013C24.5078 22.2156 10.0368 21.7124 10.0368 21.7124Z" fill="url(#paint0_linear_1861_116688)"/>
<g style="mix-blend-mode:multiply" opacity="0.2">
<path fill-rule="evenodd" clip-rule="evenodd" d="M24.3277 17.1115L21.498 20.9578L12.8297 20.9937L10.3224 17.3991L10 7.15444L12.4715 3.12846L21.3547 1.72656L24.3993 4.85388L24.3277 17.1115ZM16.34 6.43551C13.9759 7.44201 11.0746 17.1115 16.5191 17.8305C21.9636 18.5494 22.6442 3.81144 16.34 6.43551Z" fill="#BA6B6D"/>
</g>
<path d="M21.2461 0.00195312C21.2461 0.00195312 21.7117 0.00195312 21.9625 0.541146C22.2132 1.08034 22.858 20.1678 22.7505 20.4194C22.6431 20.6351 22.249 20.7429 22.249 20.7429L21.2461 0.00195312Z" fill="#C9EA00"/>
<path d="M7.70729 22.18C7.49237 22.2519 5.27157 4.24289 5.41484 3.6318C5.55812 3.02072 20.4589 -0.0706586 21.247 0.00123385C22.035 0.0731263 22.6081 19.4481 22.3932 20.5625C22.1783 21.6768 7.70729 22.18 7.70729 22.18Z" fill="url(#paint1_linear_1861_116688)"/>
<g style="mix-blend-mode:multiply" opacity="0.2">
<path fill-rule="evenodd" clip-rule="evenodd" d="M21.6405 16.608L19.0615 20.6339L10.429 21.245L7.70674 17.8301L6.66797 7.65736L8.88877 3.4876L17.6287 1.47461L20.8882 4.38625L21.6405 16.608ZM12.9363 6.50708C10.6439 7.65735 8.42312 17.5066 13.9035 17.8301C19.3838 18.1896 19.0614 3.4157 12.9363 6.50708Z" fill="#BA6B6D"/>
</g>
<path d="M31.0967 19.3374C31.0967 19.3374 31.0967 19.3494 31.0967 19.3734C30.8101 25.0529 30.2012 31.1637 29.6639 31.5232C28.661 32.2062 5.41426 32.2421 4.41132 31.0559C4.08894 30.6964 3.73074 28.5756 3.44419 25.8078C2.79944 19.8407 2.26217 10.5666 3.30093 10.2431C13.7602 6.68438 30.0579 7.9425 30.9534 9.05683C31.3833 9.59602 31.3474 14.5566 31.0967 19.3374Z" fill="url(#paint2_linear_1861_116688)"/>
<path d="M30.2737 19.3374C30.2737 19.3374 30.2737 19.3494 30.2737 19.3734C29.9872 25.0529 29.3783 31.1637 28.841 31.5232C27.8739 32.2062 4.62713 32.2421 3.58837 31.0559C3.30182 30.6964 2.94362 28.5756 2.62125 25.8078C2.01232 19.8407 1.43923 10.5666 2.47798 10.2431C12.9372 6.68438 29.235 7.9425 30.1663 9.05683C30.5961 9.59602 30.5245 14.5566 30.2737 19.3374Z" fill="url(#paint3_linear_1861_116688)"/>
<path d="M29.2705 19.3374C29.2705 19.3374 29.2705 19.3494 29.2705 19.3734C28.984 25.0529 28.375 31.1637 27.8378 31.5232C26.8706 32.2062 3.5881 32.2421 2.58516 31.0559C2.26278 30.6964 1.90459 28.5756 1.61803 25.8078C0.973285 19.8407 0.435987 10.5666 1.47475 10.2431C11.934 6.68438 28.2318 7.9425 29.1631 9.05683C29.5571 9.59602 29.5213 14.5566 29.2705 19.3374Z" fill="url(#paint4_linear_1861_116688)"/>
<path d="M28.3035 19.3376C28.3035 19.3376 28.3035 19.3496 28.3035 19.3736C28.0169 25.0531 27.408 31.1639 26.8707 31.5234C25.9036 32.2063 2.62102 32.2423 1.61808 31.0561C1.33153 30.6966 0.973328 28.5758 0.650954 25.8079C0.00620695 19.8409 -0.351973 10.8903 0.50769 10.2432C3.44487 7.94266 27.2647 7.94266 28.196 9.05699C28.6258 9.59619 28.5542 14.5568 28.3035 19.3376Z" fill="url(#paint5_linear_1861_116688)"/>
<g style="mix-blend-mode:multiply" opacity="0.5">
<path fill-rule="evenodd" clip-rule="evenodd" d="M25.6898 30.0133C24.7585 31.0558 3.98328 30.9479 2.83707 29.6179C1.65503 28.2879 0.723716 11.6808 1.54756 11.1775C4.66384 9.34426 26.048 9.09264 26.9793 10.854C27.9106 12.6513 26.5853 29.0068 25.6898 30.0133ZM26.6211 11.1416C25.6898 9.38021 4.95039 9.66778 1.90575 11.4291C1.11773 11.8964 2.01321 28.0363 3.15943 29.3303C4.30565 30.6244 24.4719 30.7682 25.3674 29.7617C26.2629 28.7552 27.5524 12.867 26.6211 11.1416Z" fill="#A30085"/>
</g>
<g style="mix-blend-mode:multiply" opacity="0.3">
<path d="M3.62254 28.7914C1.5092 27.6411 15.6937 21.063 22.8217 19.4813C29.9497 17.8997 26.6543 28.6117 23.0366 29.5103C19.4547 30.373 4.91203 29.5463 3.62254 28.7914Z" fill="#BA40A4"/>
</g>
<path d="M16.16 30.804C16.0525 30.804 15.9809 30.7321 15.9809 30.6242C15.9809 30.5523 16.0525 30.4804 16.16 30.4804H16.2316C16.6376 30.4804 17.0316 30.4804 17.4136 30.4804C17.4853 30.4804 17.5569 30.5523 17.5569 30.6242C17.5569 30.6961 17.4853 30.768 17.4136 30.768C17.0316 30.792 16.6376 30.804 16.2316 30.804H16.16ZM15.2287 30.768C14.7988 30.768 14.3809 30.768 13.975 30.768C13.8675 30.768 13.7959 30.6961 13.7959 30.6242C13.7959 30.5164 13.8675 30.4445 13.975 30.4445C14.3809 30.4685 14.7988 30.4804 15.2287 30.4804C15.3003 30.4804 15.372 30.5523 15.372 30.6242C15.372 30.7321 15.3003 30.768 15.2287 30.768ZM18.3808 30.768C18.2733 30.768 18.2017 30.6961 18.2017 30.6242C18.2017 30.5164 18.2733 30.4445 18.3808 30.4445C18.8106 30.4445 19.2285 30.4445 19.6344 30.4445C19.7061 30.4445 19.7777 30.4804 19.7777 30.5883C19.7777 30.6602 19.7061 30.7321 19.6344 30.7321C19.2285 30.756 18.8106 30.768 18.3808 30.768ZM13.0079 30.768C12.578 30.744 12.1601 30.7321 11.7542 30.7321C11.6826 30.7321 11.6109 30.6602 11.6109 30.5523C11.6109 30.4804 11.6826 30.4086 11.7542 30.4086C12.184 30.4086 12.6019 30.4205 13.0079 30.4445C13.1153 30.4445 13.187 30.5164 13.187 30.5883C13.187 30.6961 13.1153 30.768 13.0079 30.768ZM20.5658 30.7321C20.4941 30.7321 20.4225 30.6602 20.4225 30.5523C20.4225 30.4804 20.4941 30.4086 20.5658 30.4086C20.9956 30.3846 21.4135 30.3606 21.8194 30.3367C21.9269 30.3367 21.9985 30.4086 21.9985 30.4804C21.9985 30.5883 21.9269 30.6602 21.8552 30.6602C21.4493 30.6841 21.0195 30.7081 20.5658 30.7321ZM10.8229 30.6961C10.3931 30.6722 9.96322 30.6482 9.53339 30.6242C9.46175 30.6242 9.39013 30.5523 9.39013 30.4804C9.39013 30.3726 9.46177 30.3007 9.56922 30.3007C9.97517 30.3247 10.3931 30.3486 10.8229 30.3726C10.8945 30.3726 10.9662 30.4445 10.9662 30.5523C10.9662 30.6242 10.8945 30.6961 10.8229 30.6961ZM22.7865 30.5883C22.6791 30.5883 22.6074 30.5523 22.6074 30.4445C22.6074 30.3726 22.6791 30.3007 22.7507 30.3007C23.2283 30.2528 23.6462 30.2049 24.0044 30.1569C24.1119 30.1569 24.1835 30.2288 24.1835 30.3007C24.1835 30.4086 24.1477 30.4804 24.0402 30.4804C23.682 30.5284 23.2641 30.5643 22.7865 30.5883ZM8.6021 30.5883C8.17227 30.5643 7.75437 30.5284 7.34842 30.4804C7.24096 30.4804 7.20514 30.4086 7.20514 30.3367C7.20514 30.2288 7.27678 30.1569 7.38423 30.1929C7.76631 30.2168 8.1842 30.2408 8.63791 30.2648C8.70955 30.2648 8.78119 30.3367 8.78119 30.4445C8.78119 30.5164 8.70956 30.5883 8.6021 30.5883ZM6.41713 30.4086C6.41713 30.4086 6.40518 30.4086 6.3813 30.4086C5.92759 30.3606 5.50969 30.3127 5.12762 30.2648C5.05598 30.2648 4.98435 30.1929 5.02017 30.085C5.02017 30.0131 5.09182 29.9413 5.16345 29.9772C5.54553 30.0251 5.96342 30.0611 6.41713 30.085C6.52459 30.121 6.59621 30.1929 6.56039 30.2648C6.56039 30.3367 6.48877 30.4086 6.41713 30.4086ZM24.9715 30.3367C24.8999 30.3367 24.8282 30.3007 24.7924 30.2288C24.7924 30.121 24.864 30.0491 24.9357 30.0491C25.3655 29.9413 25.473 29.8694 25.473 29.8334C25.5088 29.8334 25.5804 29.7256 25.6879 29.3661C25.6879 29.2942 25.7954 29.2583 25.867 29.2583C25.9386 29.2942 26.0103 29.4021 25.9745 29.474C25.9028 29.7615 25.7954 29.9413 25.7237 30.0491C25.6521 30.121 25.5088 30.2288 25.0073 30.3367C24.9834 30.3367 24.9715 30.3367 24.9715 30.3367ZM4.23214 30.121C4.20826 30.121 4.19633 30.121 4.19633 30.121C3.55158 30.0131 3.15757 29.8694 2.94265 29.7256C2.87102 29.6896 2.83518 29.5818 2.90682 29.5099C2.94264 29.438 3.05011 29.438 3.12175 29.474C3.22921 29.5458 3.55159 29.6896 4.26797 29.8334C4.33961 29.8334 4.41125 29.9053 4.37543 30.0131C4.37543 30.085 4.30378 30.121 4.23214 30.121ZM2.62027 28.9348C2.54863 28.9348 2.47701 28.8988 2.47701 28.8269C2.38149 28.4914 2.28595 28.0721 2.19044 27.5688C2.15462 27.4969 2.22627 27.3891 2.29791 27.3891C2.40537 27.3531 2.477 27.425 2.51282 27.4969C2.58446 28.0002 2.66804 28.4075 2.76356 28.7191C2.79938 28.8269 2.72774 28.8988 2.6561 28.9348C2.63222 28.9348 2.62027 28.9348 2.62027 28.9348ZM26.0461 28.6472C26.0222 28.6472 26.0103 28.6472 26.0103 28.6472C25.9386 28.6472 25.867 28.5394 25.9028 28.4675C25.9506 28.108 26.0103 27.7006 26.0819 27.2453C26.1177 27.1375 26.1894 27.1015 26.261 27.1015C26.3685 27.1015 26.4043 27.1734 26.4043 27.2812C26.3327 27.7605 26.261 28.1799 26.1894 28.5394C26.1894 28.6112 26.1177 28.6472 26.0461 28.6472ZM2.19044 26.778C2.1188 26.778 2.04717 26.7061 2.04717 26.6342C1.97553 26.2268 1.91583 25.8074 1.86808 25.3761C1.86808 25.2682 1.90388 25.1964 2.01134 25.1964C2.08298 25.1964 2.15462 25.2323 2.19044 25.3401C2.23819 25.7715 2.28596 26.1789 2.33372 26.5623C2.36954 26.6701 2.29791 26.742 2.22627 26.778C2.20239 26.778 2.19044 26.778 2.19044 26.778ZM26.3685 26.4545C26.261 26.4545 26.2252 26.3826 26.2252 26.2747C26.273 25.8913 26.3207 25.4839 26.3685 25.0526C26.4043 24.9447 26.4759 24.9088 26.5476 24.9088C26.655 24.9088 26.6908 24.9807 26.6908 25.0885C26.6431 25.5199 26.5953 25.9392 26.5476 26.3466C26.5476 26.4185 26.4759 26.4545 26.3685 26.4545ZM1.90389 24.5493C1.83225 24.5493 1.76062 24.5134 1.76062 24.4055C1.71286 23.9981 1.67703 23.5788 1.65315 23.1474C1.61733 23.0755 1.68898 23.0036 1.76062 23.0036C1.86808 22.9677 1.93972 23.0396 1.93972 23.1474C1.98748 23.5788 2.03522 23.9981 2.08298 24.4055C2.08298 24.4774 2.01136 24.5493 1.93972 24.5493C1.93972 24.5493 1.92777 24.5493 1.90389 24.5493ZM26.655 24.2618C26.6312 24.2618 26.6192 24.2618 26.6192 24.2618C26.5476 24.2618 26.4759 24.1899 26.4759 24.082C26.5237 23.6746 26.5714 23.2553 26.6192 22.8239C26.6192 22.752 26.6908 22.6801 26.7625 22.6801C26.8699 22.7161 26.9416 22.788 26.9057 22.8599C26.8819 23.2912 26.8461 23.7106 26.7983 24.118C26.7983 24.2258 26.7267 24.2618 26.655 24.2618ZM1.72479 22.3566C1.61733 22.3566 1.54569 22.2847 1.54569 22.2128C1.52181 21.8054 1.49793 21.3861 1.47405 20.9547C1.43823 20.8469 1.50988 20.775 1.61734 20.775C1.68897 20.775 1.76062 20.8469 1.76062 20.9188C1.80838 21.3501 1.8442 21.7695 1.86808 22.1769C1.86808 22.2847 1.79643 22.3566 1.72479 22.3566ZM26.8341 22.069C26.7625 22.069 26.6908 21.9971 26.6908 21.8893C26.7147 21.4819 26.7505 21.0625 26.7983 20.6312C26.7983 20.5593 26.8699 20.4874 26.9416 20.4874C27.049 20.4874 27.1207 20.5593 27.1207 20.6671C27.0729 21.0745 27.0371 21.4939 27.0132 21.9253C27.0132 21.9971 26.9416 22.069 26.8341 22.069ZM1.54569 20.1639C1.47405 20.1639 1.40243 20.092 1.40243 20.0201C1.37855 19.5887 1.35467 19.1574 1.33079 18.726C1.33079 18.6541 1.40241 18.5823 1.47405 18.5823C1.54569 18.5463 1.61733 18.6182 1.65315 18.726C1.65315 19.1334 1.67703 19.5528 1.72479 19.9842C1.72479 20.056 1.65315 20.1639 1.54569 20.1639ZM27.0132 19.8763C26.9058 19.8404 26.8341 19.7685 26.8699 19.6966C26.8938 19.2652 26.9177 18.8459 26.9416 18.4385C26.9416 18.3306 27.0132 18.2587 27.0848 18.2947C27.1923 18.2947 27.2639 18.3666 27.2639 18.4385C27.2401 18.8698 27.2042 19.2892 27.1565 19.6966C27.1565 19.8044 27.0849 19.8763 27.0132 19.8763ZM1.43824 17.9352C1.3666 17.9352 1.29495 17.8633 1.29495 17.7914C1.27107 17.3601 1.24721 16.9407 1.22333 16.5333C1.22333 16.4255 1.29497 16.3536 1.40243 16.3536C1.47407 16.3536 1.54569 16.4255 1.54569 16.4974C1.56957 16.9287 1.58153 17.3601 1.58153 17.7914C1.58153 17.8633 1.5457 17.9352 1.43824 17.9352ZM27.1207 17.6477C27.049 17.6477 26.9774 17.5758 26.9774 17.4679C27.0013 17.0366 27.0132 16.6172 27.0132 16.2098C27.049 16.1379 27.0849 16.066 27.1923 16.066C27.264 16.066 27.3356 16.1379 27.3356 16.2458C27.3356 16.6531 27.3237 17.0725 27.2998 17.5039C27.2998 17.5758 27.2281 17.6477 27.1207 17.6477ZM1.3666 15.7425C1.29496 15.7425 1.22333 15.6706 1.22333 15.5628C1.19945 15.1793 1.1875 14.8199 1.1875 14.4844V14.3047C1.1875 14.2328 1.25914 14.1609 1.3666 14.1609C1.43824 14.1609 1.50988 14.2328 1.50988 14.3047V14.4844C1.50988 14.8199 1.50988 15.1793 1.50988 15.5628C1.50988 15.6706 1.47405 15.7425 1.3666 15.7425ZM27.1923 15.419C27.1207 15.419 27.049 15.3471 27.049 15.2752C27.049 14.9637 27.049 14.6521 27.049 14.3406V14.0171C27.049 13.9452 27.1207 13.8733 27.2281 13.8733C27.2998 13.8733 27.3714 13.9092 27.3714 14.0171V14.3406C27.3714 14.6521 27.3714 14.9637 27.3714 15.2752C27.3714 15.383 27.2998 15.419 27.1923 15.419ZM1.3666 13.5138C1.29496 13.5138 1.22333 13.4419 1.22333 13.3701C1.22333 12.8428 1.24719 12.4115 1.29495 12.076C1.29495 12.0041 1.36659 11.9322 1.47405 11.9322C1.54569 11.9322 1.61734 12.04 1.61734 12.1119C1.56958 12.4474 1.54569 12.8668 1.54569 13.3701C1.50987 13.4419 1.43824 13.5138 1.3666 13.5138ZM27.1923 13.2263C27.1207 13.2263 27.049 13.1544 27.049 13.0825C27.0252 12.5792 26.9893 12.1599 26.9416 11.8244C26.9416 11.7525 27.0132 11.6446 27.0848 11.6446C27.1565 11.6446 27.2639 11.7165 27.2639 11.7884C27.3117 12.1239 27.3475 12.5433 27.3714 13.0465C27.3714 13.1544 27.2998 13.2263 27.1923 13.2263ZM1.72479 11.393C1.65315 11.393 1.61734 11.3571 1.58153 11.2852C1.54571 11.2133 1.58151 11.1414 1.65315 11.0695C1.91582 10.9257 2.32178 10.7819 2.87101 10.6381C2.94265 10.6381 3.05011 10.6741 3.05011 10.746C3.08593 10.8538 3.01429 10.9257 2.94265 10.9617C2.44118 11.0815 2.05911 11.2133 1.79643 11.3571C1.77255 11.381 1.74867 11.393 1.72479 11.393ZM26.9057 11.1054C26.8341 11.1054 26.7983 11.0695 26.7625 10.9976C26.7267 10.9257 26.5476 10.746 25.7595 10.5662C25.6521 10.5303 25.6163 10.4584 25.6521 10.3506C25.6521 10.2787 25.7595 10.2068 25.8312 10.2427C26.5117 10.4225 26.9058 10.6022 27.049 10.8538C27.0849 10.9257 27.049 11.0336 26.9774 11.0695C26.9535 11.0935 26.9296 11.1054 26.9057 11.1054ZM3.83814 10.746C3.7665 10.746 3.69486 10.71 3.65904 10.6381C3.65904 10.5303 3.69485 10.4584 3.8023 10.4584C4.18438 10.3865 4.60227 10.3146 5.05598 10.2427C5.12762 10.2427 5.19926 10.2787 5.23508 10.3865C5.23508 10.4584 5.16345 10.5303 5.09181 10.5662C4.6381 10.6142 4.23214 10.6741 3.87395 10.746C3.85007 10.746 3.83814 10.746 3.83814 10.746ZM6.0231 10.4225C5.91565 10.4225 5.84401 10.3865 5.84401 10.2787C5.84401 10.2068 5.91566 10.1349 5.98729 10.1349C6.39325 10.087 6.81114 10.039 7.24097 9.99111C7.34843 9.99111 7.42007 10.0271 7.42007 10.1349C7.42007 10.2068 7.34842 10.2787 7.27678 10.3146C6.84695 10.3386 6.42906 10.3745 6.0231 10.4225ZM24.8641 10.3865C24.8641 10.3865 24.8521 10.3745 24.8282 10.3506C24.47 10.3026 24.0641 10.2547 23.6104 10.2068C23.5029 10.2068 23.4313 10.1349 23.4671 10.0271C23.4671 9.95516 23.5387 9.88327 23.6462 9.88327C24.0999 9.9312 24.5178 9.99111 24.8999 10.063C24.9715 10.063 25.0431 10.1349 25.0073 10.2427C25.0073 10.3146 24.9357 10.3865 24.8641 10.3865ZM8.20809 10.2068C8.13646 10.2068 8.06482 10.1708 8.029 10.063C8.029 9.99111 8.10062 9.91922 8.17226 9.88327C8.60209 9.85931 9.03194 9.83534 9.46177 9.81138C9.53341 9.81138 9.60503 9.88327 9.60503 9.95517C9.60503 10.0271 9.56923 10.1349 9.46177 10.1349C9.03194 10.1589 8.61405 10.1828 8.20809 10.2068ZM22.6791 10.099C22.6791 10.099 22.6671 10.099 22.6433 10.099C22.2612 10.075 21.8552 10.051 21.4254 10.0271C21.3179 10.0271 21.2463 9.95516 21.2463 9.84733C21.2821 9.77543 21.3179 9.70354 21.4254 9.70354C21.8552 9.72751 22.2731 9.76345 22.6791 9.81138C22.7865 9.81138 22.8224 9.88327 22.8224 9.95517C22.8224 10.063 22.7507 10.099 22.6791 10.099ZM10.3931 10.063C10.3214 10.063 10.2498 9.99111 10.2498 9.91922C10.2498 9.84733 10.3214 9.73949 10.3931 9.73949C10.799 9.71552 11.2169 9.70354 11.6467 9.70354C11.7542 9.70354 11.8258 9.73949 11.8258 9.84733C11.8258 9.91922 11.7542 9.99111 11.6825 9.99111C11.2527 10.0151 10.8229 10.039 10.3931 10.063ZM20.4583 9.99111C20.0523 9.96715 19.6344 9.95517 19.2046 9.95517C19.133 9.91922 19.0613 9.84733 19.0613 9.77543C19.0613 9.70354 19.133 9.63165 19.2046 9.63165C19.6344 9.63165 20.0643 9.64363 20.4941 9.66759C20.5657 9.66759 20.6374 9.73949 20.6374 9.84733C20.6374 9.91922 20.5657 9.99111 20.4583 9.99111ZM12.6139 9.95517C12.5064 9.95517 12.4348 9.88327 12.4348 9.81138C12.4348 9.73949 12.5064 9.66759 12.6139 9.66759C13.0198 9.64363 13.4377 9.63165 13.8675 9.63165C13.9392 9.63165 14.0108 9.6676 14.0108 9.77543C14.0108 9.84733 13.9392 9.91922 13.8675 9.91922C13.4377 9.94318 13.0198 9.95517 12.6139 9.95517ZM18.2733 9.91922C17.8674 9.91922 17.4495 9.91922 17.0196 9.91922C16.9122 9.91922 16.8405 9.84733 16.8405 9.73949C16.8405 9.6676 16.9122 9.5957 17.0196 9.5957C17.4495 9.5957 17.8674 9.5957 18.2733 9.5957C18.3449 9.5957 18.4166 9.6676 18.4166 9.77543C18.4166 9.84733 18.3449 9.91922 18.2733 9.91922ZM14.7988 9.91922C14.7272 9.91922 14.6556 9.84733 14.6556 9.77543C14.6556 9.6676 14.7272 9.5957 14.7988 9.5957C15.2287 9.5957 15.6466 9.5957 16.0525 9.5957C16.16 9.5957 16.2316 9.6676 16.2316 9.73949C16.2316 9.84733 16.16 9.91922 16.0525 9.91922C15.6466 9.91922 15.2287 9.91922 14.7988 9.91922Z" fill="url(#paint6_linear_1861_116688)"/>
<g style="mix-blend-mode:multiply" opacity="0.5">
<path d="M28.3048 19.373C28.0183 25.0525 27.4094 31.1634 26.8721 31.5229C25.9049 32.2058 2.62241 32.2418 1.61947 31.0556C1.33291 30.6961 0.974717 28.5753 0.652344 25.8074C0.652344 25.8074 1.2971 29.5458 3.01643 30.5883C4.69994 31.6307 23.2901 32.3856 25.7617 30.6242C27.6243 29.2583 28.3048 19.5528 28.3048 19.373Z" fill="#A30085"/>
</g>
<g style="mix-blend-mode:multiply" opacity="0.5">
<path d="M1.54688 11.0336C1.54688 11.0336 2.94383 9.23633 14.3344 9.23633C25.7249 9.27227 27.1577 10.5663 27.1577 10.5663C27.1577 10.5663 23.7907 9.55984 14.3344 9.66768C4.91389 9.77552 1.54688 11.0336 1.54688 11.0336Z" fill="#A30085"/>
</g>
<path d="M0.507812 10.2431C1.68985 9.95551 7.27765 9.48821 14.7639 9.23658C22.2143 9.02091 26.9066 9.95551 27.1574 9.81172C27.4081 9.66794 28.1961 9.05685 28.1961 9.05685C28.1961 9.05685 25.6888 7.47522 14.3341 8.01441C2.97933 8.58955 0.794367 9.91956 0.507812 10.2431Z" fill="#BB4F12"/>
<path d="M4.44727 30.2295C4.44727 30.2295 6.77552 31.3798 14.2259 31.6673C21.7122 31.919 23.0733 31.0563 23.0733 31.0563C23.0733 31.0563 10.1784 31.0203 4.44727 30.2295Z" fill="#BB4F12"/>
<path d="M23.0735 18.5826C23.2526 18.2231 29.8075 17.1807 30.2373 17.5401C30.6314 17.9355 29.6284 24.4418 29.0553 25.1607C28.6255 25.7359 23.5749 25.4842 22.7511 24.8013C21.9273 24.1183 22.6795 19.4453 23.0735 18.5826Z" fill="url(#paint7_linear_1861_116688)"/>
<path d="M26.8358 21.6019C26.8358 22.824 26.0478 23.8305 25.0807 23.8305C24.0777 23.8305 23.2897 22.86 23.2539 21.6378C23.2539 20.4156 24.0419 19.4091 25.009 19.4091C26.012 19.3732 26.8358 20.3797 26.8358 21.6019Z" fill="url(#paint8_radial_1861_116688)"/>
<g style="mix-blend-mode:multiply" opacity="0.5">
<path d="M23.2539 21.8174C23.2539 21.8174 23.7195 23.5787 25.0807 23.5787C26.4418 23.5428 26.8358 21.9252 26.8358 21.9252C26.8358 21.9252 26.8 24.3696 25.0449 24.6931C23.2539 25.0166 23.2539 21.8174 23.2539 21.8174Z" fill="#68004F"/>
</g>
<g style="mix-blend-mode:multiply" opacity="0.8">
<path d="M22.3926 23.0756C22.3926 23.0756 22.2135 24.4415 23.8254 24.9448C25.4373 25.4121 28.1237 25.1245 28.7685 24.6572C29.449 24.1899 29.8072 22.3926 29.8072 22.3926C29.8072 22.3926 29.3416 24.9088 29.055 25.1604C28.8043 25.4121 27.873 25.448 27.873 25.448L27.7655 26.6342C27.7655 26.6342 23.3239 25.7356 22.5359 25.0885C22.3926 24.9807 22.3926 23.0756 22.3926 23.0756Z" fill="#A30085"/>
</g>
<g style="mix-blend-mode:soft-light" opacity="0.5">
<path d="M23.2176 18.5108C22.7878 18.6546 22.752 21.0989 22.752 21.2787C22.752 21.4584 23.0743 19.5892 25.116 19.014C27.5875 18.2951 29.9516 17.7919 30.0949 17.684C30.2382 17.5403 26.1906 17.4324 23.2176 18.5108Z" fill="#FFBAC9"/>
</g>
<g style="mix-blend-mode:multiply" opacity="0.5">
<path d="M23.3246 21.0626C23.3246 21.0626 23.253 19.5169 24.9723 19.0496C26.6558 18.5823 26.7991 21.1704 26.7991 21.1704C26.7991 21.1704 26.6917 19.6247 25.1873 19.445C23.647 19.2653 23.3246 21.0626 23.3246 21.0626Z" fill="#A30085"/>
</g>
<g style="mix-blend-mode:soft-light" opacity="0.5">
<path d="M23.2168 18.5108C23.2168 18.5108 23.7183 18.9062 24.2556 19.0141C24.757 19.1219 27.4435 18.2592 27.6942 18.0795C27.9091 17.8638 25.7241 17.4684 23.2168 18.5108Z" fill="#FFBAC9"/>
</g>
<g style="mix-blend-mode:soft-light">
<path d="M24.0772 19.913C23.4683 20.1647 24.2563 22.1776 25.2234 22.4293C26.2264 22.7168 26.692 21.926 26.7278 21.3868C26.7636 20.8836 26.4055 19.0503 24.0772 19.913Z" fill="white"/>
</g>
<g style="mix-blend-mode:soft-light">
<path d="M25.0433 23.5072C24.7567 23.5072 26.1178 22.3929 26.4402 22.285C26.7984 22.1412 26.2611 23.5072 25.0433 23.5072Z" fill="white"/>
</g>
<path d="M23.6836 18.6541C23.6836 18.3306 24.1851 18.5822 24.2567 18.8338C24.3284 19.0855 23.6836 19.1214 23.6836 18.6541Z" fill="#FFE2CD"/>
<path d="M27.7316 9.09289C27.5883 8.51775 26.657 9.38046 26.8719 9.81181C27.1226 10.2791 27.8748 9.59613 27.7316 9.09289Z" fill="#FFE2CD"/>
<path d="M24.1493 10.6028C23.218 10.5668 24.9015 11.3576 25.5821 11.3576C26.2985 11.3576 27.0507 10.7465 24.1493 10.6028Z" fill="#BB4F12"/>
<path d="M29.0914 17.7912C28.375 18.1507 29.5212 18.4023 29.9511 17.8991C30.3451 17.3958 29.0914 17.7912 29.0914 17.7912Z" fill="#FFE2CD"/>
<path d="M0.686948 10.3513C0.400394 10.5311 0.830225 10.8905 1.22424 10.6748C1.61825 10.4232 1.47497 9.84808 0.686948 10.3513Z" fill="#FFE2CD"/>
<path opacity="0.2" d="M2.26266 11.6451C1.40299 11.8967 0.937337 23.723 7.20571 23.4714C18.6679 22.9681 21.7125 16.354 23.8975 13.4424C26.1183 10.5308 14.4412 8.19425 2.26266 11.6451Z" fill="#FFA26E"/>
<path d="M30.2372 17.54C30.9177 17.54 31.8132 17.6479 31.9565 17.8995C32.1356 18.1871 31.7416 23.8306 31.0252 24.5855C30.6312 25.0168 29.4491 25.2685 28.9118 25.2685C28.8402 25.2685 29.8432 23.9744 30.2372 17.54Z" fill="url(#paint9_linear_1861_116688)"/>
<defs>
<linearGradient id="paint0_linear_1861_116688" x1="1.93524" y1="21.1663" x2="3.44859" y2="-0.958534" gradientUnits="userSpaceOnUse">
<stop stop-color="#7CBF00"/>
<stop offset="1" stop-color="#9AC200"/>
</linearGradient>
<linearGradient id="paint1_linear_1861_116688" x1="-0.431943" y1="22.1833" x2="-0.431943" y2="0.00590613" gradientUnits="userSpaceOnUse">
<stop stop-color="#7CBF00"/>
<stop offset="1" stop-color="#9AC200"/>
</linearGradient>
<linearGradient id="paint2_linear_1861_116688" x1="9.68284" y1="32.1325" x2="9.38776" y2="8.03383" gradientUnits="userSpaceOnUse">
<stop stop-color="#D64000"/>
<stop offset="1" stop-color="#FF9519"/>
</linearGradient>
<linearGradient id="paint3_linear_1861_116688" x1="8.87602" y1="32.1325" x2="8.58094" y2="8.03383" gradientUnits="userSpaceOnUse">
<stop stop-color="#6F1300"/>
<stop offset="1" stop-color="#9F2B19"/>
</linearGradient>
<linearGradient id="paint4_linear_1861_116688" x1="7.86599" y1="32.1325" x2="7.5709" y2="8.03382" gradientUnits="userSpaceOnUse">
<stop stop-color="#D64000"/>
<stop offset="1" stop-color="#FF9519"/>
</linearGradient>
<linearGradient id="paint5_linear_1861_116688" x1="7.19013" y1="32.1291" x2="6.90028" y2="8.46571" gradientUnits="userSpaceOnUse">
<stop stop-color="#DB4D28"/>
<stop offset="1" stop-color="#F67344"/>
</linearGradient>
<linearGradient id="paint6_linear_1861_116688" x1="5.74694" y1="31.0527" x2="5.48449" y2="9.53354" gradientUnits="userSpaceOnUse">
<stop stop-color="#CE3300"/>
<stop offset="1" stop-color="#D66D19"/>
</linearGradient>
<linearGradient id="paint7_linear_1861_116688" x1="23.4489" y1="25.5274" x2="23.3513" y2="17.5459" gradientUnits="userSpaceOnUse">
<stop stop-color="#B72C09"/>
<stop offset="1" stop-color="#BF4C23"/>
</linearGradient>
<radialGradient id="paint8_radial_1861_116688" cx="0" cy="0" r="1" gradientUnits="userSpaceOnUse" gradientTransform="translate(25.3189 20.0806) rotate(-0.700327) scale(4.17612 4.19091)">
<stop stop-color="#FFE3E5"/>
<stop offset="0.514" stop-color="#AC6474"/>
<stop offset="1" stop-color="#CCB5A9"/>
</radialGradient>
<linearGradient id="paint9_linear_1861_116688" x1="20.9353" y1="25.2627" x2="20.9353" y2="17.5505" gradientUnits="userSpaceOnUse">
<stop stop-color="#ED5600"/>
<stop offset="1" stop-color="#FF9519"/>
</linearGradient>
</defs>
</svg>
