<?xml version="1.0" encoding="UTF-8"?>
<!DOCTYPE svg PUBLIC "-//W3C//DTD SVG 1.1//EN" "http://www.w3.org/Graphics/SVG/1.1/DTD/svg11.dtd">
<!-- Creator: CorelDRAW -->
<svg xmlns="http://www.w3.org/2000/svg" xml:space="preserve" width="75px" height="73px" version="1.1" style="shape-rendering:geometricPrecision; text-rendering:geometricPrecision; image-rendering:optimizeQuality; fill-rule:evenodd; clip-rule:evenodd"
viewBox="0 0 2.58 2.52"
 xmlns:xlink="http://www.w3.org/1999/xlink">
 <defs>
  <style type="text/css">
   <![CDATA[
    .fil1 {fill:#2B2B2A}
    .fil0 {fill:white}
   ]]>
  </style>
 </defs>
 <g id="Layer_x0020_1">
  <metadata id="CorelCorpID_0Corel-Layer"/>
  <ellipse class="fil0" cx="1.29" cy="1.26" rx="1.29" ry="1.26"/>
  <path class="fil1" d="M1.11 1.52l0.58 -0.88c0.05,-0.07 0.15,-0.09 0.23,-0.04l0 0c0.07,0.05 0.09,0.15 0.04,0.22l-0.7 1.06c-0.03,0.04 -0.08,0.07 -0.13,0.07l0 0 0 0 0 0 0 0c-0.05,0 -0.09,-0.02 -0.13,-0.06l-0.37 -0.45c-0.05,-0.06 -0.04,-0.16 0.02,-0.22l0 0c0.07,-0.06 0.17,-0.05 0.23,0.02l0.23 0.28z"/>
 </g>
</svg>
