<?xml version="1.0" encoding="UTF-8"?>
<!DOCTYPE svg PUBLIC "-//W3C//DTD SVG 1.1//EN" "http://www.w3.org/Graphics/SVG/1.1/DTD/svg11.dtd">
<!-- Creator: CorelDRAW -->
<svg xmlns="http://www.w3.org/2000/svg" xml:space="preserve" width="88px" height="88px" version="1.1" style="shape-rendering:geometricPrecision; text-rendering:geometricPrecision; image-rendering:optimizeQuality; fill-rule:evenodd; clip-rule:evenodd"
viewBox="0 0 6.38 6.38"
 xmlns:xlink="http://www.w3.org/1999/xlink">
 <defs>
  <style type="text/css">
   <![CDATA[
    .fil0 {fill:#fff}
   ]]>
  </style>
 </defs>
 <g id="Layer_x0020_1">
  <metadata id="CorelCorpID_0Corel-Layer"/>
  <path class="fil0" d="M2.69 6.38l0 -2.27 -0.81 0 0 -0.92 0.81 0c0,-0.66 -0.06,-1.24 0.33,-1.63 0.36,-0.35 0.97,-0.36 1.59,-0.25l0 0.78c-0.34,0.02 -0.66,-0.05 -0.83,0.18 -0.14,0.2 -0.09,0.64 -0.09,0.92l0.88 0 -0.14 0.92 -0.74 0 0 2.27c0.51,0 1.02,0 1.53,0l0.03 0 0.09 0c0.23,0 0.34,-0.01 0.53,-0.11 0.16,-0.08 0.31,-0.23 0.39,-0.38 0.12,-0.22 0.12,-0.33 0.12,-0.65l0 -3.83 0 -0.01 0 -0.49c-0.01,-0.08 -0.02,-0.16 -0.04,-0.23 -0.11,-0.37 -0.45,-0.66 -0.84,-0.68l-0.76 0 -0.02 0 -3.06 0 -0.03 0 -0.75 0c-0.39,0.01 -0.72,0.31 -0.84,0.67 -0.02,0.07 -0.03,0.16 -0.04,0.25l0 0.48 0 0.01 0 3.82c0,0.33 0,0.44 0.12,0.66 0.08,0.15 0.23,0.3 0.38,0.38 0.2,0.1 0.31,0.11 0.58,0.11l0.03 0 0.05 0c0.51,0 1.02,0 1.53,0z"/>
 </g>
</svg>
