<svg width="60" height="51" viewBox="0 0 60 51" fill="none" xmlns="http://www.w3.org/2000/svg">
<path d="M2.97064 19.2598L7.78091 19.3243L1.63086 22.9401L2.97064 19.2598Z" fill="#663091"/>
<path d="M59.9974 23.9057C58.7384 24.8097 57.4632 25.8105 56.1557 26.9081C54.4446 26.9404 49.7474 26.7306 47.9879 26.7467C44.5658 26.779 41.063 26.7951 37.5441 26.779C28.2948 26.7306 18.8195 26.5207 9.82851 26.2624C6.55171 26.5369 3.35562 26.7467 0.240234 26.8597C6.92297 22.5337 14.0577 15.5603 21.3054 8.79688C29.2472 12.9454 37.3181 18.6273 45.0824 23.2116C45.4482 22.5121 45.8195 21.8234 46.1961 21.1454C46.25 21.1562 46.3091 21.167 46.3737 21.1777C46.8472 21.2961 47.3207 21.4145 47.7942 21.5329C50.6674 22.2431 56.4462 23.147 59.2065 23.7282C59.4755 23.782 59.7392 23.8412 59.9974 23.9057Z" fill="url(#paint0_linear_1800_27898)"/>
<path d="M38.1734 49.5399C28.0363 50.8958 17.5925 49.7174 7.81055 46.2146C7.86435 39.0153 7.91816 31.7999 7.97197 24.5683V24.4069C12.637 21.3561 19.0291 16.4166 23.8879 12.7686C29.0694 15.7387 34.3155 19.1769 39.4648 22.373C39.4755 22.6958 39.4809 23.0187 39.4809 23.3415C39.4486 31.7676 38.0766 41.2268 38.1734 49.5399Z" fill="#FFAB32"/>
<path d="M60.0012 23.911C56.4984 23.1685 50.2515 22.2968 46.5389 21.3768C38.5164 15.9854 29.7837 9.10889 21.5352 4.42773C26.3616 5.67066 31.2364 7.4947 36.0628 9.54472C43.2783 14.6294 53.3508 20.263 60.0012 23.911Z" fill="#813AAF"/>
<path d="M37.1923 6.16621C33.1246 3.84178 29.0245 1.6949 24.9407 0C24.8008 2.07693 24.6662 4.15385 24.5371 6.23078C28.4919 7.11859 32.4789 8.31309 36.4175 9.68515C36.6758 8.50141 36.9341 7.32843 37.1923 6.16621Z" fill="#663091"/>
<g style="mix-blend-mode:multiply" opacity="0.5">
<path d="M16.0755 48.5396C14.9132 47.1837 13.7672 45.8116 12.6211 44.4718C12.6372 44.6333 15.4298 26.1185 22.4838 24.359C30.0059 22.8417 31.8461 32.1878 31.8461 32.1717C32.3626 38.1926 33.202 44.0037 33.7347 49.9762C27.9397 50.2184 21.7897 49.8471 16.0755 48.5396Z" fill="#D42F55"/>
</g>
<path d="M15.3826 44.4697C15.1243 40.8539 15.5601 33.3318 15.5601 33.3318C15.5601 33.3318 15.5763 25.6805 22.4527 24.147C29.8134 22.5974 31.9119 31.9436 31.8957 31.9275C32.3692 36.5656 32.8481 41.1929 33.3323 45.8095C27.2953 46.0678 21.2582 45.6319 15.3826 44.4697Z" fill="url(#paint1_linear_1800_27898)"/>
<path d="M30.5729 45.455C24.5358 45.7133 18.4988 45.2775 12.6231 44.1152C12.5424 42.9207 12.5263 41.2743 12.5586 39.6278C12.607 36.3348 12.8168 32.9773 12.8168 32.9773C12.8168 32.9773 12.8168 25.326 19.6933 23.7926C27.054 22.2429 29.1524 31.5891 29.1363 31.573C29.4483 34.5538 29.755 37.5347 30.0564 40.5156C30.2285 42.1621 30.4007 43.8085 30.5729 45.455Z" fill="#CD8AF9"/>
<path d="M27.8161 42.9182C27.8054 42.9182 27.8 42.9182 27.8 42.9182C25.1366 42.9344 22.4732 42.8214 19.842 42.5793C19.3793 42.5362 18.9166 42.4932 18.4538 42.4501C18.4431 42.4501 18.4377 42.4501 18.4377 42.4501C18.061 42.4071 17.6844 42.364 17.3078 42.321C16.5222 42.2241 15.742 42.1219 14.9672 42.0143C14.8542 39.1733 15.0802 34.2177 15.0802 34.2177C15.0802 34.2177 14.9995 27.874 20.1003 26.9539C21.2464 26.744 22.231 26.9054 23.0865 27.2929C23.6677 27.5511 24.1681 27.9062 24.62 28.3259C24.7384 28.4335 24.846 28.5465 24.9429 28.6649C25.2334 28.9716 25.4917 29.2944 25.7177 29.6173C26.6378 30.9894 27.0252 32.3776 27.1059 32.6358C27.1059 32.6681 27.1059 32.6843 27.1059 32.6843C27.3426 36.0956 27.5794 39.5069 27.8161 42.9182Z" fill="#813AAF"/>
<path d="M27.7974 42.9232C25.134 42.9394 22.4706 42.8264 19.8395 42.5843C19.3767 42.5412 18.914 42.4982 18.4513 42.4551C18.4405 42.4551 18.4351 42.4551 18.4351 42.4551C18.0585 42.4121 17.6818 42.369 17.3052 42.326V40.5342C17.2944 38.6295 17.2891 36.7247 17.2891 34.82C17.3052 34.82 17.8379 28.8798 23.084 27.2979C23.6651 27.5561 24.1655 27.9112 24.6175 28.3309C24.7358 28.4385 24.8435 28.5515 24.9403 28.6699C25.2309 28.9766 25.4891 29.2994 25.699 29.6223C26.6352 30.9944 27.0226 32.3826 27.1033 32.6408C27.2432 34.8469 27.3939 37.053 27.5553 39.259C27.6306 40.4858 27.7113 41.7072 27.7974 42.9232Z" fill="#600C3A"/>
<path d="M52.315 26.8262C48.5378 25.8899 39.111 22.1611 39.111 22.1611L37.6582 49.6508C37.6582 49.6508 48.8284 48.3918 52.4119 47.1973C52.3796 40.4176 52.3473 33.6273 52.315 26.8262Z" fill="url(#paint2_linear_1800_27898)"/>
<g style="mix-blend-mode:multiply" opacity="0.5">
<path d="M39.4816 23.3415L39.0619 24.423C39.0619 24.423 27.585 11.0252 7.97266 24.5683V24.4069C12.6377 21.3561 19.0298 16.4166 23.8885 12.7686C29.0701 15.7387 34.3162 19.1769 39.4655 22.373C39.4762 22.6958 39.4816 23.0187 39.4816 23.3415Z" fill="#D42F55"/>
</g>
<path d="M27.793 42.9191C25.1296 42.9352 22.4662 42.8222 19.8351 42.5801C19.3723 42.5371 18.9096 42.494 18.4469 42.451C18.4361 42.451 18.4307 42.451 18.4307 42.451C18.0541 42.4079 17.6774 42.3649 17.3008 42.3218V40.5301C19.6898 39.6423 23.1119 38.9159 27.5509 39.2549C27.6262 40.4817 27.7069 41.7031 27.793 42.9191Z" fill="#662063"/>
<g style="mix-blend-mode:multiply" opacity="0.5">
<path d="M39.6445 41.0131C41.9044 48.4706 51.6218 47.2438 51.9931 46.1946C52.3643 45.1615 52.0576 27.5346 51.073 26.7436C50.0883 25.9688 46.8277 24.9841 46.8277 24.9841L46.3757 25.6944L43.7446 24.7743L40.2579 22.6436L39.6445 41.0131Z" fill="#D42F55"/>
</g>
<g style="mix-blend-mode:multiply" opacity="0.3">
<path d="M8.27821 41.4717C7.95537 46.6048 9.31129 46.7501 9.31129 46.7501L13.2015 47.9123C13.2015 47.9123 11.4904 44.6516 10.3605 43.328C9.23058 42.0044 8.27821 41.4717 8.27821 41.4717Z" fill="#D42F55"/>
</g>
<g style="mix-blend-mode:multiply" opacity="0.5">
<path d="M41.9825 13.4633C32.2005 9.05651 27.358 8.00729 26.8737 7.5876C26.3088 7.0872 25.3887 6.37695 25.3887 6.37695L36.0584 9.54077L41.9825 13.4633Z" fill="#79157C"/>
</g>
<path d="M16.8203 24.8897C17.9664 27.3594 18.5798 24.0664 18.2569 24.2117C17.918 24.3409 16.8203 24.8897 16.8203 24.8897Z" fill="white"/>
<path style="mix-blend-mode:multiply" opacity="0.69" d="M30.5729 45.4552C24.5358 45.7134 18.4988 45.2776 12.6231 44.1154C12.5424 42.9209 12.5263 41.2744 12.5586 39.6279C14.1082 40.6933 15.7062 41.4035 17.3043 41.8555C20.9685 42.8725 24.6165 42.4528 27.6996 41.4358C28.5229 41.1776 29.3138 40.8547 30.0564 40.5157C30.2285 42.1622 30.4007 43.8087 30.5729 45.4552Z" fill="url(#paint3_linear_1800_27898)"/>
<path d="M0.242013 26.865C7.05388 23.0555 14.3339 16.8247 21.7268 10.8199C29.9915 15.9531 43.5022 25.1378 43.5022 25.1378L46.1979 21.1508C46.1979 21.1508 29.7816 9.10889 21.5331 4.42773C14.1402 11.3849 6.86018 18.794 0.0644531 23.7012C0.118259 24.7558 0.177446 25.8104 0.242013 26.865Z" fill="#CD8AF9"/>
<path d="M18.0605 2.05002C18.2758 4.88024 18.491 7.7266 18.7062 10.5891C20.5679 10.4169 22.435 10.2932 24.3075 10.2178C24.5119 6.81727 24.7218 3.41133 24.937 0C22.6287 0.564967 20.3366 1.25907 18.0605 2.05002Z" fill="#CD8AF9"/>
<path d="M24.9402 0C24.6066 4.06776 24.2731 8.13553 23.9395 12.2033C24.1116 12.4078 24.2892 12.6122 24.4721 12.8167C25.0371 8.91034 25.6021 4.97171 26.167 1.04923C25.7581 0.694103 25.3492 0.344361 24.9402 0Z" fill="#663091"/>
<path d="M0 21.3744C0.08609 23.193 0.166799 25.0224 0.242128 26.8626C1.27521 26.2815 2.31905 25.652 3.37365 24.974C3.23376 23.0477 3.09924 21.143 2.9701 19.2598C1.96931 20.0023 0.979274 20.7072 0 21.3744Z" fill="#CD8AF9"/>
<path d="M43.7425 16.8555L40.2559 22.6504C40.2559 22.6504 43.7425 24.878 43.7425 24.7812C43.7425 24.6682 47.778 19.0508 47.778 19.0508L43.7425 16.8555Z" fill="#CD8AF9"/>
<path d="M21.7578 1.05293C23.2429 3.55492 24.8732 1.32734 24.7602 0.487959C24.6472 -0.367563 21.7578 1.05293 21.7578 1.05293Z" fill="#E0B8FF"/>
<path d="M42.2282 19.3189C34.0281 12.1842 26.1348 7.16406 26.1348 7.16406L42.6479 18.2697L42.2282 19.3189Z" fill="#E0B8FF"/>
<path d="M49.2642 19.9357L47.7791 19.0479L43.4531 25.2948L46.2295 25.7306L49.6193 20.1455L49.2642 19.9357Z" fill="url(#paint4_linear_1800_27898)"/>
<defs>
<linearGradient id="paint0_linear_1800_27898" x1="22.0836" y1="37.9355" x2="28.0826" y2="4.88634" gradientUnits="userSpaceOnUse">
<stop stop-color="#D85126"/>
<stop offset="0.992" stop-color="#663091"/>
</linearGradient>
<linearGradient id="paint1_linear_1800_27898" x1="34.4728" y1="9.92407" x2="39.7096" y2="33.2678" gradientUnits="userSpaceOnUse">
<stop stop-color="#D85126"/>
<stop offset="0.992" stop-color="#663091"/>
</linearGradient>
<linearGradient id="paint2_linear_1800_27898" x1="78.8376" y1="38.9439" x2="55.4219" y2="69.4968" gradientUnits="userSpaceOnUse">
<stop stop-color="#A72D1C"/>
<stop offset="0.388" stop-color="#D85126"/>
<stop offset="1" stop-color="#EC7532"/>
</linearGradient>
<linearGradient id="paint3_linear_1800_27898" x1="20.4497" y1="32.0327" x2="25.0558" y2="48.9373" gradientUnits="userSpaceOnUse">
<stop stop-color="white"/>
<stop offset="1" stop-color="#760094"/>
</linearGradient>
<linearGradient id="paint4_linear_1800_27898" x1="40.9061" y1="31.6876" x2="42.7894" y2="19.8404" gradientUnits="userSpaceOnUse">
<stop stop-color="#D85126"/>
<stop offset="0.992" stop-color="#663091"/>
</linearGradient>
</defs>
</svg>
