<?xml version="1.0" encoding="UTF-8"?>
<!DOCTYPE svg PUBLIC "-//W3C//DTD SVG 1.1//EN" "http://www.w3.org/Graphics/SVG/1.1/DTD/svg11.dtd">
<!-- Creator: CorelDRAW -->
<svg xmlns="http://www.w3.org/2000/svg" xml:space="preserve" width="302px" height="282px" version="1.1" style="shape-rendering:geometricPrecision; text-rendering:geometricPrecision; image-rendering:optimizeQuality; fill-rule:evenodd; clip-rule:evenodd"
viewBox="0 0 78.57 73.32"
 xmlns:xlink="http://www.w3.org/1999/xlink">
 <defs>
  <style type="text/css">
   <![CDATA[
    .fil0 {fill:white}
   ]]>
  </style>
 </defs>
 <g id="Layer_x0020_1">
  <metadata id="CorelCorpID_0Corel-Layer"/>
  <path class="fil0" d="M22.3 41.39c-0.46,0.32 -1.55,0.64 -2.15,0.9 -7.47,3.3 -13.81,9.25 -17.33,16.65 -0.53,1.13 -3.43,8.08 -2.7,9.28 1,1.66 2.71,1.17 4.91,1.17l37.14 0.01c1.78,0 4.49,0.16 6.16,-0.04 0.27,-4.2 -0.28,-10.99 0.04,-14.73 0.17,-1.94 1.76,-3.49 3.68,-3.64 2.26,-0.18 5.12,0 7.45,-0.02 -0.22,-0.66 -2.4,-2.6 -2.92,-3.04 -1.09,-0.93 -2.13,-1.75 -3.37,-2.59 -1.84,-1.24 -3.64,-2.19 -5.72,-3.08 -0.6,-0.26 -1.71,-0.57 -2.15,-0.87 0.63,-0.72 5.46,-2.7 8.77,-9.78 6.77,-14.44 -4.04,-31.56 -20.19,-31.61 -15.48,-0.05 -27.23,15.82 -20.44,31.53 2.86,6.61 8.36,9.33 8.82,9.86zm39.54 7.45c-0.27,0.42 -0.18,0.96 -0.17,1.77 0,0.65 0.01,1.3 0.01,1.96 -0.01,1.26 0.05,2.63 -0.01,3.88 -0.84,0.15 -5.17,0 -6.68,0.03 -0.39,0.01 -0.65,-0.04 -0.86,0.15 -1.24,-0.01 -1.97,1.28 -1.98,2.66 -0.04,4.39 0.51,4.48 4.9,4.44 1.49,-0.01 3.21,-0.06 4.68,0.01 0.36,7.07 -1.39,9.57 3.57,9.58 5.18,0.01 3.23,-2.53 3.67,-9.58 1.51,-0.04 3.07,-0.01 4.59,-0.01 1.5,0 3.09,0.25 4.11,-0.55 1.07,-0.85 0.89,-2.11 0.88,-3.78 0,-0.8 -0.04,-1.27 -0.44,-1.83 -0.23,-0.33 -0.84,-0.97 -1.41,-0.88 -0.23,-0.42 -1.36,-0.24 -1.84,-0.23l-5.83 0c-0.08,-1.28 -0.02,-2.81 -0.02,-4.11 0,-0.62 0.08,-2.98 -0.07,-3.53 -0.14,-0.52 -0.09,-0.24 -0.22,-0.36 -0.1,-0.58 -0.69,-1.09 -1.24,-1.32 -0.71,-0.29 -3.7,-0.39 -4.6,0.18 -0.45,0.28 -0.97,0.81 -1.04,1.52z"/>
 </g>
</svg>
