<?xml version="1.0" encoding="UTF-8"?>
<!DOCTYPE svg PUBLIC "-//W3C//DTD SVG 1.1//EN" "http://www.w3.org/Graphics/SVG/1.1/DTD/svg11.dtd">
<!-- Creator: CorelDRAW -->
<svg xmlns="http://www.w3.org/2000/svg" xml:space="preserve" width="172px" height="145px" version="1.1" style="shape-rendering:geometricPrecision; text-rendering:geometricPrecision; image-rendering:optimizeQuality; fill-rule:evenodd; clip-rule:evenodd"
viewBox="0 0 16.23 13.66"
 xmlns:xlink="http://www.w3.org/1999/xlink">
 <defs>
  <style type="text/css">
   <![CDATA[
    .fil0 {fill:#fff}
   ]]>
  </style>
 </defs>
 <g id="Layer_x0020_1">
  <metadata id="CorelCorpID_0Corel-Layer"/>
  <path class="fil0" d="M5.91 12.8c-0.03,-0.5 -0.33,-1.53 -0.45,-2.07 -0.16,-0.68 -0.31,-1.35 -0.46,-2.03 -0.27,-1.21 -0.36,-1 0.57,-1.58 0.53,-0.33 1.02,-0.64 1.54,-0.95l5.4 -3.35c0.23,-0.14 0.56,-0.44 0.85,-0.39 0.14,0.38 -0.48,0.66 -0.98,1.15 -0.62,0.61 -2.18,1.92 -2.96,2.62 -0.22,0.2 -0.37,0.33 -0.59,0.53 -0.39,0.35 -0.77,0.69 -1.18,1.04 -1.61,1.39 -1.29,0.79 -1.44,3.02 -0.05,0.7 -0.1,1.4 -0.15,2.09 0.58,0.03 0.86,-0.44 1.38,-0.98l1.17 -1.18 3.71 2.7c0.18,0.14 0.38,0.28 0.71,0.24 0.57,-0.08 0.65,-0.55 0.76,-1.09l2.24 -10.73c0.09,-0.45 0.34,-1.14 0.09,-1.5 -0.33,-0.5 -0.8,-0.36 -1.33,-0.15 -0.9,0.36 -1.77,0.68 -2.66,1.05 -3.41,1.4 -7.18,2.74 -10.63,4.14 -0.74,0.3 -1.78,0.45 -1.43,1.2 0.11,0.23 0.28,0.26 0.59,0.35 0.95,0.28 1.91,0.56 2.86,0.84 0.83,0.24 0.62,0.1 0.89,0.94 0.15,0.48 0.29,0.95 0.44,1.42 0.15,0.47 0.3,0.93 0.44,1.4 0.14,0.44 0.24,1.12 0.62,1.27z"/>
 </g>
</svg>
