<?xml version="1.0" encoding="UTF-8"?>
<!DOCTYPE svg PUBLIC "-//W3C//DTD SVG 1.1//EN" "http://www.w3.org/Graphics/SVG/1.1/DTD/svg11.dtd">
<!-- Creator: CorelDRAW -->
<svg xmlns="http://www.w3.org/2000/svg" xml:space="preserve" width="40px" height="40px" version="1.1" style="shape-rendering:geometricPrecision; text-rendering:geometricPrecision; image-rendering:optimizeQuality; fill-rule:evenodd; clip-rule:evenodd"
viewBox="0 0 0.68 0.67"
 xmlns:xlink="http://www.w3.org/1999/xlink">
 <defs>
  <style type="text/css">
   <![CDATA[
    .fil0 {fill:#fff}
   ]]>
  </style>
 </defs>
 <g id="Layer_x0020_1">
  <metadata id="CorelCorpID_0Corel-Layer"/>
  <path class="fil0" d="M0.25 0.46l0.29 -0.43c0.02,-0.03 0.07,-0.04 0.1,-0.02l0 0c0.04,0.03 0.05,0.07 0.03,0.11l-0.35 0.52c-0.01,0.02 -0.03,0.03 -0.06,0.03l0 0 0 0 0 0 0 0c-0.02,0 -0.05,-0.01 -0.06,-0.03l-0.18 -0.22c-0.03,-0.03 -0.02,-0.08 0.01,-0.1l0 0c0.03,-0.03 0.08,-0.03 0.11,0.01l0.11 0.13z"/>
 </g>
</svg>
