<!DOCTYPE svg PUBLIC "-//W3C//DTD SVG 1.1//EN" "http://www.w3.org/Graphics/SVG/1.1/DTD/svg11.dtd">
<!-- Uploaded to: SVG Repo, www.svgrepo.com, Transformed by: SVG Repo Mixer Tools -->
<svg height="64px" width="64px" version="1.1" id="_x32_" xmlns="http://www.w3.org/2000/svg" xmlns:xlink="http://www.w3.org/1999/xlink" viewBox="-51.2 -51.2 614.40 614.40" xml:space="preserve" fill="#fff" stroke="#fff">
<g id="SVGRepo_bgCarrier" stroke-width="0">
<path transform="translate(-51.2, -51.2), scale(19.2)" d="M16,28.428403853274446C18.233689776714524,27.913108200209873,19.8466995295242,26.18832389506332,21.922269117044976,25.215230623056435C24.421980697577236,24.043286046686365,27.66328697277477,24.255290688381713,29.428612334988436,22.13264176746815C31.296946241869513,19.886134105914863,31.685435829785813,16.692128236221187,31.431433152858347,13.781294867384556C31.1692518136085,10.776735229642386,30.108151513352343,7.75724045545443,27.98709972258793,5.613118963491978C25.92204737530703,3.525605995109074,22.86916083569841,3.0257724745862244,20.034353347747057,2.260254286407717C17.26030120590386,1.5111426170748639,14.399986629342894,0.35285543979402334,11.65515013809808,1.20280027043089C8.922836111218121,2.0488674916408587,7.052299250896457,4.477239709581796,5.380246858657609,6.797931520637128C3.8219865515831906,8.96068787379068,3.030103077515546,11.454268761956186,2.4024066874259002,14.044961231080636C1.713791559531836,16.88708371916048,0.48847271953401217,19.874071715215045,1.552022156886025,22.59817039659976C2.6286983211530304,25.355890927824436,5.270682214906156,27.315457345568163,8.016032294913387,28.423296245969805C10.535008953794309,29.4397860380129,13.353179224973164,29.03900576139548,16,28.428403853274446" fill="#7ed0ec" strokewidth="0"/>
</g>
<g id="SVGRepo_tracerCarrier" stroke-linecap="round" stroke-linejoin="round"/>
<g id="SVGRepo_iconCarrier"> <style type="text/css"> .st0{fill:#000000;} </style> <g> <path class="st0" d="M256,0C114.615,0,0,114.615,0,256s114.615,256,256,256s256-114.615,256-256S397.385,0,256,0z M260.926,217.391 c0.084,0.004,0.164,0.021,0.25,0.025c-0.875-3.752-1.328-7.664-1.328-11.682c0-28.307,22.951-51.258,51.262-51.258 c14.742,0,28.063,6.225,37.414,16.188c9.6-1.89,18.684-5.174,27.129-9.523c1.781-0.864,3.566-1.723,5.32-2.674 c-3.039,9.334-8.744,17.412-16.141,23.532c-2.004,1.576-4.062,3.098-6.326,4.344c0.154-0.018,0.304-0.052,0.457-0.071 c-0.15,0.093-0.275,0.22-0.428,0.312c8.402-1.005,16.459-3.051,24.111-5.942c1.715-0.592,3.428-1.191,5.127-1.852 c-6.842,10.159-15.453,19.095-25.375,26.259c0.098,2.197,0.148,4.406,0.148,6.631c0,67.736-51.558,145.842-145.844,145.842 c-28.947,0-55.891-8.484-78.576-23.028c4.01,0.473,8.092,0.715,12.229,0.715c19.136,0,37.014-5.269,52.383-14.34 c3.871-2.23,7.658-4.639,11.273-7.365c-0.098-0.002-0.187-0.026-0.285-0.028c0.094-0.073,0.196-0.136,0.289-0.209 c-19.422-0.358-36.184-11.539-44.574-27.747c-1.25-2.489-2.32-5.096-3.164-7.831c3.086,0.58,6.246,0.898,9.5,0.898 c3.391,0,6.666-0.436,9.871-1.063c1.197-0.168,2.406-0.308,3.586-0.502c-0.156-0.032-0.293-0.1-0.449-0.133 c0.162-0.042,0.336-0.056,0.496-0.1c-23.449-4.709-41.119-25.428-41.119-50.262c0-0.196,0.002-0.387,0.004-0.58l0.024-0.055 c5.521,3.064,11.693,5.092,18.23,5.94c1.609,0.269,3.221,0.516,4.832,0.657c-0.11-0.074-0.205-0.164-0.314-0.238 c0.152,0.006,0.297,0.036,0.447,0.041c-13.754-9.191-22.803-24.883-22.803-42.666c0-8.142,1.988-15.787,5.367-22.623 c0.539-1.028,1.018-2.078,1.637-3.074c22.711,27.822,55.516,46.971,92.801,52.15c4.16,0.605,8.332,1.144,12.553,1.388 C260.934,217.443,260.932,217.416,260.926,217.391z"/> </g> </g>
</svg>