<?xml version="1.0" encoding="UTF-8"?>
<!DOCTYPE svg PUBLIC "-//W3C//DTD SVG 1.1//EN" "http://www.w3.org/Graphics/SVG/1.1/DTD/svg11.dtd">
<!-- Creator: CorelDRAW -->
<svg xmlns="http://www.w3.org/2000/svg" xml:space="preserve" width="80px" height="82px" version="1.1" style="shape-rendering:geometricPrecision; text-rendering:geometricPrecision; image-rendering:optimizeQuality; fill-rule:evenodd; clip-rule:evenodd"
viewBox="0 0 3.27 3.35"
 xmlns:xlink="http://www.w3.org/1999/xlink">
 <defs>
  <style type="text/css">
   <![CDATA[
    .fil0 {fill:#fff}
   ]]>
  </style>
 </defs>
 <g id="Layer_x0020_1">
  <metadata id="CorelCorpID_0Corel-Layer"/>
  <path class="fil0" d="M2.43 3.14c0.15,0 0.29,0 0.44,0l-0.12 -0.19c-0.05,-0.06 -0.09,-0.12 -0.13,-0.18 -0.08,-0.12 -0.17,-0.24 -0.26,-0.36l-1.01 -1.46c-0.09,-0.12 -0.17,-0.25 -0.26,-0.37 -0.04,-0.06 -0.08,-0.12 -0.13,-0.18l-0.12 -0.18c-0.12,0 -0.33,-0.01 -0.45,0 0.01,0.02 0.11,0.15 0.13,0.18 0.08,0.12 0.17,0.25 0.25,0.37 0.05,0.06 0.09,0.12 0.13,0.18 0.13,0.18 0.26,0.37 0.38,0.55 0.04,0.06 0.09,0.12 0.13,0.18 0.08,0.11 0.18,0.25 0.26,0.36 0.08,0.13 0.17,0.25 0.25,0.37l0.51 0.73zm-2.43 0.2c0.08,0.02 0.17,0.01 0.25,0.01 0.05,0 0.04,0 0.06,-0.03l0.19 -0.23c0.02,-0.01 0.03,-0.02 0.04,-0.04 0.09,-0.1 0.18,-0.22 0.27,-0.32l0.12 -0.13c0.07,-0.09 0.16,-0.19 0.24,-0.28l0.07 -0.09c0.03,-0.03 0.06,-0.06 0.08,-0.09 0.02,-0.01 0.07,-0.08 0.08,-0.09 0.02,0.02 0.05,0.06 0.06,0.08l0.81 1.18c0.01,0.01 0.02,0.03 0.03,0.04 0.02,0 0.62,0 0.73,0 0.07,0 0.16,0 0.24,-0.01 -0.01,-0.01 -0.28,-0.41 -0.33,-0.47 -0.28,-0.41 -0.55,-0.81 -0.83,-1.21l-0.12 -0.18c-0.01,-0.02 -0.03,-0.04 -0.04,-0.06 0.01,-0.02 0.06,-0.08 0.07,-0.09l0.11 -0.13c0.07,-0.07 0.13,-0.15 0.19,-0.22l0.12 -0.14c0.04,-0.05 0.14,-0.16 0.19,-0.22 0,-0.01 0.01,-0.01 0.02,-0.02 0,-0.01 0.01,-0.01 0.02,-0.02 0.09,-0.1 0.17,-0.21 0.26,-0.31 0.01,-0.02 0.03,-0.03 0.04,-0.04l0.11 -0.14c0.02,-0.01 0.03,-0.03 0.04,-0.04 0.01,-0.01 0.03,-0.04 0.04,-0.05l-0.29 0c-0.01,0.03 -0.04,0.05 -0.06,0.08 -0.06,0.07 -0.14,0.15 -0.2,0.23 -0.01,0.01 -0.02,0.02 -0.03,0.03l-0.1 0.12c-0.07,0.08 -0.13,0.15 -0.2,0.23l-0.2 0.23c-0.01,0.02 -0.24,0.29 -0.26,0.3 -0.02,0 -0.1,-0.13 -0.11,-0.15 -0.03,-0.05 -0.07,-0.1 -0.11,-0.15l-0.52 -0.76c-0.02,-0.03 -0.04,-0.06 -0.05,-0.08 -0.02,-0.02 -0.04,-0.05 -0.06,-0.08l-0.97 0c0.01,0.03 0.06,0.08 0.07,0.11 0.03,0.04 0.05,0.07 0.08,0.11 0.05,0.07 0.1,0.14 0.15,0.22l0.45 0.65c0.05,0.07 0.1,0.15 0.15,0.22 0.03,0.04 0.37,0.53 0.37,0.55 0,0.01 -0.03,0.04 -0.04,0.05 -0.08,0.1 -0.17,0.19 -0.25,0.29 -0.1,0.12 -0.2,0.23 -0.3,0.35 -0.03,0.04 -0.06,0.07 -0.08,0.1 -0.05,0.07 -0.12,0.13 -0.17,0.2 -0.02,0.02 -0.03,0.03 -0.05,0.05 -0.05,0.07 -0.37,0.42 -0.38,0.44z"/>
 </g>
</svg>
