<?xml version="1.0" encoding="UTF-8"?>
<!DOCTYPE svg PUBLIC "-//W3C//DTD SVG 1.1//EN" "http://www.w3.org/Graphics/SVG/1.1/DTD/svg11.dtd">
<!-- Creator: CorelDRAW -->
<svg xmlns="http://www.w3.org/2000/svg" xml:space="preserve" width="114px" height="80px" version="1.1" style="shape-rendering:geometricPrecision; text-rendering:geometricPrecision; image-rendering:optimizeQuality; fill-rule:evenodd; clip-rule:evenodd"
viewBox="0 0 6.04 4.22"
 xmlns:xlink="http://www.w3.org/1999/xlink">
 <defs>
  <style type="text/css">
   <![CDATA[
    .fil0 {fill:#fff}
   ]]>
  </style>
 </defs>
 <g id="Layer_x0020_1">
  <metadata id="CorelCorpID_0Corel-Layer"/>
  <path class="fil0" d="M2.49 0c-0.64,0 -1.9,-0.05 -2.22,0.37 -0.33,0.42 -0.28,1.69 -0.25,2.3 0.05,0.98 0.08,1.4 1.07,1.48 0.83,0.07 1.65,0.07 2.48,0.06 0.63,0 1.88,0.05 2.2,-0.36 0.33,-0.43 0.28,-1.7 0.25,-2.31 -0.05,-0.97 -0.08,-1.4 -1.07,-1.48 -0.82,-0.07 -1.63,-0.06 -2.46,-0.06zm-0.07 3l1.56 -0.9 -1.56 -0.88 0 1.78z"/>
 </g>
</svg>
